<?xml version="1.0" encoding="utf-8"?>
<!-- Generator: Adobe Illustrator 27.0.0, SVG Export Plug-In . SVG Version: 6.00 Build 0)  -->
<svg version="1.1" id="Layer_1" xmlns="http://www.w3.org/2000/svg" xmlns:xlink="http://www.w3.org/1999/xlink" x="0px" y="0px"
	 viewBox="0 0 500 500" style="enable-background:new 0 0 500 500;" xml:space="preserve">
<style type="text/css">
	.st0{fill:#EBEBEB;}
	.st1{display:none;}
	.st2{display:inline;}
	.st3{fill:#FFFFFF;}
	.st4{fill:#263238;}
	.st5{fill:#27DEBF;}
	.st6{opacity:0.6;}
	.st7{fill:#E0E0E0;}
	.st8{fill:#455A64;}
	.st9{opacity:0.3;}
	.st10{fill:#FFBE9D;}
	.st11{fill:#EB996E;}
</style>
<g id="Background_Complete">
	<g>
		<rect x="143.9" y="67.8" class="st0" width="220.7" height="220.7"/>
	</g>
</g>
<g id="Background_Simple" class="st1">
	<g class="st2">
		<path class="st0" d="M396.2,104.2l-2.1-3.4c-17.4-28.7-48.9-46-82.1-43.9c-4.3,0.3-8.5,0.8-12.7,1.7
			c-30.2,6.5-56.4,29.3-67.3,58.5c-6.4,17.2-8.2,37-20.3,50.6c-15.8,17.8-42.6,18.3-66.2,17.6c-23.6-0.7-50.4-0.1-66.2,17.7
			c-9.9,11.2-13,27-12.2,42c2.1,39.6,29.7,75,64.8,92.6s76.4,19.2,114.8,11.4c53.8-10.8,104.9-40.6,135.7-86.6
			C413,216.4,420.7,153.8,396.2,104.2z"/>
	</g>
	<g class="st2">
		<circle class="st0" cx="113.1" cy="107.7" r="41.8"/>
	</g>
	<g class="st2">
		<ellipse class="st0" cx="347.2" cy="365.3" rx="41.8" ry="41.8"/>
	</g>
</g>
<g id="Calendar">
	<g>
		<g>
			<g>
				<rect x="131.4" y="54.8" class="st3" width="220.7" height="220.7"/>
			</g>
			<g>
				<g>
					<path class="st4" d="M352.1,275.6c0-1.9-0.1-88.4-0.2-220.7l0.2,0.2c-64.2,0-139.9,0-220.7,0h0l0.3-0.3c0,80.8,0,156.6,0,220.7
						l-0.2-0.2C263.7,275.5,350.2,275.6,352.1,275.6c-1.9,0-88.4,0.1-220.7,0.2h-0.2v-0.2c0-64.2,0-139.9,0-220.7v-0.3h0.3h0
						c80.8,0,156.6,0,220.7,0h0.2v0.2C352.2,187.2,352.1,273.6,352.1,275.6z"/>
				</g>
			</g>
		</g>
		<g>
			<g>
				<path class="st5" d="M323.4,157.9h-79.6c-5.1,0-9.3-4.2-9.3-9.3l0,0c0-5.1,4.2-9.3,9.3-9.3h79.6c5.1,0,9.3,4.2,9.3,9.3l0,0
					C332.8,153.7,328.6,157.9,323.4,157.9z"/>
			</g>
			<g class="st6">
				<path class="st3" d="M323.4,157.9h-79.6c-5.1,0-9.3-4.2-9.3-9.3l0,0c0-5.1,4.2-9.3,9.3-9.3h79.6c5.1,0,9.3,4.2,9.3,9.3l0,0
					C332.8,153.7,328.6,157.9,323.4,157.9z"/>
			</g>
		</g>
		<g>
			<g>
				<path class="st5" d="M289.1,183.8H155.2c-5.1,0-9.3-4.2-9.3-9.3l0,0c0-5.1,4.2-9.3,9.3-9.3h133.9c5.1,0,9.3,4.2,9.3,9.3l0,0
					C298.4,179.7,294.2,183.8,289.1,183.8z"/>
			</g>
			<g class="st6">
				<path class="st3" d="M289.1,183.8H155.2c-5.1,0-9.3-4.2-9.3-9.3l0,0c0-5.1,4.2-9.3,9.3-9.3h133.9c5.1,0,9.3,4.2,9.3,9.3l0,0
					C298.4,179.7,294.2,183.8,289.1,183.8z"/>
			</g>
		</g>
		<g>
			<ellipse class="st5" cx="241.3" cy="148.6" rx="9.5" ry="9.5"/>
		</g>
		<g>
			<ellipse class="st5" cx="295" cy="174.5" rx="9.5" ry="9.5"/>
		</g>
		<g>
			<path class="st4" d="M154,86.2c-0.1,0-0.2,0-0.3-0.1l-2.7-2.4c-0.1-0.1-0.2-0.2-0.2-0.3s0-0.3,0.1-0.4l2.7-2.9
				c0.2-0.2,0.5-0.2,0.7,0c0.2,0.2,0.2,0.5,0,0.7l-2.3,2.5l2.3,2c0.2,0.2,0.2,0.5,0,0.7C154.3,86.1,154.1,86.2,154,86.2z"/>
		</g>
		<g>
			<path class="st4" d="M331,86.2c-0.1,0-0.2,0-0.3-0.1c-0.2-0.2-0.2-0.5,0-0.7l2.3-2.5l-2.3-2c-0.2-0.2-0.2-0.5,0-0.7
				c0.2-0.2,0.5-0.2,0.7,0l2.7,2.4c0.1,0.1,0.2,0.2,0.2,0.3c0,0.1,0,0.3-0.1,0.4l-2.7,2.9C331.3,86.1,331.2,86.2,331,86.2z"/>
		</g>
		<g>
			<path class="st4" d="M237.5,85.9l0-4.9l-2.4,4h-0.8l-2.4-3.9v4.8h-1.8v-8.1h1.6l3,5l3-5h1.5l0,8.1H237.5z"/>
			<path class="st4" d="M246.6,82.4v3.6h-1.7v-0.8c-0.3,0.6-1,0.9-1.9,0.9c-1.5,0-2.3-0.8-2.3-1.9c0-1.1,0.8-1.9,2.7-1.9h1.4
				c0-0.8-0.5-1.2-1.4-1.2c-0.7,0-1.3,0.2-1.8,0.6l-0.6-1.3c0.7-0.5,1.7-0.8,2.7-0.8C245.5,79.6,246.6,80.5,246.6,82.4z M244.8,84
				v-0.6h-1.2c-0.8,0-1.1,0.3-1.1,0.7c0,0.5,0.4,0.8,1,0.8C244,84.8,244.6,84.5,244.8,84z"/>
			<path class="st4" d="M254.3,79.7l-2.8,6.6c-0.6,1.5-1.5,2-2.6,2c-0.6,0-1.3-0.2-1.7-0.6l0.7-1.3c0.3,0.2,0.7,0.4,1,0.4
				c0.5,0,0.8-0.2,1-0.8l0-0.1l-2.7-6.3h1.9l1.7,4.2l1.8-4.2C252.5,79.7,254.3,79.7,254.3,79.7z"/>
		</g>
		<g>
			<g>
				<path class="st7" d="M349.4,103.9c0,0.1-47.8,0.3-106.7,0.3c-58.9,0-106.7-0.1-106.7-0.3c0-0.1,47.7-0.3,106.7-0.3
					C301.6,103.7,349.4,103.8,349.4,103.9z"/>
			</g>
		</g>
		<g>
			<path class="st4" d="M155.9,124.3l0-3.3l-1.6,2.8h-0.6L152,121v3.3h-1.2v-5.6h1.1l2.1,3.5l2.1-3.5h1.1l0,5.6H155.9z"/>
			<path class="st4" d="M158,122.1c0-1.3,1-2.2,2.4-2.2s2.3,0.9,2.3,2.2s-1,2.2-2.3,2.2C159,124.3,158,123.4,158,122.1z
				 M161.4,122.1c0-0.7-0.5-1.2-1.1-1.2s-1.1,0.4-1.1,1.2c0,0.7,0.5,1.2,1.1,1.2S161.4,122.9,161.4,122.1z"/>
			<path class="st4" d="M167.9,121.8v2.4h-1.2V122c0-0.7-0.3-1-0.9-1c-0.6,0-1,0.4-1,1.2v2.1h-1.2V120h1.2v0.5
				c0.3-0.4,0.8-0.6,1.4-0.6C167.1,119.9,167.9,120.5,167.9,121.8z"/>
		</g>
		<g>
			<path class="st4" d="M180.8,119.8H179v-1h4.9v1h-1.8v4.5h-1.3V119.8z"/>
			<path class="st4" d="M188.7,120v4.3h-1.2v-0.5c-0.3,0.4-0.8,0.6-1.3,0.6c-1.1,0-1.8-0.6-1.8-1.9V120h1.2v2.2c0,0.7,0.3,1,0.9,1
				c0.6,0,1-0.4,1-1.2V120L188.7,120L188.7,120z"/>
			<path class="st4" d="M194,122.5h-3.2c0.1,0.5,0.6,0.9,1.2,0.9c0.5,0,0.8-0.1,1.1-0.4l0.7,0.7c-0.4,0.5-1,0.7-1.8,0.7
				c-1.5,0-2.4-0.9-2.4-2.2c0-1.3,1-2.2,2.3-2.2c1.3,0,2.2,0.8,2.2,2.2C194.1,122.2,194,122.4,194,122.5z M190.8,121.8h2.1
				c-0.1-0.5-0.5-0.9-1-0.9C191.3,120.9,190.9,121.2,190.8,121.8z"/>
		</g>
		<g>
			<path d="M187.9,145.5v5.6h-0.6V146h-1.3v-0.5H187.9z"/>
		</g>
		<g>
			<path d="M216.4,150.6v0.5h-3.9v-0.4l2.3-2.3c0.6-0.6,0.7-1,0.7-1.4c0-0.6-0.5-1-1.3-1c-0.7,0-1.2,0.2-1.5,0.6l-0.4-0.4
				c0.4-0.5,1.1-0.8,2-0.8c1.1,0,1.8,0.6,1.8,1.5c0,0.5-0.2,1-0.9,1.7l-1.9,1.9L216.4,150.6L216.4,150.6z"/>
		</g>
		<g>
			<path d="M243.2,149.5c0,0.9-0.7,1.6-2,1.6c-0.8,0-1.6-0.3-2-0.7l0.3-0.5c0.4,0.4,1,0.6,1.7,0.6c0.9,0,1.4-0.4,1.4-1.1
				c0-0.7-0.5-1.1-1.5-1.1h-0.4v-0.4l1.5-1.9h-2.8v-0.5h3.6v0.4l-1.6,2C242.6,147.9,243.2,148.6,243.2,149.5z"/>
		</g>
		<g>
			<path d="M270.9,149.6h-1.1v1.5h-0.6v-1.5H266v-0.4l2.9-3.7h0.6l-2.8,3.6h2.4v-1.3h0.6v1.3h1.1L270.9,149.6L270.9,149.6z"/>
		</g>
		<g>
			<path d="M161.3,172.6v0.4l-2.3,5.2h-0.6l2.3-5.1h-2.9v1h-0.6v-1.6L161.3,172.6L161.3,172.6z"/>
		</g>
		<g>
			<path d="M188.7,176.6c0,1-0.8,1.6-2.2,1.6c-1.3,0-2.1-0.6-2.1-1.6c0-0.7,0.4-1.1,1.1-1.4c-0.6-0.2-0.9-0.6-0.9-1.2
				c0-0.9,0.8-1.5,1.9-1.5c1.2,0,2,0.6,2,1.5c0,0.6-0.3,1-0.9,1.2C188.3,175.5,188.7,175.9,188.7,176.6z M188.1,176.6
				c0-0.7-0.6-1.1-1.6-1.1c-1,0-1.6,0.4-1.6,1.1c0,0.7,0.6,1.1,1.6,1.1C187.5,177.7,188.1,177.3,188.1,176.6z M186.6,175
				c0.9,0,1.4-0.4,1.4-1c0-0.6-0.5-1-1.4-1c-0.8,0-1.4,0.4-1.4,1C185.2,174.6,185.7,175,186.6,175z"/>
		</g>
		<g>
			<path d="M215.9,175.3c0,1.9-1,2.9-2.5,2.9c-0.5,0-1-0.1-1.3-0.3l0.2-0.5c0.3,0.2,0.7,0.3,1.1,0.3c1.2,0,2-0.8,2-2.3
				c0-0.1,0-0.3,0-0.5c-0.3,0.6-0.9,1-1.7,1c-1.1,0-1.9-0.7-1.9-1.7c0-1,0.8-1.7,1.9-1.7C215.1,172.5,215.9,173.6,215.9,175.3z
				 M215.1,174.2c0-0.6-0.5-1.2-1.5-1.2c-0.8,0-1.4,0.5-1.4,1.2c0,0.7,0.5,1.2,1.4,1.2C214.5,175.4,215.1,174.9,215.1,174.2z"/>
		</g>
		<g>
			<path d="M239,172.6v5.6h-0.6v-5.1h-1.3v-0.5H239z"/>
			<path d="M240.4,175.4c0-1.8,0.9-2.8,2.2-2.8c1.3,0,2.2,1.1,2.2,2.8s-0.9,2.8-2.2,2.8C241.3,178.2,240.4,177.1,240.4,175.4z
				 M244.2,175.4c0-1.5-0.7-2.3-1.6-2.3s-1.6,0.8-1.6,2.3c0,1.5,0.7,2.3,1.6,2.3S244.2,176.9,244.2,175.4z"/>
		</g>
		<g>
			<path d="M267.5,172.6v5.6H267v-5.1h-1.3v-0.5H267.5z"/>
			<path d="M270.4,172.6v5.6h-0.6v-5.1h-1.3v-0.5H270.4z"/>
		</g>
		<g>
			<path d="M294,172.6v5.6h-0.6v-5.1h-1.3v-0.5H294z"/>
			<path d="M299.1,177.6v0.5h-3.9v-0.4l2.3-2.3c0.6-0.6,0.7-1,0.7-1.4c0-0.6-0.5-1-1.3-1c-0.7,0-1.2,0.2-1.5,0.6l-0.4-0.4
				c0.4-0.5,1.1-0.8,2-0.8c1.1,0,1.8,0.6,1.8,1.5c0,0.5-0.2,1-0.9,1.7l-1.9,1.9L299.1,177.6L299.1,177.6z"/>
		</g>
		<g>
			<path d="M321.3,172.6v5.6h-0.6v-5.1h-1.3v-0.5H321.3z"/>
			<path d="M326.3,176.6c0,0.9-0.7,1.6-2,1.6c-0.8,0-1.6-0.3-2-0.7l0.3-0.5c0.4,0.4,1,0.6,1.7,0.6c0.9,0,1.4-0.4,1.4-1.1
				c0-0.7-0.5-1.1-1.5-1.1h-0.4V175l1.5-1.9h-2.8v-0.5h3.6v0.4l-1.6,2C325.7,175,326.3,175.7,326.3,176.6z"/>
		</g>
		<g>
			<path d="M158.9,199.5v5.6h-0.6V200H157v-0.5H158.9z"/>
			<path d="M165,203.6h-1.1v1.5h-0.6v-1.5h-3.1v-0.4l2.9-3.7h0.6l-2.8,3.6h2.4v-1.3h0.6v1.3h1.1L165,203.6L165,203.6z"/>
		</g>
		<g>
			<path d="M186.5,199.5v5.6h-0.6V200h-1.3v-0.5H186.5z"/>
			<path d="M191.6,203.4c0,0.9-0.7,1.7-2,1.7c-0.8,0-1.6-0.3-2-0.7l0.3-0.5c0.4,0.4,1,0.6,1.7,0.6c0.9,0,1.4-0.5,1.4-1.1
				c0-0.7-0.4-1.2-1.9-1.2H188l0.3-2.8h3v0.5h-2.5l-0.2,1.8h0.7C190.9,201.8,191.6,202.5,191.6,203.4z"/>
		</g>
		<g>
			<path d="M213.5,199.5v5.6h-0.6V200h-1.3v-0.5H213.5z"/>
			<path d="M219,203.4c0,1-0.8,1.7-1.9,1.7c-1.5,0-2.3-1-2.3-2.8c0-1.9,1-2.9,2.5-2.9c0.5,0,1,0.1,1.3,0.3l-0.2,0.5
				c-0.3-0.2-0.7-0.3-1.1-0.3c-1.2,0-2,0.8-2,2.3c0,0.1,0,0.3,0,0.5c0.3-0.6,0.9-1,1.7-1C218.2,201.7,219,202.4,219,203.4z
				 M218.5,203.4c0-0.7-0.5-1.2-1.4-1.2c-0.9,0-1.4,0.5-1.4,1.2c0,0.6,0.5,1.2,1.5,1.2C217.9,204.6,218.5,204.2,218.5,203.4z"/>
		</g>
		<g>
			<path d="M240.8,199.5v5.6h-0.6V200h-1.3v-0.5H240.8z"/>
			<path d="M246,199.5v0.4l-2.3,5.2h-0.6l2.3-5.1h-2.9v1H242v-1.6L246,199.5L246,199.5z"/>
		</g>
		<g>
			<path d="M267.8,199.5v5.6h-0.6V200h-1.3v-0.5H267.8z"/>
			<path d="M273.4,203.5c0,1-0.8,1.6-2.2,1.6c-1.3,0-2.1-0.6-2.1-1.6c0-0.7,0.4-1.1,1.1-1.4c-0.6-0.2-0.9-0.6-0.9-1.2
				c0-0.9,0.8-1.5,1.9-1.5c1.2,0,2,0.6,2,1.5c0,0.6-0.3,1-0.9,1.2C273,202.4,273.4,202.9,273.4,203.5z M272.8,203.5
				c0-0.7-0.6-1.1-1.6-1.1c-1,0-1.6,0.4-1.6,1.1c0,0.7,0.6,1.1,1.6,1.1C272.2,204.6,272.8,204.2,272.8,203.5z M271.2,202
				c0.9,0,1.4-0.4,1.4-1c0-0.6-0.5-1-1.4-1c-0.8,0-1.4,0.4-1.4,1C269.9,201.6,270.4,202,271.2,202z"/>
		</g>
		<g>
			<path d="M295.1,199.5v5.6h-0.6V200h-1.3v-0.5H295.1z"/>
			<path d="M300.5,202.2c0,1.9-1,2.9-2.5,2.9c-0.5,0-1-0.1-1.3-0.3l0.2-0.5c0.3,0.2,0.7,0.3,1.1,0.3c1.2,0,2-0.8,2-2.3
				c0-0.1,0-0.3,0-0.5c-0.3,0.6-0.9,1-1.7,1c-1.1,0-1.9-0.7-1.9-1.7c0-1,0.8-1.7,1.9-1.7C299.7,199.5,300.5,200.5,300.5,202.2z
				 M299.7,201.1c0-0.6-0.5-1.2-1.5-1.2c-0.8,0-1.4,0.5-1.4,1.2c0,0.7,0.5,1.2,1.4,1.2C299.1,202.4,299.7,201.8,299.7,201.1z"/>
		</g>
		<g>
			<path d="M323.6,204.6v0.5h-3.9v-0.4l2.3-2.3c0.6-0.6,0.7-1,0.7-1.4c0-0.6-0.5-1-1.3-1c-0.7,0-1.2,0.2-1.5,0.6l-0.4-0.4
				c0.4-0.5,1.1-0.8,2-0.8c1.1,0,1.8,0.6,1.8,1.5c0,0.5-0.2,1-0.9,1.7l-1.9,1.9L323.6,204.6L323.6,204.6z"/>
			<path d="M324.3,202.3c0-1.8,0.9-2.8,2.2-2.8c1.3,0,2.2,1.1,2.2,2.8c0,1.8-0.9,2.8-2.2,2.8C325.2,205.1,324.3,204.1,324.3,202.3z
				 M328.1,202.3c0-1.5-0.7-2.3-1.6-2.3c-1,0-1.6,0.8-1.6,2.3c0,1.5,0.7,2.3,1.6,2.3C327.4,204.6,328.1,203.8,328.1,202.3z"/>
		</g>
		<g>
			<path d="M161.2,229.4v0.5h-3.9v-0.4l2.3-2.3c0.6-0.6,0.7-1,0.7-1.4c0-0.6-0.5-1-1.3-1c-0.7,0-1.2,0.2-1.5,0.6l-0.4-0.4
				c0.4-0.5,1.1-0.8,2-0.8c1.1,0,1.8,0.6,1.8,1.5c0,0.5-0.2,1-0.9,1.7l-1.9,1.9L161.2,229.4L161.2,229.4z"/>
			<path d="M163.4,224.4v5.6h-0.6v-5.1h-1.3v-0.5H163.4z"/>
		</g>
		<g>
			<path d="M187.5,229.4v0.5h-3.9v-0.4l2.3-2.3c0.6-0.6,0.7-1,0.7-1.4c0-0.6-0.5-1-1.3-1c-0.7,0-1.2,0.2-1.5,0.6l-0.4-0.4
				c0.4-0.5,1.1-0.8,2-0.8c1.1,0,1.8,0.6,1.8,1.5c0,0.5-0.2,1-0.9,1.7l-1.9,1.9L187.5,229.4L187.5,229.4z"/>
			<path d="M192.1,229.4v0.5h-3.9v-0.4l2.3-2.3c0.6-0.6,0.7-1,0.7-1.4c0-0.6-0.5-1-1.3-1c-0.7,0-1.2,0.2-1.5,0.6l-0.4-0.4
				c0.4-0.5,1.1-0.8,2-0.8c1.1,0,1.8,0.6,1.8,1.5c0,0.5-0.2,1-0.9,1.7l-1.9,1.9L192.1,229.4L192.1,229.4z"/>
		</g>
		<g>
			<path d="M214.8,229.4v0.5h-3.9v-0.4l2.3-2.3c0.6-0.6,0.7-1,0.7-1.4c0-0.6-0.5-1-1.3-1c-0.7,0-1.2,0.2-1.5,0.6l-0.4-0.4
				c0.4-0.5,1.1-0.8,2-0.8c1.1,0,1.8,0.6,1.8,1.5c0,0.5-0.2,1-0.9,1.7l-1.9,1.9L214.8,229.4L214.8,229.4z"/>
			<path d="M219.2,228.3c0,0.9-0.7,1.6-2,1.6c-0.8,0-1.6-0.3-2-0.7l0.3-0.5c0.4,0.4,1,0.6,1.7,0.6c0.9,0,1.4-0.4,1.4-1.1
				c0-0.7-0.5-1.1-1.5-1.1h-0.4v-0.4l1.5-1.9h-2.8v-0.5h3.6v0.4l-1.6,2C218.6,226.8,219.2,227.4,219.2,228.3z"/>
		</g>
		<g>
			<path d="M241.7,229.4v0.5h-3.9v-0.4l2.3-2.3c0.6-0.6,0.7-1,0.7-1.4c0-0.6-0.5-1-1.3-1c-0.7,0-1.2,0.2-1.5,0.6l-0.4-0.4
				c0.4-0.5,1.1-0.8,2-0.8c1.1,0,1.8,0.6,1.8,1.5c0,0.5-0.2,1-0.9,1.7l-1.9,1.9L241.7,229.4L241.7,229.4z"/>
			<path d="M247,228.5h-1.1v1.5h-0.6v-1.5h-3.1v-0.4l2.9-3.7h0.6l-2.8,3.6h2.4v-1.3h0.6v1.3h1.1L247,228.5L247,228.5z"/>
		</g>
		<g>
			<path d="M269.2,229.4v0.5h-3.9v-0.4l2.3-2.3c0.6-0.6,0.7-1,0.7-1.4c0-0.6-0.5-1-1.3-1c-0.7,0-1.2,0.2-1.5,0.6l-0.4-0.4
				c0.4-0.5,1.1-0.8,2-0.8c1.1,0,1.8,0.6,1.8,1.5c0,0.5-0.2,1-0.9,1.7l-1.9,1.9L269.2,229.4L269.2,229.4z"/>
			<path d="M273.7,228.3c0,0.9-0.7,1.7-2,1.7c-0.8,0-1.6-0.3-2-0.7l0.3-0.5c0.4,0.4,1,0.6,1.7,0.6c0.9,0,1.4-0.5,1.4-1.1
				c0-0.7-0.4-1.2-1.9-1.2h-1.2l0.3-2.8h3v0.5h-2.5l-0.2,1.8h0.7C273.1,226.6,273.7,227.3,273.7,228.3z"/>
		</g>
		<g>
			<path d="M296.3,229.4v0.5h-3.9v-0.4l2.3-2.3c0.6-0.6,0.7-1,0.7-1.4c0-0.6-0.5-1-1.3-1c-0.7,0-1.2,0.2-1.5,0.6l-0.4-0.4
				c0.4-0.5,1.1-0.8,2-0.8c1.1,0,1.8,0.6,1.8,1.5c0,0.5-0.2,1-0.9,1.7l-1.9,1.9L296.3,229.4L296.3,229.4z"/>
			<path d="M301.1,228.3c0,1-0.8,1.7-1.9,1.7c-1.5,0-2.3-1-2.3-2.8c0-1.9,1-2.9,2.5-2.9c0.5,0,1,0.1,1.3,0.3l-0.2,0.5
				c-0.3-0.2-0.7-0.3-1.1-0.3c-1.2,0-2,0.8-2,2.3c0,0.1,0,0.3,0,0.5c0.3-0.6,0.9-1,1.7-1C300.4,226.6,301.1,227.3,301.1,228.3z
				 M300.6,228.3c0-0.7-0.5-1.2-1.4-1.2c-0.9,0-1.4,0.5-1.4,1.2c0,0.6,0.5,1.2,1.5,1.2C300,229.5,300.6,229,300.6,228.3z"/>
		</g>
		<g>
			<path d="M323.6,229.4v0.5h-3.9v-0.4l2.3-2.3c0.6-0.6,0.7-1,0.7-1.4c0-0.6-0.5-1-1.3-1c-0.7,0-1.2,0.2-1.5,0.6l-0.4-0.4
				c0.4-0.5,1.1-0.8,2-0.8c1.1,0,1.8,0.6,1.8,1.5c0,0.5-0.2,1-0.9,1.7l-1.9,1.9L323.6,229.4L323.6,229.4z"/>
			<path d="M328.2,224.4v0.4l-2.3,5.2h-0.6l2.3-5.1h-2.9v1h-0.6v-1.6L328.2,224.4L328.2,224.4z"/>
		</g>
		<g>
			<path d="M161.2,253.2v0.5h-3.9v-0.4l2.3-2.3c0.6-0.6,0.7-1,0.7-1.4c0-0.6-0.5-1-1.3-1c-0.7,0-1.2,0.2-1.5,0.6l-0.4-0.4
				c0.4-0.5,1.1-0.8,2-0.8c1.1,0,1.8,0.6,1.8,1.5c0,0.5-0.2,1-0.9,1.7l-1.9,1.9L161.2,253.2L161.2,253.2z"/>
			<path d="M166.1,252.2c0,1-0.8,1.6-2.2,1.6c-1.3,0-2.1-0.6-2.1-1.6c0-0.7,0.4-1.1,1.1-1.4c-0.6-0.2-0.9-0.6-0.9-1.2
				c0-0.9,0.8-1.5,1.9-1.5c1.2,0,2,0.6,2,1.5c0,0.6-0.3,1-0.9,1.2C165.8,251.1,166.1,251.5,166.1,252.2z M165.6,252.2
				c0-0.7-0.6-1.1-1.6-1.1c-1,0-1.6,0.4-1.6,1.1c0,0.7,0.6,1.1,1.6,1.1S165.6,252.9,165.6,252.2z M164,250.6c0.9,0,1.4-0.4,1.4-1
				c0-0.6-0.5-1-1.4-1c-0.8,0-1.4,0.4-1.4,1C162.6,250.2,163.1,250.6,164,250.6z"/>
		</g>
		<g>
			<path d="M189,253.2v0.5h-3.9v-0.4l2.3-2.3c0.6-0.6,0.7-1,0.7-1.4c0-0.6-0.5-1-1.3-1c-0.7,0-1.2,0.2-1.5,0.6l-0.4-0.4
				c0.4-0.5,1.1-0.8,2-0.8c1.1,0,1.8,0.6,1.8,1.5c0,0.5-0.2,1-0.9,1.7l-1.9,1.9L189,253.2L189,253.2z"/>
			<path d="M193.8,250.9c0,1.9-1,2.9-2.5,2.9c-0.5,0-1-0.1-1.3-0.3l0.2-0.5c0.3,0.2,0.7,0.3,1.1,0.3c1.2,0,2-0.8,2-2.3
				c0-0.1,0-0.3,0-0.5c-0.3,0.6-0.9,1-1.7,1c-1.1,0-1.9-0.7-1.9-1.7c0-1,0.8-1.7,1.9-1.7C193,248.1,193.8,249.1,193.8,250.9z
				 M193,249.8c0-0.6-0.5-1.2-1.5-1.2c-0.8,0-1.4,0.5-1.4,1.2c0,0.7,0.5,1.2,1.4,1.2C192.4,251,193,250.5,193,249.8z"/>
		</g>
		<g>
			<path d="M216.5,252.1c0,0.9-0.7,1.6-2,1.6c-0.8,0-1.6-0.3-2-0.7l0.3-0.5c0.4,0.4,1,0.6,1.7,0.6c0.9,0,1.4-0.4,1.4-1.1
				c0-0.7-0.5-1.1-1.5-1.1H214v-0.4l1.5-1.9h-2.8v-0.5h3.6v0.4l-1.6,2C215.9,250.6,216.5,251.2,216.5,252.1z"/>
			<path d="M217.3,251c0-1.8,0.9-2.8,2.2-2.8c1.3,0,2.2,1.1,2.2,2.8c0,1.8-0.9,2.8-2.2,2.8S217.3,252.7,217.3,251z M221.1,251
				c0-1.5-0.7-2.3-1.6-2.3s-1.6,0.8-1.6,2.3c0,1.5,0.7,2.3,1.6,2.3C220.5,253.3,221.1,252.4,221.1,251z"/>
		</g>
		<g>
			<path d="M245.4,252.1c0,0.9-0.7,1.6-2,1.6c-0.8,0-1.6-0.3-2-0.7l0.3-0.5c0.4,0.4,1,0.6,1.7,0.6c0.9,0,1.4-0.4,1.4-1.1
				c0-0.7-0.5-1.1-1.5-1.1h-0.4v-0.4l1.5-1.9h-2.8v-0.5h3.6v0.4l-1.6,2C244.8,250.6,245.4,251.2,245.4,252.1z"/>
			<path d="M247.8,248.2v5.6h-0.6v-5.1h-1.3v-0.5H247.8z"/>
		</g>
		<g>
			<path d="M297.2,149.4c0,0.9-0.7,1.7-2,1.7c-0.8,0-1.6-0.3-2-0.7l0.3-0.5c0.4,0.4,1,0.6,1.7,0.6c0.9,0,1.4-0.5,1.4-1.1
				c0-0.7-0.4-1.2-1.9-1.2h-1.2l0.3-2.8h3v0.5h-2.5l-0.2,1.8h0.7C296.6,147.8,297.2,148.4,297.2,149.4z"/>
		</g>
		<g>
			<path d="M324.5,149.4c0,1-0.8,1.7-1.9,1.7c-1.5,0-2.3-1-2.3-2.8c0-1.9,1-2.9,2.5-2.9c0.5,0,1,0.1,1.3,0.3l-0.2,0.5
				c-0.3-0.2-0.7-0.3-1.1-0.3c-1.2,0-2,0.8-2,2.3c0,0.1,0,0.3,0,0.5c0.3-0.6,0.9-1,1.7-1C323.7,147.7,324.5,148.4,324.5,149.4z
				 M323.9,149.4c0-0.7-0.5-1.2-1.4-1.2c-0.9,0-1.4,0.5-1.4,1.2c0,0.6,0.5,1.2,1.5,1.2C323.3,150.6,323.9,150.2,323.9,149.4z"/>
		</g>
		<g>
			<path class="st4" d="M213.4,118.7l-1.8,5.6h-1.4l-1.2-3.8l-1.3,3.8h-1.4l-1.8-5.6h1.3l1.3,3.9l1.3-3.9h1.2l1.3,3.9l1.3-3.9H213.4
				z"/>
			<path class="st4" d="M217.9,122.5h-3.2c0.1,0.5,0.6,0.9,1.2,0.9c0.5,0,0.8-0.1,1.1-0.4l0.7,0.7c-0.4,0.5-1,0.7-1.8,0.7
				c-1.5,0-2.4-0.9-2.4-2.2c0-1.3,1-2.2,2.3-2.2c1.3,0,2.2,0.8,2.2,2.2C217.9,122.2,217.9,122.4,217.9,122.5z M214.7,121.8h2.1
				c-0.1-0.5-0.5-0.9-1-0.9C215.1,120.9,214.7,121.2,214.7,121.8z"/>
			<path class="st4" d="M223.1,118.4v5.9h-1.2v-0.5c-0.3,0.4-0.8,0.6-1.3,0.6c-1.2,0-2.1-0.9-2.1-2.2c0-1.3,0.9-2.2,2.1-2.2
				c0.5,0,1,0.2,1.3,0.5v-2.1H223.1z M221.9,122.1c0-0.7-0.5-1.2-1.1-1.2c-0.6,0-1.1,0.4-1.1,1.2c0,0.7,0.5,1.2,1.1,1.2
				C221.4,123.3,221.9,122.9,221.9,122.1z"/>
		</g>
		<g>
			<path class="st4" d="M235.3,119.8h-1.8v-1h4.9v1h-1.8v4.5h-1.3V119.8z"/>
			<path class="st4" d="M243.3,121.8v2.4h-1.2V122c0-0.7-0.3-1-0.9-1c-0.6,0-1,0.4-1,1.2v2.1h-1.2v-5.9h1.2v2.1
				c0.3-0.3,0.8-0.5,1.4-0.5C242.5,119.9,243.3,120.5,243.3,121.8z"/>
			<path class="st4" d="M248.7,120v4.3h-1.2v-0.5c-0.3,0.4-0.8,0.6-1.3,0.6c-1.1,0-1.8-0.6-1.8-1.9V120h1.2v2.2c0,0.7,0.3,1,0.9,1
				c0.6,0,1-0.4,1-1.2V120L248.7,120L248.7,120z"/>
		</g>
		<g>
			<path class="st4" d="M265.3,119.7v1.5h2.6v1h-2.6v2H264v-5.6h4.2v1C268.2,119.7,265.3,119.7,265.3,119.7z"/>
			<path class="st4" d="M271.6,119.9v1.1c-0.1,0-0.2,0-0.3,0c-0.7,0-1.1,0.4-1.1,1.2v2h-1.2V120h1.2v0.6
				C270.4,120.2,270.9,119.9,271.6,119.9z"/>
			<path class="st4" d="M272.2,118.7c0-0.4,0.3-0.7,0.8-0.7s0.8,0.3,0.8,0.7c0,0.4-0.3,0.7-0.8,0.7
				C272.5,119.4,272.2,119.1,272.2,118.7z M272.3,120h1.2v4.3h-1.2V120z"/>
		</g>
		<g>
			<path class="st4" d="M289.6,123.7l0.4-1c0.5,0.3,1.2,0.6,1.8,0.6c0.8,0,1.1-0.3,1.1-0.6c0-1-3.2-0.3-3.2-2.4
				c0-0.9,0.8-1.7,2.3-1.7c0.7,0,1.4,0.2,1.9,0.5l-0.4,1c-0.5-0.3-1-0.4-1.5-0.4c-0.8,0-1.1,0.3-1.1,0.6c0,1,3.2,0.3,3.2,2.4
				c0,0.9-0.8,1.7-2.4,1.7C291,124.4,290.1,124.1,289.6,123.7z"/>
			<path class="st4" d="M298.8,121.8v2.4h-1.2v-0.5c-0.2,0.4-0.7,0.6-1.3,0.6c-1,0-1.6-0.6-1.6-1.3c0-0.8,0.5-1.3,1.8-1.3h1
				c0-0.5-0.3-0.8-1-0.8c-0.5,0-0.9,0.2-1.2,0.4l-0.4-0.9c0.5-0.3,1.2-0.5,1.8-0.5C298.1,119.9,298.8,120.5,298.8,121.8z
				 M297.6,122.9v-0.4h-0.9c-0.6,0-0.8,0.2-0.8,0.5c0,0.3,0.3,0.5,0.7,0.5C297.1,123.5,297.4,123.3,297.6,122.9z"/>
			<path class="st4" d="M302.7,124.1c-0.3,0.2-0.6,0.3-1,0.3c-1,0-1.6-0.5-1.6-1.5V121h-0.7v-1h0.7v-1h1.2v1h1.1v1h-1.1v1.7
				c0,0.4,0.2,0.6,0.5,0.6c0.2,0,0.4-0.1,0.5-0.2L302.7,124.1z"/>
		</g>
		<g>
			<path class="st4" d="M315.7,123.7l0.4-1c0.5,0.3,1.2,0.6,1.8,0.6c0.8,0,1.1-0.3,1.1-0.6c0-1-3.2-0.3-3.2-2.4
				c0-0.9,0.8-1.7,2.3-1.7c0.7,0,1.4,0.2,1.9,0.5l-0.4,1c-0.5-0.3-1-0.4-1.5-0.4c-0.8,0-1.1,0.3-1.1,0.6c0,1,3.2,0.3,3.2,2.4
				c0,0.9-0.8,1.7-2.4,1.7C317,124.4,316.2,124.1,315.7,123.7z"/>
			<path class="st4" d="M325.4,120v4.3h-1.2v-0.5c-0.3,0.4-0.8,0.6-1.3,0.6c-1.1,0-1.8-0.6-1.8-1.9V120h1.2v2.2c0,0.7,0.3,1,0.9,1
				c0.6,0,1-0.4,1-1.2V120L325.4,120L325.4,120z"/>
			<path class="st4" d="M330.9,121.8v2.4h-1.2V122c0-0.7-0.3-1-0.9-1c-0.6,0-1,0.4-1,1.2v2.1h-1.2V120h1.2v0.5
				c0.3-0.4,0.8-0.6,1.4-0.6C330.2,119.9,330.9,120.5,330.9,121.8z"/>
		</g>
	</g>
</g>
<g id="Character">
	<g>
		<g>
			<g>
				<g>
					<g>
						<g>
							<g>
								<g>
									<g>
										<g>
											<path class="st8" d="M382.5,440.7l2.4,23.3c0,0-22.9,10.3-22.9,14.6l45.4-3.1l-2.3-36.5L382.5,440.7z"/>
										</g>
									</g>
								</g>
							</g>
						</g>
					</g>
					<g class="st9">
						<g>
							<g>
								<g>
									<g>
										<g>
											<path d="M382.5,440.7l2.4,23.3c0,0-22.9,10.3-22.9,14.6l45.4-3.1l-2.3-36.5L382.5,440.7z"/>
										</g>
									</g>
								</g>
							</g>
						</g>
					</g>
					<g class="st6">
						<g>
							<g>
								<g>
									<g>
										<g>
											<g>
												<path class="st3" d="M398.9,461.1c0.9,0.2,1.6,1.1,1.4,2c-0.1,0.9-1.1,1.6-2,1.4c-0.9-0.2-1.7-1.3-1.5-2.2
													s1.4-1.6,2.2-1.3"/>
											</g>
										</g>
									</g>
								</g>
							</g>
						</g>
					</g>
					<g class="st6">
						<g>
							<g>
								<g>
									<g>
										<g>
											<path class="st3" d="M407.5,475.6l-0.4-3.7l-43.4,4.3c0,0-2,1-1.6,2.4L407.5,475.6z"/>
										</g>
									</g>
								</g>
							</g>
						</g>
					</g>
					<g>
						<g>
							<g>
								<g>
									<g>
										<g>
											<g>
												<path class="st4" d="M384.2,463.9c0,0.2,1.1,0.2,2.3,0.9c1.2,0.6,1.8,1.5,2,1.4c0.2-0.1-0.2-1.4-1.6-2.1
													C385.5,463.3,384.1,463.7,384.2,463.9z"/>
											</g>
										</g>
									</g>
								</g>
							</g>
						</g>
					</g>
					<g>
						<g>
							<g>
								<g>
									<g>
										<g>
											<g>
												<path class="st4" d="M379.6,466.2c0,0.2,0.9,0.5,1.8,1.4c0.8,0.9,1.1,1.9,1.3,1.8c0.2,0,0.3-1.3-0.8-2.4
													C380.9,466,379.6,466,379.6,466.2z"/>
											</g>
										</g>
									</g>
								</g>
							</g>
						</g>
					</g>
					<g>
						<g>
							<g>
								<g>
									<g>
										<g>
											<g>
												<path class="st4" d="M377.3,472c0.2,0,0.4-1.1-0.2-2.3c-0.6-1.2-1.7-1.6-1.8-1.4c-0.1,0.2,0.6,0.8,1.1,1.8
													C376.9,471.1,377,472,377.3,472z"/>
											</g>
										</g>
									</g>
								</g>
							</g>
						</g>
					</g>
					<g>
						<g>
							<g>
								<g>
									<g>
										<g>
											<g>
												<path class="st4" d="M384.2,458.5c0.1,0.2,1.1-0.2,2.4-0.2c1.3,0,2.3,0.3,2.4,0.1c0.1-0.2-0.9-0.9-2.4-0.9
													C385.1,457.6,384.1,458.3,384.2,458.5z"/>
											</g>
										</g>
									</g>
								</g>
							</g>
						</g>
					</g>
				</g>
				<g>
					<g>
						<g>
							<g>
								<g>
									<g>
										<g>
											<path class="st4" d="M383.8,453.8c0,0.1,0.9,0.2,2.3-0.2c0.7-0.2,1.5-0.5,2.3-0.9c0.4-0.2,0.8-0.5,1.3-0.8
												c0.2-0.1,0.4-0.3,0.6-0.6c0.2-0.2,0.3-0.8,0-1.2c-0.3-0.3-0.7-0.5-1-0.4c-0.3,0-0.6,0.1-0.8,0.2c-0.5,0.2-1,0.4-1.4,0.6
												c-0.8,0.5-1.5,1-2,1.5c-1,1-1.3,1.9-1.2,1.9c0.1,0.1,0.6-0.7,1.6-1.5c0.5-0.4,1.2-0.9,2-1.3c0.4-0.2,0.8-0.4,1.3-0.5
												c0.5-0.2,0.9-0.2,1,0c0,0.1,0.1,0.1,0,0.3c-0.1,0.1-0.3,0.3-0.5,0.4c-0.4,0.3-0.8,0.5-1.2,0.8c-0.8,0.4-1.5,0.8-2.1,1
												C384.7,453.5,383.8,453.7,383.8,453.8z"/>
										</g>
									</g>
								</g>
							</g>
						</g>
					</g>
				</g>
				<g>
					<g>
						<g>
							<g>
								<g>
									<g>
										<g>
											<path class="st4" d="M384.2,454.1c0.1,0,0.5-0.8,0.5-2.2c0-0.7-0.1-1.6-0.5-2.5c-0.2-0.4-0.4-0.9-0.7-1.3
												c-0.3-0.4-0.7-1-1.5-1c-0.5,0-0.8,0.4-0.9,0.7c-0.1,0.3-0.1,0.6-0.2,0.8c0,0.5,0,1.1,0.1,1.5c0.2,1,0.7,1.7,1.1,2.3
												c1,1.1,1.9,1.3,1.9,1.2c0.1-0.1-0.7-0.5-1.5-1.6c-0.4-0.5-0.7-1.2-0.9-2.1c-0.1-0.4-0.1-0.9,0-1.3c0-0.5,0.2-0.9,0.4-0.9
												c0.2,0,0.6,0.3,0.8,0.7c0.3,0.4,0.5,0.8,0.6,1.2c0.3,0.8,0.5,1.6,0.6,2.2C384.2,453.2,384,454.1,384.2,454.1z"/>
										</g>
									</g>
								</g>
							</g>
						</g>
					</g>
				</g>
			</g>
			<g>
				<path class="st4" d="M377.8,274.3c0,0-22.3,86.5-22.9,94.6c-0.6,8.1,27.9,79.1,27.9,79.1l22-4.1c0,0-1.4-103.9-2.1-105.9
					c-0.7-2,5.6-53.1,5.6-53.1L377.8,274.3z"/>
			</g>
			<g>
				<g>
					<g>
						<g>
							<g>
								<g>
									<g>
										<g>
											<path class="st8" d="M392.6,441.8l0.2,23.4c0,0-23.7,8.1-24.1,12.5l45.5,0.5l1.1-35.8L392.6,441.8z"/>
										</g>
									</g>
								</g>
							</g>
						</g>
					</g>
					<g class="st6">
						<g>
							<g>
								<g>
									<g>
										<g>
											<g>
												<path class="st3" d="M407,463.7c0.9,0.3,1.5,1.3,1.2,2.2c-0.2,0.9-1.2,1.5-2.1,1.2c-0.9-0.2-1.6-1.4-1.3-2.3
													c0.3-0.9,1.6-1.5,2.4-1"/>
											</g>
										</g>
									</g>
								</g>
							</g>
						</g>
					</g>
					<g class="st6">
						<g>
							<g>
								<g>
									<g>
										<g>
											<path class="st3" d="M414.2,478.2l0-3l-43.6,0.3c0,0-2,0.8-1.9,2.3L414.2,478.2z"/>
										</g>
									</g>
								</g>
							</g>
						</g>
					</g>
					<g>
						<g>
							<g>
								<g>
									<g>
										<g>
											<g>
												<path class="st4" d="M392.2,465c0,0.2,1.1,0.4,2.2,1.1c1.1,0.7,1.6,1.7,1.8,1.6c0.2,0-0.1-1.4-1.4-2.2
													C393.5,464.6,392.1,464.8,392.2,465z"/>
											</g>
										</g>
									</g>
								</g>
							</g>
						</g>
					</g>
					<g>
						<g>
							<g>
								<g>
									<g>
										<g>
											<g>
												<path class="st4" d="M387.3,466.9c-0.1,0.2,0.9,0.6,1.6,1.6c0.8,0.9,0.9,2,1.1,2c0.2,0,0.4-1.3-0.5-2.4
													C388.7,466.8,387.3,466.7,387.3,466.9z"/>
											</g>
										</g>
									</g>
								</g>
							</g>
						</g>
					</g>
					<g>
						<g>
							<g>
								<g>
									<g>
										<g>
											<g>
												<path class="st4" d="M384.5,472.5c0.2,0.1,0.5-1,0-2.3c-0.5-1.2-1.6-1.7-1.7-1.6c-0.1,0.2,0.5,0.8,1,1.9
													C384.2,471.5,384.3,472.5,384.5,472.5z"/>
											</g>
										</g>
									</g>
								</g>
							</g>
						</g>
					</g>
					<g>
						<g>
							<g>
								<g>
									<g>
										<g>
											<g>
												<path class="st4" d="M392.7,459.7c0.1,0.2,1.1-0.1,2.4,0c1.3,0.1,2.2,0.5,2.3,0.4c0.1-0.2-0.8-1-2.3-1.1
													C393.6,458.8,392.6,459.5,392.7,459.7z"/>
											</g>
										</g>
									</g>
								</g>
							</g>
						</g>
					</g>
				</g>
				<g class="st9">
					<g>
						<g>
							<g>
								<g>
									<g>
										<polygon points="392.7,446.5 392.7,450.6 415.1,451 415.2,447.3 										"/>
									</g>
								</g>
							</g>
						</g>
					</g>
				</g>
				<g>
					<g>
						<g>
							<g>
								<g>
									<g>
										<g>
											<path class="st4" d="M392.7,454.9c0,0.1,0.9,0.3,2.3,0c0.7-0.1,1.5-0.3,2.4-0.7c0.4-0.2,0.9-0.4,1.3-0.7
												c0.2-0.1,0.5-0.3,0.7-0.5c0.3-0.2,0.4-0.8,0.1-1.2c-0.2-0.4-0.6-0.5-1-0.5c-0.3,0-0.6,0-0.9,0.1c-0.5,0.1-1,0.3-1.4,0.5
												c-0.9,0.4-1.6,0.9-2.1,1.3c-1.1,1-1.5,1.8-1.4,1.8c0.1,0.1,0.6-0.6,1.7-1.4c0.5-0.4,1.2-0.8,2.1-1.1
												c0.4-0.2,0.9-0.3,1.3-0.4c0.5-0.1,0.9-0.1,1,0.1c0,0.1,0,0.1-0.1,0.3c-0.1,0.1-0.3,0.2-0.5,0.4c-0.4,0.3-0.8,0.5-1.2,0.7
												c-0.8,0.4-1.6,0.6-2.2,0.8C393.6,454.8,392.7,454.8,392.7,454.9z"/>
										</g>
									</g>
								</g>
							</g>
						</g>
					</g>
				</g>
				<g>
					<g>
						<g>
							<g>
								<g>
									<g>
										<g>
											<path class="st4" d="M393,455.3c0.1,0,0.5-0.7,0.7-2.2c0.1-0.7,0-1.6-0.2-2.5c-0.1-0.5-0.3-0.9-0.5-1.4
												c-0.3-0.5-0.6-1.1-1.4-1.2c-0.4,0-0.8,0.3-1,0.6c-0.2,0.3-0.2,0.6-0.3,0.8c-0.1,0.5-0.1,1,0,1.5c0.1,1,0.5,1.8,0.9,2.4
												c0.9,1.2,1.8,1.5,1.8,1.4c0.1-0.1-0.7-0.6-1.3-1.7c-0.3-0.6-0.6-1.3-0.7-2.2c0-0.4,0-0.9,0.1-1.3
												c0.1-0.5,0.3-0.9,0.5-0.8c0.2,0,0.6,0.4,0.8,0.8c0.2,0.4,0.4,0.8,0.5,1.2c0.3,0.8,0.4,1.6,0.4,2.3
												C393.2,454.4,392.9,455.2,393,455.3z"/>
										</g>
									</g>
								</g>
							</g>
						</g>
					</g>
				</g>
			</g>
			<g>
				<g>
					<path class="st4" d="M429.7,268.7l-51.1,1.4l7.3,90.9l4.5,87.6l26.5,0.9c1.4-16.9,0.9-51.6,0.9-51.6l1.9-14.9l6.7-52.6
						c0.5-2.2,2.4-13.4,4.3-22.3c1.1-5.1,2.7-11.8,3.1-14C434.9,287.7,429.7,268.7,429.7,268.7z"/>
				</g>
			</g>
			<g>
				<g>
					<path class="st8" d="M381.6,291c0,0,0,0.1,0,0.4c0,0.3,0,0.7,0,1.2c0,1.1-0.1,2.6-0.2,4.6c-0.1,2-0.2,4.4-0.3,7.3
						c-0.1,2.8-0.2,6.1-0.3,9.6c-0.2,7.1-0.3,15.6-0.3,25c0.1,9.4,0.3,19.8,0.8,30.7c0.6,10.9,1.4,21.2,2.3,30.6
						c0.5,4.7,1,9.1,1.5,13.3c0.3,2.1,0.5,4.1,0.8,6c0.3,1.9,0.6,3.8,0.8,5.5c0.5,3.5,1.1,6.7,1.5,9.5c0.4,2.8,0.9,5.2,1.2,7.2
						c0.4,1.9,0.6,3.5,0.8,4.5c0.1,0.5,0.1,0.9,0.2,1.2c0,0.3,0.1,0.4,0,0.4c0,0,0-0.1-0.1-0.4c-0.1-0.3-0.1-0.7-0.2-1.2
						c-0.2-1.1-0.5-2.6-0.9-4.5c-0.4-2-0.9-4.4-1.3-7.1c-0.5-2.8-1.1-6-1.6-9.5c-0.3-1.8-0.5-3.6-0.8-5.5c-0.3-1.9-0.5-3.9-0.8-6
						c-0.6-4.2-1.1-8.6-1.6-13.3c-1-9.4-1.8-19.7-2.4-30.6c-0.5-10.9-0.7-21.2-0.8-30.7c0-9.4,0.1-17.9,0.4-25.1
						c0.1-3.6,0.3-6.8,0.4-9.6c0.1-2.8,0.2-5.3,0.4-7.3c0.1-2,0.2-3.5,0.3-4.6c0-0.5,0.1-0.9,0.1-1.2
						C381.6,291.2,381.6,291,381.6,291z"/>
				</g>
			</g>
		</g>
		<g>
			<g>
				<path class="st4" d="M424.5,85.8c-0.1-3.3,1.9-6.6,4.8-8.1c3-1.5,6.8-1,9.4,1.2c0.6,0.5,1.2,1.2,2,1.5c0.9,0.4,2,0.2,2.9,0.1
					c3.8-0.2,7.6,1.8,9.5,5.1c1.9,3.3,1.9,7.6-0.1,10.8c3.6,1.2,6.5,4.3,7.5,8c0.9,3.7-0.2,7.8-2.9,10.5c1.7,1.7,2.4,4.4,1.8,6.7
					c-0.6,2.4-2.4,4.4-4.7,5.2c-0.8,0.3-1.6,0.4-2.2,1c-1.6,1.7,0.8,4.6-0.4,6.6c-0.9,1.5-3.3,1.6-4,3.2c-0.5,1.2,0.3,2.4,0.4,3.7
					c0.2,2.7-2.6,4.7-5.3,5.2c-5.3,1.1-10.8-1.1-14.7-4.9c-3.8-3.8-6-8.9-7.1-14.2c-2.7-12.3,0.1-25.1,2.9-37.4"/>
			</g>
			<g>
				<g>
					<g>
						<path class="st5" d="M420.5,89.6c-1.4-1.2-1.6-3.6-0.3-4.9c1.3-1.3,3.7-1.4,4.9,0c0.4,0.4,0.7,0.9,1.2,0.9
							c0.5,0.1,0.9-0.3,1.3-0.6c1.1-0.7,2.6-0.6,3.6,0.1c1,0.7,1.6,2.1,1.4,3.3c1.7-0.6,4.1-0.3,4.8,1.4c0.7,1.5-0.3,3.3-1.8,4.1
							c-1.5,0.8-3.2,0.7-4.8,0.3c-3.8-0.8-7.4-2.7-10.1-5.6"/>
					</g>
				</g>
				<g>
					<g>
						<path class="st3" d="M431,90.2c0,0.1,0.6-0.1,1-0.6c0.4-0.6,0.5-1.1,0.4-1.2c-0.1,0-0.3,0.4-0.7,0.9
							C431.4,89.8,431,90.1,431,90.2z"/>
					</g>
				</g>
				<g>
					<g>
						<path class="st3" d="M425,89.5c0.1,0,0.1-0.8,0.4-1.8c0.3-0.9,0.8-1.6,0.7-1.7c-0.1-0.1-0.8,0.5-1.1,1.6
							C424.7,88.6,424.9,89.5,425,89.5z"/>
					</g>
				</g>
				<g>
					<g>
						<path class="st3" d="M421.8,88.5c0.1,0-0.1-0.9,0.2-1.8c0.2-1,0.8-1.6,0.7-1.7c-0.1-0.1-0.8,0.5-1,1.6
							C421.4,87.7,421.7,88.5,421.8,88.5z"/>
					</g>
				</g>
				<g>
					<g>
						<path class="st3" d="M433.3,92.4c0,0,0.3,0.1,0.6-0.1c0.4-0.1,0.9-0.4,1.3-0.9s0.5-1.1,0.6-1.5c0-0.4-0.1-0.6-0.1-0.6
							c-0.1,0-0.1,1-0.8,1.9C434.2,92.1,433.3,92.3,433.3,92.4z"/>
					</g>
				</g>
				<g>
					<g>
						<path class="st4" d="M396.9,126.4c-2.5-0.9-4-3.8-3.2-6.3c-2.9-2-3.3-6.8-0.9-9.3c-1.3-1.2-1.7-3.3-1.1-4.9
							c0.7-1.7,2.4-2.8,4.2-2.8c-0.7-2-0.1-4.4,1.3-6s3.7-2.3,5.8-1.9c-0.2-2.2,0.9-4.4,2.8-5.5c1.9-1.1,4.4-0.9,6.1,0.4
							c2.9-3.6,9.2-3.4,12,0.2c3.6-1.9,8.7-0.1,10.2,3.7c2.4-2,6.3-1,8.3,1.4c1.9,2.4,2.3,5.8,1.8,8.9c1.6,0.8,2.7,2.6,2.8,4.4
							s-0.9,3.6-2.5,4.6c2.7,3.7,1.6,9.6-2.3,12.1c0.4,4-1.9,8.1-5.5,9.9"/>
					</g>
				</g>
				<g>
					<g>
						<path class="st10" d="M434.5,110.5l1.5-3.6l-22.7-4.9c-7-0.9-14.8,6-15.4,13c-0.7,7.8-1.2,17.4-0.4,23.3
							c1.6,11.8,10.6,12.1,10.6,12.1l-0.3,19.9l26.1-9.4L434.5,110.5z"/>
					</g>
				</g>
				<g>
					<g>
						<path class="st4" d="M400.6,123.4c0,0.8,0.6,1.5,1.4,1.6c0.8,0.1,1.5-0.5,1.6-1.3c0-0.8-0.6-1.5-1.4-1.6
							C401.3,122,400.6,122.6,400.6,123.4z"/>
					</g>
				</g>
				<g>
					<g>
						<path class="st4" d="M400.2,120c0.2,0.2,1.3-0.6,3-0.6c1.6,0,2.8,0.9,3,0.7c0.1-0.1-0.1-0.4-0.6-0.8c-0.5-0.4-1.4-0.8-2.4-0.8
							c-1,0-1.9,0.3-2.4,0.7C400.3,119.6,400.1,119.9,400.2,120z"/>
					</g>
				</g>
				<g>
					<g>
						<path class="st4" d="M416.1,124.2c0,0.8,0.6,1.5,1.4,1.6c0.8,0.1,1.5-0.5,1.6-1.3s-0.6-1.5-1.4-1.6
							C416.8,122.8,416.1,123.4,416.1,124.2z"/>
					</g>
				</g>
				<g>
					<g>
						<path class="st4" d="M416.6,120.7c0.2,0.2,1.3-0.6,3-0.6c1.6,0,2.8,0.9,3,0.7c0.1-0.1-0.1-0.4-0.6-0.8
							c-0.5-0.4-1.4-0.8-2.4-0.8c-1,0-1.9,0.3-2.4,0.7C416.6,120.3,416.5,120.6,416.6,120.7z"/>
					</g>
				</g>
				<g>
					<g>
						<path class="st4" d="M410,132.6c0-0.1-1-0.3-2.6-0.5c-0.4-0.1-0.8-0.1-0.9-0.4c-0.1-0.3,0.1-0.7,0.3-1.2c0.4-1,0.8-2,1.3-3.1
							c1.8-4.5,3.1-8.1,3-8.2c-0.2-0.1-1.8,3.5-3.6,7.9c-0.4,1.1-0.9,2.1-1.3,3.2c-0.2,0.5-0.5,1-0.3,1.6c0.1,0.3,0.4,0.5,0.7,0.6
							c0.3,0.1,0.5,0.1,0.7,0.1C409,132.7,410,132.7,410,132.6z"/>
					</g>
				</g>
				<g>
					<g>
						<path class="st11" d="M408,150.3c0,0,8.3,0.7,16.3-3.8c0,0-4.2,8.2-16.3,6.8L408,150.3z"/>
					</g>
				</g>
				<g>
					<g>
						<path class="st4" d="M417.6,112.2c0.1,0.5,1.7,0.6,3.5,1.2c1.8,0.6,3.2,1.5,3.5,1.1c0.2-0.2,0-0.6-0.5-1.2
							c-0.4-0.6-1.1-1.2-2.5-1.5c-1.1-0.4-2.2-0.4-2.9-0.3C418,111.7,417.6,112,417.6,112.2z"/>
					</g>
				</g>
				<g>
					<g>
						<path class="st4" d="M400.5,114.9c0.3,0.4,1.4,0,2.8-0.1c1.3-0.1,2.5,0.2,2.7-0.2c0.1-0.2-0.1-0.6-0.6-0.9
							c-0.5-0.3-1.3-0.6-2.3-0.6c-0.9,0.1-1.7,0.4-2.2,0.8C400.6,114.4,400.4,114.7,400.5,114.9z"/>
					</g>
				</g>
				<g>
					<g>
						<path class="st4" d="M423.2,102.3c-0.4,0.9-0.8,1.8-1.5,2.5c-0.8,0.6-2,0.7-2.6,0c-1.1,1.2-3.3,0.9-4-0.5
							c-1.2,1-3.1,1.1-4.3,0.2c-1.2,0.2-2.4,0.4-3.5,0.6c-1.3,0.2-2.9,0.3-3.6-0.8c-0.2-0.3-0.3-0.6-0.6-0.7c-0.3-0.1-0.6-0.1-0.9,0
							c-1,0.1-2-0.6-2.6-1.4s-0.9-1.8-1.2-2.8c-0.4-1.5-0.7-3.4,0.5-4.4c0.5-0.4,1.1-0.5,1.7-0.6c1.2-0.2,2.5-0.4,3.7-0.1
							c1.5,0.4,2.7,1.6,3.5,2.8c-0.3-0.8,0.3-1.7,1.1-2c0.8-0.3,1.7,0,2.4,0.4c1.1,0.6,2,1.4,2.6,2.5c2,0.1,3.8,1.4,4.6,3.2
							c0.9-0.5,2-0.7,3-0.4c0.4,0.1,0.7,0.3,0.9,0.6c0.2,0.3,0,0.8-0.4,0.9"/>
					</g>
				</g>
				<g>
					<g>
						<path class="st4" d="M411.8,102.4c0.5,1.6-0.1,3.5-1.5,4.4c-1.4,0.9-3.4,0.8-4.7-0.2c-0.6,1.6-2.5,2.5-4.1,2.1
							c-0.1,2-1.3,3.9-3.1,4.8c0.4,1,0.3,2.2-0.1,3.2c-0.3,0.6-0.8,1.2-1.4,1.5c-0.8,0.3-1.7,0.1-2.4-0.3c-1.1-0.5-2-1.4-2.3-2.5
							s0.2-2.5,1.3-3c-1-1-1.7-2.2-2.2-3.5c-0.3-0.7-0.4-1.6-0.1-2.3c0.4-0.7,1.4-1.1,2-0.5c-0.6-1.2-0.4-2.7,0.4-3.7
							c0.8-1,2.2-1.5,3.5-1.2c0.1-1.1,0.8-2.1,1.8-2.5c1-0.4,2.3-0.1,3,0.6"/>
					</g>
				</g>
				<g>
					<g>
						<path class="st4" d="M425.9,101.8c0-1.4,1.4-2.6,2.8-2.7c1.4-0.1,2.8,0.5,4.1,1.2c1.4-1.5,3.8-2,5.6-1.1
							c1.9,0.9,3,2.7,4.5,4.1c0.8,0.7,1.7,1.4,2.3,2.3c0.5,1,0.4,2.4-0.5,2.9c1.2,0.5,2.1,1.7,2.3,3s-0.5,2.7-1.6,3.4
							c-0.3,0.2-0.8,0.4-0.9,0.8c-0.1,0.3,0,0.7,0,1c0.5,1.6,1.3,3.1,1.5,4.8c0.2,1.7-0.2,3.6-1.7,4.4c-0.4,0.2-0.8,0.4-1,0.8
							c-0.1,0.3-0.1,0.6,0,0.9c0.2,0.9,0.7,1.8,1,2.7c0.4,0.9,0.6,1.9,0.3,2.8c-0.3,0.9-1.4,1.6-2.3,1.2c0.5,1.8,0.4,4-0.9,5.4
							s-5.1,1.9-7.4,0.4l0.1-5.4c0.4-0.9-0.9-6.1-0.2-7.1c0,0,1.4,3.6-2.2,2.8c-1.2,0.3-3.3-3.3-3.4-4.6s0.7-2.4,1.8-3
							c-2-1.7-2.5-4.8-1.1-7c-1.3-0.3-2.3-1.5-2.4-2.8s0.9-2.6,2.1-3c-3.3-1-5.1-5.3-3.4-8.4"/>
					</g>
				</g>
				<g>
					<g>
						<path class="st10" d="M432.9,125c0.2-0.1,6.8-2.4,6.9,4.5c0.1,6.9-6.8,5.6-6.8,5.4C432.9,134.7,432.9,125,432.9,125z"/>
					</g>
				</g>
				<g>
					<g>
						<path class="st11" d="M435,132.2c0,0,0.1,0.1,0.3,0.2c0.2,0.1,0.5,0.1,0.9,0c0.7-0.3,1.3-1.4,1.3-2.7c0-0.6-0.1-1.2-0.4-1.7
							c-0.2-0.5-0.5-0.8-0.9-0.9c-0.4-0.1-0.6,0.1-0.7,0.3c-0.1,0.2,0,0.3-0.1,0.3c0,0-0.1-0.1-0.1-0.4c0-0.1,0.1-0.3,0.3-0.4
							c0.2-0.1,0.4-0.2,0.7-0.2c0.5,0,1,0.5,1.3,1c0.3,0.5,0.5,1.2,0.4,1.9c0,1.4-0.7,2.7-1.7,3c-0.5,0.1-0.9,0-1.1-0.2
							C435,132.4,435,132.3,435,132.2z"/>
					</g>
				</g>
				<g>
					<g>
						<path class="st11" d="M414.6,135.1c-0.5-0.6-1.3-0.8-2.1-0.7s-1.4,0.6-1.8,1.3c-0.3,0.6-0.3,1.2-0.1,1.8
							c0.3,0.8,1.2,1.4,2.1,1.3c0.9-0.1,1.7-0.7,1.9-1.6s0.5-1.8-0.2-2.3"/>
					</g>
				</g>
				<g>
					<g>
						<path class="st8" d="M412.5,123.2c0,0,0.1-0.7,0.4-1.8c0.4-1.1,1.3-2.7,3.1-3.9c0.9-0.6,2-1,3.2-1.2c1.2-0.1,2.6,0,3.9,0.6
							c0.6,0.3,1.2,0.7,1.8,1.1c0.6,0.5,1.1,1,1.5,1.7c0.8,1.3,1.2,2.9,1.1,4.5c-0.1,1.6-0.8,3.1-1.7,4.3c-0.5,0.6-1.1,1.1-1.7,1.5
							c-0.6,0.4-1.3,0.7-1.9,0.9c-1.3,0.4-2.7,0.4-3.9,0.1c-1.2-0.3-2.2-0.9-3-1.6c-1.6-1.4-2.3-3.1-2.5-4.3
							C412.5,123.9,412.6,123.2,412.5,123.2c0,0-0.1,0.7,0,1.9c0.2,1.2,0.8,3,2.4,4.5c0.8,0.7,1.9,1.4,3.1,1.7
							c1.3,0.3,2.7,0.4,4.1,0c0.7-0.2,1.4-0.5,2-0.9c0.7-0.4,1.3-0.9,1.8-1.5c1-1.2,1.7-2.8,1.8-4.5c0.1-1.7-0.3-3.4-1.2-4.7
							c-0.4-0.7-0.9-1.3-1.5-1.8c-0.6-0.5-1.2-0.9-1.9-1.2c-1.3-0.6-2.8-0.7-4.1-0.6c-1.3,0.1-2.4,0.6-3.3,1.2
							c-1.8,1.2-2.7,2.9-3.1,4.1C412.5,122.5,412.5,123.2,412.5,123.2z"/>
					</g>
				</g>
				<g>
					<g>
						<path class="st8" d="M393.5,121.9c0,0,0.1-0.7,0.4-1.8c0.4-1.1,1.3-2.7,3.1-3.9c0.9-0.6,2-1,3.2-1.2c1.2-0.1,2.6,0,3.9,0.6
							c0.6,0.3,1.2,0.7,1.8,1.1c0.6,0.5,1.1,1,1.5,1.7c0.8,1.3,1.2,2.9,1.1,4.5c-0.1,1.6-0.8,3.1-1.7,4.3c-0.5,0.6-1.1,1.1-1.7,1.5
							c-0.6,0.4-1.3,0.7-1.9,0.9c-1.3,0.4-2.7,0.4-3.9,0.1c-1.2-0.3-2.2-0.9-3-1.6c-1.6-1.4-2.3-3.1-2.5-4.3
							C393.4,122.6,393.5,121.9,393.5,121.9c0,0-0.1,0.7,0,1.9c0.2,1.2,0.8,3,2.4,4.5c0.8,0.7,1.9,1.4,3.1,1.7
							c1.3,0.3,2.7,0.4,4.1,0c0.7-0.2,1.4-0.5,2-0.9c0.7-0.4,1.3-0.9,1.8-1.5c1-1.2,1.7-2.8,1.8-4.5c0.1-1.7-0.3-3.4-1.2-4.7
							c-0.4-0.7-0.9-1.3-1.5-1.8c-0.6-0.5-1.2-0.9-1.9-1.2c-1.3-0.6-2.8-0.7-4.1-0.6c-1.3,0.1-2.4,0.6-3.3,1.2
							c-1.8,1.2-2.7,2.9-3.1,4.1C393.4,121.2,393.5,121.9,393.5,121.9z"/>
					</g>
				</g>
				<g>
					<g>
						<path class="st8" d="M427.7,122.8c0,0.1,1.1,0.8,2.7,1.3c1.6,0.6,2.9,0.9,2.9,0.8c0-0.1-1.2-0.6-2.8-1.1
							C428.9,123.2,427.7,122.7,427.7,122.8z"/>
					</g>
				</g>
				<g>
					<g>
						<path class="st8" d="M408,120.8c0,0.1,1.2-0.2,2.5,0c1.4,0.2,2.3,0.9,2.4,0.8c0.1-0.1-0.8-1-2.3-1.2
							C409.1,120.2,407.9,120.7,408,120.8z"/>
					</g>
				</g>
				<g>
					<g>
						<path class="st3" d="M422.3,129.6c0,0,0.5,0,1.2-0.4c0.7-0.4,1.6-1,2.3-2.1c0.7-1.1,0.9-2.2,0.9-3c0-0.8-0.1-1.3-0.2-1.3
							c-0.1,0,0,0.5-0.1,1.3c-0.1,0.8-0.3,1.8-1,2.8c-0.6,1-1.5,1.7-2.1,2.1C422.8,129.4,422.3,129.5,422.3,129.6z"/>
					</g>
				</g>
				<g>
					<g>
						<path class="st3" d="M403.5,128.1c0,0,0.5,0,1.2-0.4c0.7-0.3,1.5-1,2.2-2c0.6-1,0.9-2,0.9-2.8c0-0.8-0.1-1.2-0.1-1.2
							c-0.1,0,0,0.5-0.1,1.2c-0.1,0.7-0.4,1.7-1,2.6c-0.6,0.9-1.4,1.6-2,2C403.9,127.8,403.5,128,403.5,128.1z"/>
					</g>
				</g>
			</g>
			<g>
				<g>
					<path class="st4" d="M415.3,133.1c0.1,0,0.3,0.5,0.1,1.3c-0.2,0.8-0.8,1.9-1.9,2.6c-1.1,0.7-2.4,0.7-3.2,0.5
						c-0.8-0.2-1.2-0.6-1.1-0.7c0.1-0.1,0.5,0,1.2,0c0.7,0,1.7-0.1,2.6-0.6c0.9-0.5,1.5-1.4,1.8-2
						C415,133.6,415.1,133.1,415.3,133.1z"/>
				</g>
			</g>
			<g>
				<g>
					<path class="st8" d="M434.2,94.1c0,0,0.1-0.1,0.4-0.2c0.3-0.1,0.6-0.4,1.1-0.5c1-0.4,2.7-0.7,4.7,0c1.9,0.8,3.8,2.6,4.9,5.2
						c0.5,1.3,0.9,2.7,0.9,4.3c0,0.8-0.1,1.6-0.4,2.4c-0.3,0.8-0.8,1.5-1.5,2.1l-0.1-0.4c1.6,0.7,2.9,2.1,3.3,4
						c0.4,1.8-0.3,3.9-1.7,5.2c-0.1,0.1-0.2,0.2-0.3,0.3l0-0.4c1.1,0.5,1.9,1.6,2.2,2.7c0.4,1.1,0.4,2.2,0.2,3.3
						c-0.4,2.2-1.5,4-2.2,5.8c-0.4,0.9-0.7,1.8-0.8,2.7c-0.2,0.9-0.2,1.8-0.4,2.7c-0.2,1.8-1,3.3-2.1,4.4c-2.1,2.3-4.6,2.9-6.3,3
						c-0.8,0-1.5-0.1-1.9-0.2c-0.4-0.1-0.6-0.2-0.6-0.2c0-0.1,0.9,0.3,2.5,0.2c1.6-0.1,4.1-0.8,6-3c1-1.1,1.7-2.5,1.9-4.3
						c0.1-0.9,0.2-1.8,0.4-2.7c0.2-0.9,0.5-1.9,0.8-2.8c0.7-1.8,1.8-3.7,2.1-5.7c0.1-1,0.1-2.1-0.2-3.1c-0.3-1-1-1.9-1.9-2.4
						l-0.3-0.2l0.3-0.3c0.1-0.1,0.2-0.2,0.3-0.3c1.3-1.2,1.9-3.1,1.6-4.7c-0.3-1.7-1.6-3-3-3.6l-0.4-0.2l0.3-0.2
						c1.3-1,1.7-2.6,1.7-4c0-1.5-0.3-2.9-0.8-4.2c-1-2.5-2.8-4.3-4.6-5.1c-1.8-0.8-3.5-0.5-4.5-0.2c-0.5,0.1-0.9,0.4-1.2,0.4
						C434.3,94.1,434.2,94.1,434.2,94.1z"/>
				</g>
			</g>
			<g>
				<g>
					<path class="st8" d="M436.3,92.8c0,0,0.3,0.2,0.6,0.6c0.4,0.4,0.8,1.1,1.1,2.1c0.3,1,0.3,2.2-0.2,3.5c-0.5,1.3-1.6,2.4-3,3
						c-1,0.4-2,0.6-3,0.4l0.2-0.1c-1.7,1.7-3.9,2.2-5.3,2.2c-0.7,0-1.3-0.1-1.7-0.3c-0.4-0.1-0.6-0.2-0.6-0.2c0-0.1,0.8,0.2,2.2,0.2
						c1.4,0,3.4-0.6,4.9-2.2l0.1-0.1l0.1,0c0.9,0.1,1.8,0,2.7-0.4c1.3-0.6,2.3-1.6,2.8-2.8c0.5-1.1,0.5-2.3,0.3-3.3
						C437.3,93.7,436.2,92.8,436.3,92.8z"/>
				</g>
			</g>
			<g>
				<g>
					<path class="st8" d="M441.7,94.1c0,0,0.1,0.1,0.2,0.2c0.1,0.1,0.3,0.4,0.4,0.7c0.3,0.6,0.7,1.6,0.7,2.9c0,1.3-0.2,2.8-1.1,4.3
						c-0.9,1.5-2.5,2.7-4.4,3.2c-1.6,0.4-3.3,0.3-4.6-0.2l0.3-0.1c-0.7,1.2-1.9,2-3,2.4c-1.1,0.4-2.2,0.3-3,0.1
						c-0.8-0.2-1.4-0.6-1.8-0.9c-0.4-0.3-0.5-0.5-0.5-0.5c0-0.1,0.7,0.7,2.3,1.1c0.8,0.2,1.8,0.2,2.8-0.2c1-0.4,2-1.1,2.7-2.2
						l0.1-0.2l0.2,0.1c1.3,0.5,2.8,0.6,4.3,0.2c1.8-0.5,3.3-1.6,4.2-2.9c0.9-1.3,1.2-2.8,1.2-4C442.7,95.4,441.6,94.1,441.7,94.1z"
						/>
				</g>
			</g>
		</g>
		<g>
			<g>
				<g>
					<g>
						<path class="st11" d="M308.4,194.3c0.3,0.3,0.7,0.6,1,1c0.1,0.1,0.2,0.2,0.4,0.2c0.2,0,0.3-0.2,0.4-0.3c0.3-0.6,0.4-1.3,0.1-2
							s-0.6-1.2-1.1-1.7c-0.2-0.2-0.5-0.4-0.8-0.4c-0.3,0-0.6,0.2-0.8,0.4c-0.3,0.3-0.6,0.6-0.9,0.9c-0.1,0.2-0.3,0.3-0.2,0.5
							c0,0.2,0.2,0.3,0.3,0.4C307.3,193.7,308,193.9,308.4,194.3"/>
					</g>
				</g>
				<g>
					<path class="st10" d="M317.1,176.6c-1.5-0.1-8.3-1.1-8.3-1.1l-10.5,2c0,0,0.3,3,2.5,2.8c2.2-0.2,4.5-0.2,4.5-0.2l3.7,0.6
						c0,0-5.4,3.3-5.4,4c-0.1,0.7,0.3,1.5,0.3,1.5s-0.9,1.8-0.3,3.8l0,4.9l4.8,3.6c0,0,0.8-1.2,0.5-2.6c-0.3-1.4-2.1-2.3-2.1-2.3
						l1.2-2l1.8-0.5c0,0,11.2,3.7,13.8,3.6l2.2,2.1l8.5-10.4C334.2,186.3,318.6,176.7,317.1,176.6z"/>
				</g>
				<g>
					<g>
						<g>
							<path class="st11" d="M309.8,186.6c0,0.1-1.4,0.7-3.1,1.6c-1.7,0.9-2.9,1.9-3,1.8c-0.1-0.1,1-1.2,2.8-2.2
								C308.2,186.8,309.7,186.4,309.8,186.6z"/>
						</g>
					</g>
				</g>
				<g>
					<g>
						<g>
							<path class="st11" d="M310.8,182.8c0,0.1-1.5,0.8-3.4,1.7c-1.8,1-3.3,1.9-3.3,1.8c-0.1-0.1,1.2-1.2,3.1-2.2
								C309.1,183.1,310.8,182.7,310.8,182.8z"/>
						</g>
					</g>
				</g>
				<g>
					<g>
						<g>
							<path class="st11" d="M314.6,177.4c0,0.1-1.2,0.9-2.8,1.9c-1.6,1-3,1.7-3,1.5c-0.1-0.1,1.2-0.9,2.8-2
								C313.1,177.9,314.5,177.3,314.6,177.4z"/>
						</g>
					</g>
				</g>
			</g>
			<g>
				<g>
					<g>
						<g>
							<g>
								<path class="st5" d="M442.6,189l-12,59.5c0,0,9.2,23.6,7.8,34.6c-0.8,6.4-4.7,20.2-4.7,20.2L373.2,283c-2.8-1-4.4-3.9-4-6.8
									c2.6-15.8,10.7-63.7,13.9-74.5c5.4-18.2,22.2-39.4,22.2-39.4l0,0l0.3-6.2l30.6,0.4l-0.2,6.2C436,162.8,446,174.1,442.6,189z
									"/>
							</g>
						</g>
					</g>
				</g>
			</g>
			<g>
				<g>
					<g>
						<g>
							<g>
								<g>
									<path class="st5" d="M421.2,168.7c3.7-1,4.2,0.4,10.1,3c5.9,2.7,7,16.9,7,16.9l-8.3,14.5l-43.7,25.2c0,0-8.9,6.3-22.8-3.2
										c-5.1-3.5-39.7-26.4-39.7-26.4l10.1-15.2l40.9,18.4L421.2,168.7z"/>
								</g>
							</g>
						</g>
					</g>
					<g class="st9">
						<g>
							<path d="M400.1,220.4c12.3-8,24.2-15.7,36.4-23.7c0.5-0.3,1-0.6,1.5-0.6c1,0,1.8,1.1,1.8,2.1c0,1-0.6,1.9-1.3,2.7
								c-3.4,4.1-8.4,6.4-13.3,8.6c-8.3,3.7-20.1,9.1-28.4,12.9L400.1,220.4z"/>
						</g>
					</g>
				</g>
			</g>
			<g>
				<g>
					<path class="st4" d="M415,173.3c0,0-0.1,0.1-0.2,0.2c-0.2,0.1-0.3,0.3-0.6,0.4c-0.5,0.4-1.3,0.9-2.2,1.6
						c-2,1.4-4.8,3.4-8.2,5.9c-7,5-16.5,11.8-27.1,19.3c-0.6,0.4-1.2,0.8-1.8,1.2l-0.1,0.1l-0.1-0.1c-11.4-5.1-21.6-9.7-29.1-13
						c-3.7-1.7-6.6-3-8.7-4c-1-0.5-1.8-0.8-2.4-1.1c-0.2-0.1-0.4-0.2-0.6-0.3c-0.1-0.1-0.2-0.1-0.2-0.1c0,0,0.1,0,0.2,0.1
						c0.2,0.1,0.4,0.1,0.6,0.3c0.6,0.2,1.4,0.6,2.4,1c2.1,0.9,5.1,2.2,8.8,3.8c7.5,3.3,17.7,7.8,29.1,12.9l-0.3,0
						c0.6-0.4,1.2-0.8,1.8-1.2c10.6-7.5,20.2-14.3,27.2-19.2c3.5-2.4,6.3-4.4,8.3-5.8c1-0.7,1.7-1.2,2.3-1.5
						c0.2-0.2,0.4-0.3,0.6-0.4C415,173.3,415,173.3,415,173.3z"/>
				</g>
			</g>
			<g>
				<g>
					<path class="st4" d="M433.6,198.7c0,0-0.2,0.2-0.6,0.5c-0.4,0.3-1.1,0.8-1.9,1.3c-1.7,1.1-4.1,2.8-7.1,4.8
						c-6,4-14.4,9.4-23.8,15.1c-4.7,2.9-9.2,5.6-13.4,7.8c-0.5,0.3-1.1,0.5-1.6,0.8c-0.3,0.1-0.5,0.2-0.8,0.4
						c-0.3,0.1-0.5,0.2-0.8,0.3c-1.1,0.4-2.2,0.6-3.2,0.7c-2.1,0.3-4.1,0.1-5.9-0.3c-1.8-0.4-3.3-0.9-4.7-1.5
						c-0.7-0.3-1.3-0.6-1.8-0.9c-0.5-0.3-1-0.6-1.5-0.8c-0.9-0.5-1.5-1-1.9-1.3c-0.4-0.3-0.6-0.5-0.6-0.5s0.2,0.1,0.7,0.4
						c0.4,0.3,1.1,0.7,2,1.2c0.4,0.2,0.9,0.5,1.5,0.8c0.6,0.2,1.1,0.6,1.8,0.8c1.3,0.6,2.9,1.1,4.6,1.4c3.5,0.7,8,0.5,12.1-1.9
						c4.2-2.2,8.7-5,13.4-7.8c9.4-5.8,17.8-11.1,23.8-15c3-1.9,5.4-3.5,7.2-4.6c0.8-0.5,1.5-0.9,2-1.3
						C433.3,198.8,433.6,198.7,433.6,198.7z"/>
				</g>
			</g>
			<g>
				<g>
					<path class="st4" d="M437.8,171.1c-0.1,0.1-0.9-0.7-2.6-1.6c-1.6-0.9-4.2-1.8-7-1.8c-2.9,0-5.4,0.8-7.1,1.6
						c-1.7,0.8-2.6,1.6-2.7,1.5c0,0,0.2-0.2,0.6-0.6c0.4-0.3,1-0.8,1.9-1.3c1.7-0.9,4.3-1.9,7.3-1.8c3,0,5.6,1,7.2,2
						c0.8,0.5,1.5,1,1.9,1.3C437.6,170.9,437.8,171.1,437.8,171.1z"/>
				</g>
			</g>
			<g>
				<g>
					<path class="st4" d="M435.4,162.7c0,0-0.4,0.2-1.1,0.3c-0.7,0.2-1.8,0.4-3.2,0.6c-2.7,0.4-6.5,0.8-10.6,0.8
						c-4.2-0.1-7.9-0.5-10.6-1c-1.3-0.3-2.4-0.5-3.2-0.7c-0.7-0.2-1.1-0.3-1.1-0.4c0,0,0.4,0,1.2,0.2c0.7,0.1,1.8,0.3,3.2,0.5
						c2.7,0.4,6.4,0.8,10.6,0.9c4.1,0,7.9-0.3,10.6-0.6c1.3-0.2,2.4-0.3,3.2-0.5C434.9,162.7,435.4,162.6,435.4,162.7z"/>
				</g>
			</g>
			<g>
				<g>
					<path class="st4" d="M420.3,229c0.1,0,0.6,1.1,1.5,3c0.9,1.8,2.1,4.4,3.5,7.1c1.4,2.7,2.8,5.2,3.8,7c1,1.8,1.6,2.9,1.6,2.9
						c-0.1,0-0.8-1-1.9-2.7c-1.1-1.7-2.5-4.1-3.9-6.9c-1.4-2.8-2.6-5.3-3.4-7.2C420.7,230.2,420.2,229,420.3,229z"/>
				</g>
			</g>
			<g>
				<g>
					<path class="st4" d="M380.9,285.6c-0.1-0.1,1.3-1.8,2-4.4c0.7-2.6,0.2-4.8,0.4-4.8c0.1-0.1,0.8,2.2,0.1,5
						C382.7,284.1,380.9,285.7,380.9,285.6z"/>
				</g>
			</g>
			<g>
				<g>
					<path class="st4" d="M399.1,281.3c0.1,0,0.2,0.6,0.3,1.5c0,1-0.1,2.3-0.6,3.7c-0.5,1.4-1.4,2.5-2,3.1c-0.7,0.7-1.2,1-1.3,0.9
						c-0.1-0.1,1.8-1.6,2.8-4.3C399.4,283.7,399,281.3,399.1,281.3z"/>
				</g>
			</g>
			<g>
				<g>
					<path class="st4" d="M417.1,285.8c0.1,0,0.5,2.7-0.5,5.8c-1,3.1-2.9,5.1-3,5c-0.1-0.1,1.5-2.1,2.5-5.2
						C417.1,288.4,417,285.8,417.1,285.8z"/>
				</g>
			</g>
			<g>
				<g>
					<path class="st4" d="M429.5,289.4c0.1,0,0.3,0.7,0.4,1.8c0.1,1.2,0.1,2.8-0.2,4.5c-0.3,1.7-0.9,3.3-1.5,4.3c-0.5,1-1,1.6-1,1.6
						c-0.1-0.1,1.4-2.5,2-5.9C429.8,292.2,429.3,289.4,429.5,289.4z"/>
				</g>
			</g>
		</g>
	</g>
</g>
<g id="Floor">
	<g>
		<g>
			<path class="st4" d="M447.5,478.2c0,0.1-88.4,0.3-197.5,0.3c-109.1,0-197.6-0.1-197.6-0.3c0-0.1,88.4-0.3,197.6-0.3
				C359.1,477.9,447.5,478,447.5,478.2z"/>
		</g>
	</g>
</g>
</svg>
