<?xml version="1.0" encoding="UTF-8"?>
<svg id="characters" xmlns="http://www.w3.org/2000/svg" viewBox="0 0 2274 1152">
  <defs>
    <style>
      .cls-1 {
        fill: #f9b546;
      }

      .cls-2 {
        fill: #6a1b21;
      }

      .cls-3 {
        fill: #e9946b;
      }

      .cls-4, .cls-5 {
        fill: #e86f64;
      }

      .cls-6 {
        fill: #ea8a6f;
      }

      .cls-7 {
        fill: #fff;
      }

      .cls-8 {
        fill: #fff3e1;
      }

      .cls-9 {
        fill: #ffe7d7;
      }

      .cls-10 {
        fill: #f1e6dc;
      }

      .cls-11, .cls-12 {
        fill: #e5eaec;
      }

      .cls-13 {
        fill: #ed4450;
      }

      .cls-14 {
        fill: #efb44b;
      }

      .cls-15 {
        fill: #e5d6ca;
      }

      .cls-16 {
        fill: #fc9081;
      }

      .cls-17 {
        fill: #739bc8;
      }

      .cls-18, .cls-19 {
        fill: #978c50;
      }

      .cls-20 {
        fill: #6c4e4e;
      }

      .cls-21 {
        fill: #93aabc;
      }

      .cls-22 {
        fill: #912f36;
      }

      .cls-23 {
        fill: #bfb478;
      }

      .cls-24 {
        fill: #b0c1d3;
      }

      .cls-25 {
        fill: #a54b22;
      }

      .cls-26 {
        fill: #a55d49;
      }

      .cls-27, .cls-28 {
        fill: #c02328;
      }

      .cls-29 {
        fill: #d87856;
      }

      .cls-30 {
        fill: #de835c;
      }

      .cls-31 {
        fill: #d45c48;
      }

      .cls-32 {
        fill: #db7a53;
      }

      .cls-33, .cls-34 {
        fill: #d89b39;
      }

      .cls-35, .cls-36 {
        fill: #d87160;
      }

      .cls-37 {
        fill: #a89f6b;
      }

      .cls-38 {
        fill: #3e4142;
      }

      .cls-39 {
        fill: #3f2d2d;
      }

      .cls-40 {
        fill: #1a1a1a;
      }

      .cls-41, .cls-42 {
        fill: #953b16;
      }

      .cls-43 {
        fill: #70342c;
      }

      .cls-44, .cls-45 {
        fill: #464c7b;
      }

      .cls-46 {
        fill: #635a3e;
      }

      .cls-47 {
        fill: #2d4c5e;
      }

      .cls-48, .cls-49 {
        fill: #376b90;
      }

      .cls-50 {
        fill: #3a1714;
      }

      .cls-51 {
        fill: #2e3233;
      }

      .cls-52 {
        fill: #4c2422;
      }

      .cls-53, .cls-54 {
        fill: #4a3333;
      }

      .cls-55 {
        fill: #5f7ab3;
      }

      .cls-56 {
        fill: #766782;
      }

      .cls-57 {
        fill: #772932;
      }

      .cls-58 {
        fill: #776680;
      }

      .cls-59 {
        fill: #842a2e;
      }

      .cls-60 {
        fill: #343851;
      }

      .cls-54, .cls-49, .cls-45, .cls-34, .cls-36, .cls-28, .cls-19, .cls-5, .cls-12 {
        opacity: .5;
      }

      .cls-42 {
        opacity: .65;
      }
    </style>
  </defs>
  <g>
    <path class="cls-8" d="M2146.21,488.73c-14.54-27.23-11.32-60.54-3-90.27,8.32-29.72,21.35-58.29,25.6-88.86,4.52-32.44-1.52-66.69-19.16-94.28-29.15-45.6-195.25-90.05-230.95-98.29-168.37-38.85-344.52-49.51-516.83-51.73-80.26-1.03-160.72,.36-240.76,6.73-51.92,4.13-107.27,8.02-156.77,25.52-162.57,57.45-31.78,151.57-157.68,177.24-125.9,25.67-535.38-157.68-691.84-56.23-156.46,101.45-11,409.48-11,409.48l-67.23,174.79,53.78,122.23-29.78,86.37,402.24,2.25,54.54-35.22,461.18-26.58,53.02,42.86,634.39-3.67,206.57,64.78,169.9-97.79c22.64-46.46,41.26-95.22,58.25-143.97,16.65-47.76,31.15-96.31,42.68-145.57,9.97-42.6,23.9-92.99-1.64-132.72-10.64-16.56-26.24-29.71-35.51-47.07Z"/>
    <path class="cls-8" d="M83.7,553.55c.82,9.1,3.93,16.84,7.11,25.33,3.11,8.32,16.3,4.49,13.34-4.05-2.96-8.54-5.43-16.71-10.59-24.22-2.79-4.06-10.35-2.63-9.85,2.94Z"/>
    <path class="cls-8" d="M89.02,527.87c-.31-1.12-.62-2.24-.93-3.37-.45-1.63-1.78-3.19-3.25-4-1.49-.82-3.65-1.13-5.28-.55-3.56,1.26-5.58,4.84-4.56,8.53,.31,1.12,.62,2.24,.93,3.37,.45,1.63,1.78,3.19,3.25,4,1.49,.82,3.65,1.13,5.28,.55,3.56-1.26,5.58-4.84,4.56-8.53Z"/>
    <path class="cls-8" d="M2238.15,574.39c-4.98-34.66-24.58-64.81-44.62-92.64-5.55-7.71-18.29-.7-12.99,7.59,17.32,27.05,36.7,54.83,41.89,87.23,5.67,35.37-7.68,71.05-19.5,103.77-3.22,8.93,10.79,12.57,14.12,3.89,13.45-35.06,26.59-71.69,21.11-109.84Z"/>
    <path class="cls-8" d="M2163.77,431.67c-2.19,6.91-1.68,13.48,.63,20.28,3.08,9.1,16.92,5.47,14.5-4-1.37-5.36-2.24-10.87-3.4-16.29-1.32-6.16-10.02-5.4-11.73,0Z"/>
    <path class="cls-8" d="M1272.35,24.05c-57.57-.21-115.2-.06-172.45,6.77-54.81,6.54-111.57,19.1-160.68,45.16-24.37,12.93-46.54,31.19-56.79,57.49-3.37,8.65,10.26,12.95,13.68,4.42,8.8-21.96,28.23-36.83,48.49-47.7,22.54-12.09,47.12-20.63,71.72-27.44,52.85-14.62,107.72-19.88,162.35-21.9,31-1.15,62-1.48,93.02-1.64,9.72-.05,10.46-15.12,.66-15.16Z"/>
  </g>
  <g>
    <g>
      <path class="cls-58" d="M572.83,1011.28c3.31,11.17-107.8,8.19-244.86,8.19s-251.47,1.49-251.47-8.19c0-5.35,109.45-3.72,246.51-3.72s248.29-1.44,249.82,3.72Z"/>
      <path class="cls-22" d="M228.8,921.71s-26.6,94.88-24.56,95.59c2.04,.7,13.97,.35,13.97,.35l43.11-93.34-32.52-2.6Z"/>
      <path class="cls-2" d="M113.97,918.08s-22.51,91.91-20.47,92.61c2.04,.7,14.68,.78,14.68,.78l38.31-90.78-32.52-2.6Z"/>
      <path class="cls-23" d="M498.34,912.92c-.78,15.06,.04,26.67,.02,41.75-.96,.07-1.9,.13-2.84,.19-16.46,1.11-32.57,1.7-47.53,2.01-22.6,.49-42.52,.36-56.84,.51-15.99,.16-29.32,.23-39.22,.24-6.23,.01-11.12-.01-14.43-.06-1.06-.01-1.97-.02-2.7-.04-7.85-.19-22.64-.37-41.48-.7-12.65-.25-27.12-.56-42.54-1-9.06-.25-18.48-.56-28.01-.92-12.89-.51-26.05-1.1-39.01-1.85-1.78-.08-3.52-.19-5.24-.29-1.72-.11-3.42-.19-5.09-.3-.94-.05-1.89-.11-2.82-.16-1.05-.06-2.09-.11-3.13-.18-.05,0-.11,0-.17-.01-.97-.05-1.93-.11-2.88-.17-.25-.01-.5-.02-.75-.05-.78-.04-1.54-.08-2.29-.13h-.06c-.78-.05-1.55-.1-2.32-.14-.76-.04-1.52-.08-2.27-.13-1.39-.08-2.73-.18-4.07-.26-.6-.02-1.19-.06-1.78-.11-.67-.04-1.34-.08-1.98-.13-1.96-.12-3.87-.25-5.73-.38-.76-.06-1.5-.11-2.25-.17-1.41-.1-2.78-.2-4.13-.3-.31-.04-.62-.06-.93-.08-.64-.05-1.27-.1-1.9-.16-1.34-.11-2.68-.22-3.98-.35-1.67-.13-3.31-.3-4.9-.45-.05,0-.07-.01-.12-.01-2.28-.23-4.48-.47-6.59-.73-2.11-.25-4.14-.53-6.08-.81-.49-.07-.99-.16-1.48-.23l-1.36-.21c-.29-.06-.57-.1-.87-.14-.16-.04-.33-.06-.49-.1-.45-.07-.91-.16-1.35-.24-.44-.07-.88-.16-1.31-.24-.86-.17-1.7-.33-2.52-.51-.41-.08-.81-.18-1.22-.26-.76-.18-1.5-.36-2.23-.54-2.93-.74-5.54-1.58-7.87-2.52-.18-.07-.37-.14-.55-.22-1.04-.44-2.01-.9-2.93-1.37-.16-.1-.31-.17-.47-.25-.67-.37-1.3-.75-1.9-1.15-.23-.14-.45-.31-.67-.45-.66-.47-1.27-.94-1.83-1.45-.38-.33-.76-.73-1.16-1.18-.16-.19-.31-.38-.47-.57-.16-.19-.31-.41-.47-.62-.16-.22-.31-.44-.47-.68-.32-.48-.64-.97-.96-1.5-.47-.81-.96-1.7-1.43-2.66-.17-.31-.31-.63-.49-.97-.56-1.18-1.12-2.44-1.7-3.81h0c-.74-1.77-1.47-3.68-2.21-5.73-.08-.24-.17-.47-.24-.69-.33-.93-.67-1.89-.99-2.88-.17-.48-.33-.98-.5-1.49-.17-.51-.32-1.02-.49-1.54-.25-.78-.5-1.56-.75-2.38-.24-.81-.49-1.64-.73-2.47-.18-.56-.33-1.13-.51-1.71-.32-1.13-.64-2.3-.98-3.49-.08-.3-.18-.6-.25-.9-.25-.91-.5-1.82-.74-2.76-.17-.61-.33-1.23-.5-1.88-.49-1.89-.99-3.83-1.48-5.83-.49-1.98-.99-4.02-1.48-6.13-.32-1.37-.66-2.79-.98-4.22h0c-.26-1.17-.53-2.34-.79-3.52-.21-1.02-.44-2.02-.66-3.05-.17-.74-.32-1.49-.49-2.25-.01-.04-.02-.08-.02-.13-.48-2.22-.94-4.47-1.41-6.74-.16-.79-.32-1.56-.48-2.35-.27-1.37-.55-2.76-.82-4.16-1.06-5.39-2.11-10.94-3.12-16.65-.23-1.27-.45-2.53-.68-3.81-.3-1.71-.6-3.42-.88-5.14h0c-.45-2.6-.88-5.21-1.31-7.85-.3-1.76-.57-3.52-.86-5.29-.29-1.78-.57-3.56-.85-5.34-.82-5.37-1.62-10.8-2.41-16.27-.39-2.75-.78-5.48-1.16-8.24-.49-3.68-.99-7.36-1.47-11.06-.24-1.84-.48-3.69-.69-5.54-.86-6.84-1.67-13.71-2.41-20.53-.26-2.38-.53-4.75-.76-7.13,0-.06-.01-.12-.02-.18-.18-1.77-.36-3.55-.53-5.3-.1-.92-.19-1.83-.27-2.73-.05-.38-.07-.78-.12-1.16-.12-1.22-.24-2.44-.35-3.65-.05-.61-.11-1.22-.17-1.83-.12-1.21-.23-2.42-.32-3.62-.02-.2-.04-.39-.06-.6-.07-.9-.16-1.79-.24-2.69-.23-2.69-.44-5.35-.66-8-.13-1.61-.25-3.22-.37-4.82-.01-.14-.02-.29-.02-.44-.13-1.74-.26-3.49-.38-5.21-.07-1.04-.13-2.05-.2-3.07-.05-.7-.1-1.4-.13-2.09-.23-3.4-.42-6.78-.59-10.08-.05-.84-.1-1.66-.12-2.48-.12-2.46-.24-4.91-.33-7.3-.04-.81-.06-1.6-.08-2.4-.02-.22-.02-.43-.02-.63-.06-1.37-.1-2.73-.13-4.08-.05-1.55-.08-3.09-.12-4.61-.01-.74-.02-1.48-.04-2.22-.04-1.52-.05-3.02-.06-4.5-.01-.74-.02-1.48-.02-2.2-.01-4.01,.02-7.91,.11-11.61,.01-.76,.04-1.52,.06-2.27,.01-.74,.05-1.49,.07-2.22,.02-.73,.06-1.46,.08-2.16,.04-.73,.06-1.43,.11-2.14,.07-1.76,.19-3.48,.31-5.14,.04-.67,.08-1.33,.14-1.97,.2-2.6,.45-5.06,.74-7.4,.07-.59,.14-1.16,.23-1.72,.04-.29,.07-.55,.12-.84,.04-.27,.07-.55,.12-.82,.1-.69,.21-1.36,.32-2.02,.06-.33,.11-.67,.17-.99,.11-.57,.22-1.12,.31-1.67,.11-.49,.19-.97,.31-1.43,.06-.31,.13-.6,.19-.88,.07-.3,.13-.6,.21-.9,.06-.26,.13-.53,.2-.78,.05-.22,.11-.43,.17-.64,.02-.1,.06-.2,.08-.32,.12-.45,.25-.9,.38-1.33,.35-1.11,.72-2.15,1.1-3.11,.14-.33,.27-.66,.43-.97,.11-.25,.22-.48,.32-.7,.11-.23,.23-.45,.33-.66,.08-.14,.17-.29,.24-.43,.07-.13,.14-.25,.21-.37,.1-.14,.17-.27,.25-.42,.45-.7,1.06-1.22,1.4-1.84,1.53-2.73,25.44-5.41,59.33-7.33h.01c4.84-.29,9.89-.54,15.1-.79,10.59-.49,21.88-.91,33.57-1.24,83.66-2.42,187.38-.41,199.9,11.99,4.5,4.47,9.61,14.63,14.7,27.55,11.49,29.14,22.89,72.31,27.18,95.84,.64,3.58,1.13,6.71,1.43,9.27,1.72,14.81,1.95,11.18,8.06,24.95,7.51,16.91,14.1,13.93,31.54,15.51,14.1,1.28,31.88-.26,45.35,6.11,3.67,1.74,7.02,4.06,9.9,7.19,5.25,5.72,7.73,13.04,8.84,20.78,1.21,8.3,.85,17.07,.75,24.79-.36,25.16-1.45,50.23-2.72,75.37Z"/>
      <path class="cls-37" d="M83.27,937.68c12.1,10.71,43.91,12.15,100.5,15.38,4.76-2.24,9.66-6.51,12.36-14.54,6.37-18.98-14.45-163.2-45.15-180.78-34.09-19.51-52.3-4.97-67.79-37.05-15.49-32.08,3.97-107.89-28.77-118.13-3.57-1.12-7.05-.24-10.41,2.21-23.31,36.36,14.18,310.7,39.27,332.91Z"/>
      <path class="cls-18" d="M415.83,778.81c2.31-1.4,5.04-2,7.92-2.17-2.63-.64-5.2-1.43-7.68-2.4-.77,.31-1.53,.68-2.27,1.13-2.2,1.33-.18,4.77,2.03,3.43Z"/>
      <path class="cls-18" d="M497.63,927.95c-36.51-.87-66.36-2.32-81.59-.58-40.11,4.58-129.57,4.41-154.61-16.72-4.17-3.52-6.29-7.34-6.48-11.68-.74-16.35-.43-32.07-.13-47.28,.37-18.83,.72-36.62-1.07-52.38-.21-1.84-.43-3.55-.69-5.22-3.9-26.1-14.71-43.17-34.02-53.7-19.91-10.85-46.69-7.8-70.32-5.12-21.41,2.43-41.64,4.73-53.11-3.42-.87-.62-2.08-.42-2.7,.44-.62,.86-.43,2.06,.44,2.67,12.67,9.02,33.63,6.64,55.8,4.12,24.18-2.75,49.19-5.59,68.01,4.67,18.41,10.04,28.3,25.75,32.06,50.91,.25,1.63,.47,3.28,.67,5.07,1.77,15.51,1.42,33.18,1.05,51.88-.3,15.27-.61,31.05,.13,47.52,.24,5.38,2.88,10.24,7.84,14.42,18.68,15.77,67.21,19.99,107.34,19.99,20.76,0,39.26-1.13,50.22-2.38,15.07-1.72,44.71-.28,81,.59,.05-1.27,.1-2.55,.15-3.82Z"/>
      <path class="cls-46" d="M337.5,957.56c-1.06-.01-1.96-.02-2.7-.04-7.84-.19-22.63-.36-41.47-.71,2.82-24.83-20.67-151.65-20.67-151.65l51.43,40.32,13.41,112.07Z"/>
      <path class="cls-46" d="M501.38,781.02l-1.07,31.73-4.79,142.11c-16.45,1.11-32.57,1.69-47.52,2,.02-.03,.03-.06,.05-.09,12.14-21.67,1.61-126.82-7.1-139.49-11.08-16.12-33.67-18.35-33.67-18.35l74.31-14.14,19.8-3.77Z"/>
      <path class="cls-37" d="M395.19,728.94l-64.73,5.89-19.11-90.77,56.66-10.96c11.49,29.14,22.89,72.31,27.18,95.84Z"/>
    </g>
    <g>
      <polygon class="cls-7" points="334.04 562.85 366.29 565.24 369.87 626.15 320.9 688.25 298.21 651.23 334.04 562.85"/>
      <path class="cls-27" d="M345.98,718.11s8.36-5.97,9.55-13.14c1.19-7.17-3.58-16.72,0-35.83,3.58-19.11,4.78,1.19,4.78,1.19,0,0,15.53,14.33,17.91,20.3,2.39,5.97,10.53,16.6,12.43,17.26,1.9,.65,25.79-16.07,25.79-16.07l-18.35-72.86-17.48-52.54s-15.53-14.33-21.5-16.72-1.92,17.79-1.92,17.79l3.71-.47s-2.39,35.83-19.11,71.66c-16.72,35.83-19.11,65.69-19.11,65.69l.77,14.11,22.52-.37Z"/>
      <g>
        <path class="cls-59" d="M392.98,491.34s16.83-9.72,16.29-33.84c-.54-24.13-21.07-14.46-22.65-13.64-1.43-5.35-7.02-13.64-21.83-12.48-18.46,1.46-32.23,19.42-32.23,19.42,0,0-21.51-.05-21.91,21.15-.51,26.94,7.85,48.84,18.65,58.12,5.48,4.71,63.68-38.73,63.68-38.73Z"/>
        <path class="cls-3" d="M339.4,576.23s.07,.07,.11,.11c8.45,7.75,19.13,.83,21.33-9.15-.05-.06-.11-.12-.15-.16-.1-.12-.18-.25-.22-.36-.61-1.96-.64-5.79-.51-9.33,.09-2.32,.26-4.53,.39-6.02,.1-1.15-31.43-50-31.43-50,0,0,3.92,20.95-5.63,30.5,.9,9.04,8.44,30.71,16.11,44.43Z"/>
        <path class="cls-40" d="M360.69,567.01c-.1-.12-.18-.25-.22-.36-.61-1.96-.64-5.79-.51-9.33,.09-2.32,.26-4.53,.39-6.02l-1.4-1.24c-.11-.89-.42-1.79-.67-2.86-.29-1.21-.52-2.61-.32-4.36,0-.03,0-.06,0-.1-7.39-9.11-15.38-18.96-20.47-20.15-.91-.22-1.73-.17-2.45,.21-1.3,.67-2.29,2.35-2.53,5.39-2.17,26.78,21.84,38.14,28.18,38.82Z"/>
        <path class="cls-59" d="M334.67,458.42c-.11,0-.23,0-.34-.02-.79-.14-1.32-.9-1.18-1.69,0-.03,.59-3.64-1.43-6.03-1.27-1.51-3.37-2.28-6.25-2.29-2,0-3.89,.36-5.62,1.1-.74,.31-1.6-.03-1.92-.77-.32-.74,.03-1.6,.77-1.92,2.09-.89,4.38-1.35,6.77-1.33,3.79,.01,6.64,1.14,8.49,3.35,2.88,3.45,2.08,8.2,2.05,8.4-.12,.68-.69,1.16-1.35,1.2Z"/>
        <g>
          <path class="cls-3" d="M395.11,497.43c-.87,4.78-2.5,42.18-13.34,51.74-5.73,5.05-19.36,3.95-25.7,2.36-19.52-4.91-26.21-18.72-26.8-34.06,0,0-17.64-12.17-7.48-25.01,6.92-8.75,15.94,5.24,15.94,5.24,0,0,4.66-5.29,9.5-18.43,11.27,3.14,36.93,1.69,45.15-7.08,0,0,4.15,17.4,2.73,25.23Z"/>
          <path class="cls-40" d="M361.8,500.08c-.47-.6-1.06-.97-1.77-.98-.08-.01-.16-.02-.24-.03-.03,0-.05-.02-.09-.02-.03,0-.05,0-.08,0-2.44-.07-3.52,3.14-2.6,5.13,.09,.46,.27,.89,.63,1.2,.36,.3,.82,.47,1.29,.51,.04,.02,.07,.05,.12,.07,1.1,.36,1.96-.18,2.51-1.09,1.2-1.21,1.32-3.37,.22-4.78Z"/>
          <path class="cls-40" d="M392.12,503.14c-.83-1.45-2.71-1.92-4.1-.98-.12,.08-.24,.18-.34,.29-.36,.33-.6,.78-.64,1.3,0,.06-.01,.12-.01,.18,0,.02,0,.04,0,.06,.02,.91,.07,1.84,.51,2.67,.86,1.59,2.96,1.61,4.17,.43,1.05-1.03,1.13-2.71,.43-3.95Z"/>
          <path class="cls-31" d="M377.25,522.05c-.02-.83-.75-1.54-1.59-1.51-.83,.03-1.65,.06-2.48,.08-.84,.03-1.53,.75-1.51,1.59,.02,.83,.75,1.54,1.59,1.51,.83-.03,1.65-.06,2.48-.08,.84-.03,1.53-.75,1.51-1.59Z"/>
          <path class="cls-59" d="M367.81,488.09c-1.91,1.02-3.97,1.72-5.82,2.84-1.89,1.14-3.62,2.51-5.46,3.72-1.66,1.09-.1,3.77,1.57,2.67,1.84-1.21,3.57-2.59,5.46-3.72,1.86-1.11,3.91-1.83,5.82-2.84,1.76-.93,.19-3.61-1.57-2.67Z"/>
          <path class="cls-59" d="M397.59,490.97c-.87-1.73-2.22-2.67-3.82-3.66-1.68-1.05-3.51,1.46-1.81,2.52,1.06,.66,2.21,1.22,2.79,2.38,.89,1.78,3.74,.55,2.84-1.23Z"/>
          <path class="cls-31" d="M374.65,532.99c-3.5-.42-7.1-.78-10.61-.81-2.52-.02-2.52,3.86,0,3.92,3.51,.08,7.13,.3,10.63,0,2.32-.21,2.25-2.83-.02-3.1Z"/>
        </g>
      </g>
      <path class="cls-58" d="M557.75,1014.3c1.65,11.17-53.81,8.19-122.23,8.19s-125.53,1.49-125.53-8.19c0-5.35,54.64-3.72,123.05-3.72s123.94-1.44,124.71,3.72Z"/>
      <g>
        <path class="cls-55" d="M538.86,786.78c0,27.19-3.98,148.37-7,154.41s-37.27,11.07-60.44,13.09c-23.17,2.02-18.13-10.07-18.13-10.07l12.72-140.71s-61.36,2.75-105.65-7.17c-3.11-.69-6.14-1.46-9.05-2.28-.51-.14-1.02-.29-1.53-.44-44.32-13.09-20.52-76.7-20.52-76.7l6.88-.12,60-1.07s3.06-.04,8.2-.04c22.31,.01,83.81,.8,103.46,8.99,24.17,10.07,31.05,34.91,31.05,62.1Z"/>
        <path class="cls-45" d="M404.35,715.68c-34.45,29.77-42.23,66.2-43.99,80.65-3.11-.69-6.14-1.46-9.05-2.28l-15.17-77.26,60-1.07s3.06-.04,8.2-.04Z"/>
        <path class="cls-23" d="M337.69,790.59s68.5,2.01,91.66,16.12c23.17,14.1,4.03,73.53,4.03,73.53l-94.69-43.31-1.01-46.34Z"/>
        <path class="cls-44" d="M493.18,751.47c-7.59,7.21-17.42,24.37-22.76,33.27,.66-7.86,.12-10.9,1.81-18.64,.68-3.09-2.31-3.1-3.02,0-2.9,12.65-4.5,19.42-4.69,32.41-.04,3.02,4.32,3.52,5.17,.7,4.23-13.99,20.19-40.49,30.11-50.72,2.25-2.32-4.29,.76-6.63,2.98Z"/>
        <path class="cls-40" d="M501.93,933.04s28.92,.08,29.93,8.14c1.01,8.06-52.38,14.1-52.38,14.1l22.45-22.24Z"/>
        <g>
          <path class="cls-3" d="M449.52,960.08s2.96-12.42,3.73-18.33c0,0,7.22-12.21,49.4-8.62,0,0-5.56,16.18-2.87,23.36,2.69,7.18-9.87,17.05-9.87,17.05l-38.6-3.59-1.8-9.87Z"/>
          <path class="cls-26" d="M563.51,1005.85c-4.49,7.18-33.21,9.87-42.19,9.87s-43.98-2.69-61.03-8.08c-14.34-4.53-19.95-10.97-22.13-17.17-.4-1.18-.61-2.33-.61-3.47,0-2.15-1.18-5.59,.51-9.35,3.96-8.8,10.56-19.37,10.56-19.37,2.69-4.49,7.18,4.49,17.05,5.39,9.87,.9,29.62-10.77,35.9-12.57,6.28-1.8,12.57,1.8,21.54,13.46,8.98,11.67,27.51,7.15,34.25,13.9,3.58,3.58,4.43,5.27,5.9,9.34,1.13,3.12,1.86,6.37,2.01,9.42,.18,3.29-.34,6.34-1.78,8.63Z"/>
          <path class="cls-7" d="M563.51,1005.85c-4.49,7.18-33.21,9.87-42.19,9.87s-43.98-2.69-61.03-8.08c-14.34-4.53-19.95-10.97-22.13-17.17-.4-1.18-.61-2.33-.61-3.47,0-2.15-1.18-5.59,.51-9.35,2.18-1.44,5.65-2.76,11.01-2.76,11.67,0,27.82,7.18,42.19,6.28,14.36-.9,32.31-3.59,52.96-1.8,10.45,.91,16.07,4.8,19.06,8.43,1.13,3.12,1.86,6.37,2.01,9.42,.18,3.29-.34,6.34-1.78,8.63Z"/>
          <path class="cls-50" d="M565.28,997.22c-4.69-11.77-36.05-12.36-52.49-9.77-17.05,2.69-27.82,5.39-35,3.59-7.18-1.8-32.31-10.77-39.49-6.28-2.31,1.44-.47,3.54-.14,5.72,2.18,6.2,7.79,12.64,22.13,17.17,17.05,5.39,52.06,8.08,61.03,8.08s37.7-2.69,42.19-9.87c1.44-2.3,1.96-5.34,1.78-8.63Z"/>
        </g>
        <path class="cls-45" d="M483.47,753.08c.32-.46,.13-1.12-.38-1.35-.95-.41-2-.6-3.03-.59-3.65,.04-6.56,2.14-8.73,4.91-1.5,1.91-2.68,4.04-4.09,6.01-1.07,1.49-2.07,2.87-4.06,2.84-1.56-.02-3.05-.49-4.62-.35-4.49,.4-7.86,3.95-12.03,5.28-5.42,1.72-11.6,1.06-17.2,1.03-6.14-.03-12.28-.05-18.42-.08-13.94-.06-27.88-.12-41.81-.16-1.11,0-1.11,1.71,0,1.72,22.94,.18,45.91,.64,68.85,.47,4.58-.03,8.9-.6,12.97-2.83,1.91-1.05,3.73-2.35,5.81-3.05,2.52-.86,4.71,.26,7.19,0,3.9-.42,5.99-5.45,7.94-8.28,1.98-2.89,6.66-7.23,10.48-5.27,.41,.21,.9,.07,1.16-.3,0,0,0-.01,.01-.02Z"/>
        <path class="cls-45" d="M499.34,758.42c.64-1.09-1.01-2.04-1.68-.98-2.21,3.46-5.43,8.41-5.55,12.66-.06,2.09,1.41,3.78,1.35,5.85-.09,3.08-2.47,5.51-4.3,7.73-6.41,7.78-5.13,18.16-5.34,27.64-.51,23.51-1.59,47-3.23,70.45-.46,6.5-.96,13-1.5,19.5-.26,3.15-.54,6.3-.82,9.45-.07,.81-.13,4.31-.43,6.99-.07,.66,.44,1.23,1.1,1.24,0,0,.02,0,.02,0,.58,.01,1.09-.42,1.14-1,.15-1.63,.18-3.31,.32-4.88,.56-6.1,1.07-12.2,1.55-18.31,.94-12.01,1.74-24.04,2.38-36.07,.64-11.84,1.13-23.68,1.47-35.53,.18-6.12,.32-12.25,.42-18.37,.09-5.53-.34-11.69,2.46-16.68,2.33-4.15,7.18-7.36,6.91-12.63-.05-.95-.3-1.78-.64-2.66-.78-2.04-.76-3.38-.04-5.51,1.05-3.11,2.73-6.07,4.39-8.9Z"/>
      </g>
      <g>
        <path class="cls-55" d="M381.51,931.11c0,4.03-22.16,19.14-49.36,23.17-27.2,4.03-25.18-6.04-26.19-8.06-1.01-2.01-37.2-149.82-38.2-155.86,0,0-26.27-9.55-85.99-15.53,0,0-22.72-38.19-3.58-57.33,0,0,34.63-26.27,103.9-11.94,30.61,6.33,53.74,10.75,63.3,37.02,7.7,21.17,17.99,95.85,25.04,128.08,7.05,32.23,11.08,56.41,11.08,60.44Z"/>
        <path class="cls-44" d="M270.55,795.17c-4.42-21.49-6.7-42.73-5.04-64.68,.19-2.49-3.05-5.27-3.23-2.78-.92,12.35-1.56,27.77-.3,40.24-2.95-8.24-4.04-17.03-5.05-25.73-.14-1.22-2.08-1.24-1.94,0,1.28,10.93,2.33,24.87,7.29,34.84,.04,.08-.05-.06,0,0,1,7.36,2.91,11.94,4.89,19.04,.61,2.19,3.84,1.27,3.38-.93Z"/>
        <path class="cls-40" d="M381.51,931.11c0,2.69-9.85,10.29-24.48,16.27-7.31,2.98-15.81,5.56-24.88,6.9-8.28,1.23-13.85,1.15-17.62,.38-8.63-1.73-7.87-7.04-8.57-8.44,.47-2.86,2.5-5.34,4.9-7.35,2.68-2.24,5.83-3.91,7.92-4.92,2.48-1.2,5.02-2.23,7.61-3.12,0,0,10.24-2.71,10.3-2.71,6.38-.84,11.87-1.35,16.59-1.63,24.01-1.41,28.23,3.37,28.23,4.62Z"/>
        <path class="cls-3" d="M361.87,974.32l-41.27,6.43-6.06-26.09-3.68-15.79c2.68-2.24,5.83-3.91,7.92-4.92,2.48-1.2,5.02-2.23,7.61-3.12,0,0,10.24-2.71,10.3-2.71,6.38-.84,11.87-1.35,16.59-1.63l3.76,20.89,4.84,26.95Z"/>
        <g>
          <path class="cls-26" d="M383.79,1016.15c-1.83,1.83-64.2,3.67-67.87,1.83-3.38-1.69-2.87-11.96-2.05-16.43,.06-.38,.14-.72,.21-1,.92-3.67,2.29-6.88,3.21-10.55,.92-3.67-.37-15.69,.55-16.61s1.83-.92,3.67-2.75,1.83-16.51,4.59-17.42c0,0,26.6-4.59,31.18-2.75s8.16,24.4,11.83,27.15c3.67,2.75,11.01,5.5,15.59,16.51,.53,1.27,.95,2.53,1.27,3.75,2.49,9.28-.57,16.64-2.19,18.26Z"/>
          <path class="cls-7" d="M383.79,1016.15c-1.83,1.83-64.2,3.67-67.87,1.83-3.38-1.69-2.87-11.96-2.05-16.43,3.91,.45,23.34,2.48,40.56,.83,12.89-1.23,24.96-3.27,31.54-4.5,2.49,9.28-.57,16.64-2.19,18.26Z"/>
          <path class="cls-43" d="M371.41,978.09c-14.57-7.61-26.45-1.95-40.64,3.77-1.82,.74-1.06,3.72,.83,3,13.25-5.03,28.09-8.44,41.64-1.27,2.02,1.07,.19-4.44-1.83-5.5Z"/>
        </g>
      </g>
      <g>
        <path class="cls-23" d="M110.54,738.72s15.64,.62,51.64-3.72c36-4.34,65.03,3.05,79.72,30.08,14.7,27.03,10.87,66.32,10.87,66.32l-116.04,17.12-26.19-109.8Z"/>
        <path class="cls-37" d="M83.27,937.68c12.1,10.71,43.91,12.15,100.5,15.38,4.76-2.24,9.66-6.51,12.36-14.54,6.37-18.98-14.45-163.2-45.15-180.78-34.09-19.51-52.3-4.97-67.79-37.05-15.49-32.08,3.97-107.89-28.77-118.13-3.57-1.12-7.05-.24-10.41,2.21-23.31,36.36,14.18,310.7,39.27,332.91Z"/>
        <path class="cls-18" d="M249.91,799.74c1.77,15.51,1.42,33.18,1.05,51.88-.24,12.42-.49,25.18-.17,38.37,1.28-.25,2.57-.5,3.85-.75-.29-12.88-.05-25.38,.19-37.55,.37-18.83,.72-36.62-1.07-52.38-.21-1.84-.43-3.55-.69-5.22-3.9-26.1-14.71-43.17-34.02-53.7-19.91-10.85-46.69-7.8-70.32-5.12-21.41,2.43-41.64,4.73-53.11-3.42-.87-.62-2.08-.42-2.7,.44-.62,.86-.43,2.06,.44,2.67,12.67,9.02,33.63,6.64,55.8,4.12,24.18-2.75,49.19-5.59,68.01,4.67,18.41,10.04,28.3,25.75,32.06,50.91,.25,1.63,.47,3.28,.67,5.07Z"/>
      </g>
      <g>
        <path class="cls-13" d="M347.78,586.14c0,3.58-36.92,79.29-36.92,79.29l-31.67,31.24-10.23,10.09s-11.43-.72-22.25-2.34c-3.46-.53-6.87-1.15-9.8-1.86-12.13-2.96-30.65,14.36-36.62,16.74-5.97,2.39-18.51,.6-22.09,2.99-3.58,2.39-4.96,8.71-7.76,8.96-2.81,.25,3.58-21.5,7.17-31.05,3.58-9.55,17.91-35.83,20.3-45.38,2.39-9.55,22.09-49.56,35.23-67.48,13.14-17.91,25.68-23.29,43.59-31.65,17.91-8.36,32.84-17.31,35.23-18.51,1.38-.69,2.41-2.92,3.61-4.01,1.53-1.38,3.28-2.51,5.17-3.32,.31-.13,.65-.26,.98-.22,.67,.08,1.09,.75,1.34,1.37,1,2.48,2.78,4.87,4.01,7.32,1.47,2.95,2.88,5.92,4.26,8.9,2.76,5.97,5.38,11.99,8.05,18,2.05,4.61,4.07,9.23,5.96,13.91,.81,2.01,2.44,4.77,2.44,7.01Z"/>
        <path class="cls-59" d="M279.19,696.67l-10.23,10.09s-11.43-.72-22.25-2.34c-8.16-29.02-4.62-99.78-4.54-101.49l37.02,93.74Z"/>
        <path class="cls-27" d="M341.56,586.32c-6.6,1.36-12.63,3.86-18.2,7.48-2.28-18.88-3.71-37.78-9.62-56.03-.75-2.33-2.83-1.68-2.1,.69,5.95,19.15,5.52,39.28,7.99,59.01,.18,1.41,1.7,2.84,3.16,1.81,6.1-4.3,13.5-8.62,20.81-10.15,2.82-.59,.78-3.39-2.03-2.8Z"/>
      </g>
      <g>
        <path class="cls-13" d="M394.95,672.72s-11.94,11.94-9.55,27.47,10.75,19.11,22.69,19.11,19.11,7.17,27.47-4.78c8.36-11.94,14.33-38.22-4.78-52.55-19.11-14.33-35.83,10.75-35.83,10.75Z"/>
        <path class="cls-3" d="M317.32,664.36s42.99-51.35,44.19-57.33c1.19-5.97-2.39-17.91-1.19-21.5,1.19-3.58,3.58-4.78,3.58-4.78,0,0-8.36-1.19-5.97-4.78,2.39-3.58,9.55-7.17,9.55-7.17,0,0-7.17,2.39-7.17-2.39s17.91-10.75,20.3-10.75c2.11,0,3.99,1.21,5.23,2.91s2.62,3.71,4.73,3.87c.93,.07,1.86-.26,2.78-.09,1.45,.26,2.42,1.65,2.97,3.01,.55,1.37,.87,2.87,1.8,4.02,1.23,1.53,3.25,2.11,4.98,3.04,6.26,3.34,8.62,10.96,10.4,17.82,6.52,25.06,13.03,50.12,19.55,75.18,0,0-4.05,43.72-24.35,37.75s-15.53-26.27-16.72-34.63c-1.19-8.36-3.58-39.41-3.58-39.41,0,0-51.35,83.6-52.55,83.6s-18.51-48.37-18.51-48.37Z"/>
        <path class="cls-32" d="M405.98,590.19c-3.02-2.56-7.99-3.88-11.7-4.56-4.43-.81-9.84,.88-13.87-.53-1.72-.6-1.69-1.41-3.05-2.15-1.06-.58-2.21-.53-3.15-1-.78-.08-1.56-.03-2.33,.14-.49,.11,.33-2.83,.45-3.05,.56-1.1,1.35-2.14,2.23-3.01,1.72-1.68,3.81-2.92,5.78-4.29,1.5-1.04,2.16-3.14-.36-2.57-1.75,.39-3.66,1.71-5.19,2.61-3.37,1.97-6.87,4.56-8.46,8.25-1.48,3.44,.07,5.98,3.67,6.57,2.8,.46,3.45-.23,5.66,1.51,1.53,1.2,2.62,1.97,4.64,2.16,3.08,.29,6.26-.67,9.39-.49,2.97,.17,9.17,.43,9.81,4.25,.26,1.58-.5,3.23-.1,4.78,.21,.81,.79,1.58,.84,2.42,.05,.81-.35,1.84-.54,2.65-.52,2.16-1.63,4.13-2.72,6.04-3.02,5.3-4.44,10.08-7.98,15.04-1.7,2.4,.37,5.03,2.05,2.63,4.7-6.73,10.45-14.34,13.21-22.14,.44-1.25,.78-2.83,.42-4.15-.34-1.24-1.42-2-1.94-3.09-.76-1.63,.12-3.92-.46-5.72,.07,.21,5.02,1.5,5.44,1.16,.99-.8-.63-2.43-1.23-3.01-.15-.15-.32-.3-.48-.44Z"/>
        <path class="cls-13" d="M316.13,660.78c-1.25-.25-2.14-.31-2.8-.26,1.88-3.01,4.75-8.54,2.2-11.09-3.58-3.58-8.36-5.97-8.36-5.97,0,0,3.58-11.94,0-17.91-3.58-5.97-9.55-25.08-9.55-25.08,0,0-11.94-29.86-32.25-27.47-20.3,2.39-23.29,25.68-23.29,25.68,0,0-1.19,29.86,11.94,75.24,13.14,45.38,17.91,46.58,22.69,50.16,4.78,3.58,14.33,5.97,19.11,7.17,4.78,1.19,15.53-2.39,15.53-2.39,0,0,5.69,2.48,14.19-1.74,8.5-4.23,15.67-11.39,15.67-13.78s-19.11-51.35-25.08-52.55Z"/>
        <path class="cls-27" d="M318.85,660.6c-.7-.75-1.75-1.19-2.87-1.35,1.29-2.37,2.18-4.93,1.8-7.7-.48-3.49-2.35-4.2-4.59-6.34-1.92-.41-2.86-1.77-2.8-4.08,.18-1.41,.26-2.83,.24-4.26-.02-2.33-.32-4.68-.74-6.97-1.04-5.68-3.14-11.1-5.22-16.47-1.09-2.81-5.17-5.68-4.07-2.82,1.56,4.04,2.64,12.18,3.75,16.37,1.38,5.2,1.21,9.78,1.23,15.07,.01,2.36,.27,4.05,2.17,5.62,1.86,1.55,2.94,1.22,4.39,3.45,2.14,3.28,.52,5.5-1.22,8.76-.1,.19-.16,.38-.21,.57-4.19,2.57-10.17,5.34-12.96,9.54-.97,1.46-1.34,2.96-1.36,4.48-1.66,1.56-3.29,3.12-5.09,4.53-1.81,1.42-2.1,4.68-.24,3.29,1.22-.91,5.1-1.97,6.17-3.03,.44,1.42,.99,2.84,1.45,4.22,4.4,13.2,4.69,27.25,7.66,40.76,.64,2.91,4.96,1.65,4.43-1.22-1.85-10.05-2.74-20.27-4.77-30.28-.98-4.86-3.26-9.57-4.14-14.37-1.39-7.54,5.94-10.67,11.11-14.4,.2-.14,.35-.3,.48-.47,.49-.11,.98-.22,1.48-.19,.71,.05,1.34,.4,2.02,.57,1.92,.48,3.24-1.84,1.91-3.27Z"/>
        <path class="cls-28" d="M294.92,591.72c-5.2-10.81-15.37-19.73-27.95-19.35-5.98,.18-11.25,2.69-15.59,6.73-4.14,3.86-9.16,8.89-9.63,14.82-.1,1.27,1.83,1.24,1.96,0,.57-5.42,6.03-10.52,9.99-13.89,4.31-3.68,9.49-5.6,15.2-5.28,11.04,.61,19.35,8.69,23.99,18.17,.67,1.36,2.68,.17,2.03-1.19Z"/>
      </g>
    </g>
  </g>
  <g>
    <g>
      <path class="cls-58" d="M1911.08,991.53c-.01,7.24,42.82,6.22-305.91,8.29-367.55,2.18-506.83,1.71-506.68-2.1,.41-10.63,51.24-13.09,435.89-13.09,341.06,0,376.71,3.09,376.7,6.91Z"/>
      <g>
        <path class="cls-22" d="M1170.64,899.75s-29.89,97.41-27.85,98.37c2.04,.96,16.14-.39,16.14-.39l45.17-91.71-33.47-6.27Z"/>
        <path class="cls-50" d="M1324.14,899.96s-28,89.97-25.96,90.93c2.04,.96,16.14-.39,16.14-.39l46.22-87.51-36.41-3.04Z"/>
        <path class="cls-22" d="M1731.58,894.72s27.76,99.99,25.63,100.73-14.58,.37-14.58,.37l-44.99-98.36,33.94-2.75Z"/>
        <path class="cls-2" d="M1851.41,890.89s23.49,96.86,21.36,97.6-15.32,.82-15.32,.82l-39.97-95.67,33.94-2.75Z"/>
        <path class="cls-23" d="M1932.08,613.24c0,.76,0,1.54-.01,2.32-.02,1.56-.04,3.15-.06,4.75-.01,.79-.02,1.55-.05,2.34-.02,1.6-.07,3.22-.11,4.86-.05,1.42-.1,2.85-.14,4.29-.01,.23-.01,.45-.02,.68-.02,.84-.07,1.68-.1,2.52-.1,2.53-.22,5.1-.33,7.69-.04,.87-.08,1.74-.13,2.62-.18,3.5-.39,7.03-.61,10.63-.05,.73-.1,1.47-.13,2.2-.08,1.07-.16,2.15-.23,3.24-.12,1.83-.25,3.65-.39,5.49,0,.16-.01,.31-.02,.48-.13,1.67-.25,3.37-.39,5.08-.21,2.79-.45,5.6-.69,8.43-.07,.94-.16,1.89-.24,2.83-.02,.22-.04,.42-.05,.62-.11,1.27-.24,2.54-.36,3.82-.05,.63-.11,1.28-.17,1.92-.12,1.28-.24,2.57-.36,3.86-.05,.39-.08,.81-.12,1.22-.1,.96-.19,1.91-.29,2.88-.19,1.86-.37,3.73-.56,5.59,0,.07-.01,.13-.01,.19-.26,2.51-.53,5-.8,7.51-.79,7.19-1.62,14.41-2.52,21.64-.23,1.95-.48,3.89-.72,5.84-.51,3.89-1.03,7.77-1.54,11.66-.39,2.9-.8,5.79-1.21,8.67-.82,5.77-1.66,11.5-2.52,17.15-.3,1.88-.59,3.76-.88,5.61-.3,1.89-.59,3.74-.9,5.59-.45,2.77-.91,5.53-1.36,8.25h0c-.31,1.83-.62,3.63-.94,5.43-.23,1.34-.45,2.68-.7,4.02-1.06,6-2.14,11.86-3.25,17.52-.27,1.48-.57,2.94-.86,4.38-.17,.84-.33,1.65-.49,2.47-.5,2.41-.98,4.78-1.47,7.11-.01,.05-.02,.1-.04,.14-.17,.79-.33,1.58-.5,2.36-.24,1.09-.47,2.15-.69,3.21-.29,1.25-.56,2.48-.84,3.7h0c-.33,1.52-.67,3-1.02,4.47-.53,2.2-1.03,4.35-1.54,6.45-.51,2.09-1.03,4.14-1.54,6.13-.18,.68-.35,1.34-.53,1.99-.25,.98-.51,1.95-.78,2.89-.08,.31-.18,.64-.26,.94-.35,1.27-.69,2.5-1.04,3.69-.17,.61-.33,1.21-.51,1.8-.26,.87-.51,1.74-.78,2.59-.25,.85-.51,1.7-.78,2.51-.17,.55-.33,1.09-.51,1.62-.17,.54-.33,1.06-.51,1.58-.35,1.04-.69,2.05-1.04,3.02-.08,.25-.18,.5-.26,.74-.76,2.16-1.53,4.17-2.29,6.02h0c-.6,1.46-1.18,2.79-1.77,4.02-.18,.36-.33,.7-.51,1.04-.5,1-1,1.95-1.49,2.79-.33,.56-.66,1.09-.99,1.59-.17,.25-.32,.49-.49,.72-.17,.21-.32,.44-.49,.64h0c-.17,.23-.32,.42-.49,.61-.41,.48-.8,.88-1.21,1.25-.59,.53-1.23,1.03-1.91,1.52-.21,.17-.47,.32-.69,.48-.62,.42-1.28,.82-1.98,1.21-.17,.1-.32,.18-.5,.26-.94,.51-1.95,.99-3.03,1.45-.2,.07-.39,.16-.59,.24-2.42,.99-5.16,1.86-8.22,2.65-.74,.19-1.53,.38-2.33,.56-.42,.1-.84,.19-1.27,.29-.85,.18-1.73,.36-2.64,.53-.44,.1-.9,.18-1.36,.26-.47,.08-.93,.18-1.4,.26-.17,.02-.35,.06-.53,.08-.3,.06-.6,.1-.91,.16-.48,.07-.93,.16-1.42,.23-.5,.08-1.03,.16-1.54,.24-2.03,.31-4.14,.6-6.34,.86-2.21,.27-4.5,.53-6.88,.76-.05,0-.1,.01-.12,.01-1.66,.18-3.38,.33-5.14,.49-1.34,.13-2.73,.24-4.13,.36-.66,.06-1.31,.11-1.98,.16-.32,.04-.65,.06-.97,.08-1.41,.11-2.85,.23-4.31,.33-.78,.05-1.55,.11-2.34,.17-1.95,.13-3.94,.27-5.98,.41-.68,.05-1.39,.1-2.08,.14-.61,.04-1.23,.08-1.86,.11-1.4,.08-2.81,.18-4.24,.27-.79,.05-1.59,.1-2.38,.14-.8,.05-1.6,.1-2.41,.16h-.06c-.79,.04-1.59,.1-2.39,.13-.26,.01-.53,.04-.79,.06-.99,.05-1.99,.11-3.01,.17-.05,.01-.12,.01-.18,.01-1.07,.07-2.16,.12-3.27,.18-.97,.06-1.95,.12-2.93,.17-1.74,.11-3.52,.22-5.31,.32-1.79,.1-3.62,.2-5.46,.3-13.53,.79-27.27,1.41-40.72,1.93-9.95,.39-19.75,.72-29.21,.99-40.02,1.17-74.01,1.46-87.67,1.79-.53,.01-1.15,.02-1.84,.04-3.44,.05-8.89,.08-16.05,.07h-.01c-10.34-.01-24.23-.08-40.9-.26-11.36-.11-25.68-.06-42.05,.08h-.5c-25.44,.2-74.74,.96-130.03,.72-33.18-.16-68.52-.67-102.14-1.89-71.78-2.58-135.74-8.35-154.33-20.57-13.58-8.92-40.27-48.44-46.58-77.63-13.03-60.3-26.78-131.38,12.27-144.26,2.33-.76,4.66-1.43,6.99-1.99,53.91-13.15,115.7,30.18,143.17,5.33,28.65-25.93,18.48-117.29,51.35-131.37,44.15-18.92,609.7-25.49,622.65-1.97,.36,.64,.99,1.21,1.47,1.93h0c.08,.17,.17,.3,.25,.44,.08,.13,.17,.26,.24,.41,.08,.13,.17,.29,.24,.44,.13,.21,.24,.45,.36,.69,.12,.24,.23,.48,.35,.73,.14,.35,.3,.69,.44,1.05,.39,.99,.78,2.09,1.13,3.25,.13,.45,.27,.93,.41,1.41,.04,.11,.07,.23,.08,.35,.07,.22,.13,.44,.18,.66,.07,.27,.16,.55,.22,.82,.07,.31,.14,.62,.21,.96,.08,.3,.16,.61,.21,.91,.11,.51,.22,1.02,.31,1.53,.11,.57,.21,1.16,.32,1.76,.07,.33,.12,.69,.19,1.05,.11,.69,.22,1.4,.33,2.13,.04,.29,.08,.57,.12,.87,.04,.3,.08,.57,.12,.88,.08,.59,.17,1.19,.24,1.8,.3,2.46,.56,5.06,.78,7.8,.06,.69,.11,1.37,.16,2.08,.12,1.76,.23,3.56,.32,5.41,.05,.75,.07,1.49,.11,2.25,.02,.76,.06,1.53,.1,2.29,.02,.78,.04,1.56,.07,2.35,.02,.78,.04,1.58,.06,2.38,.08,3.92,.12,8,.1,12.23Z"/>
        <path class="cls-37" d="M1883.45,905.18c-12.62,11.29-45.82,12.81-104.88,16.21-4.96-2.36-10.08-6.86-12.9-15.32-6.65-20,15.08-171.99,47.12-190.51,35.57-20.56,54.58-5.24,70.75-39.05,16.16-33.8-4.14-113.7,30.03-124.49,3.73-1.18,7.35-.26,10.87,2.32,24.33,38.32-14.8,327.44-40.98,350.84Z"/>
        <path class="cls-18" d="M1873.38,688.74c-.65-.91-1.91-1.11-2.82-.46-11.96,8.6-33.07,6.17-55.42,3.61-24.66-2.83-52.61-6.04-73.38,5.4-20.15,11.1-31.43,29.09-35.5,56.59-.27,1.76-.5,3.56-.72,5.5-1.87,16.61-1.51,35.35-1.12,55.2,.31,16.03,.64,32.6-.13,49.82-.2,4.57-2.42,8.6-6.77,12.3-26.13,22.27-119.49,22.45-161.34,17.62-24.33-2.8,.45,2.26-65.57,.95-52.28-1.04-108.94-2.12-146.94-4.04-13.43-.68-26.96-1.07-40.05-1.44-35.66-1.02-69.34-1.98-97-8.54-30.63-7.27-49.53-20.4-59.48-41.34-2.04-4.3-3.68-8.81-4.65-13.48-3.03-14.62,.74-30.46,10.98-41.44,46.34-41.79,110.41-46.72,170.18-44.51,33.8,1.25,65.83-9.04,108.93,3.78,44.19,13.14,162.16-1.07,196.23-2.5,19.47-.82,8-5.86-26.44-3.4-9.72,.69-123.21,15.45-163.82,4.71-34.45-9.12-71.13-4.86-106.72-6.44-32.93-1.45-66.3-1.76-98.72,5.06-4.14,.87-8.26,1.86-12.34,2.97-15.49,4.2-30.59,10.14-44.43,18.3-6.9,4.06-13.47,8.68-19.56,13.87-5.98,5.1-11.55,10.37-14.87,17.64-6.75,14.79-5.28,32.75,1.59,47.18,22.95,48.28,89.53,50.18,160.02,52.19,13.06,.37,26.57,.76,39.96,1.44,38.07,1.93,94.76,3,147.07,4.04,65.92,1.31,41.05-3.76,65.19-.98,11.44,1.32,30.75,2.51,52.41,2.51,41.87,0,92.52-4.46,112.01-21.07,5.18-4.41,7.93-9.52,8.18-15.2,.77-17.36,.45-33.99,.14-50.08-.38-19.71-.75-38.32,1.1-54.67,.21-1.89,.44-3.63,.7-5.35,3.93-26.52,14.24-43.07,33.45-53.66,19.64-10.81,45.74-7.82,70.97-4.92,23.15,2.66,45.01,5.17,58.24-4.34,.91-.65,1.11-1.91,.46-2.82Z"/>
        <path class="cls-46" d="M1389.57,926.74c-33.18-.16-68.52-.67-102.14-1.89l39.15-148.35c0,.99,47.58,120.5,62.99,150.24Z"/>
        <path class="cls-19" d="M1202.57,691.19c-15.45,.01-31.07-9.38-46.63-5.68-13.44,3.19-21.62,15.92-25.23,28.38-2.16,7.45-2.49,17.38-1.37,25.05,.17,1.14,1.87,.64,1.72-.47-1.14-8.45-.17-17.09,2.75-25.11,2.97-8.14,8.2-16.62,15.41-21.64,15.87-11.05,36.26,1.58,53.35,1.56,1.35,0,1.35-2.1,0-2.09Z"/>
        <path class="cls-46" d="M1703.98,747.83s-45.18,11.25-65.69,65.69c-30.32,80.49-22.89,105.53-19.17,112.61-3.44,.05-8.89,.08-16.05,.07h-.01c-10.34-.01-24.23-.08-40.9-.26-11.36-.11-25.68-.06-42.05,.08h-.5l66.14-176.99,118.23-1.19Z"/>
      </g>
    </g>
    <g>
      <g>
        <g>
          <path class="cls-55" d="M1612.02,588.99s-15.53,2.39-19.11,4.78-56.13,38.22-71.66,40.61-78.82-17.91-95.54-23.89v-46.58s74.05,23.89,84.79,23.89c0,0,2.39-10.75,8.36-13.14s8.36,0,11.94-2.39c3.58-2.39,3.58-7.17,8.36-9.55,4.78-2.39,5.97,0,10.75-2.39,4.2-2.1,25.96-20.84,35.21-28.58,.87-.72,1.62-1.35,2.25-1.85,.29-.24,.54-.44,.76-.62,5.97-4.78,17.91-10.75,31.05-16.72,13.14-5.97-7.17,76.43-7.17,76.43Z"/>
          <g>
            <path class="cls-44" d="M1520.22,588.23c-3.31-.84-6.63-1.47-10.01-1.94-2.68-.37-3.91,2.61-1.16,3.05,3.35,.54,6.7,2.33,9.99,3.15,2.77,.69,3.95-3.57,1.18-4.27Z"/>
            <path class="cls-45" d="M1600.06,576.23c-3.98-8.06-7.76-16.57-10.89-25-1.56-4.22-2.84-8.57-3.45-13.04-.29-2.09-.59-4.3-.42-6.43,.88-.72,1.63-1.36,2.26-1.86-.78,3.7,.07,7.87,.87,11.44,.86,3.87,2.15,7.64,3.62,11.33,3.05,7.61,7.56,14.91,9.76,22.83,.28,1.02-1.26,1.72-1.74,.73Z"/>
          </g>
        </g>
        <path class="cls-40" d="M1422.13,592.58s0,16.72,3.58,17.91c3.58,1.19,5-9.46,4.89-17.27-.11-7.81-8.47-.64-8.47-.64Z"/>
        <path class="cls-6" d="M1350.47,531.67s1.19-2.39,2.39-2.39,17.91,1.19,22.69,3.58c4.78,2.39,13.14,11.94,20.3,16.72s29.86,14.33,29.86,14.33c0,0,7.17,7.17,4.78,34.63l-52.55-22.69-27.47-44.19Z"/>
      </g>
      <path class="cls-11" d="M1407.08,655.61c2.91,2.63,5.83,5.24,8.06,8.46,3.76,5.42,4.61,12.28,5.35,18.83,.24,2.15,.49,4.31,.38,6.47-.12,2.39-3.47,14.95-7.32,13.81-1.06-.32-2.16-6.92-2.63-8.12-1.17-2.98-2.7-5.81-4.56-8.41-4.97-6.94-12.13-12.12-16.82-19.25-1.32-2-2.46-4.32-2.1-6.69,.27-1.77,1.34-3.29,2.39-4.74,1.54-2.14,2.7-4.54,4.34-6.61,2.28-2.87,3.55-4.1,5.83-1.06,2.05,2.73,4.56,5.03,7.08,7.31Z"/>
      <path class="cls-23" d="M1369.58,739.47s32.33,1.46,39.41,3.58c11.94,3.58,28.66,9.55,28.66,9.55l-2.39,23.89-65.69-2.39v-34.63Z"/>
      <g>
        <path class="cls-7" d="M1242.99,627.21c-4.78,4.78-25.08,33.44-25.08,33.44,0,0,1.19,3.58-2.39,10.75-3.58,7.17-7.17,5.97-9.55,7.17-2.39,1.19-2.39,3.58-5.97,8.36-3.58,4.78-9.55,2.39-17.91,1.19-8.36-1.19-35.4-4.91-35.4-4.91l5.54-58.39,17.91,8.36c-2.39-8.36,9.55-15.53,9.55-15.53,0,0,7.17-15.53,13.14-29.86,2.89-6.95,7.48-14.46,11.43-20.35,.79-1.18,1.55-2.29,2.28-3.32,3.09-4.45,5.4-7.38,5.4-7.38l35.83,57.33s0,8.36-4.78,13.14Z"/>
        <path class="cls-7" d="M1130.73,618.57s13.38-12.26,28.98,12.26c15.61,24.52-1.11,47.93-15.61,53.5-14.49,5.57-30.1-13.38-26.75-25.64,3.34-12.26,13.38-40.13,13.38-40.13Z"/>
        <g>
          <path class="cls-25" d="M1109.96,593.67c-1.8-2.42-3.37-5.11-3.72-8.04-.48-4.07,.29-8.75,1.17-12.73,.94-4.21,2.42-8.28,4.01-12.3,.87-2.2,1.72-4.14,1.76-6.58,0-.56-.02-1.15-.28-1.65-.42-.8-1.34-1.19-2.21-1.45-1.06-.32-2.17-.53-3.27-.46-2.55,.18-4.75,1.87-6.43,3.8-1.68,1.93-3.02,4.15-4.84,5.94-1.82,1.8-4.32,3.17-6.85,2.78-2.51-.39-4.47-2.42-5.69-4.64-2.35-4.27-3.16-8.73-4.04-13.45-.93-4.96-2.15-9.85-3.67-14.66-.57-1.79-1.4-3.8-3.18-4.39-1.75-.57-3.69,.59-4.62,2.18s-1.09,3.5-1.22,5.34c-.38,5.02-.96,10.08-.9,15.1-4,4.27-7.7,9.63-9.36,15.24-.41,1.4-.66,2.91-.26,4.31,.24,.82,.69,1.57,.89,2.4,.37,1.58-.24,3.2-.37,4.81-.22,2.7,1.01,5.48,3.15,7.14,1.11,.86,2.53,1.46,2.95,2.87,.5,1.66,.45,3.7,.67,5.42,.14,1.1,.27,2.21,.53,3.29,.57,2.41,1.72,4.64,2.92,6.8,3.6,6.48,7.8,12.63,12.51,18.35,2,2.43,3.62,4.98,5.62,7.39,2.07,2.49,4.16,4.96,6.26,7.41,8.56,9.95,17.38,19.87,27.28,28.52,1.07,.93,2.16,1.85,3.26,2.74,.5,.4,1.06,.79,1.7,.88,.54,.08,1.1-.07,1.61-.26,4.22-1.57,6.96-6.77,8.79-10.88,3.45-7.73,4.68-16.43,3.53-24.82-.5-3.64-1.48-7.3-3.56-10.32-1.43-2.09-3.34-3.8-5.18-5.53-5.93-5.54-11.51-11.47-16.69-17.72-.75-.9-1.53-1.85-2.27-2.85Z"/>
          <path class="cls-41" d="M1060.3,568.45c1.86-2.66,3.91-5.23,6.3-7.43,2.23-2.06,3.69-4.37,3.95-7.52,.15-1.76,.16-4.4-1.92-5-.78-.23-1.63-.11-2.39,.19-.1-.75,.33-1.48,.91-1.96,2.08-1.71,4.84-1.33,6.09,1.15,1.35,2.67,.41,6.4-.55,9.04,3.06-2.15,6.1,.91,5.87,4.16-.28,3.87-2.02,7.62-3.29,11.43,1.91-1.4,4.25-2.21,6.35-.5,2.57,2.09,1.86,6.11,1.15,8.86-1.55,6.09-3.31,11.62-3.68,17.97-.11,1.92-2.99,1.77-2.98-.14,.04-6.71,1.98-12.44,3.5-18.86,.46-1.94,1.68-6.21-2.59-4.47-1.03,.42-2.05,2.08-2.82,2.94-2.51,2.8-4.74,5.79-6.92,8.86-1.23,1.72-3.94-.01-2.77-1.8,1.99-3.03,4.21-6.07,6.66-8.83,.36-3.02,1.12-5.88,2.04-8.78,.5-1.59,1.39-3.37,1.57-5.03,.44-1.05,.25-2.1-.57-3.12-4.61,2.32-8.1,6.61-11.13,10.69-1.26,1.7-4.01-.05-2.78-1.81Z"/>
        </g>
        <path class="cls-11" d="M1144.73,681.47c18.22-5.74,19.97-34,14.41-48.52-.89-2.33,.78-3.29,1.68-1.01,6.66,16.87,5.54,47.11-14.95,53.67-2.64,.85-3.78-3.32-1.14-4.15Z"/>
        <path class="cls-9" d="M1184.47,641.54c-5.62-3.2-12.23-9.33-16.88-13.84-1.97-1.92-4.97,1.07-3.02,3.02,4.81,4.82,10.21,9.01,16.2,12.26,2.52,1.37,6.2-.02,3.7-1.45Z"/>
        <g>
          <path class="cls-7" d="M1202.31,570.56s9.62-16.2,16.79-22.17,29.86-15.53,35.83-21.5c5.97-5.97,45.38-14.33,45.38-14.33,0,0,7.17,2.39,14.33,4.78,7.17,2.39,48.97,16.72,63.3,25.08,14.33,8.36,20.3,44.19,20.3,51.35s-4.78,15.53,0,22.69c4.78,7.17,7.17,11.94,5.97,22.69-1.19,10.75-3.58,19.11-9.55,27.47-5.97,8.36-99.13,54.94-99.13,54.94l-35.83-21.5s-8.96-8.96-7.76-19.71c1.19-10.75-3.58-32.25-9.55-44.19-5.97-11.94-28.66-50.16-28.66-50.16l-11.42-15.45Z"/>
          <path class="cls-12" d="M1221.16,611.3c-4.86-8.25-9.17-17.14-12.7-26.05-1.74-4.44-3.21-9.02-3.86-13.76-.18-1.31-.32-2.69-.35-4.05,.79-1.18,1.55-2.29,2.28-3.32-1.18,7.5,2.09,15.76,4.91,22.48,3.4,8.11,7.81,15.68,11.58,23.6,.6,1.25-1.15,2.32-1.88,1.1Z"/>
          <path class="cls-9" d="M1247.35,649.42c-3.83-18.74-13.74-37.28-24.81-52.68-1.43-2-4.76-.14-3.35,1.96,10.95,16.32,17.78,33.39,24.34,51.77,.85,2.39,4.33,1.46,3.81-1.05Z"/>
          <path class="cls-11" d="M1295.15,659.83c-5.08-13.93-7.92-28.5-11.96-42.74-1.94-6.85-4.35-13.49-6.92-20.12-2.71-7.02-5.27-14.14-5.96-21.68-.12-1.32-2.19-1.34-2.08,0,1.15,14.41,8.46,27.6,12.41,41.35,4.19,14.58,7.01,29.54,12.23,43.81,.52,1.41,2.79,.8,2.27-.62Z"/>
          <path class="cls-11" d="M1314.13,517.36c-1.05-2.12-4.29-.61-3.73,1.57,1.78,7.04,.61,14.4-.22,21.51-.73,6.33-1.69,12.63-2.66,18.93-5.59-5.86-12.27-10.38-19.94-13.29-2.21-.84-3.81,2.89-1.62,3.85,8.53,3.76,15.66,9.02,21.46,16.36,1.05,1.33,3.65,.62,3.92-1.03,1.41-8.63,2.75-17.29,3.74-25.98,.82-7.23,2.42-15.16-.93-21.92Z"/>
          <path class="cls-11" d="M1258.38,555.17c-4.82,2.42-8.25,6.32-11.16,10.66-.4-9.67-.33-22.15,1.73-31.78,.57-2.64-2.26-.71-3.05,1.9-3.64,11.97-4.17,24.69-2.67,37.06,.25,2.08,3.01,3.28,4.23,1.14,3.45-6.03,6.96-11.68,13.04-15.36,2.33-1.41,.28-4.83-2.12-3.63Z"/>
          <path class="cls-11" d="M1340.56,624.21c.18-4.78,1.94-9.38,1.97-14.16,.03-4.5-1.75-8.66-2.88-12.94-1.39-5.25-1.77-10.5-1.41-15.9,.18-2.74-4.04-2.71-4.25,0-.4,5.07-.18,10.08,.89,15.06,1.39,6.44,3.66,11.5,2.42,18.27-1.62,8.87-2.56,18.17,1.75,26.46,1.03,1.99,3.69,.51,3.38-1.42-.84-5.14-2.07-10.12-1.87-15.37Z"/>
          <path class="cls-12" d="M1378.35,542.02c-9.61-3.35-20.74-2.72-29.4,2.91-7.61,4.94-12.95,13.35-13.54,22.47-.09,1.32,1.87,1.26,2.02,0,1.06-8.64,5.91-16.46,13.44-20.95,8.12-4.84,18.04-5.25,26.85-2.16,1.43,.5,2.05-1.77,.63-2.27Z"/>
        </g>
      </g>
      <g>
        <path class="cls-25" d="M1280.63,462.32l-20.3,34.99-6.95,8.71c-1.29,2.83-2.29,5.92-3.08,9.2,1.51,9.83,5.02,19.76,8.06,28.91,3.06,9.23,6.63,18.32,10.12,27.42,2.84-4.63,14.89-27.26,15.71-28.54,9.25-14.4,17.13-28.93,17.91-29.86-26.27-23.89-21.48-50.83-21.48-50.83Z"/>
        <g>
          <g>
            <path class="cls-25" d="M1206.93,450.1c.96,3.33,1.78,6.65,2.5,10.16,2.5,12.24,5.32,24.75,10.27,36.26,1.71,3.98,3.77,8.59,7.3,11.32,6.3,4.88,20.43,2.81,26.93,.73,20.01-6.43,28.76-15.4,27.24-37.97,0,0,15.78-10.3,6.85-24.46-1.45-2.29-3.57-4.38-6.44-4.44-3.46-.07-4.13,.47-4.88-3.78-.55-3.16-1.28-6.3-2.44-9.29-4.92-12.65-18.33-21.47-31.9-21-6.34,.22-14.1,.96-19.97,3.43-6.2,2.6-8.82,7.06-12.48,12.21-4.06,5.71-7.03,14.13-4.75,21.07,.64,1.94,1.23,3.85,1.78,5.76Z"/>
            <path class="cls-40" d="M1243.76,456.35c.48-.81,1.33-1.41,2.26-1.47,2.95-.19,4.62,4.49,2.47,6.38-1.01,.88-2.64,1.02-3.71,.21-.43-.33-.75-.79-1-1.27-.5-1.02-.67-2.24-.28-3.3,.07-.19,.16-.37,.26-.54Z"/>
            <path class="cls-41" d="M1228.75,479.92c-.04-.87,.68-1.65,1.55-1.68,.86-.03,1.72-.05,2.59-.08,.87-.03,1.64,.67,1.68,1.55,.04,.87-.68,1.65-1.55,1.68-.86,.03-1.72,.05-2.59,.08-.87,.03-1.64-.67-1.68-1.55Z"/>
            <path class="cls-39" d="M1236.22,435.76c2.25,.25,4.51,.14,6.74,.51,2.27,.38,4.48,1.03,6.73,1.5,2.03,.42,1.56,3.62-.49,3.2-2.25-.46-4.46-1.13-6.73-1.5-2.23-.36-4.5-.26-6.74-.51-2.07-.23-1.58-3.42,.49-3.2Z"/>
            <path class="cls-39" d="M1215.42,452.76c.24-.53,.17-1.17-.23-1.64-.55-.66-1.53-.74-2.19-.19-.16,.13-3.83,3.24-5.73,7.89-.33,.79,.05,1.7,.84,2.03,.79,.33,1.72-.03,2.03-.84,1.63-3.93,4.83-6.67,4.86-6.7,.18-.15,.32-.34,.41-.55Z"/>
          </g>
          <path class="cls-40" d="M1253.64,529.5c24.54-9.92,21.72-41.38,21.72-41.38l-15.02,9.19-6.95,8.71c-1.29,2.83-2.29,5.92-3.08,9.2,.73,4.77,1.94,9.56,3.33,14.28Z"/>
          <path class="cls-39" d="M1218.82,488.59c2.37-1.93,7.09-4.19,14.99-4.69,8.27-.52,14.88,3.51,23.27-5.18,3.65-3.78,5.25-9.24,6.22-14.27,.49-2.53,.73-5.07,1-7.63,.31-2.95,1.21-5.16-.5-7.99-1.07-1.76-2.58-3.19-3.89-4.77-1.99-2.41-3.52-5.21-4.47-8.19-.9-2.81,.15-6.5,1.78-8.85,.86-1.24,1.99-2.34,2.49-3.77,.85-2.38-.33-5.13-2.25-6.77-1.92-1.64-4.44-2.39-6.92-2.9-3.26-.67-6.86-.81-9.9,.71-2.29,1.15-3.81,2.88-5.73,4.46-2.22,1.82-4.2,3.92-6.31,5.86-2.57,2.37-5.42,4.57-8.76,5.59-3.47,1.06-6.79-.3-10.24-.66-.66-.07-1.35-.08-1.97,.14-1.15,.42-2.49,2.35-2.52,3.58,.02-.98,.04-7.9,5.03-14.96,2.84-4.01,7.06-7.01,11.33-9.44,7.27-4.13,14.53-6.6,22.87-6.12,7,.41,15.24,1.71,25.19,7.65,10.7,6.39,12.25,28.39,11.93,31.24,0,0-4.47,.6-6.09,1.83-4.6,3.51-3.28,11.22-1.97,16.1,.49,1.83,1,3.73,1.47,5.49,2.1,7.83,2.7,16.03,1.36,24.02-2.93,17.49-13.11,29.44-28.31,31.77-26.82,4.1-30.15-21.86-30.56-28.93-.07-1.28,.46-2.51,1.45-3.32Z"/>
          <path class="cls-40" d="M1215.62,466.02c-.03,.22-.08,.43-.13,.64-.22,.84-.53,1.69-1.19,2.26-1.67,1.44-3.88-.41-4.2-2.19-.31-1.72,1.42-4.61,3.49-3.97,.48,.15,.84,.53,1.16,.91,.41,.49,.8,1.04,.88,1.68,.03,.23,.02,.45-.01,.68Z"/>
          <path class="cls-7" d="M1231.76,492.96c.21-.26,.53-.42,.85-.55,2.4-1,4.91-.97,7.42-1.21,.67-.06,1.34-.1,2.01-.09,1.89,0,2.35,1.09,3.04,2.72,.99,2.32,1.51,5.09,.31,7.31-.32,.59-.77,1.14-1.35,1.48-1.11,.66-2.52,.51-3.77,.16-3.1-.88-5.86-2.91-7.62-5.61-.62-.95-1.73-3.05-.91-4.16,0-.01,.02-.03,.03-.04Z"/>
        </g>
      </g>
      <g>
        <path class="cls-25" d="M1275.83,688.72s-45.38,26.27-47.77,29.86c-2.39,3.58-8.36,20.3-9.55,23.89-1.19,3.58,2.39,22.69,4.78,23.89,2.39,1.19,7.17-4.78,7.17-4.78,1.79,0,2.64,2.62,3.61,4.11,.98,1.5,2.58,2.94,4.33,2.58,1.34-.28,2.27-1.54,3.55-2.02,2.19-.83,4.8,.8,6.94-.17,1.52-.69,2.26-2.46,3.68-3.36,1.84-1.17,4.49-.63,6.15-2.04,.88-.74,1.3-1.89,1.53-3.02,.83-3.91-.04-8.27,1.96-11.73,1.09-1.89,2.9-3.24,4.61-4.6,2.38-1.89,4.65-3.91,6.81-6.05,1.75-1.73,3.44-3.57,4.63-5.72,1.37-2.47,2.04-5.26,2.58-8.03,.9-4.66,1.45-9.38,1.66-14.12,.28-6.48-.32-13.58-4.73-18.34-.59-.64-1.06-.35-1.93-.35Z"/>
        <path class="cls-42" d="M1259.71,733.5c-2.51,.01-6.19-2.21-8.58-3.07-2.98-1.08-4.34-3.34-6.34-5.52-.95-1.03-2.11-1.82-3.44-2.31-2.11-.77-6.97-.02-7.69-2.72-.65-2.45-4.32-1.41-3.78,1.04,.48,2.17,1.58,3.89,3.66,4.82,.81,.36,1.69,.4,2.56,.55,3.51,.62,4.3,.29,6.74,3.17,3.89,4.58,9.63,6.63,15.64,6.05,2.57-.25,3.91-2.03,1.23-2.02Z"/>
      </g>
      <g>
        <path class="cls-17" d="M1440.04,918.62c-1.19,4.78-69.27,11.94-69.27,11.94l-30.75-66.23h0s-15.82-34.08-15.82-34.08l-8.36,17.91s-10.75,4.78-45.38-17.91c-16.39-10.74-17.91-21.5-17.91-23.89s10.75-41.8,16.72-77.63c5.97-35.83,3.18-78.83,15.92-92.57,12.74-13.72,41.41-10.14,54.54-5.36,13.14,4.78,63.3,27.47,76.43,50.16,13.14,22.69-3.58,63.3-3.58,63.3,0,0-26.27-3.58-39.41-3.58,0,0,17.91,51.35,26.27,78.82,8.36,27.47,41.8,94.35,40.61,99.13Z"/>
        <path class="cls-48" d="M1373.16,734.7c-2.28-4.48-4.66-10.89-7.22-15.21-2.6-5.98-6.38-12.53-12.24-15.1-.11-.09-.21-.18-.32-.27,1.68-11.72,2.44-23.55,2.39-35.39,0-1.5-2.34-1.5-2.33,0,.06,9.51-.46,18.98-1.45,28.41-.47-7.26-1.85-14.42-4.23-21.42-.93-2.73-5.26-1.58-4.35,1.2,3.54,10.9,4.98,21.96,4.18,33.4-.19,2.76,4.04,2.71,4.27,0,.02-.21,.02-.41,.04-.62,4.3,.38,8.3,9.09,10.17,12.26,2.52,4.28,4.76,8.73,7.01,13.16,1.35,2.67,5.45,2.24,4.1-.42Z"/>
        <path class="cls-49" d="M1354.74,658.01c-3.01-3.03-5.92-.4-7.56,2.45-2.13-2.8-2.61-7.12-6.61-8.03-4.55-1.03-5.29,4.28-5.68,7.5-1.54,12.96-1.06,26.2-1.96,39.22-1.83,26.3-5.57,52.47-11.2,78.23-3.13,14.35-6.99,28.46-10.97,42.59-.32,1.12,1.38,1.57,1.74,.48,14.61-44.38,21.88-91.81,23.68-138.41,.25-6.59,.21-13.21,.82-19.78,.16-1.72,.1-4.02,.78-5.61,1.73-4.01,4.47-.45,5.35,1.24,1.04,2.01,1.67,3.99,3.51,5.44,.74,.58,1.63,.36,1.98-.52,.61-1.55,2.35-5.16,4.49-3.18,1.08,1,2.66-.57,1.62-1.62Z"/>
        <path class="cls-49" d="M1409.38,690.5c-7.73,9.24-20.6,1.25-28.07-4.09-4.18-2.98-8.08-6.41-11.36-10.37-2.66-3.22-4.52-7.32-8.28-9.42-1.17-.65-2.21,1.12-1.05,1.8,2.51,1.46,3.91,3.91,5.54,6.22,1.57,2.21,3.31,4.29,5.2,6.23,3.84,3.94,8.26,7.31,12.9,10.26,7.81,4.97,19.58,9.64,26.8,1.05,.97-1.16-.69-2.84-1.67-1.67Z"/>
        <path class="cls-47" d="M1340.02,864.31l-15.82-34.07c8.36-23.89,23.89-113.46,23.89-113.46,6.82,46.76-3.91,122.59-8.06,147.53Z"/>
        <g>
          <path class="cls-40" d="M1284.43,821.32s-30.69-19.74-31.88-14.97c-1.19,4.78,3.58,15.53,25.08,28.66,21.5,13.14,6.8-13.7,6.8-13.7Z"/>
          <path class="cls-25" d="M1307.48,886.37s0-8.36,2.39-19.11c2.39-10.75,5.97-19.11,5.97-19.11,0,0-4.78-11.94-38.22-31.05,0,0-5.97,29.86-15.53,39.41-9.55,9.55,19.11,33.44,19.11,33.44l21.5,3.58,4.78-7.17Z"/>
          <path class="cls-20" d="M1308.95,909.55c-.3,4.55-1.15,8.99-3.26,13.24-.25,.51-.62,.94-1.07,1.3-8.1,6.38-46.15-9.91-57.44-14.44-11.63-4.66-42.54-20.64-44.12-31.4-.05-.29-.07-.57-.07-.85,0-3.62,.96-6.97,2.5-9.78,3.01-5.52,8.28-8.92,13.03-8.13,4.75,.79,8.89,3.45,13.48,4.73,4.61,1.29,9.77,.38,14.1-1.44,4.19-1.77,7.73-3.97,11.6-6.38,1.52-.96,3.16-1.93,4.96-1.85,1.06,.05,2.07,.48,3.05,.92,3.75,1.67,8.03,3.49,10.84,6.57,2.71,2.96,3.88,6.97,5.77,10.51,2.08,3.88,5.17,7.31,9.1,9.28,3.94,1.98,8.75,2.39,12.78,.6,1.46-.64,2.66-1.28,3.53-.98,.59,.19,1.03,.79,1.29,2.07,.43,2.03,.02,4.2-.07,6.25-.29,6.53,.43,13.26,.01,19.79Z"/>
          <path class="cls-7" d="M1308.95,909.55c-.3,4.55-1.15,8.99-3.26,13.24-.25,.51-.62,.94-1.07,1.3-8.1,6.38-46.15-9.91-57.44-14.44-11.63-4.66-42.54-20.64-44.12-31.4-.05-.29-.07-.57-.07-.85,0-3.62,.96-6.97,2.5-9.78,3.57-.74,11.23-.98,14.82,.82,4.78,2.39,5.97,8.36,8.36,9.55,2.39,1.19,41.8,20.3,46.58,21.5,4.34,1.09,25.39,4.13,33.71,10.04Z"/>
          <path class="cls-40" d="M1304.61,924.1c-8.1,6.38-46.15-9.91-57.44-14.44-11.63-4.66-42.54-20.64-44.12-31.4,.38-.7,1.47-1.04,3.51-.85,13.14,1.19,40.61,16.72,53.74,23.89,12.79,6.97,42.86,17.27,44.31,22.8Z"/>
          <path class="cls-53" d="M1254.75,872.93c-7.4-5.34-16.47-7.06-24.9-10.44-2.56-1.03-3.69,.16-1.19,1.19,8.27,3.43,15.87,9.18,24.01,12.81,2.42,1.08,4.25-1.99,2.08-3.56Z"/>
        </g>
        <g>
          <path class="cls-40" d="M1405.26,915.43s32.39-2.79,34.78,1.99c2.39,4.78-32.25,9.55-32.25,9.55l-2.53-11.54Z"/>
          <path class="cls-58" d="M1383.9,998.63s-41.79-1.19-41.79,3.58,53.08,5.97,53.08,5.97c0,0,50.89,1.19,48.44-4.78-2.86-6.95-59.73-4.78-59.73-4.78Z"/>
          <path class="cls-25" d="M1367.62,923.38s11.52,25.1,13.9,33.46c2.39,8.36,38.22,19.11,38.22,19.11l8.36-10.75s-2.39-11.94-5.97-20.3c-3.58-8.36-10.75-29.86-10.75-29.86,0,0-42.14-.03-43.76,8.34Z"/>
          <path class="cls-20" d="M1432.28,999.23c-2.39,2.39-10.75,1.19-15.53,3.58-4.78,2.39-27.47,3.58-27.47,3.58,0,0-31.05,1.19-33.44-2.39-1.03-1.54-1.61-4.39-1.56-7.54,.06-4.18,1.23-8.85,3.95-11.57,4.78-4.78,9.55-4.78,13.14-8.36,3.58-3.58,7.17-22.69,9.55-25.08s21.5-7.17,28.66-2.39c7.17,4.78,8.36,20.3,10.75,21.5,2.39,1.19,4.78-5.97,5.97-8.36,1.19-2.39,4.78,2.39,4.78,9.55,0,3.48,.85,9.47,1.44,15,.62,5.89,.98,11.24-.25,12.47Z"/>
          <path class="cls-7" d="M1432.28,999.23c-2.39,2.39-10.75,1.19-15.53,3.58-4.78,2.39-27.47,3.58-27.47,3.58,0,0-31.05,1.19-33.44-2.39-1.03-1.54-1.61-4.39-1.56-7.54,1.59,.55,3.76,1.06,5.15,.37,2.39-1.19,3.58-3.58,8.36-4.78,4.78-1.19,15.53,0,19.11,2.39,3.58,2.39,3.58,3.58,5.97,4.78s17.91-2.39,23.89-5.97c4.42-2.65,11.45-5.3,15.78-6.5,.62,5.89,.98,11.24-.25,12.47Z"/>
          <path class="cls-53" d="M1394.66,974.75c-8.38-2.12-18.06,.91-26.27,3.58-2.49,.81-2.18,2.94,.36,2.19,7.61-2.25,15.1-2.39,22.8-.54,2.78,.67,5.89-4.53,3.11-5.23Z"/>
        </g>
      </g>
      <path class="cls-44" d="M1061.49,612.11c-3.83-3.61-6.58-8.13-7.66-13.32-.45-2.17-.13-4.41-.54-6.55-.26-1.34-2.5-3.99-2.36-4.95,.29-1.87-2.55-2.7-2.88-.8-.31,1.78,.02,2.76,.85,4.3,1.52,2.8,1.22,5.69,1.85,8.85,1.16,5.74,4.22,10.77,8.5,14.71,1.5,1.38,3.73-.84,2.24-2.24Z"/>
      <g>
        <path class="cls-6" d="M1396.2,570.3c-2.92-1.81-6.01-3.43-8.79-5.44-2.68-1.94-4.81-4.52-6.77-7.16-1.81-2.44-2.99-5.14-4.7-7.66-1.58-2.34-3.9-3.87-6.25-5.34-1.61-1.01-3.11-2.21-4.47-3.55-.81-.8-1.58-1.68-2.05-2.72-.5-1.09-.84-2.96,.2-3.84,2.91-2.47,6.45-.71,9.41,.56,1.79,.77,3.51,1.67,5.16,2.7,5.48,3.42,10.78,7.01,16.24,10.43,.69,.43,1.4,.89,1.85,1.57,.44,.67,.58,1.48,.69,2.27,.89,6.26,.5,11.95-.54,18.19Z"/>
        <path class="cls-35" d="M1392.27,546c-6.29-2.87-10.96-7.49-16.8-11.1-3.89-2.41-9.11-3.91-12.85-.43-.79,.74,.24,2.1,1.16,1.51,5.2-3.33,10.12,.74,14.39,3.63,4.33,2.93,8.96,5.37,13.71,7.54,1.38,.63,1.78-.5,.39-1.14Z"/>
      </g>
      <g>
        <g>
          <path class="cls-59" d="M1725.51,554.34s22.03-23.52,12.39-52.88c-9.64-29.37-37.71-18.62-42.45-40.4-4.73-21.78,.9-31.42-12.57-48.11-13.47-16.7-56.84,11.22-56.84,11.22l-6.82,66.96s-24.4,26.57-18.14,40.38c6.26,13.81,124.41,22.83,124.41,22.83Z"/>
          <path class="cls-59" d="M1746.13,526.79c-.31,.07-.64,.05-.95-.08-.81-.33-1.19-1.26-.85-2.08,.05-.11,4.66-11.72-.95-28.04-4.84-14.08-20.04-18.88-32.25-22.74-1.93-.61-3.75-1.18-5.43-1.77-13.1-4.53-16.36-28.85-16.49-29.88-.11-.87,.5-1.68,1.37-1.8,.87-.12,1.67,.49,1.78,1.36,.03,.23,3.14,23.4,14.4,27.3,1.65,.57,3.45,1.14,5.35,1.74,12.2,3.85,28.92,9.13,34.28,24.72,6.03,17.53,1.09,29.8,.88,30.31-.21,.5-.64,.84-1.13,.95Z"/>
        </g>
        <g>
          <path class="cls-55" d="M1654.42,660.05s-3.58-5.97-4.78-13.14c-1.19-7.17-3.58-10.75-3.58-10.75,0,0-25.08-15.53-31.05-26.27s-1.19-23.89-5.37-38.81c-4.38-15.64-18.51-37.62-16.12-43.59,2.39-5.97,41.8-22.69,41.8-22.69l41.51-3.36s11.04,5.75,20.59,9.33c9.55,3.58,34.17,13.57,39.18,33.65,5.01,20.09-19.07,103.53-19.07,103.53l-63.1,12.1Z"/>
          <path class="cls-44" d="M1660.67,617.43c-5.45-8.25-13.89-13.97-19.25-22.27-6.1-9.45-3.54-20.32-6.19-30.68-.33-1.28-2.27-.74-1.97,.54,2.38,10.11-.42,20.43,5.64,30.5,5.28,8.76,14.03,14.66,19.75,23.09,.84,1.24,2.86,.08,2.02-1.18Z"/>
          <path class="cls-44" d="M1642.79,572.3c-.67-.38-.29-.24-.83,.29-.39,.03-.76,.24-.85,.71-.11,.56-.08,1.13,.03,1.68,0,.04,.01,.08,.02,.13,.18,.76,.54,1.47,1.13,2.02,1.17,1.11,2.77,.41,3.11-1.08,.3-1.3-1.38-3.06-2.61-3.75Z"/>
          <path class="cls-44" d="M1652.58,595.06c-.48-1.5-1.59-3.49-3.22-2.49-.71,.44-.91,1.08-.83,1.75,0,.03-.02,.05-.02,.08-.11,1.63,.79,3.48,2.58,3.67,1.66,.17,2.04-1.31,1.5-3.01Z"/>
          <path class="cls-23" d="M1613.87,607.4c-3.87-9.44-1.29-20.71-2.59-30.7-1.11-8.57-5.32-19.8-10.01-27.12-1.27-1.98-3.39-.89-2.39,1.19,4.34,9.05,7.93,21.81,8.42,31.86,.43,8.72-1.25,17.69,2.14,25.98,1.11,2.7,5.55,1.52,4.43-1.22Z"/>
        </g>
        <g>
          <g>
            <g>
              <path class="cls-58" d="M1460.62,998.63s-32.52,0-32.52,4.78,49.38,4.78,49.38,4.78c0,0,75.97,1.19,72.31-4.78-4.27-6.95-89.17-4.78-89.17-4.78Z"/>
              <path class="cls-6" d="M1554.7,973.55c-9.54,9.8-15.1,2.63-35.83,17.91-20.73,15.28-43.8,11.27-49.78,8.6-5.98-2.67-9.42-7.5-7.01-12.59,1.72-3.62,8.32-10.72,11.99-14.51,3.34-3.46,6.98-6.53,10.61-9.7,2.61-2.27,3.75-3.46,5.52-6.43,1.89-3.18,1.82-8.29,2.39-11.94,1.93-12.3,4.33-24.43,3-36.79-.52-4.82,.86-7.87,1.85-12.46,1.34-6.19,2.26-12.49,3.53-18.7,.05-.23,.71-4.08,.83-4.08,0,0,27.87,.24,27.87,.24-.65,18.59-1.03,38.59,4.64,56.45,1.12,3.51,2.44,12.57,4.86,15.35,5.41,6.21,11.54,6.52,16.72,13.14,4.6,5.88,4.86,9.31-1.19,15.53Z"/>
              <path class="cls-27" d="M1557.65,972c-3.69,7.37-25.88,15.98-30.8,18.44,0,0-19.67,8.6-28.27,12.29-8.6,3.69-30.73,4.92-40.56-2.46-2.62-1.97-4.11-4.29-4.81-6.7-1.92-6.63,2.1-13.95,4.81-16.65,3.69-3.69,15.98-9.83,22.12-17.21,6.15-7.37,6.72-10.57,10.73-10.82,4.02-.25,15.08,5.9,24.91,3.44,9.83-2.46,18.44-9.83,22.12-9.83s6.15,3.69,13.52,9.83c1.09,.91,2.14,1.83,3.11,2.75,5.53,5.25,6.24,10.63,3.11,16.91Z"/>
              <path class="cls-10" d="M1557.65,972c-3.69,7.37-25.88,15.98-30.8,18.44,0,0-19.67,8.6-28.27,12.29-8.6,3.69-30.73,4.92-40.56-2.46-2.62-1.97-4.11-4.29-4.81-6.7-.8-3.33-.46-7.02,2.35-10.51,9.57-11.9,29.5-15.98,41.79-14.75,12.29,1.23,23.35-2.46,31.96-6.15,8.16-3.5,16.67-11.63,25.23-7.08,5.53,5.25,6.24,10.63,3.11,16.91Z"/>
              <path class="cls-15" d="M1554.63,957.63c-3.12-2.16-6.79-.86-9.99,.46-4.05,1.67-7.87,3.82-11.68,5.97-9.05,5.11-17.53,9.13-28.15,9.09-10.27-.04-20.07-1.08-30.08,1.98-7.48,2.28-15.96,6.03-19.52,13.47-.53,1.11,1.09,2.1,1.68,.98,4.02-7.64,13.63-11.22,21.54-13.11,9.57-2.29,18.98-.72,28.66-.99,8.27-.23,15.56-3.05,22.75-6.97,3.47-1.89,6.86-3.92,10.37-5.74,3.47-1.8,9.48-7.23,13.29-4.74,1.27,.83,2.36,.45,1.13-.4Z"/>
            </g>
            <path class="cls-51" d="M1664.29,664.42s-129.7,36.86-142.66,62.07c-11.87,23.07-35.96,132.45-37.98,156.56,3.36,4.48,12.9,4.62,15.96,5.13,7.73,1.29,15.61,1.29,23.42,1.22,.7,0,1.11,.45,1.22,.98,5.1-.19,8.35-.41,8.35-.41l93.84-147.87,118.03-89.66-80.17,11.98Z"/>
            <path class="cls-40" d="M1584.44,743.25c-.91-10.25-12.49-18.92-20.83-23.38-1.99-1.07-3.39,1.98-1.52,3.11,7.27,4.41,17.65,11.48,19.21,20.53,.34,1.96,3.31,1.78,3.13-.27Z"/>
            <path class="cls-40" d="M1580.89,739.19c-5.25-2.43-10.98-4.5-16.64-5.72-1.86-.4-2.95,2.63-1.07,3.26,5.44,1.8,10.85,3.54,16.22,5.53,2.01,.74,3.51-2.12,1.49-3.06Z"/>
            <path class="cls-40" d="M1497.54,879.34s-12.97,0-13.9,3.71c-.93,3.71,20.38,6.48,20.38,6.48l-6.48-10.19Z"/>
          </g>
          <g>
            <path class="cls-38" d="M1758.79,745.94c-50.03,5.56-101.9,23.16-113.95,29.64-8.03,4.33-84.06,134.47-96.67,150-.76,.94-1.3,1.47-1.6,1.55-2,.54-9.3-8.64-17.53-20.18-13.26-18.54-28.96-43.16-28.96-43.16,0,0,67.61-116.71,78.53-131.33,12.46-16.68,108.52-61.97,108.52-61.97l27.99-22.55,44.58,10.91s12.97,38.89,12.97,62.07c0,18.53-13.9,25.01-13.9,25.01Z"/>
            <path class="cls-55" d="M1764.98,661.99c-6.6-10.12-20.09-42.25-27.84-60.63-1.03-2.42-1.96-4.62-2.76-6.49-1.16-2.73-2.05-4.78-2.57-5.86-.2-.42-1.02,7.09-1.59,10.72-2.39,.24-4.72,2.35-3.71,5.03,.07,.2,.16,.41,.23,.61-7.09,8.41-14.09,16.92-21.01,25.5-6.1,7.57-11.63,15.41-17.36,23.25-3.07,4.22-12.8,7.33-3.98,11.37,8.43,3.86,14.93,4.22,20.73,4.1,3.99-.08,7.64-.41,11.39,.02,3.53,.41,11.94,1.89,20.52,3.71,10.08,2.15,20.4,4.78,23.37,6.7,2.27,1.46,4.97,2.83,6.58,5.04,1.61-1.1,2.54-2.84,2.93-4.77,1.43-7.07-1.5-13.07-4.93-18.31Zm-35.05-60.69c-.06,.25-.12,.37-.17,.35,.01-.1,.07-.22,.17-.35Z"/>
            <path class="cls-44" d="M1769.63,669.62c-4.45-12.53-26.01-18.46-34.64-20.4-8.45-1.91-17.02-3.23-25.52-4.92-7.96-1.57-16.88-2.95-23.49-7.98-.85-.65-1.76,.73-.92,1.38,6.07,4.69,13.91,6.21,21.25,7.76,8.19,1.72,16.47,3.02,24.66,4.74,13.78,2.89,30.2,6.58,37.28,20.12,.48,.91,1.71,.21,1.38-.7Z"/>
            <g>
              <path class="cls-60" d="M1737.04,673.32c-8.57-1.83-16.98-3.31-20.52-3.71-3.75-.43-7.4-.11-11.39-.02,5.37-17.07,24.14-56.19,29.26-74.71,.8,1.86,1.73,4.06,2.76,6.49-.19,18.83,1.7,54.81-.11,71.97Z"/>
              <path class="cls-55" d="M1615.38,676.01s26.5-14.17,42.03-22.53c15.53-8.36,15.53-10.75,16.72-11.94,1.19-1.19,8.36-38.22,8.36-51.35s-1.19-21.5,7.17-35.83c8.36-14.33,21.5-25.08,29.86-25.08s13.14,8.36,15.53,17.91c2.39,9.55,.76,48.52-1.79,65.09-4.78,31.05-6.03,36.35-10.75,46.58-7.17,15.53-27.88,19.05-47.77,26.27-20.67,7.51-39.41,15.53-39.41,15.53l-19.93-24.65Z"/>
              <path class="cls-6" d="M1559.96,708.97c.92,1.07,2.03,1.74,2.77,2.95,.82,1.34,1,2.91,1.8,4.24,1.08,1.8,3.34,2.43,5.05,3.64,1.81,1.28,3.12,3.31,5.18,4.14,1.94,.78,4.14,.34,6.18-.11,6.53-1.45,12.8-3.89,19.12-6.05,.62-.21,1.27-.44,1.74-.91,1.53-1.54-.6-3.31-1.43-4.52-1.95-2.86-4.22-5.51-6.74-7.89-2.34-2.2-4.9-4.16-7.48-6.09-1.86-1.39-3.76-2.79-5.95-3.58-2.19-.78-4.55-.91-6.87-1.03-3.17-.16-6.4-.29-9.44,.62-1.72,.51-3.4,1.42-4.38,2.93-.49,.76-.78,1.63-.96,2.52-.34,1.63,0,2.92,.18,4.5,.19,1.74,0,3.18,1.24,4.63Z"/>
              <path class="cls-6" d="M1579.4,678.49c-.96-.29-1.95-.56-2.95-.58-1.27-.02-2.51,.35-3.74,.67-5.66,1.47-11.62,1.8-17.41,.98-1.16-.17-2.44-.35-3.43,.28-1.44,.92-1.46,3.05-.88,4.67,1.56,4.35,6.03,7.13,10.57,7.99s9.22,.11,13.78-.64c6.96-1.14,14.1-2.34,20.2-5.89,1.4-.81,2.02-2.34,.28-3.28-1.22-.65-3.94-1.48-5.29-1.73-4.08-.78-7.16-1.28-11.13-2.46Z"/>
              <path class="cls-13" d="M1543.42,689.3s12.87-8.71,19.85-3.13c6.98,5.58,.71,21.11-2.04,27.64-2.75,6.54-9.92,16.39-9.92,16.39l-3.43-12.54s4.31,3.39,5.51,1.75c1.19-1.64,6.23-13.23,4.89-21.74-1.34-8.51-5.32-8.71-12.97-3.73-7.64,4.98-1.89-4.64-1.89-4.64Z"/>
              <path class="cls-6" d="M1637.73,698.09c-7.58-25.07-20.24-22.72-20.25-22.72-1.04-.02-12.82,3.4-19.79,4.39-3.29,.47-9.77,.43-13.1,.8-2.66,.3-5.25,1.03-7.82,1.8-6.19,1.85-12.26,3.81-17.96,6.82-1.56,.82-3.04,1.93-3.89,3.47-.93,1.69-.76,3.8,.1,5.49,.83,1.65,2.41,1.55,4.11,1.48,3.58-.14,7.17-.28,10.75-.43,.33-.01,.67-.03,1,.04,1.61,.35,2.05,2.3,2.84,3.47,1.15,1.69,2.23,3.32,3.2,5.12,1.53,2.83,3.26,5.56,5.17,8.16,1.75,2.38,4,4.83,6.95,5.03,1.35,.09,2.68-.32,3.96-.72,1.65-.52,3.29-1.06,4.94-1.59,12.86-7.67,25.99-14.82,39.78-20.62Z"/>
              <path class="cls-36" d="M1586.22,709.5c-.61-1.19-1.64-2.07-2.13-3.32-.58-1.47-.45-2.97-1.45-4.31-1.44-1.93-3.22-2.86-3.56-5.46-.14-1.04,0-2.05,.14-3.07,.28-2.1-.2-3.38-1.62-4.98-.67-.76,.43-1.77,1.15-1.07,1.75,1.72,2.56,3.34,2.24,5.81-.21,1.6-.49,3.29,.39,4.78,.76,1.29,2.15,2.07,2.98,3.31,.61,.9,.8,1.83,1.04,2.89,.39,1.74,1.15,2.52,2.05,3.96,1.63,2.6,1.34,5.85,2.75,8.55,.54,1.03-1.07,1.87-1.61,.83-1.3-2.49-1.11-5.43-2.37-7.9Z"/>
              <path class="cls-35" d="M1558.16,688.46c6.3-3.77,15.29-5.71,22.49-7.02,1.84-.34,.63,1.21-1.19,1.64-7.05,1.66-15.68,5.38-22.21,8.44-1.82,.85-.79-2.04,.92-3.06Z"/>
              <path class="cls-35" d="M1558.38,698.68c1.43-.65,4.13-.69,6.17-.97,2.25-.31,4.45-.82,6.68-1.22,1.45-.26,2.28,.82,.75,1.37-2.1,.76-4.08,1.7-6.26,2.23-2.15,.51-4.35,.79-6.55,.83-.63,0-1.24-.13-1.42-.8-.15-.57,.07-1.18,.62-1.43Z"/>
              <path class="cls-13" d="M1544.94,682.38s9.66,50.22,8.46,51.86c-1.19,1.64-26.22,12.56-28.66,11.78-2.45-.78-27.03-44.28-26.28-48.76,.75-4.48,32.61-19.96,46.49-14.88Z"/>
              <path class="cls-7" d="M1506.23,701.15c-1.16-2.88,3.11-5.17,4.35-2.25,2.03,4.81,4.29,9.51,6.7,14.14,1.51,2.89-2.97,5.22-4.5,2.33-2.44-4.62-4.6-9.37-6.55-14.22Z"/>
              <path class="cls-7" d="M1516.64,722.24c-.49-1.08-.18-2.52,.97-3.05,1.16-.54,2.41-.13,3.05,.97,.32,.55,.61,1.11,.89,1.69,.51,1.07,.17,2.54-.97,3.07-1.15,.53-2.45,.14-3.07-.97-.31-.56-.6-1.12-.87-1.7Z"/>
              <path class="cls-44" d="M1681.29,634.38c-1.36,1.22-2.81,2.42-4.32,3.59,.15-4.27,.26-6.52,.74-10.75,.66-5.82,3.96-12.13,4.78-17.91,1.52-10.81-2.39-21.5,.73-34.58,.39-1.64-2.45-1.97-2.9-.39-3.31,11.63,.48,24.06-2.14,35.86-1.16,5.22-3.02,10.15-3.51,15.51-.43,4.67-2.47,9.33-1.45,13.99,.07,.32,.22,.58,.4,.78-7.26,5.18-15.52,9.74-23.02,13.57-2.44,1.24-.39,4.23,2.04,3.03,10.68-5.27,20.68-11.32,29.15-19.71,1.97-1.95,1.54-4.81-.49-2.98Z"/>
              <path class="cls-45" d="M1733.84,541.22c-2.55-4.68-4.73-9.24-10.4-9.98-5.32-.7-10.71,1.54-15.22,4.17-10.41,6.08-17.45,16.12-21.47,27.31-.33,.92,1.1,1.28,1.45,.4,3.85-9.59,9.72-18.83,18.46-24.65,4.03-2.68,8.81-5,13.71-5.3,6.5-.4,9.68,3.77,12.61,8.89,.66,1.15,1.49,.32,.86-.84Z"/>
            </g>
            <path class="cls-40" d="M1717.12,673.79c-18.36,4.59-33.83,8-51.72,14.14-.3,.05-.59,.12-.83,.2-34.11,11.11-80.4,33.82-87.44,43.24-5.3,7.09-24.96,40.7-43.98,73.19-11.28,19.27-20.94,38.04-28.61,50.76-.53,.88-1.23,1.44-.35,1.97,.3,.18,.63,.27,.95,.27,.63,0,1.24-.32,1.59-.9,7.68-12.74,18.34-30.95,29.62-50.23,18.97-32.41,38.58-65.92,43.75-72.85,6.44-8.63,53.99-32.14,86.24-42.65,.21-.07,.39-.17,.56-.3,17.66-5.86,35.65-10.95,53.65-15.63,2.48-.65,1.35-2.4-3.42-1.21Z"/>
            <g>
              <path class="cls-40" d="M1548.34,926.2c-.76,.94-1.63,1.85-1.91,1.97-2.31,.97-6.01-3.07-17.25-20.57l9.1-5.05s11.3,15.66,10.05,23.65Z"/>
              <path class="cls-6" d="M1540.39,905.92s-40.69,36.93-53.25,46.74c-6.96,5.43-12.14,19.61-17.65,27.39-4.43,6.27-8.24,11.86-11.15,14.45-6.54,5.8-20.49,.71-34.18-5.26s-28.89-21.21-23.71-32.24c3.06-6.51,14.16-7.59,27.66-10.91,9.35-2.31,19.77-7.46,26.06-12.71,15.38-12.84,46.55-69.32,46.55-69.32,14.54-3.43,39.68,41.86,39.68,41.86Z"/>
              <path class="cls-35" d="M1491.48,949.22c-.69-.75-.64-1.93,.11-2.62,9.56-8.78,27.52-23.04,33.56-28.32,.77-.67,1.94-.59,2.61,.18,.67,.77,.59,1.94-.18,2.61-6.02,5.26-35.75,28.54-36.11,28.15Z"/>
              <path class="cls-13" d="M1474.08,971.76s-2.39,7.17-10.38,17.58c-.67,.86-1.3,1.66-1.9,2.4-6.65,8.12-9.91,8.68-17.58,8.68-8.36,0-33.44-11.94-42.99-23.89-9.55-11.94-3.58-16.72-1.19-21.5,.68-1.36,2.33-2.44,4.57-3.32,5.6-2.23,13.67-4.53,20.51-6.23,9.55-2.39,19.71-8.96,23.29-10.15s19.11,13.14,20.3,14.33,1.19,4.78,0,13.14c-1.01,7.09,5.37,8.96,5.37,8.96Z"/>
              <path class="cls-7" d="M1461.8,991.74c-6.65,8.12-9.91,8.68-17.58,8.68-8.36,0-33.44-11.94-42.99-23.89-9.55-11.94-3.58-16.72-1.19-21.5,.68-1.36,2.33-2.44,4.57-3.32-1.82,2.42-3.91,7.92,3.79,16.46,10.57,11.75,40.18,27.09,53.41,23.56Z"/>
            </g>
            <path class="cls-40" d="M1748.44,708.55c-3.17-3.9-6.37-7.79-9.39-11.8-2.82-3.74-6.04-7.48-6.72-12.25-.33-2.34-4.46-1.81-4.16,.56,.66,5.19,3.5,9.08,6.54,13.22,3.37,4.6,6.95,8.98,10.92,13.08,1.82,1.88,4.39-.87,2.81-2.81Z"/>
            <path class="cls-51" d="M1727,714.57c-14.31,9.49-29.46,17.3-45.9,22.41-7.44,2.31-15.26,3.42-22.62,5.93-2.9,.99-5.7,2.3-8.08,4.25-2.84,2.33-4.76,7.22-8.7,7.67-1.78,.2-3.55-.31-5.34-.04-1.5,.22-2.87,.85-4.1,1.71-2.4,1.67-4.16,4.18-5.66,6.64-4.77,7.8-9.22,15.81-13.93,23.65-9.44,15.72-19.17,31.26-29.18,46.62-11.39,17.46-23.17,34.66-35.28,51.64-.67,.95,.88,1.84,1.55,.91,21.25-29.44,41.37-59.71,60.27-90.71,4.68-7.67,9.29-15.39,13.82-23.15,2.05-3.51,3.91-7.27,6.37-10.53,1.11-1.47,2.43-2.9,4.05-3.81,2.01-1.13,4-.82,6.19-.73,3.23,.14,5.36-1.33,7.35-3.77,2.37-2.91,4.57-5.32,8.03-6.97,6.97-3.32,15.16-4.09,22.54-6.21,17.62-5.06,34.79-12.97,49.59-23.83,1-.73,.08-2.41-.99-1.7Z"/>
          </g>
        </g>
        <g>
          <g>
            <path class="cls-59" d="M1618.61,440.07s-14.66-11.97-10.64-24.08c4.06-12.23,15.99-16.51,26.01-20.92,7.87-3.46,25.25-7.82,44.83,12.72,19.53,20.49,15.65,45.4-11.69,75.69-9.25,10.25-48.51-43.4-48.51-43.4Z"/>
            <path class="cls-6" d="M1687.26,506.59c-9.61,5.45-17.68,10.73-22.69,14.33-20.14,14.5-31.05,38.22-31.05,38.22-8.36-20.3-3.76-42.17-3.8-56.44,0-.12-.03-.25-.04-.37-.55-4.98-.84-12.29-.99-17.18-.09-3.06-.12-5.18-.12-5.18l36.43-14.16s-3.7,14.89,6.73,28.84c6.36,8.5,15.59,11.91,15.53,11.94Z"/>
            <path class="cls-52" d="M1656.72,477.13s1.1,5.55-6.64,14.93c-6.1,5.25-9.22,7.54-20.4,10.27-.55-4.98-.84-12.29-.99-17.18l28.02-8.02Z"/>
            <g>
              <path class="cls-6" d="M1609.93,433.95c-1.07,5.61-17,41.19,6.86,56.37,13.88,8.83,42.68-1.63,47.95-20.91,0,0,4.51,.97,8.08-1.84,4.61-3.61,9.12-10.2,2.86-16.88-8.14-8.68-14.34,1.81-14.34,1.81,0,0-.04-7.46-3.32-14.54-10.41-3.11-34.74-10.49-38.97-20.95,0,0-7.73,9.55-9.13,16.93Z"/>
              <path class="cls-31" d="M1617.73,462.47c.24-.79,1.06-1.33,1.78-1.14,.71,.18,1.43,.37,2.14,.55,.72,.19,1.14,1,.9,1.81-.24,.79-1.06,1.33-1.78,1.14-.71-.18-1.42-.37-2.14-.55-.72-.19-1.14-1-.9-1.81Z"/>
              <path class="cls-59" d="M1633.56,432.65c1.86,.52,3.8,.71,5.62,1.34,1.85,.64,3.59,1.53,5.41,2.25,1.64,.65,.58,3.55-1.07,2.9-1.81-.72-3.56-1.62-5.41-2.25-1.82-.62-3.76-.82-5.62-1.34-1.71-.48-.64-3.37,1.07-2.9Z"/>
              <path class="cls-59" d="M1606.76,436.98c1.39-1.31,2.86-1.74,4.57-2.14,1.79-.42,2.34,2.48,.53,2.9-1.13,.26-2.29,.41-3.22,1.29-1.42,1.35-3.3-.7-1.87-2.05Z"/>
              <path class="cls-31" d="M1616.77,471.95c3.5-.42,7.1-.78,10.61-.81,2.52-.02,2.52,3.86,0,3.92-3.51,.08-7.13,.3-10.63,0-2.32-.21-2.25-2.83,.02-3.1Z"/>
            </g>
          </g>
          <path class="cls-40" d="M1635.05,449.79c.17,.65,.61,1.21,1.16,1.61,.9,.65,2.1,.87,3.15,.53,1.05-.34,1.91-1.27,2.11-2.36,.2-1.09-.3-2.29-1.25-2.86-.3-.18-.63-.3-.97-.4-.48-.14-.97-.23-1.47-.19-1.56,.14-3.14,2.11-2.74,3.67Z"/>
          <path class="cls-40" d="M1605.83,451.05c.94,.59,2.28,.45,3.08-.34,.76-.75,.96-1.91,.88-2.98-.04-.48-.14-.97-.46-1.33-.21-.24-.51-.39-.82-.47-2.69-.77-5.39,3.41-2.67,5.11Z"/>
        </g>
      </g>
      <path class="cls-18" d="M1460.77,758.03c-18.06-7.07-36.65-12.6-55.65-16.5-1.6-.33-2.11,2.15-.51,2.49,18.74,3.94,37.12,9.43,54.95,16.44,1.62,.64,2.84-1.79,1.21-2.43Z"/>
      <g>
        <path class="cls-23" d="M1707.56,776.5s-3.58-42.99,21.5-68.07c25.08-25.08,70.46-15.53,70.46-15.53l-31.05,71.66-60.91,11.94Z"/>
        <path class="cls-18" d="M1802.42,690.49c-21.17-2.1-43.4-2.72-60.66,6.79-20.15,11.1-31.43,29.09-35.5,56.59-.27,1.76-.5,3.56-.72,5.5-.73,6.46-1.11,13.25-1.29,20.29,1.35-.16,2.7-.33,4.05-.51,.19-6.72,.57-13.19,1.26-19.33,.21-1.89,.44-3.63,.7-5.35,3.93-26.52,14.24-43.07,33.45-53.66,16.45-9.05,37.41-8.43,58.61-6.28,.02-1.35,.06-2.69,.1-4.04Z"/>
      </g>
    </g>
  </g>
  <g>
    <g>
      <g>
        <path class="cls-3" d="M2056.99,716.13s-51.44,23.14-53.52,10.81c-1.8-10.67-5.63-21.44-6.61-24.15-.17-.43-.25-.65-.25-.65,0,0-.07,.04-.22,.11-1.7,.79-12.73,5.79-17.59,3.04-.95-.54-1.76-1.86-2.48-3.71-.11-.26-.2-.54-.3-.83-1.94-5.69-2.58-11.88-3.23-17.82-.59-5.39-1.49-11.05-1.4-16.46,.05-2.56-.29-5.05,.07-7.62,.29-2.07,.84-4.1,1.34-6.13,1.05-4.28,1.86-8.62,2.42-13,.25-1.94,.53-3.55,1.3-5.36,2.35-5.57,4.22-11.19,7.76-16.19,2.26-3.19,5.08-6.05,8.42-8.1,1.54-.95,3.35-2.02,5.17-2.1,2.03-.09,4.1,.57,6.02,1.16,7.03,2.15,13.46,6.29,19.41,10.49,11.46,8.08,21.99,17.57,31.9,27.47,.84,.84,1.68,1.68,2.51,2.54,0,0-4.81,40.49-5.16,47.26-.35,6.77,4.44,19.24,4.44,19.24Z"/>
        <path class="cls-51" d="M1992.35,610c-1.3,1.41-7.36,14.82-5.07,23.09,2.29,8.27,6.28,9.83,7.36,15.32,1.07,5.49,.86,9.55,2.15,10.98,.73,.81,2.81,.8,3.79,.97,2.49,.42,4.98,.84,7.4,1.56,2.5,.74,5.11,1.58,6.71,3.74,1.84,2.48,2.81,5.46,3.89,8.32,2.04,5.36,4.59,10.52,7.6,15.39,2.46,3.97,5.99,8.53,10.63,10.12,9.88,3.38,18.08-2.06,24.84-8.9,1.37-1.39,2.81-2.91,3.08-4.84,.16-1.17-.13-2.38,.1-3.53,.43-2.09,2.4-3.42,4.05-4.77,3.9-3.16,6.74-7.58,8.14-12.4,1.17-4.03,2.43-9.24,1.81-13.44-1.13-7.61-3.62-15.44-7.16-22.29,0,0,25.52,5.39,26.29-9.5,.77-14.9-8.64-16.74-8.64-16.74,0,0,7.26-9.13,4.69-11.98-2.57-2.85-6.63-3.06-6.63-3.06,0,0-6.79-26.15-23.75-13.45s-12.31,27.88-12.31,27.88c0,0-31.64-22.27-58.98,7.55Z"/>
        <path class="cls-4" d="M2069.33,628c-9.71-2.94-17.55-13.31-17.43-23.48,.04-3.17-2.84-1.42-3.35,1.73-3.19,19.66,8.51,29.77,19.12,26.77,3.27-.93,4.91-4.02,1.66-5.01Z"/>
        <path class="cls-13" d="M2004.38,652.15c-11.89-3.16-24.01-5.6-36-8.32-.92-.21-1.6,.41-1.7,1.29-.34,3.01-.69,6.01-1.03,9.02-.28,2.49-1.28,5.96-.91,8.45,.39,2.68,3.8,2.92,6.56,2.97-.09-.89-.13-1.79-.04-2.69-1.21-.04-2.44-.17-3.14-.71-.89-.68-.57-1.03-.44-2.22,.12-1.07,.25-2.15,.37-3.22,.38-3.32,.76-6.63,1.14-9.95,11.49,2.63,22.98,5.51,34.57,7.7,1.5,.28,2.16-1.92,.64-2.32Z"/>
        <g>
          <path class="cls-3" d="M2013.05,653.9c-4.63-9.64-14.83,.64-16.25,6.93-.01,.06-.01,.12-.02,.18-.33,.47-.5,1.06-.39,1.78,.33,2.12,.71,4.23,1.2,6.33,.39,1.67,.72,3.54,1.52,5.1-.13,.37-.26,.73-.39,1.1-.49,1.37,.13,2.48,1.12,3.04,.59,1.49,2.6,2.51,4.28,1.21,6.76-5.24,13.07-17.08,8.94-25.66Z"/>
          <path class="cls-29" d="M2012.04,666.28c-1.13,5.75-3.77,8.77-8.34,12.45-1.25,1,.9,3.05,2.15,2.17,5.07-3.6,8.14-9.69,8.97-15.83,.19-1.4-2.5-.2-2.78,1.21Z"/>
        </g>
        <path class="cls-30" d="M1997.66,703.81c0,.38,.12,.76,.2,1.13,.18,.84,0,1.31-.71,1.71-.51,.28-1.05,.51-1.6,.69-4.63,1.52-10.31,.66-14.83-.89-2.49-.85-3.51-2.5-4.42-4.87-.11-.26-.2-.54-.3-.83,.39-.14,.94-.05,1.64,.41,.57,.37,1.18,.66,1.82,.87,4.01,1.34,8.68,.15,12.55-1.14,2.97-.99,5.82-2.32,8.69-3.52,.71-.3,1.45-.55,2.2-.74-.05,1.61-1.43,2.99-2.62,4.06-.89,.8-2.53,1.71-2.63,3.04,0,.03,0,.05,0,.08Z"/>
        <path class="cls-40" d="M1978.77,636.4c-.05-.13-.1-.25-.14-.38-.35-.93-1.69-3.11-2.93-2.73-.84,.26-1.62,1.45-1.54,2.33,.03,.31,.19,.59,.35,.86,.8,1.33,1.6,2.67,2.39,4,.48,.8,1.07,1.68,1.99,1.84,.44,.08,.95-.07,1.16-.46,.12-.22,.13-.48,.12-.73-.06-1.61-.82-3.24-1.41-4.74Z"/>
      </g>
      <path class="cls-16" d="M1993.45,763.09s2.34-18.89,1.26-24.38c-1.07-5.49,27.14-25.76,43.6-28.98,16.46-3.22,20.53-3.01,23.16-1.52,2.64,1.49,7.29,16.67,7.29,16.67,0,0,14.13,15.67,18.98,26.78,4.86,11.12-58.83,75.72-58.83,75.72l-35.46-64.3Z"/>
      <path class="cls-4" d="M2062.81,722.95c-12.08-.38-24.3-1.16-35.67,3.69-10.36,4.41-15.88,8.19-23.51,16.35-1.65,1.77,2.16,1.58,4.09,.07,8.19-6.4,10.06-6.91,19.62-11.37,11.31-5.28,23.86-5.48,35.92-5.71,3.03-.06,2.64-2.92-.46-3.02Z"/>
    </g>
    <g>
      <path class="cls-56" d="M1605.78,1074.22s-63.74-4.07-62.39,2.71,138.33,12.21,145.11,5.42c6.78-6.78-82.73-8.14-82.73-8.14Z"/>
      <path class="cls-3" d="M1806.5,977.93l-158.68,80.02-35.26-17.63,4.07-18.99s8.39-11.54,20.6-28.13c27.3-37.09,73.66-99.42,87.9-114.38,1.1-1.17,2.02-2.05,2.71-2.6,7.45-5.95,30.41,25.27,49.61,54.64,1.78,2.71,3.51,5.4,5.21,8.04,13.4,20.97,23.84,39.03,23.84,39.03Z"/>
      <path class="cls-51" d="M1671.39,1078.75c-3.23,2.25-108.48,5.89-115.11-9.28-2.01-4.57-1.95-8.07-.56-10.8,2.45-4.82,8.47-6.86,13.3-8.27,5.21-1.52,10.19-2.21,14.99-4.93,4.58-2.59,8.64-6.01,12.47-9.6,5.82-5.46,11.26-11.41,17.87-15.88,.83-.56,1.83-1.12,2.78-.8,1.08,.37,1.48,1.65,1.76,2.75,1.44,5.62,3.8,11.19,7.96,15.25,4.15,4.06,10.36,6.35,15.93,4.7,6.54-1.93,10.77-8.59,17.23-10.78,.72-.24,1.47-.43,2.22-.32,.81,.12,1.53,.58,2.18,1.08,1.93,1.48,4.12,3.76,4.52,6.21,.39,2.4,.57,4.91,.89,7.34,.77,5.97,1.47,11.94,1.97,17.94,.68,7.92,.83,14.54-.38,15.38Z"/>
      <path class="cls-7" d="M1671.39,1078.75c-3.23,2.25-108.48,5.89-115.11-9.28-2.01-4.57-1.95-8.07-.56-10.8,1.64,2.08,6.17,5.09,18.19,8.08,20.51,5.13,80.97,.57,97.86-3.39,.68,7.92,.83,14.54-.38,15.38Z"/>
      <path class="cls-53" d="M1784.08,937.45s-.5,.52-1.42,1.45c-10.62,10.74-77.46,75.9-96.21,76.54-26.94,.93-49.53-21.63-49.53-21.63l.31-.61c27.3-37.09,73.66-99.42,87.9-114.38l52.32,52.04,6.63,6.59Z"/>
    </g>
    <g>
      <path class="cls-20" d="M1730.46,963.48s-63.69-125.01-55.62-160.29c8.07-35.28,41.96-42.12,55.53-40.79,13.56,1.33,146.64,90.59,146.64,90.59l28.56,41.99-142.28,65.36-32.82,3.13Z"/>
      <path class="cls-53" d="M1815.12,939.44c-22.12-21.58-45.91-41.56-66.11-65.04-19.87-23.11-36.61-48.7-56.72-71.62-1.97-2.25-5.7-2.05-3.79,.2,5.71,6.74,11.67,16.75,17.01,23.78-4.81-3.63-9.56-7.31-14.06-11.37-2.2-1.99-3.78,1.84-1.59,3.87,7.35,6.79,13.48,12.79,22.32,17.55,.39,.21,.76,.29,1.1,.28,10.37,13.92,20.63,27.92,31.95,41.1,20.18,23.5,43.95,43.48,66.06,65.08,2.49,2.43,6.32-1.39,3.82-3.82Z"/>
      <path class="cls-54" d="M1867.51,899.09c-33.71-3.19-62.21-22.11-88.39-42.19-13.17-10.1-26.64-20.1-38.48-31.76-5.44-5.36-10.21-11.61-16.6-15.92-2.85-1.92-6.17-3.34-8.62-5.8-2.13-2.14-2.91-5.11-4.89-7.34-1.99-2.24-3.56-1.8-6.22-1.74-6.06,.13-5.34-7.11-8.25-10.64-4.67-5.66-9.9,5.53-10.7,9-.32,1.38,1.77,1.96,2.12,.59,.53-2.06,1.33-4,2.58-5.74,.4-.55,1.36-2,2-2.24,2.55-.98,2.87,1.35,3.44,2.87,1.01,2.65,1.78,5.49,4.11,7.34,2.11,1.67,3.64,1.22,6.08,1.16,3.72-.1,4.65,4.53,6.53,7.03,3.84,5.09,10.63,7.33,15.25,11.64,5.64,5.27,10.6,11.21,16.31,16.43,11.66,10.65,24.4,20.2,36.97,29.74,12.52,9.51,25.44,18.62,39.44,25.83,14.73,7.58,30.72,13.13,47.33,14.4,1.71,.13,1.68-2.49,0-2.65Z"/>
    </g>
    <path class="cls-4" d="M1963.14,781.96s-24.41,21.7-36.62,24.41c-12.21,2.71-17.41,14.36-17.52,15.32-.11,.96-62.49,25.37-62.49,25.37,0,0,9.49,37.97,35.26,51.54,25.77,13.56,82.73-23.06,82.73-23.06l10.85-66.45-12.21-27.12Z"/>
    <g>
      <path class="cls-29" d="M1799.31,813.83s-14.92,1.36-14.92,5.42,9.49,2.71,12.21,2.71c.73,0,4.41-1.39,4.25,.02-.05,.43-.53,.66-.93,.82-3.56,1.41-6.4,4.24-8,7.68-.99,2.12-2.09,4.74-1.69,7.13,.52,3.09,3.86,2.75,5.8,.98,1.44-1.31,2.27-3.15,3.39-4.74,1.89-2.7,4.47-4.36,7.44-5.65,1.7-.74,4.56-1.06,6.02-2.15-2.24,1.68-4.82,4.44-6.35,6.78-2.79,4.24-2.9,9.63-2.92,14.7,0,.42,0,.88,.28,1.21,.26,.32,.7,.42,1.1,.44,2.01,.1,3.77-1.41,4.79-3.15,1.02-1.73,1.5-3.73,2.36-5.54,1.2-2.51,3.04-4.3,5.23-5.93,1.35-1,2.19-2.61,3.5-3.52,.32,.93,.16-.58,.16,.44,0,0-5.42,2.71-2.71,8.14,2.71,5.42,25.77,1.36,25.77,1.36l-12.21-27.12h-32.55Z"/>
      <path class="cls-3" d="M1897.36,864.01s-52.89-10.85-75.95-25.77c-23.06-14.92-44.75-35.26-44.75-39.33s4.07-4.07,17.63,5.42c1.21-1.76,3.23-2.92,5.3-3.34,1.31-.27,2.56,.22,3.86,.26,1.54,.05,2.48-.55,3.71-1.42,.78-.55,1.44-1.08,2.35-1.41,1.6-.59,3.18-.04,4.77-.47,1.45-.39,2.35-1.79,3.58-2.65,2.11-1.48,5.05-1.2,7.37-.07,2.32,1.13,4.18,2.98,6.14,4.65,10.27,8.81,23.59,13.29,36.92,15.64,13.32,2.34,26.91,2.74,40.32,4.46-4.72,14.38-9.12,29.03-11.23,44.02Z"/>
      <path class="cls-30" d="M1801.71,807.26c-2.16-1.59-3.75-1.57-6.06-2.92-1.39-.81-3.27-.17-1.9,.68,2.28,1.41,4.49,2.92,6.63,4.53,1.35,1.02,2.69-1.28,1.33-2.28Z"/>
      <path class="cls-16" d="M1898.04,871.47s-16.27,8.14-25.77,1.36c-9.49-6.78-9.49-24.41-5.42-37.97,4.07-13.56,14.92-17.63,20.34-18.99,5.42-1.36,20.34-1.36,21.7,2.71,0,0,25.77,1.36,28.48,0,2.71-1.36,0-10.85,6.78-17.63,6.78-6.78,13.56-9.49,13.56-9.49,0,0-1.36-6.78,4.07-12.21,5.42-5.42,9.49-5.42,12.21-12.21,2.71-6.78,10.85-23.06,24.41-23.06s27.12,16.27,29.84,48.82c2.71,32.55-61.03,77.3-73.24,81.37-12.21,4.07-56.96-2.71-56.96-2.71Z"/>
      <path class="cls-4" d="M1905.5,823.33c1.47-1.74-.54-2.65-2.24-1.08-7.48,6.9-13.83,15.47-15.16,25.83-1.1,8.61,1.23,19.78,8.13,25.6,1.82,1.53,4.6-.37,3.38-2.61-4.45-8.16-8.41-15.04-6.4-24.84,1.71-8.34,6.94-16.56,12.3-22.9Z"/>
      <path class="cls-4" d="M1935.34,817.9c-2.09,3.06-5.42,7.26-7.9,12.82-1.16,2.59,2.49,3.41,3.83,.75,2.48-4.92,5.54-8.48,7.06-13.78,.71-2.47-1.63-1.78-3,.22Z"/>
      <path class="cls-5" d="M2015.82,763.56c-6.1-8.19-16.11-15.22-26.78-12.43-1.33,.35-.76,2.3,.56,2.04,11.13-2.16,20.79,5.99,26.24,14.92,5.72,9.36,7.61,20.04,9.66,30.64,.25,1.29,2.49,1.01,2.32-.31-1.56-12.15-4.56-24.87-12-34.86Z"/>
    </g>
    <g>
      <path class="cls-56" d="M1925.84,1086.43s-291.58-9.49-291.58,2.71,291.96,11.2,291.96,11.2c0,0,299.35-.35,299.35-13.91,0-9.87-299.72,0-299.72,0Z"/>
      <g>
        <path class="cls-1" d="M1927.2,1099.99s-219.71,0-238.69-10.85c-43.18-24.68-52.89-50.18-29.84-88.15,23.06-37.97,74.59-50.18,117.99-61.03,43.4-10.85,146.47-66.45,170.88-81.37,24.41-14.92,74.59-46.11,74.59-46.11,0,0,12.21-21.7,25.77-33.91,13.56-12.21,29.84-16.27,37.97-28.48,8.14-12.21,16.27-40.69,39.33-51.54s43.4-1.36,52.89,13.56c9.49,14.92,8.14,29.84,8.14,29.84,0,0,13.56,6.78,16.27,16.27,2.71,9.49-2.71,18.99-2.71,18.99,0,0,9.49,16.27,17.63,43.4,8.14,27.12,10.85,48.82,17.63,77.3,6.78,28.48,17.63,97.65-27.12,146.47-44.75,48.82-108.62,49.29-128.84,51.54-24.41,2.71-151.9,4.07-151.9,4.07Z"/>
        <path class="cls-33" d="M2164.49,1020.75c-.62-26.98-3.91-54.04-8.97-80.54-5.08-26.62-12.23-52.85-21.37-78.36-2.26-6.32-4.76-12.54-7.13-18.81-1.13-2.99-2.21-6.11-2.4-9.32-.23-3.74,1.01-7.21,1.77-10.81,1.12-5.24,.28-9.51-2.59-13.99-3.44-5.37-6.9-9.66-5.06-16.44,1.57-5.79,4.71-10.91,4.96-17.04,.2-4.95-1.08-9.89-3.34-14.27-4.64-9.01-13.51-15.55-23.74-16.21-1.52-.1-1.5,2.24,0,2.35,10.03,.75,18.54,7.91,22.35,17.04,1.86,4.46,2.61,9.46,1.69,14.24-1.05,5.47-4.27,10.28-5.06,15.82-.66,4.58,.96,8.47,3.43,12.23,1.24,1.89,2.64,3.7,3.69,5.71,1.8,3.44,1.77,6.71,.96,10.44-1.21,5.55-2.37,10.26-.92,15.9,1.58,6.12,4.42,11.99,6.62,17.91,17.98,48.31,28.76,99.29,31.82,150.74,1.59,26.82,1.46,57.97-21.1,76.68-1.32,1.09,.56,2.91,1.87,1.87,19.37-15.51,23.05-41.85,22.52-65.13Z"/>
        <path class="cls-33" d="M1948.9,862.87c-19.97,23.67-29.76,54-38.91,83.06-5.32,16.88-10.81,33.73-15.86,50.69-4.76,16.01-8.84,32.59-8.71,49.4,.12,15.93,4.16,32.02,14.5,44.45,1,1.2,2.67-.51,1.71-1.71-20.29-25.16-13.94-60.49-5.65-88.96,4.74-16.25,10.05-32.34,15.13-48.49,4.41-14.01,8.79-28.05,14.24-41.69,6.44-16.1,14.55-31.35,25.4-44.92,1.03-1.29-.75-3.15-1.85-1.85Z"/>
        <path class="cls-33" d="M1749.28,952.84c-10.19,4.68-19.33,12.23-27.65,19.64-8.63,7.68-16.76,16.01-24.5,24.59-13.56,15.05-26.01,33.47-23.3,54.71,1.21,9.52,5.45,18.7,13.38,24.41,.93,.67,2.1-.84,1.23-1.6-14.53-12.71-15.03-33.73-7.25-50.29,4.42-9.41,10.92-17.64,17.84-25.32,6.95-7.71,14.22-15.18,21.86-22.2,9.17-8.43,19.1-15.26,29.49-22.05,1.19-.78,.16-2.47-1.1-1.88Z"/>
        <path class="cls-33" d="M2056.55,791.38c-13.31,6.53-26.27,13.69-38.91,21.42-2.68,1.64,1.78,2.66,4.49,1.04,12.73-7.59,23.72-11.46,37-18.05,2.95-1.46,.36-5.85-2.58-4.41Z"/>
      </g>
    </g>
  </g>
  <g>
    <path class="cls-56" d="M767.8,1109s-333.67-7.22-336.72,3.78c-4.89,17.63,330.02,11.52,330.02,11.52,0,0,344.74-1.41,338.58-15.89-6.16-14.48-331.88,.58-331.88,.58Z"/>
    <g>
      <g>
        <path class="cls-10" d="M1021.29,1005.58s36.58,44.14,35.31,55.49c-1.27,11.35,57.67,2.42,57.67,2.42l.34-22.6s-37.83-56.75-52.97-83.24c-17.08-29.89-40.36,47.92-40.36,47.92Z"/>
        <path class="cls-38" d="M766.54,805.06s93.76-110.53,132.42-103.41c47.92,8.83,141.25,58.01,180.34,73.15,38.95,15.08-63.06,55.49-63.06,55.49l94.59,176.56s-6.31,16.39-46.66,37.83c-35.92,19.08-34.04,13.49-34.04,13.49l-83.25-181.23s-63.06,20.18-107.2,23.96c-283.11,24.27-90.53-97.89-73.15-95.85Z"/>
        <path class="cls-40" d="M1003.22,837.92c-21.05,17.15-48.1,31.09-73.43,40.71-2.15,.82-.91,4.58,1.32,3.87,16.27-5.23,31.9-12.65,46.46-21.74,.11,0,.23,0,.35-.03,6.91-1.28,13.5-3.59,19.83-6.63,2.48-1.19,1.95-3.92-.53-2.69-2.44,1.21-6.28,1.14-8.8,2.11,4.83-3.43,9.54-7.03,14.07-10.8,2.36-1.96,3.12-6.72,.75-4.79Z"/>
        <path class="cls-40" d="M999.08,831.99c-.56-.4-1.13-.73-1.45-.96-1.71-1.23-3.5-2.55-5.18-3.7-6.15-4.2-11.68-9.23-17.76-13.52-6.83-4.82-14.35-8.55-22.35-10.98-7.59-2.3-22.76-5.4-30.68-5.34-5.39,.04-23.6,.07-28.99,.23-2.68,.08-5.37,.07-8.04-.12-2.72-.2-4.28-.78-3.5-3.93,1.85-7.54,6.12-14.22,9.18-21.36,.53-1.24,1.03-2.64,.56-3.9-.11-.3-.3-.61-.61-.71-.25-.08-.52,0-.77,.09-2.97,1.13-4.3,5.03-5.74,7.62-1.9,3.41-3.69,6.88-5.36,10.41-3.33,7.06-6.16,14.35-8.44,21.81-7.04,3.96-14.16,7.99-20.13,12.93-1.24,1.03-.16,3.01,1.38,2.47,6.79-2.38,13.08-6.04,19.16-9.84,5.01-3.13,9.74-6.77,15.14-9.23,1.17-.53,2.22-1.17,3.46-1.43,2.22-.46,3.95-.2,6.11-.07,2.61,.16,5.34-.19,7.95-.31,9.91-.46,39.77,2.72,49.25,5.84,15.57,5.13,26.63,17.72,40.99,25.03,1.51,.77,5.04,3.1,6.71,1.82,1.3-1,.24-2.07-.9-2.88Z"/>
        <path class="cls-51" d="M952.84,821.1c-16.72,6.08-91.75,32.82-109.02,37.3-1.56,.41-1.19,2.64,.39,2.23,17.51-4.49,92.77-31.25,109.71-37.41,1.59-.58,.51-2.7-1.08-2.13Z"/>
        <path class="cls-51" d="M1035.77,789.04c-23.38-7.87-69.91-27.65-92.64-37.2-10.87-4.57-21.79-9.04-32.89-13.03-5.66-2.03-11.4-4.2-17.25-5.67-4.77-1.2-9.73-1.54-14.04,1.18-1.23,.77-.09,2.72,1.16,1.95,5.46-3.35,11.95-.99,17.53,.82,5.46,1.78,10.88,3.7,16.26,5.71,11.22,4.18,22.27,8.78,33.29,13.44,21.05,8.91,66.04,28.47,87.93,35.17,1.53,.47,2.13-1.88,.64-2.38Z"/>
        <path class="cls-56" d="M1123.03,1093.81s70.81-1.62,69.41,5.38c-1.4,7-147.78,9.95-154.77,2.95-6.99-7,85.36-8.33,85.36-8.33Z"/>
        <path class="cls-20" d="M1051.46,1098.01c1.94,1.09,4.67,1.22,7.41,1.44,5,.39,10.02,.58,15.03,.78,60.89,2.42,99.92-2.43,105.03-5.74,2.51-1.62,4.54-4.23,4.68-7.17,.13-2.85-1.54-5.54-3.76-7.39s-4.95-2.99-7.64-4.11c-7.4-3.08-20.38-8.28-27.37-12.16-4.9-2.72-9.25-6.3-13.34-10.05-5.12-4.69-9.89-10.1-15.61-14.11-5.14-3.6-7.06,1.54-9.73,5.11-2.56,3.42-3.99,7.31-7.18,10.36-5.82,5.55-15.36,6.99-22.78,3.97-2.88-1.17-5.47-2.94-8.3-4.22-2.83-1.28-6.11-2.05-9.07-1.08-2.8,.92-4.89,3.3-6.1,5.93-1.21,2.63-1.64,5.53-2.03,8.39-1.12,8.09-2.04,16.24-2.02,24.4,0,3.05,1.1,4.71,2.79,5.65Z"/>
        <path class="cls-53" d="M1178.96,1085.97c-40.97,4.92-86.98,2.54-128.09-.48-1.38-.1-1.34,1.99,0,2.13,40.78,4.31,87.42,5.75,128.09,.87,1.59-.19,1.61-2.7,0-2.51Z"/>
      </g>
      <g>
        <path class="cls-40" d="M1044.49,799.56c-.64-.16-43.21,37.27-33.89,39.62,9.31,2.35,57.66-30.89,57.66-30.89l-23.76-8.73Z"/>
        <path class="cls-3" d="M1149.53,793.42l-49.7,48.78s-11.1-13.56-24.35-16.56c-4.65-1.05-12.04-2.6-19.68-4.18-14.15-2.92-29.18-5.91-29.18-5.91,39.88-38.28,52.73-40.82,52.73-40.82,0,0,11.07,4.47,25.32,8.02,2.06,.53,4.19,1.02,6.35,1.48,17.18,3.65,38.5,9.19,38.5,9.19Z"/>
        <path class="cls-7" d="M1149.53,793.42l-49.7,48.78s-11.1-13.56-24.35-16.56c-4.65-1.05-12.04-2.6-19.68-4.18-2.59-2.7-4.66-7.6-.08-15.66,5.99-10.53,32.38-19.28,48.95-23.06,2.06,.53,4.19,1.02,6.35,1.48,17.18,3.65,38.5,9.19,38.5,9.19Z"/>
        <path class="cls-20" d="M1221.34,811.36c-4.84,9.71-24.88,28.22-41.32,37.23-16.44,9-49.48,18.09-61.88,12.41,0,0-1.34-.49-3.57-1.73-4.46-2.51-12.45-8.04-20.12-18.76-11.49-16.05-5.66-19.53-3.37-21.17s20.78-5.86,31.39-11.38c10.61-5.52,13.99-15.65,12.98-18.36-1-2.7,27.98,2.9,47.06,2.42,19.08-.48,26.15-4.16,35.67-.57,4.02,1.53,6.09,3.59,6.73,6.21,.91,3.56-.77,8.13-3.56,13.72Z"/>
        <path class="cls-40" d="M1221.34,811.36c-4.84,9.71-24.88,28.22-41.32,37.23-16.44,9-49.48,18.09-61.88,12.41,0,0-1.34-.49-3.57-1.73-1.93-1.79-3.2-4.2-3-7.44,.78-12.84,16.56-24.35,36.68-26.27,16.52-1.58,28.65-4.56,38.86-12.57,9.99-7.84,31.83-28.58,37.78-15.34,.91,3.56-.77,8.13-3.56,13.72Z"/>
        <path class="cls-53" d="M1208.26,789.58c-5.04-.31-8.9,2.39-12.81,5.22-4.76,3.44-9.63,6.7-14.69,9.67-4.52,2.65-9.16,5.32-14.14,6.99-5.74,1.92-11.85,2.38-17.81,3.14-10.44,1.32-21.07,3.45-30.16,9.02-7.06,4.32-14.97,11.75-15.03,20.66,0,1.29,1.97,1.54,2.02,.23,.33-9.77,10.53-17.34,18.57-21.12,9.34-4.38,19.61-5.64,29.73-6.88,4.64-.57,9.28-1.26,13.73-2.76,4.61-1.55,8.91-3.96,13.11-6.39,4.23-2.45,8.37-5.06,12.39-7.84,4.41-3.05,10.89-9.01,16.63-8.65,1.61,.1,.1-1.18-1.52-1.28Z"/>
      </g>
      <path class="cls-40" d="M934.27,745.79c-1.26,2.52-89.54,155.12-89.54,155.12l-24.13-43.23,113.67-111.89Z"/>
    </g>
    <g>
      <path class="cls-33" d="M796.81,984.14s174.04-8.83,210.61-10.09c0,0,6.31-7.57,7.57-15.13,1.26-7.57-2.52-74.41-36.57-75.67-34.05-1.26-163.95,47.92-163.95,47.92l-17.66,52.97Z"/>
      <path class="cls-14" d="M1027.6,967.75c0,3.78-20.18,6.31-20.18,6.31,0,0-10.09-55.49-13.87-64.32-3.78-8.83-7.57-13.87-22.7-12.61-15.13,1.26-116.02,27.74-143.77,56.75-27.75,29.01-37.83,84.5-42.88,88.28-1.45,1.08-4.12,1.03-7.23,.39-7.72-1.56-18-6.7-18-6.7l10.52-36.52,37.41-129.95s-14.41,34.04,46.66,29.01c20.48-1.69,59.73-12.24,97.11-23.96,16.37-5.13,20.18-11.35,44.14,2.52,23.96,13.87,32.79,87.02,32.79,90.8Z"/>
    </g>
    <g>
      <path class="cls-3" d="M856.23,551.99c-7.42,6.07-13.22,13.89-20.29,20.36-1.22,1.11-2.55,2.22-4.16,2.55-.49-1.5,3.08-5.65,3.89-6.8,1.86-2.64,3.83-5.2,5.79-7.77,2.59-3.41,4.99-6.99,6.57-10.99,1.22-3.06,1.16-8.2-3.43-8.3-1.54-.03-2.86,1.04-3.95,2.12-3.81,3.75-6.79,8.24-10.16,12.4-3.84,4.75-8.18,9.06-12.93,12.89-1.61,1.3-3.85,3.67-5.64,1.78-2.2-2.33-.54-7.08-.32-9.83,.29-3.59,.65-8.53-1.99-11.46-2.5-2.78-5.52-.78-6.96,1.96-2.3,4.38-3.58,9.26-4.79,13.98-1.27,4.93-5.08,9.07-7.25,13.62-2.56,5.37-3.68,11.29-5.05,17.07-.05,.23-.11,.46-.16,.69-.68,3.01-2.86,12.08-5.82,24.11,12.89,10.87,24.55,23.01,35.23,36.04,1.06-6.94,2.16-13.88,3.31-20.81,1.18-7.1,1.87-18.41,7.45-23.77,4.8-4.62,31.42-18.86,28.69-27.23-.15-.75-.4-1.5-.31-2.25,.12-1.14,.95-2.07,1.71-2.92,1.5-1.68,2.99-3.58,3.22-5.82,.17-1.76-.46-3.53-.28-5.29,.42-3.97,3.74-7.11,4.58-10.99,.91-4.18-3.05-8.53-6.95-5.34Z"/>
      <path class="cls-32" d="M805.47,577.72c-2.89-1.4-3.64,1.35-.77,2.79,8.12,4.09,10.69,13.52,14.95,21.11,1.62,2.88,5.58,.03,4.19-2.79-4.26-8.64-9.44-16.8-18.37-21.11Z"/>
      <path class="cls-51" d="M755.76,701.09l25.19-86.51s44.68,39.37,47.38,51.76c2.7,12.38-26.48,121.07-26.48,121.07l-46.09-86.31Z"/>
    </g>
    <g>
      <path class="cls-20" d="M853.8,899.46c7.77,15.48,7.34,32.16,7.05,49.34-.12,6.95,.81,21.15-9.92,18.3-9.26-2.47-14.95-14.58-20.87-21.2-8.38-9.37-17.86-15.58-30.5-16.56-13.75-1.07-27.53,.39-41.29-.25-.68-.03-1.41-.08-1.96-.49-.7-.52-.91-1.48-1-2.35-.38-4.16,.99-8.26,2.19-12.27,4.14-13.75,6.46-28.04,6.89-42.39,.1-3.48,.25-7.34,2.68-9.83,2.28-2.33,5.84-2.71,9.09-2.94,8.93-.65,17.87-1.29,26.8-1.94,4.19-.3,8.44-.6,12.55,.25,9.67,2.01,12.39,11.46,17.98,18.44,5.76,7.19,13.67,12.41,18.41,20.42,.68,1.15,1.31,2.31,1.9,3.47Z"/>
      <g>
        <path class="cls-3" d="M709.99,628.78c-.2,2.75-.57,4.59-1.18,5.2-4.25,4.25-25.51,8.5-25.51,8.5v29.76l-66.61-5.67s8.5-22.68,7.09-35.43c-1.42-12.75,9.92-39.68,9.92-39.68,0,0,62.22-48.08,62.36-48.18,.49-.38,4.92,7.44,5.13,7.88,1.28,2.69,2.16,5.47,3.39,8.18,1.39,3.08,2.33,6.48,1.77,9.88-.24,1.44-.73,2.83-.93,4.28-.46,3.5,.92,7.23,1.81,10.58,1.01,3.78,2.17,7.52,3.48,11.2,.54,1.53,1.12,3.16,.78,4.76-.4,1.84-2.11,3.39-2.14,5.3-.04,2.28,.59,4.85,.71,7.2,.29,5.41,.3,10.83-.07,16.24Z"/>
        <path class="cls-57" d="M621.66,629.02s5.67,7.09,18.42,2.83c12.75-4.25,26.93-15.59,29.76-25.51,2.83-9.92,7.08-17,7.09-17.01,.25-.43-.72-3.07-.81-3.58-.44-2.6-.75-5.43-.19-8.04,1.31-6.17,10.16-8.36,11.76-1.01,.4,1.82,.5,4.41,2.35,4.58,.95,.09,1.81-.69,2.13-1.59,.32-.9,.23-1.89,.14-2.84-.37-3.75-.74-7.51-1.1-11.26-.22-2.2-.36-4.66,1.02-6.39,1.13-1.41,3.04-2.01,4.17-3.42,.76-.94,1.08-2.15,1.59-3.24,1.89-4.06,5.59-7,7.67-11.02,2.19-4.23,2.77-8.51,1.04-13.12-4.25-11.34-17.08-9.98-17.08-9.98,0,0,6.99-7.96,1.33-7.96s-13.26,3.98-13.26,3.98c0,0-.74-15.8-20.59-12.96-19.84,2.83-28.34,19.84-28.34,19.84,0,0-14.17-12.75-15.59-4.25-1.42,8.5,4.25,11.34,4.25,11.34,0,0-25.51,1.42-21.26,29.76,4.25,28.34,17.01,48.19,18.42,53.85,1.42,5.67,4.25,14.17,7.09,17.01Z"/>
        <path class="cls-50" d="M641.42,527.16c-3.77,.72-7.1,2.85-9.72,5.61-1.3-.92-2.72-1.58-4.35-1.94-2.76-.61-3.47,1.72-.74,2.53,1.7,.5,2.5,3.04,3.68,4.34,.79,.88,2.53,.94,3.31,0,2.48-2.98,5.02-5.77,8.6-7.18,2.71-1.07,2.14-3.92-.78-3.36Z"/>
        <path class="cls-32" d="M687.68,601.47c-1.12,1.04-2.58,2.41-4,1.97-.12-.04-.23-.09-.35-.13-.19-.1-.38-.22-.56-.4-.96-.93-1.6-3.03-2.05-4.19-1.05-2.69-1.78-5.48-2.29-8.32-.27-1.49-2.32-.92-2.34,.45-.08,.15-.14,.32-.14,.53,.19,4.63,.98,11.16,5.19,13.85,2.61,2.55,6.26,.57,8.38-1.91,1.08-1.26-.6-2.99-1.84-1.84Z"/>
        <path class="cls-32" d="M686.74,636.02c-.18-3.12-5.03-3.16-4.89,0,.1,2.39,.21,4.77,.4,7.16,.24,3.04,4.87,3.13,4.81,0-.05-2.39-.18-4.77-.31-7.16Z"/>
        <path class="cls-57" d="M704.87,564.98c-1.07,1.7-2.12,3.95-2.08,5.99,.02,1,.43,2.14,1.38,2.47,.21,.07,.46,.1,.64-.03,.11-.08,.17-.2,.24-.31,.85-1.53,1.6-3.26,2.61-4.68,.75-1.06,1.81-1.63,1.55-3.16-.17-1-.96-1.79-1.91-1.92-1.26-.18-1.82,.67-2.43,1.64Z"/>
      </g>
      <g>
        <path class="cls-13" d="M780.03,759.79s48.91-53.8,53.8-55.02c4.89-1.22,103.93,19.56,112.49,24.45,8.56,4.89-77.03,80.7-77.03,80.7l-74.59,15.9-14.67-66.03Z"/>
        <path class="cls-7" d="M782.47,765.9s50.13-52.58,53.8-55.02c3.67-2.45,99.04,17.12,101.49,22.01,2.45,4.89-91.7,88.04-91.7,88.04l-62.36-2.45-1.22-52.58Z"/>
        <path class="cls-13" d="M861.47,705.44s-15.74,11.36-12.12,13.5c3.62,2.14,48.38,9.06,50.7,8.93,2.33-.13,15.67-12.53,15.61-13.69-.06-1.16-52-11.2-54.2-8.74Z"/>
        <path class="cls-3" d="M850.51,749.74c.05-3.2,.2-6.4,.44-9.59,.42-5.49,1.84-10.52,3.29-15.81,.84-3.05,1.3-6.2,1.38-9.36,.02-.99,0-1.99,.28-2.94,.35-1.24,1.09-1.94,2.27-2.33,3.75-1.25,8.74-1.25,8.74-1.25,0,0,11.24-7.49,16.24-7.49,2.26,0,4.17,1.51,4.83,3.68,.66,2.16,.67,4.63,2.1,6.38,1.86,2.28,5.57,2.6,7.06,5.14,1.51,2.57-.07,5.96,.92,8.77,.87,2.46,3.57,3.99,4.25,6.51,.9,3.31-2.04,6.57-1.81,9.99,.13,1.96,1.15,3.77,1.46,5.68,.4,2.4-.54,4.57-1.64,6.66-6.72,12.78-15.78,23.55-26.28,33.34-4.61-6.99-9.26-14.05-12.29-21.86-1.2-3.09-2.14-6.29-3.76-9.18-1.61-2.89-4.17-6.33-7.48-6.33Z"/>
        <g>
          <path class="cls-20" d="M884.4,808.38c-3.75,3.75-39.97,64.95-71.19,78.69-31.23,13.74-123.65-16.24-123.65-16.24l-137.39-117.41s0-12.49-2.5-19.98c-2.5-7.49-3.75-24.98,1.25-37.47s5-13.74,14.99-19.98c9.99-6.25,44.96-18.74,44.96-18.74,0,0,5-8.74,9.99-11.24,5-2.5,51.21,5,58.7,7.49,7.49,2.5,12.49,13.74,12.49,13.74,0,0,45.94,12.12,60.54,24.41,.24,.19,.45,.39,.66,.57,.59,.54,1.16,1.09,1.72,1.66,12.75,12.94,20.92,36.45,24.51,50.8,3.75,14.99,1.25,24.98,7.49,31.23,6.25,6.24,14.99,18.74,17.49,28.73,0,0,33.72-38.72,46.21-56.21,0,0,22.48-7.49,31.23,17.49,8.74,24.98,6.24,38.72,2.5,42.47Z"/>
          <path class="cls-53" d="M726.88,800.12c-5.1-20.34-7.89-40.91-7.88-61.89,0-4.22-4.38-5.26-4.47-1.04-.42,21.48,.02,44.03,5.91,64.7,1.18,4.13,7.48,2.4,6.44-1.77Z"/>
          <path class="cls-53" d="M810.53,815c-1.35-4.84-2.7-9.67-4.08-14.5-.74-2.6-4.7-1.51-4.05,1.12,1.22,4.87,2.47,9.74,3.72,14.6,.73,2.84,5.2,1.63,4.4-1.21Z"/>
          <path class="cls-54" d="M754.97,693.89c-7.56,.29-15,2.56-21.2,7.12-8.13,5.97-13.33,15.19-14.73,25.12-.2,1.41-2.34,.8-2.14-.59,2.5-18.32,17.94-32.64,35.67-33.89,.24,.19,.45,.39,.66,.57,.59,.54,1.16,1.09,1.72,1.66Z"/>
          <path class="cls-54" d="M622.06,699.59c1.69-4.71,2.3-9.73,2.21-14.72-.02-1.22-1.48-1.44-2.13-.58-6.43,8.49-7.44,19.7-7.53,30.01-.09,11.86,1.6,24,5.58,35.19,.38,1.06,2.03,.64,1.71-.47-3.13-11.02-5.15-22.13-5.13-33.63,.01-8.91,.68-18.52,5.05-26.43-.28,3.39-.95,6.7-1.88,10.05-.38,1.38,1.64,1.89,2.11,.58Z"/>
          <path class="cls-53" d="M690,665.14c-11.22-3.86-22.75-5.67-34.6-5.79-5.64-.06-11.29,.1-16.93-.2-6.5-.34-12.4-1.96-18.69-3.36-1.43-.32-2.04,1.43-.95,2.25,8.53,6.41,21.13,5.86,31.26,5.92,13.3,.07,26.78,.32,39.45,4.54,2.91,.97,3.32-2.37,.45-3.36Z"/>
          <path class="cls-53" d="M565.32,755.4c-2.39-13.68-6.5-28.36-9.41-41.94-.6-2.82-3.67-.53-3.16,2.26,2.51,13.66,4.97,27.39,8,40.94,.67,3.01,5.09,1.7,4.57-1.26Z"/>
        </g>
        <path class="cls-55" d="M875.65,683.48c-.48,.36-.97,.98-1.46,1.79-1.67,.25-2.98,1.39-4.01,2.83-3.62,4.32-5.49,12.74-6.02,16.38-.02,.09-.04,.18-.05,.28-.16,.99,.87,1.57,1.55,1.22,.1-.05,.19-.13,.27-.22,0,0,.02-.01,.02-.02,.04-.05,.05-.11,.08-.17,.04-.08,.09-.14,.12-.24,.81-2.97,1.6-5.92,2.69-8.8,.46-1.21,1.18-3.44,2.22-5.36,.34-.53,.71-1.01,1.09-1.43-3.8,10.08-7.11,28.09-7.11,28.09l11.24-11.24s5.62-17.59,5.62-19.36c0-2.5-1.25-7.49-6.24-3.75Z"/>
        <path class="cls-32" d="M876.99,705.4c-6.37,4.21-11.93,9.35-16.66,15.35-1.71,2.17-1.42,6.14,.34,3.95,4.54-5.65,12.57-11.39,18.56-15.48,2.34-1.59,.16-5.41-2.24-3.83Z"/>
      </g>
      <path class="cls-53" d="M827.08,876.95c-16.05,17.87-49.4,11.08-70.36,8.88-2.46-.26-2.89,3.38-.59,4.35,10.64,4.51,21.32,24.72,36.76,22.65,11.18-1.5,26.89-19.56,35.21-32.39,1.76-2.71,1.15-5.92-1.02-3.51Z"/>
    </g>
    <g>
      <path class="cls-21" d="M465.46,1005.59s-25.56,100.88-7.9,108.45c17.66,7.57,293.85,2.52,297.63-2.52,3.78-5.04-7.89-90.53-7.89-90.53l-23.64,4.77s10.72,63.69,4.41,71.25c-6.31,7.57-248.44,6.31-254.75,0-6.31-6.31,2.52-70.62,10.09-88.28,7.57-17.66-17.95-3.14-17.95-3.14Z"/>
      <path class="cls-14" d="M818.25,852.99c-1.26-37.83-52.97-181.6-60.53-185.39-7.57-3.78-136.2,31.53-184.13,23.96-47.92-7.57-100.89-17.66-105.94-13.87-5.04,3.78-7.57,12.61-5.04,17.66,2.52,5.04,63.06,143.77,60.53,163.95-2.51,20.06-61.09,136.06-59.3,149.82,3.35-6.75,12.95-.1,18.25,5.57,65.59,10.01,260.49,17.38,260.49,17.38,0,0,13.87-12.61,22.7,0,0,0,54.23-141.25,52.97-179.08Z"/>
      <path class="cls-33" d="M797.22,860.02c-.8-10.91-3.47-21.69-6.1-32.28-5.77-23.22-12.69-46.19-19.67-69.07-7.83-25.7-16.16-51.24-24.94-76.63,0-.03-.02-.05-.03-.07,.13-.43,.11-.91-.01-1.37,2.19-2.32,4.38-4.64,6.57-6.97,1.04-1.1-.6-2.75-1.67-1.67-.43,.44-.85,.89-1.27,1.33-.26,0-.54,.08-.78,.33-1.82,1.83-3.73,3.57-5.73,5.21-24.82,5.39-49.6,11.01-74.49,16.1-25.07,5.13-50.11,7.5-75.7,7.42-50.48-.15-74.84-6.96-124.78-13.45-1.95-.25-2.4,3.08-.47,3.44,49.72,9.43,75.87,14.45,126.48,14.58,24.76,.06,49.09-2.13,73.36-7,24.98-5.02,49.85-10.7,74.75-16.12,14.62,43.3,28.21,87,40.08,131.14,5.99,22.28,13.07,45.4,7.31,68.43-5.49,21.92-14.71,43-22.87,64.01-9.6,24.74-20.13,49.34-28.68,74.46-.83,2.44,3.16,4.19,4.21,1.78,9.36-21.48,17.15-43.77,25.63-65.62,8.56-22.06,17.81-44.04,24.58-66.73,3.05-10.23,4.99-20.56,4.2-31.27Z"/>
      <path class="cls-34" d="M772.42,863.62c-34.42-1.54-67.39,9.93-101.25,13.89-17.86,2.09-35.53,1.19-53.27-1.57-17.53-2.73-34.88-6.52-52.44-9.13-11.09-1.65-22.22-2.99-33.38-4.05-.62-.06-1.17,.39-1.24,1.01,0,0,0,.02,0,.02-.07,.62,.39,1.18,1.01,1.24,9.61,.95,19.21,2.11,28.77,3.5,17.78,2.58,35.34,6.32,53.06,9.24,17.16,2.83,34.4,4.38,51.77,2.84,16.59-1.48,32.89-5.02,49.2-8.25,19.06-3.78,38.32-7.1,57.83-6.23,1.62,.07,1.55-2.44-.06-2.51Z"/>
      <path class="cls-24" d="M1027.39,964.76c-6.08,3.21-12.32,6.03-18.66,8.68,3.84,28.41,14.41,111.44,8.15,119.79-7.57,10.09-249.71,6.31-254.75,2.52-5.01-3.76-1.68-48.14,4.73-69.34-.23-1.07-.6-2.16-1.23-2.95-6.64-4.07-17.02,2.04-23.15,5.48-1.26,7.74-13.11,82.84-1.15,87.63,12.61,5.04,287.54,1.26,295.11-7.57,6.95-8.11-4.27-115.14-9.04-144.24Z"/>
      <path class="cls-7" d="M745.28,1048.16c-1.07,8.39-1.98,16.8-2.7,25.24-.24,2.82,4.19,2.82,4.41,0,.66-8.43,1.45-16.84,2.42-25.24,.3-2.65-3.8-2.59-4.13,0Z"/>
      <path class="cls-7" d="M745.33,1082.46c-1.09-.3-2.36,.37-2.63,1.49-.48,1.99-.65,3.89-.13,5.89,.24,.9,1.17,1.49,2.07,1.35,1-.15,1.53-.89,1.64-1.86,.16-1.42,.24-2.86,.54-4.26,.24-1.13-.34-2.31-1.49-2.63Z"/>
      <path class="cls-7" d="M1024.76,1000.83c-.39-2.73-4.51-1.56-4.14,1.14,2.07,15.1,3.53,30.25,4.72,45.44,.21,2.74,4.49,2.79,4.32,0-.96-15.59-2.7-31.12-4.89-46.58Z"/>
      <path class="cls-34" d="M789.91,954.61c-6.76,19.8-13.52,39.61-20.27,59.41-.91,2.67,2.78-.75,3.69-3.4,6.84-19.78,14.21-35,21.06-54.78,.98-2.83-3.51-4.05-4.48-1.23Z"/>
    </g>
  </g>
</svg>