<?xml version="1.0" encoding="UTF-8"?>
<svg id="Illustration" xmlns="http://www.w3.org/2000/svg" viewBox="0 0 1883.86 1908.38">
  <defs>
    <style>
      .cls-1 {
        fill: #fff;
      }

      .cls-2 {
        fill: #caddff;
      }

      .cls-3 {
        fill: #99b9ff;
      }

      .cls-4 {
        fill: #5479f7;
      }
    </style>
  </defs>
  <g id="Divorce_coach" data-name="Divorce coach">
    <path class="cls-2" d="M1818.9,612.5c54.47,157.94,33.07,280.83-28.01,443.75-94.67,252.51-218.51,494.85-363.56,613.58-481.35,394-1271.29,141.85-1387.98-229.29-21.17-67.33-21.02-133.84-13.7-213.75,23.29-254.15,295.39-329.69,377.91-599.55,75.1-245.58,1.06-273.22,71.28-382.4C575.74,87.95,776.83,30.72,948.1,39.64c63.12,3.29,126.8,10.1,189.24,19.98,91.84,14.53,183.65,36.24,267.13,78.28,121.61,61.25,330.72,231.88,414.43,474.61Z"/>
    <g>
      <g>
        <g>
          <polygon class="cls-3" points="1440.69 1594.21 1484.66 1594.21 1440.13 1424.2 1364.2 1424.2 1440.69 1594.21"/>
          <polygon class="cls-3" points="1651.91 1594.21 1695.88 1594.21 1651.35 1424.2 1575.42 1424.2 1651.91 1594.21"/>
          <polygon class="cls-3" points="430.35 1594.21 386.39 1594.21 430.92 1424.2 506.84 1424.2 430.35 1594.21"/>
          <polygon class="cls-3" points="217.01 1594.21 173.04 1594.21 217.57 1424.2 293.5 1424.2 217.01 1594.21"/>
        </g>
        <path class="cls-1" d="M371.13,1436.7H1636.13c43.85,0,82.22-27.4,93.48-66.76l98.72-343.04c16.31-57.01-27.84-112.9-91.36-112.9H469.85c-43.85,0-82.22,27.4-93.48,66.76l-98.72,343.04c-16.31,57.01,29.97,112.9,93.48,112.9Z"/>
        <path d="M1733.79,920.27h-152.29c-1.83,0-3.31-1.48-3.31-3.31s1.48-3.31,3.31-3.31h152.29c1.83,0,3.31,1.48,3.31,3.31s-1.48,3.31-3.31,3.31Z"/>
        <path d="M514.58,1440.01h-143.45c-32.56,0-63.18-14.83-81.91-39.66-17.01-22.56-22.39-50.79-14.76-77.46l98.72-343.04c.51-1.76,2.34-2.77,4.1-2.27,1.76,.51,2.77,2.34,2.26,4.1l-98.72,343.04c-7.05,24.65-2.07,50.76,13.68,71.65,17.48,23.18,46.12,37.03,76.62,37.03h143.45c1.83,0,3.31,1.48,3.31,3.31s-1.48,3.31-3.31,3.31Z"/>
        <path class="cls-3" d="M546.77,1438.67H205.43c-28.24,0-52.94-17.64-60.19-42.98l-63.56-222.14c-10.5-36.71,19.29-72.69,60.19-72.69H483.21c28.24,0,52.94,17.64,60.19,42.98l63.56,222.14c10.5,36.71-19.29,72.69-60.19,72.69Z"/>
        <path class="cls-1" d="M1299.48,1438.99H204.23c-30.46-1.97-52.94-17.68-60.19-43.03l-63.56-221.93c-10.5-36.71,19.29-72.48,60.19-72.48h51.97c28.24,0,52.94,18.29,60.19,43.63l65.69,230.66h989.05l-8.09,63.15Z"/>
        <path d="M546.11,1443.28H204.23c-32.13-2.07-55.74-19.24-63.38-45.92l-63.56-221.68c-4.99-17.43-1.51-35.85,9.56-50.52,12.25-16.24,32.36-25.94,53.82-25.94h51.97c29.56,0,55.62,18.93,63.37,46.03l39.02,128.18c.53,1.75-.45,3.6-2.2,4.13-1.74,.53-3.6-.45-4.13-2.2l-39.04-128.23c-6.96-24.33-30.41-41.29-57.03-41.29h-51.97c-19.38,0-37.53,8.71-48.53,23.31-9.8,13-12.89,29.29-8.48,44.71l63.56,221.68c6.83,23.88,28.23,39.25,57.22,41.13h341.66c1.83,0,3.31,1.48,3.31,3.3s-1.48,3.31-3.31,3.31Z"/>
        <path class="cls-1" d="M316.86,1268.57h989.62c22.88,0,41.45,18.57,41.45,41.45v24.39c0,22.88-18.57,41.45-41.45,41.45H316.86c-22.88,0-41.45-18.57-41.45-41.45v-24.39c0-22.88,18.57-41.45,41.45-41.45Z"/>
        <g>
          <path d="M1058.58,1378.59h-202.22c-1.83,0-3.31-1.48-3.31-3.31s1.48-3.31,3.31-3.31h202.22c1.83,0,3.31,1.48,3.31,3.31s-1.48,3.31-3.31,3.31Z"/>
          <path d="M555.49,1378.59h-245.58c-20.85,0-37.81-15.86-37.81-35.35v-40.77c0-19.49,16.96-35.35,37.81-35.35l678.7,.73c1.83,0,3.31,1.49,3.31,3.31,0,1.83-1.48,3.31-3.31,3.31h0l-678.69-.73c-17.19,0-31.19,12.89-31.19,28.73v40.77c0,15.84,13.99,28.73,31.19,28.73h245.58c1.83,0,3.31,1.48,3.31,3.31s-1.48,3.31-3.31,3.31Z"/>
          <path d="M1325.11,1275.69h-.01l-306.39-1.2c-1.83,0-3.3-1.5-3.3-3.32,0-1.83,1.53-3.2,3.32-3.3l306.39,1.2c1.83,0,3.3,1.5,3.3,3.32,0,1.82-1.49,3.3-3.31,3.3Z"/>
        </g>
      </g>
      <g>
        <g>
          <g>
            <path class="cls-4" d="M992.95,1493.77c.4,1.66-19.03,90.62-19.03,90.62l44.65-7.48,13.45-75.22-39.07-7.92Z"/>
            <g>
              <g>
                <path class="cls-1" d="M997.63,1555.21c-2.73-2.3-6.64-4.54-11.6-4.76-7.48-.32-14.31,4.37-17.4,11.26-7.74,17.22-28.16,65.2-33.93,104.41-2.04,13.86,8.41,25.13,24.69,16.05,26.68-14.88,63.69-49.05,83.07-99.51,2.22-5.79,1.43-12.34-2.22-17.34-2.98-4.08-7.03-9.03-11.73-13.24-4.49-4.03-11.25-4.09-15.9-.25l-4.19,3.45c-3.15,2.59-7.66,2.55-10.78-.08Z"/>
                <path d="M948.39,1688.78c-4.4,0-7.59-1.54-9.52-2.87-5.84-4.03-8.69-11.79-7.45-20.26,5.78-39.24,25.83-86.7,34.18-105.29,3.72-8.27,11.96-13.58,20.57-13.21,4.84,.21,9.54,2.12,13.59,5.53,1.89,1.59,4.64,1.62,6.54,.05l4.2-3.45c6-4.93,14.5-4.79,20.22,.35,4.12,3.7,8.22,8.32,12.19,13.75,4.31,5.9,5.3,13.56,2.64,20.48-19.48,50.71-56.45,85.53-84.55,101.21-4.94,2.76-9.15,3.71-12.61,3.71Zm36.93-135.02c-5.7,0-11.15,3.68-13.68,9.32-8.24,18.33-28.02,65.12-33.67,103.54-.88,5.95,.91,11.26,4.66,13.84,3.76,2.6,9.14,2.18,15.14-1.17,27.09-15.11,62.75-48.74,81.59-97.8,1.85-4.81,1.17-10.12-1.8-14.2-3.7-5.06-7.48-9.34-11.26-12.73-3.27-2.93-8.14-3-11.59-.16l-4.2,3.45c-4.37,3.59-10.68,3.55-15.01-.1-2.97-2.49-6.2-3.83-9.62-3.98-.19,0-.38-.01-.56-.01Z"/>
              </g>
              <path d="M944.82,1673.15c-.1,0-.18,0-.22,0-1.83-.07-3.25-1.6-3.19-3.43,.06-1.82,1.61-3.22,3.39-3.19,.61,0,37.22-.85,82.06-89.55,.83-1.63,2.82-2.29,4.45-1.46,1.63,.82,2.29,2.82,1.46,4.45-45.97,90.94-84.34,93.18-87.95,93.18Z"/>
              <path d="M973.43,1623.44c-.41,0-.82-.07-1.22-.23l-21.16-8.36c-1.7-.67-2.53-2.59-1.86-4.29,.67-1.7,2.6-2.53,4.3-1.86l21.16,8.36c1.7,.67,2.53,2.59,1.86,4.29-.52,1.3-1.76,2.1-3.08,2.1Z"/>
              <path d="M980.85,1607.21c-.4,0-.81-.07-1.2-.23l-24.83-9.67c-1.7-.66-2.55-2.58-1.88-4.29,.66-1.71,2.59-2.55,4.28-1.88l24.83,9.67c1.7,.66,2.55,2.58,1.88,4.29-.51,1.31-1.76,2.11-3.08,2.11Z"/>
            </g>
          </g>
          <g>
            <path class="cls-4" d="M1172.44,1493.53c.32,.67,2.8,11.12,4.74,28.72,3.22,29.32-29.57,56.47-29.57,56.47l77.67-10.48-2.97-67.86-49.87-6.85Z"/>
            <g>
              <g>
                <path class="cls-1" d="M1194.76,1551.98c-4.24-2.23-7.52-5.36-12.45-6.19-7.42-1.25-13.32,2.59-17.19,9.02-9.68,16.08-35.49,61.03-45.71,99.12-3.61,13.46,5.5,25.92,22.76,18.95,28.27-11.41,69.04-40.62,94.1-88.15,2.88-5.46,1.89-11.6-.23-17.44-1.88-5.16-9.52-22.76-13.72-27.51-4.01-4.55-14.11,19.28-27.55,12.2Z"/>
                <path d="M1132.9,1678.21c-5.77,0-9.56-2.35-11.64-4.2-5.32-4.71-7.26-12.73-5.05-20.94,10.23-38.14,35.63-82.62,46.08-99.97,4.87-8.1,12.39-11.96,20.57-10.58,4.06,.68,7.03,2.58,9.92,4.42,1.19,.76,2.32,1.48,3.52,2.11,5.55,2.92,10.45-1.43,16.29-7.42,3.28-3.37,5.7-5.81,8.64-5.74,1.36,.03,2.62,.64,3.56,1.7,4.7,5.32,12.51,23.52,14.35,28.57,2.93,8.05,2.95,14.63,.05,20.12-25.19,47.78-66,77.66-95.79,89.68-4.05,1.63-7.53,2.25-10.5,2.25Zm46.67-129.35c-5.73,0-9.44,4.04-11.62,7.65-10.3,17.12-35.34,60.95-45.35,98.28-1.55,5.76-.38,11.23,3.05,14.27,3.47,3.07,8.89,3.34,15.27,.76,28.7-11.58,68.05-40.42,92.41-86.63,2-3.8,1.87-8.49-.41-14.76-1.99-5.46-8.47-20.08-12.27-25.4-.94,.77-2.27,2.14-3.32,3.22-5.14,5.28-13.75,14.12-24.11,8.66-1.44-.76-2.74-1.59-4-2.39-2.54-1.62-4.73-3.01-7.46-3.47-.76-.13-1.49-.19-2.19-.19Z"/>
              </g>
              <path d="M1130.72,1662.26c-1.31,0-2.08-.11-2.28-.14-1.81-.29-3.03-1.99-2.74-3.79,.29-1.79,1.96-3.02,3.76-2.75,.53,.07,37.13,3.85,91.95-78.41,1.01-1.52,3.07-1.93,4.59-.92,1.52,1.01,1.93,3.07,.92,4.59-50.65,76-86.9,81.42-96.19,81.42Z"/>
              <path d="M1163.23,1616.53c-.53,0-1.07-.13-1.58-.4l-20.13-10.9c-1.61-.87-2.2-2.88-1.33-4.49,.88-1.61,2.88-2.2,4.49-1.33l20.13,10.9c1.61,.87,2.2,2.88,1.33,4.49-.6,1.11-1.74,1.73-2.91,1.73Z"/>
              <path d="M1172.47,1601.39c-.5,0-1-.11-1.47-.35l-21.77-10.85c-1.64-.82-2.3-2.8-1.49-4.44,.82-1.64,2.81-2.3,4.44-1.49l21.77,10.85c1.64,.82,2.3,2.8,1.49,4.44-.58,1.16-1.75,1.83-2.97,1.83Z"/>
            </g>
          </g>
          <g>
            <path d="M1381.61,1147.82s-270.61-8.17-300.33,19.46c-40.32,37.47-109.58,349.42-109.58,349.42l66.87,18.76s100.76-256.01,125.73-256.01,260.36-8.41,260.36-8.41l-43.06-123.22Z"/>
            <path d="M1436.37,1142.87s35.85,105.36,7.32,124.57c-28.53,19.22-234.21,17.58-227.08,15.18,7.13-2.4,18.39,172.51,18.39,239.77l-64.76,2.5s-103.2-270.5-92.08-300.71c19.9-54.04,173.1-66.41,222.12-73.64,10.09-1.49,136.08-7.68,136.08-7.68Z"/>
            <path class="cls-2" d="M1112.37,1374.25c-1.4,0-2.7-.9-3.15-2.3-2.33-7.27-4.64-14.42-6.9-21.42-19.17-59.3-34.32-106.14-27.29-127.39,13.26-40.05,94.66-57.05,154.74-66.35,1.82-.28,3.5,.96,3.78,2.76,.28,1.81-.96,3.5-2.76,3.78-33.62,5.21-135.95,21.05-149.47,61.89-6.35,19.19,9.24,67.42,27.3,123.27,2.27,7.01,4.58,14.16,6.91,21.44,.56,1.74-.4,3.6-2.14,4.16-.33,.11-.67,.16-1.01,.16Z"/>
          </g>
        </g>
        <g>
          <path d="M1280.97,768.56c8.74,50.22,59.68,104.12,110.92,97,8.37-1.16,30.93-5.92,54.64-33.41,32.69,23.41,74.35,17.21,96.81-9.96,27.45-33.2,23.71-94.64-16.28-126.17,31.68-.26,40.19-12.46,42.71-17.26,14.83-28.32-24.34-94.55-60.89-94.66-13.49-.04-31.4,16.65-66.65,50.03-36.41,34.47-37.96,41.16-48.98,42.35-32.4,3.51-42.08-51.74-85.06-57.86-29.42-4.18-62.28,16.39-64.77,35.82-2.13,16.68,19.38,22.56,31.48,55.87,9.02,24.8,2.04,35.16,6.06,58.24Z"/>
          <path d="M1323.59,599.94c-2.51,7.68,0,29.45,11.53,33.22,11.54,3.77,27.76-11.88,30.26-19.57,2.51-7.68-4.82-16.97-16.36-20.74-11.54-3.77-22.93-.6-25.43,7.09Z"/>
        </g>
        <g>
          <g>
            <path class="cls-1" d="M998.75,738.23l-26.41-27.56c-4.48-4.68-12.04,.59-9.22,6.42l8.13,16.8s-5.55,2.58-8.3,2.75c-6.02,.39-11.85-2.2-16.02-6.57-4.82-5.04-12.62-13.08-15.26-15.05-3.92-2.93-8.98-7.47-14.58-7.93h-.17c-5.85-.44-9.67,6.01-6.49,10.94l11.04,17.09c8.01,12.4,19.77,21.91,33.56,27.15l35.69,13.55,2.65,101.88,46.36-35.46-20.82-67.37c-4.16-13.46-11.02-25.93-20.16-36.64Z"/>
            <path d="M993.37,881.01c-.48,0-.97-.11-1.43-.32-1.12-.54-1.85-1.66-1.88-2.9l-2.59-99.65-33.62-12.76c-14.55-5.53-26.71-15.36-35.17-28.45l-11.04-17.09c-2.16-3.35-2.24-7.55-.21-10.98,2.03-3.42,5.75-5.36,9.72-5.08,6,.48,10.9,4.27,14.83,7.32,.57,.45,1.13,.87,1.66,1.27,2.18,1.63,7.46,6.82,15.67,15.41,3.67,3.84,8.52,5.85,13.42,5.55,.84-.05,2.43-.56,4.01-1.16l-6.61-13.65c-1.97-4.08-.75-8.73,2.97-11.31,3.72-2.58,8.49-2.1,11.62,1.16l26.41,27.56s.09,.09,.13,.14c9.49,11.12,16.49,23.84,20.81,37.81l20.82,67.37c.41,1.32-.05,2.76-1.15,3.61l-46.36,35.46c-.59,.45-1.3,.68-2.01,.68Zm-76.91-170.63c-1.45,0-2.64,.68-3.34,1.85-.75,1.27-.72,2.77,.08,4.01l11.04,17.09c7.68,11.89,18.73,20.83,31.96,25.85l35.69,13.55c1.26,.48,2.1,1.67,2.13,3.01l2.48,95.39,39.37-30.12-20.14-65.17c-4.04-13.07-10.59-24.98-19.46-35.39l-26.34-27.49c-1.3-1.36-2.67-.58-3.07-.31-.39,.27-1.61,1.29-.78,2.99l8.13,16.8c.39,.8,.44,1.72,.14,2.55-.3,.84-.92,1.52-1.72,1.89-1.02,.47-6.28,2.85-9.48,3.06-6.79,.44-13.6-2.33-18.63-7.58-7.63-7.98-13.04-13.33-14.85-14.69-.56-.42-1.14-.87-1.75-1.34-3.41-2.64-7.28-5.63-11.12-5.94-.12,0-.24-.01-.35-.01Z"/>
          </g>
          <g>
            <g>
              <polygon class="cls-1" points="1049.16 820.73 933.52 912.45 985.06 965.93 1083.16 884.15 1049.16 820.73"/>
              <path d="M985.06,969.24c-.87,0-1.74-.34-2.38-1.01l-51.55-53.49c-.65-.67-.98-1.59-.92-2.52,.06-.93,.52-1.79,1.25-2.37l115.64-91.72c.77-.61,1.77-.85,2.73-.65,.96,.2,1.78,.81,2.25,1.68l34,63.42c.74,1.38,.41,3.1-.8,4.11l-98.09,81.79c-.62,.51-1.37,.77-2.12,.77Zm-46.63-56.47l46.88,48.65,93.66-78.09-30.85-57.55-109.68,86.99Z"/>
            </g>
            <path class="cls-4" d="M945.59,953.47l132.8-102.55s14.53,22.13,38.35,24.52c23.81,2.39,85.89-61.96,85.89-61.96l1.95,146.71s-94.85,122.63-258.99-6.71Z"/>
            <path class="cls-4" d="M1228.37,799.8c26.77-5.46,73.84-24.04,147.7,3.46,0,0,36.07,20.52,38.36,50.42,2.5,32.58-20.65,91.54-12.41,134.79,15.08,79.1,32.38,104.97,41.01,169.83,0,0-29.91-3.97-51.59-5.62-48.9-3.73-122.95-7.2-195.57-2.77-13.64,.83-29.05,1.31-29.05,1.31,0,0,8.74-66.23,16.59-125.29,4.01-30.2-15.63-130.39,5.78-191.84,6.1-17.5,21.04-30.59,39.19-34.29Z"/>
            <g>
              <path class="cls-1" d="M1452.73,965.26l-29.96,60.83,102.19,46.91s21.83-40.92,25-63.26l-97.23-44.48Z"/>
              <path d="M1524.95,1076.31c-.46,0-.93-.1-1.38-.3l-102.19-46.91c-.81-.37-1.44-1.06-1.74-1.9-.3-.84-.25-1.77,.15-2.57l29.96-60.83c.79-1.61,2.72-2.29,4.35-1.55l97.23,44.48c1.33,.61,2.11,2.02,1.9,3.47-3.21,22.66-24.46,62.66-25.36,64.35-.59,1.11-1.73,1.75-2.92,1.75Zm-97.71-51.81l96.23,44.18c4.67-9.09,19.29-38.5,22.8-56.98l-92-42.09-27.04,54.89Z"/>
            </g>
            <path class="cls-4" d="M1362.85,894.8l62.1,33.27c13.08,7.01,18.71,22.79,13.04,36.51l-1.86,4.49,124.11,59.98s18.47-56.75-.72-115.69c-32.96-101.23-243.6-124.07-243.6-124.07l46.93,105.51Z"/>
            <path class="cls-2" d="M1184.68,1012.42c-1.75,0-3.21-1.37-3.3-3.14l-1.31-24.9c-1.11-20.92-3.26-43.91-6.07-64.74-.25-1.81,1.03-3.48,2.84-3.72,1.81-.24,3.48,1.03,3.72,2.84,2.84,21,5.01,44.18,6.12,65.27l1.31,24.9c.1,1.83-1.31,3.38-3.13,3.48-.06,0-.12,0-.18,0Z"/>
          </g>
          <g>
            <path class="cls-1" d="M1434.57,1031.5l-34.03,55.11-16.5-11.2c-10.09-6.85-22.46-9.48-34.46-7.32,0,0-17.74,2.36-25.32,8.47-18.27,14.76-2.07,23.94,1.42,25.79,5.63,2.98,13.45,5.76,21.78,4.56,4.87-.7,17.69,.97,29.26,7.26,8.76,4.76,19,14.49,32.9,10.71,11.88-3.22,17.11-10.24,17.11-10.24l50.81-63.42-42.99-19.73Z"/>
            <path d="M1403.34,1129.06c-9.15,0-16.62-4.76-22.87-8.74-1.88-1.2-3.65-2.33-5.33-3.24-11.1-6.03-23.21-7.47-27.21-6.89-9.46,1.35-18.16-1.93-23.8-4.92-7-3.71-11.14-8.75-11.67-14.2-.55-5.69,2.72-11.44,9.71-17.09,8.2-6.62,26.2-9.08,26.96-9.18,12.78-2.3,25.89,.48,36.76,7.86l13.64,9.26,32.21-52.17c.88-1.42,2.68-1.97,4.2-1.27l42.99,19.73c.93,.43,1.61,1.25,1.84,2.25,.23,.99,0,2.04-.64,2.83l-50.81,63.42c-.17,.23-5.99,7.88-18.83,11.36-2.49,.68-4.88,.97-7.15,.97Zm-53.4-25.6c6.62,0,17.98,2.16,28.37,7.81,1.87,1.02,3.74,2.21,5.72,3.47,7.4,4.71,15.05,9.59,24.73,6.96,10.48-2.84,15.28-8.96,15.32-9.02l48.23-60.2-36.47-16.74-32.49,52.62c-.47,.77-1.24,1.31-2.12,1.5-.88,.19-1.8,0-2.55-.5l-16.5-11.2c-9.43-6.4-20.8-8.82-32.02-6.8-4.83,.65-18.22,3.26-23.82,7.79-3.54,2.86-7.68,7.15-7.28,11.31,.3,3.12,3.28,6.39,8.17,8.98,4.77,2.53,12.08,5.31,19.76,4.21,.83-.12,1.82-.18,2.94-.18Z"/>
          </g>
        </g>
        <g>
          <g>
            <path class="cls-1" d="M1256.62,734.5l7.94,66.07-41.09,12.68s58.71,40.64,130.28-.34l-38.63-16.52-19.92-76.67-38.58,14.78Z"/>
            <path d="M1288.12,834.38c-39.25,0-66.13-18.14-66.53-18.42-1.04-.72-1.58-1.97-1.39-3.23,.19-1.25,1.08-2.28,2.3-2.66l38.46-11.86-7.61-63.32c-.18-1.51,.69-2.94,2.1-3.49l38.58-14.78c.88-.34,1.86-.28,2.7,.15,.84,.43,1.45,1.2,1.69,2.11l19.51,75.09,37.14,15.88c1.16,.49,1.93,1.6,2,2.85,.07,1.25-.57,2.44-1.66,3.06-24.37,13.96-47.41,18.6-67.28,18.6Zm-56.42-20.21c16.18,8.39,61.46,26.32,114.47-.91l-32.34-13.83c-.94-.4-1.64-1.22-1.9-2.21l-18.99-73.08-32.71,12.53,7.64,63.5c.19,1.59-.78,3.09-2.31,3.56l-33.85,10.44Z"/>
          </g>
          <g>
            <path class="cls-1" d="M1296.09,738.23s14.74,5.57,18.63-7.25c3.89-12.82-8.82-12.01-8.82-12.01,0,0,13.53-28.1-7.51-30.84-21.04-2.74-36.41-10.52-36.41-10.52,0,0-15.29,26.81-20.21,49.28-2.96,13.55-2.15,25.53,8.07,29.09,27.98,9.76,46.24-17.74,46.24-17.74Z"/>
            <path d="M1261.72,761.36c-4.06,0-8.4-.68-12.97-2.27-7.38-2.57-15.14-10.38-10.22-32.92,4.97-22.7,19.93-49.1,20.57-50.21,.88-1.53,2.8-2.11,4.37-1.31,.15,.08,15.16,7.57,35.34,10.2,5.98,.78,10.22,3.41,12.61,7.82,4.03,7.45,1.32,17.76-.8,23.54,2.05,.55,4.32,1.63,5.99,3.74,2.36,2.97,2.78,7.01,1.27,12.01-1.32,4.34-3.81,7.44-7.4,9.21-4.7,2.31-10.07,1.62-13.12,.9-4.21,5.29-17.13,19.32-35.64,19.32Zm1.67-79.46c-3.9,7.26-14.53,28.02-18.39,45.68-3.12,14.3-1.13,22.8,5.93,25.26,25.18,8.78,41.7-15.41,42.39-16.45,.85-1.28,2.48-1.8,3.91-1.27,.1,.04,6.07,2.19,10.33,.07,1.9-.94,3.2-2.64,3.97-5.18,.58-1.92,1.03-4.52-.12-5.98-1.32-1.67-4.54-1.83-5.32-1.77-1.19,.07-2.3-.48-2.95-1.45-.66-.97-.75-2.22-.24-3.28,1.89-3.94,6.05-15.52,2.69-21.72-1.34-2.47-3.84-3.9-7.64-4.4-16.23-2.11-29.05-7.09-34.57-9.51Z"/>
          </g>
        </g>
      </g>
      <g>
        <g>
          <g>
            <g>
              <path class="cls-1" d="M722,1537.34l21.5,22.65c8.19,8.63,12.81,20.03,12.93,31.93l.18,17.13,63.22-17.37c-13.79-14.72-27.71-28.33-37.06-46.22l-19.56-37.44-41.22,29.32Z"/>
              <path d="M756.61,1612.36c-.71,0-1.41-.23-1.99-.67-.82-.62-1.31-1.58-1.32-2.61l-.18-17.13c-.12-11.1-4.39-21.64-12.02-29.69l-21.5-22.65c-.66-.7-.99-1.64-.89-2.6,.09-.95,.59-1.82,1.38-2.38l41.22-29.32c.78-.55,1.76-.74,2.69-.52,.93,.22,1.72,.84,2.16,1.69l19.56,37.44c8,15.31,19.42,27.39,31.52,40.17,1.67,1.76,3.34,3.53,5.01,5.32,.79,.85,1.08,2.05,.77,3.16-.31,1.12-1.19,1.99-2.31,2.29l-63.22,17.37c-.29,.08-.58,.12-.88,.12Zm-29.59-74.54l18.87,19.89c8.79,9.26,13.71,21.4,13.84,34.18l.14,12.83,53.77-14.77c-.41-.43-.82-.86-1.22-1.29-12.42-13.13-24.16-25.52-32.58-41.66l-17.8-34.08-35.02,24.9Z"/>
            </g>
            <g>
              <g>
                <path class="cls-4" d="M745.08,1587.66c-1.3,9.2-1.33,25.88-1.5,41.18-.11,9.61,7.1,17.72,16.63,18.95,26.94,3.46,94.2,6.87,146.24,2.14,3.56-.32,9.86-2.92,11.62-11.83,5.89-29.9-46.08-37.22-103.05-58.91-2.23-.85-4.76-.35-6.47,1.32l-6.14,5.95c-6.15,5.96-15.27,7.65-23.14,4.29l-26.92-7.2c-3.18-1.36-6.78,.68-7.26,4.11Z"/>
                <path d="M848.11,1655.54c-35.22,0-69.46-2.04-88.33-4.47-11.25-1.45-19.64-11.02-19.52-22.27l.05-4.92c.14-13.89,.29-28.25,1.48-36.69,.37-2.66,1.93-4.95,4.27-6.27,2.26-1.28,4.92-1.46,7.32-.52l27.17,7.3c6.67,2.84,14.33,1.42,19.54-3.62l6.14-5.95c2.62-2.54,6.53-3.34,9.95-2.03,13.27,5.05,26.04,9.25,38.39,13.3,40.12,13.17,71.81,23.58,66.73,49.35-1.95,9.89-9.06,13.98-14.57,14.48-18.08,1.64-38.53,2.31-58.64,2.31Zm-97.83-69.1c-.42,0-.75,.14-.95,.25-.31,.18-.86,.6-.97,1.43-1.13,8.01-1.28,22.16-1.42,35.83l-.05,4.93c-.09,7.89,5.82,14.61,13.74,15.62,24.41,3.13,92.14,6.98,145.52,2.13,1.17-.11,7.07-1.05,8.67-9.17,3.94-20.02-23.84-29.15-62.3-41.77-12.42-4.08-25.26-8.29-38.68-13.4-1.04-.39-2.21-.16-2.99,.6l-6.14,5.95c-7.07,6.85-17.45,8.82-26.52,5.05l-27.15-7.3c-.27-.12-.53-.16-.76-.16Zm-5.2,1.22h0Z"/>
              </g>
              <g>
                <path class="cls-1" d="M745.04,1625.91s-.03,1.55-.04,2.3c-.11,9.61,7.1,17.72,16.63,18.95,26.94,3.46,92.78,7.51,144.82,2.78,3.56-.32,9.86-2.92,11.62-11.83,.54-2.73,.21-7.65,.21-7.65l-3.69,.18c-52.59,2.6-105.3,1.33-157.7-3.78l-11.84-.96Z"/>
                <path d="M853.11,1655.41c-39.02,0-75.58-2.87-91.91-4.97-11.25-1.45-19.64-11.02-19.52-22.27l.04-2.33c.02-.91,.41-1.78,1.09-2.39,.68-.61,1.55-.92,2.49-.84l11.84,.96c52.12,5.08,105.02,6.35,157.27,3.77l3.69-.18c1.8-.09,3.34,1.28,3.47,3.08,.04,.55,.34,5.44-.26,8.51-1.95,9.89-9.06,13.98-14.57,14.48-17.25,1.57-35.7,2.17-53.64,2.17Zm-104.77-25.91c.51,7.34,6.2,13.41,13.71,14.38,23.59,3.03,89.85,7.69,144.1,2.77,1.17-.11,7.07-1.05,8.67-9.17,.18-.92,.24-2.26,.25-3.54l-.32,.02c-52.58,2.6-105.8,1.32-158.19-3.79l-8.21-.66Z"/>
              </g>
              <path d="M828.08,1614.8c-.85,0-1.69-.32-2.34-.97-1.3-1.29-1.3-3.39,0-4.68l19.99-20.02c1.29-1.29,3.39-1.29,4.68,0,1.3,1.29,1.3,3.39,0,4.68l-19.99,20.02c-.65,.65-1.5,.97-2.34,.97Z"/>
              <path d="M847.72,1616.87c-.83,0-1.65-.31-2.3-.92-1.32-1.27-1.36-3.36-.09-4.68l15.97-16.61c1.27-1.32,3.36-1.36,4.68-.09,1.32,1.27,1.36,3.36,.09,4.68l-15.97,16.61c-.65,.68-1.52,1.02-2.39,1.02Z"/>
            </g>
          </g>
          <g>
            <g>
              <path class="cls-1" d="M541.57,1546.47c17.82-25.15,34.62-77.18,34.62-77.18l39.73,27.71-21.01,35.59c-7.03,9.18-7.05,23.03-4.19,34.23l7.56,20.77-56.72-41.12Z"/>
              <path d="M598.29,1590.9c-.68,0-1.36-.21-1.94-.63l-56.72-41.12c-1.47-1.06-1.81-3.11-.76-4.59,17.33-24.45,34-75.77,34.17-76.28,.32-1,1.1-1.78,2.09-2.12,.99-.33,2.09-.18,2.95,.42l39.73,27.71c1.42,.99,1.84,2.91,.96,4.4l-21.01,35.59c-.07,.11-.14,.22-.22,.33-5.44,7.11-6.8,18.78-3.65,31.24l7.5,20.61c.5,1.37,.05,2.9-1.12,3.78-.59,.44-1.29,.67-1.99,.67Zm-52.17-45.22l45.36,32.89-3.86-10.61c-.04-.1-.07-.21-.1-.31-3.68-14.38-1.95-28.16,4.64-36.9l19.35-32.78-33.58-23.42c-4.25,12.5-17.39,49.31-31.81,71.14Z"/>
            </g>
            <g>
              <g>
                <path class="cls-4" d="M542.48,1532.46c-5.75,7.29-16.17,20.99-24.03,34.14-4.93,8.25-2.79,18.89,4.83,24.75,10.27,7.91,41.87,28.08,62.45,41.05,12.15,7.66,26.04,12.09,40.37,12.88l20.33,1.13c6.51,.36,13.05-.22,19.33-1.98,6.25-1.75,12.56-4.63,12.83-9.16,.72-11.98-11.13-19.72-21.51-24.18-11.72-5.04-22.05-12.82-30.45-22.41-8.78-10.02-19.47-22.41-27.01-31.75-1.5-1.86-3.92-2.67-6.23-2.1l-8.3,2.05c-8.31,2.05-17.04-1.09-22.14-7.96l-12.13-16.31c-2.06-2.77-6.19-2.85-8.33-.13Z"/>
                <path d="M650.08,1649.83c-1.27,0-2.55-.04-3.84-.11l-20.33-1.13c-14.87-.83-29.37-5.46-41.95-13.39-23.05-14.53-52.64-33.48-62.71-41.23-8.99-6.92-11.42-19.42-5.65-29.07,8.01-13.4,18.65-27.36,24.27-34.49,1.63-2.07,4.07-3.25,6.7-3.25,.04,0,.08,0,.12,0,2.69,.04,5.15,1.3,6.76,3.46l12.13,16.31c4.32,5.82,11.65,8.46,18.7,6.72l8.3-2.05c3.54-.87,7.31,.4,9.6,3.24,7.76,9.62,18.93,22.52,26.93,31.65,8.25,9.42,18.37,16.87,29.27,21.55,16.04,6.89,24.17,16.38,23.51,27.42-.32,5.32-5.45,9.41-15.24,12.15-5.24,1.47-10.8,2.21-16.57,2.21Zm-103.5-116.05c-.36,0-1.01,.1-1.51,.73-5.53,7.01-15.97,20.71-23.79,33.79-4.05,6.77-2.33,15.55,4,20.43,10.39,8,43.43,29.04,62.2,40.88,11.63,7.33,25.05,11.62,38.79,12.38l20.33,1.13c6.42,.36,12.56-.27,18.25-1.86,7.54-2.11,10.33-4.57,10.42-6.17,.61-10.12-10.28-16.97-19.51-20.94-11.8-5.07-22.74-13.12-31.64-23.27-8.04-9.17-19.27-22.15-27.1-31.86-.69-.86-1.79-1.23-2.87-.97l-8.3,2.05c-9.62,2.37-19.68-1.24-25.59-9.2l-12.13-16.31c-.5-.67-1.18-.78-1.54-.79,0,0-.02,0-.03,0Zm-4.11-1.32h0Z"/>
              </g>
              <g>
                <path class="cls-1" d="M519.64,1564.63s-.81,1.33-1.19,1.97c-4.93,8.25-2.79,18.89,4.83,24.75,15.92,12.26,47.63,34.54,82.6,53.59,19.89,10.84,55.14,6.03,62.65,4.91,5.23-.78,9.56-4.32,9.73-9.6l.28-8.45s-46.03,6.66-63.34-4.57c-30.7-19.91-60.09-36.98-89.77-58.42l-5.78-4.18Z"/>
                <path d="M641.98,1655.19c-12.95,0-27.21-1.64-37.69-7.35-32.94-17.94-64.49-39.59-83.04-53.87-8.99-6.92-11.42-19.42-5.65-29.07,.39-.65,1.21-1.99,1.21-1.99,.48-.79,1.27-1.34,2.17-1.52,.9-.18,1.84,.02,2.59,.56l5.78,4.18c19.92,14.39,39.35,26.57,59.92,39.48,9.68,6.07,19.68,12.34,29.71,18.85,16.07,10.43,60.61,4.13,61.06,4.07,.96-.14,1.95,.16,2.68,.81,.73,.65,1.13,1.6,1.1,2.57l-.28,8.45c-.22,6.55-5.26,11.68-12.55,12.77-5.97,.89-16.03,2.07-27.03,2.07Zm-121.32-85.74c-3.22,6.59-1.35,14.67,4.63,19.27,18.35,14.12,49.56,35.54,82.17,53.3,18.12,9.87,50.95,5.97,60.58,4.54,3.11-.46,6.78-2.42,6.91-6.44l.15-4.57c-11.75,1.36-46.44,4.34-61.71-5.57-9.99-6.48-19.97-12.74-29.63-18.8-20.67-12.96-40.19-25.2-60.28-39.72l-2.82-2.04Z"/>
              </g>
              <path d="M594.67,1594.74c-1.47,0-2.81-.98-3.2-2.47-.47-1.77,.59-3.58,2.36-4.04l27.34-7.21c1.77-.46,3.58,.59,4.05,2.36,.47,1.77-.59,3.58-2.36,4.04l-27.34,7.21c-.28,.07-.57,.11-.85,.11Z"/>
              <path d="M610.58,1606.43c-1.44,0-2.77-.95-3.18-2.41-.5-1.76,.52-3.59,2.28-4.09l22.16-6.29c1.76-.5,3.59,.52,4.09,2.28,.5,1.76-.52,3.59-2.28,4.09l-22.16,6.29c-.3,.09-.61,.13-.91,.13Z"/>
            </g>
          </g>
          <g>
            <path d="M410.13,1126.82s250.53-8.36,339.6,44.7c84.64,50.42-144.91,359.25-144.91,359.25l-47.77-26.17,60.38-207.08c4.21-15.18-4.62-30.92-19.77-35.22l-216.24-61.46,28.7-74.02Z"/>
            <path d="M281.48,1269.32c38.28,12.16,77.02,10.58,172.75,9.27,27.2-.37,65.69,23.85,78.05,48.11,28.36,55.66,106.02,173.99,206,238.94l47.75-25.75-138.16-292.68c-11.13-25.07-31.93-44.55-57.67-54l-241.53-88.64s-63.1-19.73-99.82,47.19c-6.56,11.95-11.01,22.73-13.91,32.37-9.94,33.06,13.67,74.76,46.54,85.2Z"/>
            <path class="cls-1" d="M714.44,1384.2c-1.26,0-2.46-.72-3.02-1.94l-59.07-130.37c-10.1-22.76-36.13-45.6-63.3-55.57l-115.66-42.45c-1.72-.63-2.6-2.53-1.97-4.25s2.54-2.6,4.25-1.97l115.66,42.45c28.72,10.54,56.3,34.83,67.06,59.08l59.06,130.35c.75,1.67,.02,3.63-1.65,4.38-.44,.2-.91,.3-1.36,.3Z"/>
            <path class="cls-1" d="M641.12,1488.97c-.89,0-1.77-.36-2.42-1.06-7.92-8.51-17.35-20.04-28.05-34.26-1.1-1.46-.81-3.54,.65-4.64,1.46-1.1,3.53-.81,4.64,.65,10.56,14.04,19.85,25.39,27.62,33.73,1.25,1.34,1.17,3.43-.17,4.68-.64,.59-1.45,.89-2.25,.89Z"/>
          </g>
        </g>
        <path d="M378.71,681.56c4.29-1.76,20.92-6.83,27.32-22.98,5.97-15.06,4.12-25.14-4.26-33.75-5.41-5.55-19.47-14.21-42.43-14.21-30.74,0-47.47,10.7-47.47,10.7-61.2,28.82-67.32,94.19-117.24,121.93-63.92,35.52-98.28,8.93-126.06,39.42-45.14,49.56-26.58,144.15,62.25,199.54,59.99,37.41,153.08,23.37,195.58-23.53,69.39-76.57,.54-255.92,52.31-277.13Z"/>
        <g>
          <g>
            <path class="cls-4" d="M383.95,1210.52c-3.76,1.51-18.27,7.4-30.76,6.97-17.66-.6-25.38-15.7-51-11.35-22.77,3.87-43.18,32.07-63.67,17.79-7.38-5.14-12.5-39.19-10-61.7,3.22-29.02,12.44-63.81,18.26-124.15,6.98-72.32-51.31-143.34-18.95-196.74,14-23.11,49.37-38.83,66.8-41.48,71.04-10.8,142.42,.24,157.9,42.26,10.17,27.6-19.22,146.67-13.07,198.49,5.56,46.86,14.54,57.11,27.08,76.6,3.76,5.85,3.35,15.14-.96,20.59-16.96,21.42-32.77,53.06-81.63,72.72Z"/>
            <g>
              <path class="cls-4" d="M547.97,1019.43c.05,13.86-5.29,42.68-19.03,53.67,0,0-105.02-6.94-146.87-35.68-23.83-16.37-44.11-46.86-44.11-46.86l97.73-147.76,14.3-4.82s11.35,14.08,10.65,47.75c-1.13,54.54,6.62,112.28,23.34,116.98l56.43,7.35c4.38,1.5,7.54,5.42,7.56,9.39Z"/>
              <path d="M491.59,1080.79c-19.87,0-44.26-3.73-64.99-17.96-1.51-1.03-1.89-3.1-.85-4.6,1.04-1.51,3.1-1.89,4.6-.86,37.72,25.9,90.5,14.28,97.05,12.69,12.28-10.49,17.31-38,17.26-50.62-.01-2.46-2.15-5.06-5.03-6.16l-56.07-7.3c-.16-.02-.31-.05-.47-.1-21.31-5.99-22.98-50.89-24.59-94.31-.82-22.06-1.59-42.89-5.07-54.48-.1-.36-7.21-26.6-18.84-34.25-8.61-5.66-30.81-18.99-50.88-20.45-60.12-4.36-91.66,1.07-107.54,6.39-32.64,10.94-45.26,35.01-45.38,35.25-.83,1.63-2.83,2.27-4.45,1.45-1.63-.83-2.28-2.81-1.45-4.44,.55-1.08,13.85-26.68,49.18-38.53,23.93-8.03,60.99-10.29,110.12-6.72,20.84,1.51,42.8,14.13,54.04,21.52,13.75,9.04,21.26,36.8,21.57,37.98,3.69,12.3,4.48,33.54,5.31,56.03,1.38,37.04,3.09,83.1,19.56,88.12l56.17,7.31c.22,.03,.44,.08,.64,.15,5.75,1.96,9.77,7.11,9.8,12.5,.05,13.03-4.84,43.92-20.28,56.27-.36,.28-.77,.49-1.21,.61-1.26,.34-17.21,4.5-38.21,4.5Z"/>
            </g>
            <path d="M428.49,1047.92s-.08,0-.13,0c-1.83-.07-3.25-1.61-3.18-3.43,.01-.28,1.12-28.01,7.29-54.79,7.84-33.96,2.67-62.42-6.49-72.97-1.2-1.38-1.05-3.47,.33-4.67,1.39-1.2,3.47-1.05,4.67,.33,12.15,14,15.41,46.4,7.94,78.79-6.03,26.15-7.12,53.28-7.13,53.55-.07,1.78-1.53,3.19-3.31,3.19Z"/>
          </g>
          <g>
            <g>
              <path class="cls-1" d="M381.71,1009.23l24.91-17.87,7.97,12.57c.44,.69,.71,1.48,.79,2.3l.14,1.48c.18,1.86,1.35,3.49,3.04,4.24,.92,.41,1.7,1.08,2.24,1.94l59.33,93.39c.49,.77,.88,1.6,1.15,2.47l8.39,26.74-21.28-16.25c-1.16-.88-2.2-1.92-3.1-3.08l-67.52-87.19c-.58-.74-.94-1.63-1.06-2.57l-.03-.23c-.22-1.8-1.36-3.36-2.98-4.1l-.82-.37c-.75-.34-1.41-.87-1.93-1.53l-9.25-11.94Z"/>
              <path d="M489.68,1139.8c-.71,0-1.42-.23-2.01-.68l-21.28-16.25c-1.38-1.06-2.63-2.3-3.7-3.68l-67.52-87.19c-.94-1.21-1.54-2.66-1.73-4.19l-.03-.24c-.08-.64-.49-1.21-1.07-1.48l-.82-.37c-1.24-.57-2.34-1.44-3.18-2.52l-9.25-11.94c-.55-.71-.79-1.61-.66-2.5s.62-1.69,1.34-2.21l24.91-17.87c.74-.53,1.66-.73,2.56-.56,.89,.17,1.68,.71,2.17,1.48l7.97,12.57c.72,1.13,1.16,2.42,1.29,3.75l.14,1.49c.06,.67,.49,1.27,1.08,1.53,1.52,.68,2.8,1.78,3.7,3.19l59.33,93.39c.64,1.01,1.15,2.11,1.51,3.26l8.39,26.74c.43,1.38-.08,2.87-1.26,3.7-.57,.4-1.24,.6-1.9,.6Zm-103.24-129.89l7.15,9.23c.18,.24,.42,.42,.68,.54l.82,.37c2.67,1.21,4.54,3.78,4.9,6.71l.03,.24c.04,.34,.17,.66,.39,.93l67.52,87.19c.72,.93,1.56,1.77,2.49,2.48l12.98,9.92-5.27-16.78c-.19-.6-.45-1.16-.78-1.69l-59.33-93.39c-.2-.31-.47-.55-.8-.69-2.78-1.23-4.69-3.9-4.99-6.95l-.14-1.48c-.03-.29-.13-.59-.29-.84l-6.09-9.61-19.27,13.83Z"/>
            </g>
            <path d="M470.98,1119.33c-.98,0-1.95-.43-2.61-1.27-1.13-1.44-.88-3.52,.56-4.65l9.57-7.5c1.44-1.13,3.52-.88,4.65,.56,1.13,1.44,.88,3.52-.56,4.65l-9.57,7.5c-.61,.48-1.33,.71-2.04,.71Z"/>
            <g>
              <path class="cls-3" d="M392.46,970.35l14.54,21.38-25.26,17.67-14.54-21.38c-2.66-3.92-1.75-9.24,2.03-11.89l11.55-8.08c3.78-2.65,9.01-1.62,11.68,2.3Z"/>
              <path d="M380.89,1014.04l-16.42-24.16c-3.67-5.4-2.39-12.79,2.87-16.46l11.55-8.08c2.53-1.77,5.6-2.43,8.65-1.88,3.13,.57,5.85,2.36,7.66,5.03l16.38,24.09-30.68,21.47Zm4.55-44.15c-.98,0-1.94,.3-2.76,.87l-11.55,8.08c-2.3,1.61-2.83,4.89-1.19,7.32l12.65,18.61,19.83-13.87-12.71-18.68c-.81-1.19-2.01-1.98-3.38-2.24-.3-.06-.6-.08-.9-.08Z"/>
            </g>
            <path d="M400.03,1025.11c-1.06,0-2.09-.5-2.73-1.44-1.03-1.51-.64-3.57,.86-4.6l12.05-8.23c1.51-1.03,3.57-.64,4.6,.87,1.03,1.51,.64,3.57-.86,4.6l-12.05,8.23c-.57,.39-1.22,.58-1.87,.58Z"/>
            <path d="M473.57,1109.9c-1.07,0-2.13-.52-2.77-1.49l-7.03-10.64c-1.01-1.53-.59-3.58,.94-4.59,1.52-1.01,3.58-.59,4.59,.94l7.03,10.64c1.01,1.53,.59,3.58-.94,4.59-.56,.37-1.2,.55-1.82,.55Z"/>
            <path class="cls-1" d="M383.95,1001.97c-1.07,0-2.11-.52-2.75-1.47l-11.01-16.44c-1.02-1.52-.61-3.57,.91-4.59,1.52-1.02,3.58-.61,4.59,.91l11.01,16.44c1.02,1.52,.61,3.57-.91,4.59-.57,.38-1.21,.56-1.84,.56Z"/>
          </g>
          <g>
            <path class="cls-1" d="M387.87,1077.68s26.03-14.16,44.4-18.59c14.31-3.45,50.69-28.89,52.5,.42,.39,6.31,.9,10.42-2,17.65-1.59,3.96-6.7,12.84-10.18,16.36-16.96,17.13-34.06,28.24-62.62,22.24-5.5-1.16-11.23-.42-16.22,2.15-2.91,1.5-6.75-39.63-5.88-40.22Z"/>
            <path d="M393.58,1121.25c-1.21,0-2.52-.6-3.43-2.13-1.48-2.49-2.94-10.14-4.35-22.74-2.2-19.79-1.5-20.27,.2-21.43,.09-.06,.19-.12,.29-.17,1.08-.59,26.62-14.42,45.2-18.9,3.09-.75,7.68-2.78,12.54-4.93,12.88-5.7,27.48-12.17,36.74-6.54,4.4,2.67,6.86,7.69,7.3,14.9l.08,1.25c.38,5.81,.67,10.4-2.31,17.84-1.75,4.36-7.09,13.61-10.9,17.46-18.17,18.36-36.29,29.32-65.65,23.15-4.77-1-9.75-.34-14.03,1.85-.5,.26-1.08,.41-1.68,.41Zm11.31-9.34c1.92,0,3.85,.2,5.76,.6,26.53,5.58,42.47-4.03,59.59-21.33,3.05-3.08,7.98-11.57,9.46-15.26,2.42-6.05,2.21-9.4,1.85-14.95l-.08-1.27c-.3-4.92-1.69-8.17-4.13-9.65-6.3-3.83-20.36,2.39-30.62,6.93-5.36,2.38-9.99,4.43-13.67,5.31-15.19,3.66-36.13,14.35-42.01,17.44,.11,6.24,2.37,26.89,4.11,33.93,3.11-1.16,6.41-1.75,9.74-1.75Z"/>
          </g>
          <g>
            <path class="cls-4" d="M253.25,836.51c26.7-4.47,11.33,13.13,17.51,72.75,1.64,15.86-1.88,100.12-3.97,142.33-.29,5.76,4.04,10.68,9.78,11.14,7.69,.61,20.79,1.31,42.69,1.76,19.14,.39,66.26,4.15,73.22,2.13,0,0,13.95,22.31,.58,56.03,0,0-32.81,6.86-121.52,3.68-15.26-.55-58.36,0-74.78-11.51-12.2-8.55-13.69-16.46-11.05-70.22,3.8-77.58,22.69-182.41,52.43-209.69,4.34-3.98,10.4,2.38,15.11,1.59Z"/>
            <path d="M349.12,1131.5c-24.15,0-58.26-1.3-101.33-3.09-40.83-1.7-51.73-7.16-62.06-19.57-7.19-8.64-11.91-174.43,39.2-267.89,.88-1.6,2.89-2.19,4.49-1.32,1.6,.88,2.19,2.89,1.32,4.49-48.09,87.92-45.16,249.16-39.8,260.63,7.87,9.42,15.02,15.29,57.13,17.04,61.72,2.57,125.54,5.22,137.66,.38,3.13-1.25,5.48-3.84,6.46-7.11,8.43-28.15,3.88-41.77-.96-43.75-6.06-2.46-74.33-3.51-100.03-3.9-7.48-.11-12.96-.2-15.12-.27-7.98-.26-14.34-6.47-14.81-14.43-.89-15.18,5.18-41.62,11.61-69.61,5-21.78,10.17-44.31,11.57-60.26,.16-1.82,1.75-3.17,3.59-3.01,1.82,.16,3.17,1.76,3.01,3.59-1.43,16.41-6.65,39.16-11.71,61.17-6.04,26.31-12.28,53.51-11.45,67.75,.27,4.53,3.88,8.05,8.42,8.2,2.14,.07,7.58,.15,15,.27,57.16,.88,96.45,1.96,102.42,4.39,8.36,3.4,14.63,19,4.81,51.78-1.56,5.21-5.33,9.35-10.34,11.36-5.7,2.28-18.92,3.19-39.07,3.19Z"/>
          </g>
          <g>
            <g>
              <path class="cls-1" d="M395.69,1135.64l84.33-137.42c1.48-2.41,3.98-3.89,6.69-3.98l75.19-2.37,47.74-39.79,13.78,14.64-84.7,116.15-64.76,54.28-78.28-1.5Z"/>
              <path d="M473.97,1140.46s-.04,0-.06,0l-78.28-1.5c-1.19-.02-2.27-.68-2.84-1.72-.57-1.04-.54-2.31,.08-3.32l84.33-137.42c2.06-3.36,5.58-5.43,9.41-5.56l74.05-2.34,46.87-39.06c1.34-1.12,3.33-1,4.53,.27l13.78,14.64c1.09,1.16,1.2,2.93,.26,4.22l-84.7,116.15c-.16,.22-.34,.41-.55,.59l-64.76,54.28c-.6,.5-1.35,.77-2.13,.77Zm-72.43-8.01l71.26,1.37,63.5-53.22,82.84-113.61-9.76-10.37-45.35,37.8c-.57,.47-1.28,.74-2.01,.77l-75.19,2.37c-1.6,.05-3.08,.95-3.98,2.4l-81.31,132.49Z"/>
            </g>
            <path class="cls-3" d="M406.23,1148.98l85.05-138.58c1.03-1.68,2.77-2.71,4.67-2.77l76.5-2.41,50.93-42.45c2.7-2.25,6.31,1.2,4.46,4.26l-78.56,129.19-64.76,54.28-78.28-1.5Z"/>
            <path d="M496.24,1132.01c-.59,0-1.19-.16-1.73-.49-1.56-.96-2.05-3-1.09-4.55l69.24-112.82c.96-1.56,3-2.05,4.55-1.09,1.56,.96,2.05,2.99,1.09,4.55l-69.24,112.82c-.62,1.02-1.71,1.58-2.82,1.58Z"/>
          </g>
          <g>
            <path class="cls-1" d="M570.81,1070.24s51.81-39.73,49.82-56.06-21.21-14-22.35-11.34c-1.14,2.66,2.25-.77-2.64,4.85-4.89,5.62-50.93,80.82-24.82,62.56Z"/>
            <path d="M564.66,1076.42c-1.34,0-2.63-.44-3.7-1.63-1.87-2.08-5.01-5.57,12.13-36.69,8.31-15.09,17.75-29.94,20.05-32.58,.72-.83,1.23-1.42,1.58-1.84,.02-.61,.16-1.32,.51-2.13,1.63-3.8,8.86-4.26,13.04-3.67,8.86,1.27,14.56,7.06,15.64,15.91,2.11,17.34-42.19,52.26-51.09,59.09-.04,.03-.08,.06-.12,.09-1.57,1.1-4.95,3.46-8.05,3.46Zm6.15-6.18h0Zm30.88-65.62c-.13,1.3-1.15,2.47-3.56,5.24-5.24,6.02-30.22,48.61-31.92,59.35,.64-.33,1.5-.84,2.64-1.64,19.45-14.93,49.77-42.47,48.49-52.99-.53-4.33-2.55-7.35-6.01-8.99-3.67-1.74-7.71-1.45-9.64-.97Zm-2.02-3.54s0,0,0,0t0,0Zm0,0s0,0,0,0c0,0,0,0,0,0Z"/>
          </g>
        </g>
        <g>
          <path class="cls-1" d="M321.87,693.24c1.86,.71,5.32,.35,6.96-.83,12.17-8.79,10.71-15.85,15.25-23.13,14.35-23.05,34.91-12.78,40.74-1.96,5.08,9.44,3.06,16.08,16.22,27.11,1.26,1.06,.74,3.22-.35,4.43l-5.7,7.07c-1.23,1.37-1.77,5.3-1.6,7.16,.5,5.75,2.01,17.89,.38,19.79-3.18,3.71-22.06,5.98-22.06,5.98l-5.14,40.23c-.95,10.18,11.98,15.53,20.16,18.8,5.45,2.18,12.07,4.67,9.04,5.73-5.71,1.99-25.36,15.67-52.2,15.67-29.1,0-54.05-17.4-54.05-17.4,0,0,49.82-1.73,39.07-72.47-.23-1.49-1-2.83-2.31-3.5-5.05-2.57-18.81-10.35-18.59-20.85,.24-11.15,7.82-14.24,14.21-11.82Z"/>
          <path d="M343.54,822.59c-29.8,0-54.89-17.26-55.94-18-1.17-.82-1.68-2.29-1.28-3.65,.4-1.37,1.64-2.32,3.06-2.37,.14,0,15.67-.78,26.51-13.93,9.93-12.03,13.09-30.45,9.39-54.74-.08-.51-.29-.92-.54-1.05-7.73-3.93-20.65-12.26-20.4-23.87,.17-7.92,3.52-11.82,6.3-13.7,3.52-2.38,8.03-2.79,12.39-1.14,.88,.34,3.15,.09,3.85-.41,7.54-5.45,9.22-9.98,10.98-14.77,.88-2.39,1.79-4.87,3.39-7.43,8.16-13.12,17.73-15.63,24.39-15.42,10.29,.32,18.65,7.3,22.07,13.64,1.71,3.18,2.65,5.99,3.57,8.71,1.88,5.59,3.5,10.42,11.86,17.43,1.12,.94,1.8,2.29,1.9,3.82,.13,1.85-.61,3.9-1.92,5.37l-5.59,6.93c-.49,.7-1.01,3.35-.88,4.79,.08,.88,.18,1.91,.29,3.03,1.19,12.19,1.26,16.92-.69,19.2-3.19,3.72-14.74,5.83-21.61,6.78l-4.82,37.7c-.67,7.16,8.99,11.66,18.1,15.31l1.03,.41c7.28,2.9,10.93,4.36,10.85,7.8-.01,.63-.27,2.77-2.98,3.72-.97,.34-2.77,1.26-4.86,2.33-9.21,4.72-26.34,13.51-48.43,13.51Zm-44.85-19.09c9.27,4.98,26.29,12.47,44.85,12.47,20.48,0,36.7-8.32,45.41-12.79,.31-.16,.61-.31,.89-.46-1.17-.49-2.37-.97-3.33-1.35l-1.04-.42c-8.18-3.28-23.42-9.38-22.22-22.19l5.15-40.34c.19-1.5,1.38-2.69,2.89-2.87,8.79-1.06,17.71-3.19,19.73-4.67,.52-2.35-.3-10.75-.66-14.43-.11-1.15-.21-2.2-.29-3.1-.17-1.98,.2-7.17,2.44-9.66l5.59-6.93c.09-.11,.17-.22,.22-.31-9.29-7.96-11.33-14.03-13.3-19.9-.86-2.57-1.68-5-3.12-7.68-2.62-4.87-9.12-9.93-16.45-10.16-7.08-.22-13.42,4.03-18.56,12.3-1.24,1.99-2,4.05-2.8,6.22-1.94,5.26-4.14,11.21-13.32,17.85-2.49,1.8-7.1,2.36-10.07,1.24-2.31-.88-4.63-.72-6.34,.44-2.13,1.44-3.3,4.33-3.39,8.35-.18,8.29,11.67,15.23,16.78,17.83,2.19,1.11,3.68,3.28,4.08,5.96,4,26.3,.33,46.5-10.92,60.05-7.13,8.6-15.81,12.64-22.22,14.55Z"/>
        </g>
      </g>
      <g>
        <path class="cls-3" d="M1309.19,1369.59l67.33-226.13c7.25-25.34,31.96-43.58,60.19-43.58h156.72c21.55,0,40.41-13.46,45.94-32.8l31.77-110.93c6.76-23.63,28.71-40.71,54.54-42.83h13.42c66.84-1.05,104.21,49.77,95.73,103.08l-43.83,153.69c-.25,1.15-.54,2.3-.87,3.46l-59.3,206.42c-10.29,34.2-50.91,62.53-84.49,62.53h-276.97c-40.9,0-70.69-36.2-60.19-72.91Z"/>
        <path class="cls-1" d="M1371.35,1149.59c7.25-25.34,34.16-52.46,62.4-52.46h51.97c40.9,0,70.69,33.55,60.19,70.25l-63.56,233.1c-7.25,25.34-31.96,42.91-60.19,42.91l-133.56-3.43,82.77-290.38Z"/>
        <path d="M1406.67,1443.28H531.11c-1.83,0-3.31-1.48-3.31-3.31s1.48-3.31,3.31-3.31h875.56c1.83,0,3.31,1.48,3.31,3.31s-1.48,3.31-3.31,3.31Z"/>
        <g>
          <path class="cls-1" d="M1336.44,1280.61l34.91-131.02c7.25-25.34,34.16-52.46,62.4-52.46h51.97c40.9,0,70.69,33.55,60.19,70.25l-63.56,233.1c-7.25,25.34-31.96,42.91-60.19,42.91l-133.56-3.43,47.86-159.36Z"/>
          <path d="M1422.15,1446.71l-133.65-3.43c-1.83-.05-3.27-1.57-3.22-3.39,.05-1.83,1.66-3.24,3.39-3.22l133.56,3.43c26.66,0,50.1-16.66,56.92-40.51l63.55-233.06c4.37-15.26,1.56-30.55-7.88-43.08-10.86-14.4-29.22-23-49.12-23h-51.97c-26.85,0-52.3,25.88-59.21,50.06l-34.89,130.96c-.47,1.77-2.29,2.82-4.05,2.35-1.77-.47-2.82-2.28-2.35-4.05l34.91-131.02c7.6-26.55,35.76-54.92,65.59-54.92h51.97c21.96,0,42.3,9.58,54.4,25.63,10.73,14.23,13.91,31.57,8.97,48.84l-63.55,233.06c-7.65,26.72-33.71,45.35-63.39,45.35Z"/>
        </g>
      </g>
    </g>
    <path class="cls-1" d="M729.74,718.68c-.06,0-.12,0-.18,0-8.64-.46-17.61-1.47-26.67-2.99-1.8-.3-3.02-2.01-2.72-3.81,.3-1.8,2.03-3.02,3.81-2.71,8.81,1.48,17.53,2.46,25.92,2.91,1.83,.1,3.23,1.66,3.13,3.48-.09,1.77-1.56,3.13-3.3,3.13Zm26.45-.32c-1.71,0-3.16-1.31-3.3-3.05-.15-1.82,1.21-3.42,3.04-3.56,8.69-.69,17.33-2.02,25.67-3.93,1.79-.41,3.56,.71,3.97,2.49,.41,1.78-.7,3.56-2.49,3.97-8.65,1.98-17.61,3.35-26.63,4.08-.09,0-.18,.01-.27,.01Zm-78.6-8.29c-.28,0-.57-.04-.85-.11-8.22-2.19-16.81-4.83-25.54-7.85-1.73-.6-2.64-2.48-2.04-4.21,.6-1.73,2.48-2.64,4.21-2.05,8.58,2.97,17.01,5.56,25.07,7.71,1.77,.47,2.82,2.28,2.35,4.05-.39,1.48-1.73,2.46-3.2,2.46Zm130.04-3.51c-1.32,0-2.57-.8-3.08-2.11-.66-1.7,.18-3.62,1.88-4.29,5.2-2.03,10.43-4.36,15.53-6.92,2.67-1.34,5.34-2.76,7.95-4.23,1.58-.9,3.61-.34,4.51,1.26,.9,1.59,.33,3.61-1.26,4.51-2.7,1.52-5.47,3-8.24,4.38-5.28,2.65-10.69,5.06-16.09,7.17-.39,.15-.8,.23-1.2,.23Zm-180.11-13.66c-.42,0-.84-.08-1.25-.25-7.83-3.21-15.81-6.69-24.4-10.64-1.66-.76-2.39-2.73-1.63-4.39,.77-1.66,2.74-2.39,4.39-1.63,8.51,3.91,16.41,7.36,24.15,10.54,1.69,.69,2.5,2.63,1.81,4.32-.53,1.28-1.76,2.05-3.06,2.05Zm226.08-12.3c-.99,0-1.97-.44-2.62-1.28-1.12-1.45-.85-3.52,.59-4.64,7.01-5.43,13.46-11.3,19.17-17.44,1.25-1.34,3.34-1.42,4.68-.18,1.34,1.24,1.42,3.34,.17,4.68-5.95,6.41-12.67,12.53-19.97,18.18-.6,.47-1.32,.69-2.02,.69Zm-274.27-9.72c-.49,0-.99-.11-1.46-.34-7.11-3.51-14.64-7.32-23.7-11.98-1.62-.84-2.27-2.83-1.43-4.46,.84-1.63,2.83-2.26,4.46-1.43,9.02,4.64,16.52,8.43,23.6,11.93,1.64,.81,2.31,2.8,1.5,4.43-.58,1.17-1.75,1.84-2.97,1.84Zm-47.17-24.14c-.51,0-1.04-.12-1.53-.37-7.88-4.1-15.71-8.17-23.5-12.14-1.63-.83-2.28-2.82-1.44-4.45,.83-1.63,2.83-2.27,4.45-1.44,7.8,3.98,15.65,8.05,23.54,12.16,1.62,.84,2.25,2.84,1.41,4.46-.59,1.13-1.75,1.78-2.94,1.78Zm357.03-4.98c-.59,0-1.18-.16-1.72-.48-1.56-.95-2.05-2.99-1.1-4.55,2.14-3.52,4.06-7.09,5.74-10.69-.03-.17-.04-.35-.03-.54,.02-1.13,.6-2.11,1.47-2.69,1.32-3.1,2.46-6.23,3.42-9.36,.54-1.75,2.39-2.73,4.14-2.19,1.75,.54,2.73,2.39,2.2,4.14-.71,2.31-1.51,4.61-2.4,6.91,6.75,0,13.73-.24,20.74-.7,1.86-.12,3.4,1.26,3.52,3.09,.12,1.82-1.26,3.4-3.09,3.52-8.13,.53-16.15,.77-24,.7-1.78,3.8-3.8,7.57-6.06,11.27-.62,1.02-1.71,1.59-2.83,1.59Zm-20.22-14.69c-.13,0-.27,0-.41-.02-9.38-1.15-18.28-2.84-26.45-5.02-1.76-.47-2.81-2.29-2.34-4.05,.47-1.77,2.28-2.82,4.05-2.34,7.88,2.11,16.47,3.74,25.54,4.84,1.81,.22,3.11,1.87,2.89,3.69-.21,1.68-1.63,2.91-3.28,2.91Zm79.22-1.61c-1.62,0-3.04-1.19-3.27-2.84-.26-1.81,1-3.49,2.81-3.75,2.69-.39,5.31-.8,7.86-1.22,6.22-1.05,12.28-2.18,17.99-3.37,1.78-.37,3.54,.78,3.92,2.57s-.78,3.54-2.57,3.92c-5.8,1.21-11.94,2.36-18.24,3.42-2.6,.44-5.28,.86-8.02,1.25-.16,.02-.32,.03-.47,.03Zm-463.25-2.7c-.48,0-.97-.11-1.44-.33-8.63-4.17-16.46-7.79-23.93-11.07-1.67-.73-2.44-2.69-1.7-4.36,.73-1.68,2.69-2.44,4.36-1.7,7.55,3.3,15.45,6.96,24.16,11.17,1.65,.8,2.33,2.78,1.54,4.42-.57,1.18-1.75,1.87-2.98,1.87Zm515.02-8.23c-1.44,0-2.77-.95-3.18-2.4-.5-1.76,.52-3.59,2.27-4.09,8.7-2.49,17.03-5.29,24.76-8.34,1.7-.67,3.62,.16,4.29,1.87,.67,1.7-.16,3.62-1.87,4.29-7.93,3.13-16.47,6-25.37,8.55-.3,.09-.61,.13-.91,.13Zm-181.77-1.59c-.5,0-1-.11-1.47-.35-8.64-4.31-16.23-9.5-22.56-15.44-1.33-1.25-1.4-3.35-.15-4.68,1.25-1.33,3.35-1.4,4.68-.15,5.86,5.5,12.92,10.33,20.99,14.34,1.64,.82,2.3,2.8,1.49,4.44-.58,1.16-1.75,1.83-2.97,1.83Zm-381.83-11.24c-.38,0-.77-.07-1.14-.21-.98-.36-1.97-.72-2.95-1.07-7.14-2.56-14.53-5.01-21.98-7.29-1.75-.53-2.73-2.38-2.2-4.13,.53-1.75,2.37-2.74,4.13-2.2,7.55,2.31,15.05,4.79,22.29,7.39,1,.36,2,.72,3,1.09,1.72,.63,2.59,2.54,1.96,4.25-.49,1.34-1.76,2.17-3.11,2.17Zm612.68-6.72c-1.18,0-2.32-.63-2.92-1.74-.87-1.61-.27-3.62,1.34-4.48,7.62-4.11,15.04-8.75,22.05-13.8,1.48-1.07,3.55-.73,4.62,.75,1.07,1.48,.73,3.55-.75,4.62-7.24,5.21-14.9,10-22.78,14.25-.5,.27-1.04,.4-1.57,.4Zm-144.89-3.33c-1.83,0-3.31-1.48-3.31-3.31v-.25c0-8.29-1.25-16.66-3.72-24.9-.53-1.75,.47-3.6,2.22-4.12,1.75-.52,3.6,.47,4.12,2.22,2.65,8.85,4,17.87,4,26.8v.25c0,1.83-1.48,3.31-3.31,3.31Zm-518.42-5.45c-.26,0-.53-.03-.8-.1-8.49-2.12-17.13-4.05-25.68-5.72-1.8-.35-2.96-2.09-2.61-3.88,.35-1.79,2.1-2.97,3.88-2.61,8.66,1.7,17.42,3.65,26.01,5.8,1.77,.44,2.85,2.24,2.41,4.01-.38,1.5-1.73,2.51-3.21,2.51Zm-183.64-7.06c-1.51,0-2.87-1.04-3.22-2.57-.41-1.78,.7-3.56,2.48-3.97,8.45-1.95,17.32-3.54,26.36-4.74,1.82-.24,3.48,1.03,3.72,2.85,.24,1.81-1.03,3.48-2.85,3.72-8.84,1.17-17.5,2.73-25.75,4.63-.25,.06-.5,.09-.75,.09Zm578.99-2.46c-1.26,0-2.47-.73-3.02-1.95-3.83-8.51-6.06-17.78-6.45-26.81-.08-1.83,1.34-3.37,3.16-3.45,1.92-.09,3.37,1.34,3.45,3.16,.36,8.2,2.39,16.63,5.87,24.38,.75,1.67,0,3.63-1.66,4.38-.44,.2-.9,.29-1.36,.29Zm-447.32-.65c-.16,0-.31-.01-.47-.03-8.77-1.24-17.56-2.23-26.13-2.94-1.82-.15-3.17-1.75-3.02-3.57,.15-1.82,1.76-3.17,3.58-3.02,8.69,.73,17.61,1.73,26.51,2.98,1.81,.26,3.07,1.93,2.81,3.74-.23,1.65-1.65,2.85-3.27,2.85Zm-79.25-3.97c-1.75,0-3.21-1.37-3.3-3.14-.09-1.83,1.31-3.38,3.14-3.47,8.69-.44,17.73-.57,26.71-.39,1.83,.04,3.28,1.55,3.24,3.38-.04,1.83-1.61,3.29-3.38,3.24-8.83-.18-17.7-.05-26.24,.38-.06,0-.11,0-.17,0Zm837.41-7.85c-.89,0-1.78-.36-2.44-1.07-1.24-1.34-1.15-3.44,.19-4.68,6.19-5.7,12.17-11.8,18.29-18.66,1.21-1.36,3.3-1.49,4.67-.27,1.36,1.22,1.48,3.31,.27,4.67-6.18,6.93-12.48,13.36-18.74,19.12-.64,.59-1.44,.88-2.24,.88Zm-202.81-22.55c-1.05,0-2.08-.5-2.72-1.42-4.6-6.63-10.58-13.13-17.3-18.79-1.4-1.18-1.58-3.27-.4-4.66,1.18-1.4,3.27-1.58,4.67-.4,7.16,6.03,13.55,12.97,18.48,20.08,1.04,1.5,.67,3.56-.83,4.61-.58,.4-1.23,.59-1.89,.59Zm-109.23-16.31c-.49,0-.99-.11-1.46-.34-1.64-.81-2.32-2.79-1.51-4.43,4.27-8.69,10.85-15.47,19.54-20.14,1.61-.86,3.62-.26,4.48,1.35,.87,1.61,.26,3.62-1.35,4.48-7.45,4-13.08,9.8-16.73,17.23-.58,1.17-1.75,1.85-2.97,1.85Zm347.39-.45c-.7,0-1.41-.22-2.01-.69-1.45-1.11-1.72-3.19-.61-4.64,3.81-4.96,7.75-10.32,11.71-15.93,1.06-1.5,3.12-1.85,4.61-.79,1.49,1.05,1.85,3.12,.8,4.61-4.01,5.68-8.01,11.11-11.87,16.14-.65,.85-1.63,1.29-2.63,1.29Zm-278.25-16.99c-.47,0-.94-.1-1.39-.31-8.29-3.86-16.44-6.03-24.23-6.44-1.83-.1-3.23-1.66-3.13-3.48,.1-1.82,1.61-3.23,3.48-3.13,8.64,.46,17.61,2.84,26.67,7.05,1.66,.77,2.38,2.74,1.61,4.4-.56,1.21-1.76,1.91-3,1.91Z"/>
    <g>
      <path class="cls-4" d="M364.37,334.51l258.67-4.55c12.47-.22,22.76,9.72,22.98,22.2l1.88,107.16c.22,12.48-9.71,22.78-22.18,23l-193.69,3.41-55.7,44.4-.76-43.4-8.52,.15c-12.47,.22-22.76-9.72-22.98-22.2l-1.88-107.16c-.22-12.48,9.71-22.78,22.18-23Z"/>
      <path d="M371.2,552.5c-.33,0-.66-.05-.98-.15-1.2-.37-2.09-1.4-2.29-2.65l-6.25-39.61-5.15,.81c-6.83,1.08-13.68-.57-19.27-4.64-5.59-4.07-9.27-10.08-10.35-16.91l-16.71-105.86c-2.23-14.11,7.43-27.41,21.53-29.64l255.54-40.42c6.84-1.08,13.68,.57,19.27,4.64,5.59,4.07,9.27,10.08,10.35,16.91l16.72,105.86c2.23,14.11-7.43,27.41-21.54,29.64l-30.76,4.86c-1.79,.28-3.5-.95-3.79-2.75-.29-1.81,.95-3.5,2.75-3.79l30.76-4.86c10.5-1.66,17.69-11.56,16.03-22.07l-16.72-105.86c-.8-5.09-3.54-9.56-7.7-12.59-4.17-3.03-9.26-4.26-14.34-3.45l-255.54,40.42c-10.5,1.66-17.69,11.56-16.03,22.07l16.71,105.86c.8,5.09,3.54,9.56,7.7,12.59,4.16,3.03,9.26,4.26,14.34,3.45l8.42-1.33c.87-.14,1.75,.08,2.46,.59,.71,.52,1.19,1.29,1.32,2.16l5.72,36.24,44.38-46.82c.5-.53,1.17-.88,1.89-.99l77.52-12.26c1.8-.28,3.5,.95,3.79,2.75,.29,1.81-.95,3.5-2.75,3.79l-76.41,12.09-48.23,50.88c-.64,.67-1.51,1.03-2.4,1.03Z"/>
      <path d="M531.41,484.32c-2.13,0-4.01-1.55-4.35-3.72-.38-2.41,1.26-4.67,3.67-5.05l13.48-2.13c2.38-.38,4.67,1.26,5.05,3.67,.38,2.41-1.26,4.67-3.67,5.05l-13.48,2.13c-.23,.04-.47,.06-.7,.06Z"/>
    </g>
    <g>
      <path class="cls-1" d="M1268.16,338.47c31.67,54.94,1.31,133.22-67.88,182.54-.03,.02-.07,.05-.1,.08-4.61,3.88,1.85,40.64,4.34,53.83,.27,1.44-1.45,2.38-2.51,1.36-9.65-9.24-36.79-34.43-43.11-31.61-75.93,33.8-156.51,20.92-187.69-33.17-34.35-59.59,4.27-146.64,86.28-194.42,82-47.78,176.33-38.21,210.68,21.39Z"/>
      <path d="M1183.76,579.62c-.85,0-1.69-.33-2.33-.96-16.98-16.79-38.26-34.48-43-34.19-37.52,16.67-77.44,22.55-112.39,16.55-35.7-6.13-63.89-24.29-79.37-51.15-24.62-42.7-14.06-99.83,27.54-149.08,1.18-1.4,3.27-1.57,4.66-.39,1.4,1.18,1.57,3.27,.39,4.66-39.75,47.06-50.05,101.28-26.86,141.5,14.48,25.12,41.03,42.14,74.76,47.93,33.73,5.79,72.34,.06,108.72-16.14,3.51-1.56,9.52-.62,29.67,16.68,4.76,4.08,9.35,8.28,12.98,11.68-4.25-22.94-7.26-47.15-2.14-51.45,.06-.05,.23-.18,.3-.23,68.56-48.88,97.33-125.49,66.94-178.2-15.18-26.34-43.34-43.61-79.26-48.63-36.09-5.04-76.72,2.65-114.4,21.67-1.63,.82-3.62,.17-4.45-1.46-.82-1.63-.17-3.62,1.46-4.45,38.87-19.62,80.88-27.55,118.3-22.32,37.99,5.31,67.86,23.74,84.08,51.89,32.06,55.62,2.58,135.84-68.57,186.71-2.19,4.45,1.48,32.04,6.21,55.42,.29,1.43-.39,2.88-1.67,3.57-.5,.27-1.04,.4-1.57,.4Z"/>
      <g>
        <path class="cls-4" d="M1193.77,346.63c-16.22-10.67-44.85-18.79-72.97,14.16-.04-.08-18.9,31.65-18.9,31.65l39.26,10.4-28.79,35.65,26.67,15.01-22.22,43.93c12.72-6.01,79.23-46.58,89.74-97.72,1.19-5.8,5.79-40.86-12.78-53.08Z"/>
        <path class="cls-4" d="M1096.47,442.42l28.11-32.84-34.44-11.12,14.68-28.43c-7.99-16.54-18.55-23.49-29.14-25.63-10.59-2.14-18.48-2.03-26.65,.68-17.4,5.78-26.45,32.37-25.19,50.6,4.2,60.67,78.84,99.75,85.71,102.45,.23-.11,15.33-38.66,15.33-38.66l-28.41-17.05Z"/>
      </g>
    </g>
    <g>
      <g>
        <g>
          <path d="M1547.08,312.97c-.76,0-1.52-.26-2.15-.79-147.63-125.92-281.05-201.08-526.14-212.61-1.83-.09-3.24-1.64-3.15-3.46,.08-1.83,1.65-3.25,3.46-3.15,246.98,11.62,381.4,87.34,530.12,214.19,1.39,1.19,1.56,3.28,.37,4.67-.66,.77-1.59,1.16-2.52,1.16Z"/>
          <path d="M1462.65,302.28c-.74,0-1.48-.25-2.09-.75-99.38-81.34-196.04-137.5-344.74-147.24-1.83-.12-3.21-1.7-3.09-3.52,.12-1.82,1.63-3.21,3.52-3.09,150.46,9.85,248.13,66.58,348.5,148.72,1.41,1.16,1.62,3.24,.47,4.66-.66,.8-1.61,1.21-2.56,1.21Z"/>
        </g>
        <g>
          <path d="M717.43,148.29c-.87,0-1.74-.34-2.39-1.02l-10.41-10.89c-1.26-1.32-1.22-3.42,.11-4.68,1.32-1.26,3.42-1.22,4.68,.11l10.41,10.89c1.26,1.32,1.22,3.42-.11,4.68-.64,.61-1.46,.92-2.29,.92Z"/>
          <path d="M753.86,186.4c-.87,0-1.74-.34-2.39-1.02l-10.41-10.89c-1.26-1.32-1.22-3.42,.11-4.68,1.32-1.26,3.42-1.22,4.68,.11l10.41,10.89c1.26,1.32,1.22,3.42-.11,4.68-.64,.61-1.46,.92-2.29,.92Z"/>
          <path d="M743.65,148.88c-.86,0-1.71-.33-2.36-.99-1.28-1.3-1.27-3.4,.03-4.68l10.57-10.42c1.31-1.28,3.4-1.27,4.68,.03,1.28,1.3,1.27,3.4-.03,4.68l-10.57,10.42c-.65,.64-1.48,.95-2.33,.95Z"/>
          <path d="M706.67,185.35c-.86,0-1.71-.33-2.36-.99-1.28-1.3-1.27-3.4,.03-4.68l10.57-10.42c1.3-1.28,3.4-1.27,4.68,.03,1.28,1.3,1.27,3.4-.03,4.68l-10.57,10.42c-.65,.64-1.48,.95-2.33,.95Z"/>
        </g>
        <path d="M891.63,127.39c-9.49,0-17.21-7.73-17.21-17.22s7.72-17.22,17.21-17.22,17.21,7.73,17.21,17.22-7.72,17.22-17.21,17.22Zm0-27.83c-5.84,0-10.59,4.76-10.59,10.6s4.75,10.6,10.59,10.6,10.59-4.76,10.59-10.6-4.75-10.6-10.59-10.6Z"/>
      </g>
      <g>
        <path d="M1720.02,786.72c-1.21,0-2.38-.67-2.96-1.83-.82-1.63-.16-3.62,1.48-4.44l15.56-7.79c1.64-.82,3.62-.16,4.44,1.48,.82,1.63,.16,3.62-1.48,4.44l-15.56,7.79c-.48,.24-.98,.35-1.48,.35Z"/>
        <path d="M1683.77,804.87c-1.21,0-2.38-.67-2.96-1.83-.82-1.63-.16-3.62,1.48-4.44l15.56-7.79c1.64-.82,3.62-.16,4.44,1.48,.82,1.63,.16,3.62-1.48,4.44l-15.56,7.79c-.48,.24-.98,.35-1.48,.35Z"/>
        <path d="M1704.5,781.54c-1.21,0-2.38-.67-2.96-1.83l-7.79-15.57c-.82-1.64-.16-3.62,1.48-4.44,1.64-.82,3.62-.16,4.44,1.48l7.79,15.57c.82,1.64,.16,3.62-1.48,4.44-.48,.24-.98,.35-1.48,.35Z"/>
        <path d="M1722.64,817.83c-1.21,0-2.38-.67-2.96-1.83l-7.79-15.57c-.82-1.64-.16-3.62,1.48-4.44,1.64-.81,3.62-.15,4.44,1.48l7.79,15.57c.82,1.64,.16,3.62-1.48,4.44-.48,.24-.98,.35-1.48,.35Z"/>
      </g>
      <g>
        <g>
          <path d="M993.04,1788.32c-.58,0-1.17-.15-1.71-.48l-12.2-7.36c-1.57-.94-2.07-2.98-1.12-4.54,.94-1.57,2.98-2.07,4.54-1.12l12.2,7.36c1.57,.94,2.07,2.98,1.12,4.54-.62,1.03-1.72,1.6-2.84,1.6Z"/>
          <path d="M1035.75,1814.07c-.58,0-1.17-.15-1.71-.48l-12.2-7.36c-1.57-.94-2.07-2.98-1.12-4.54,.94-1.57,2.98-2.07,4.54-1.12l12.2,7.36c1.57,.94,2.07,2.98,1.12,4.54-.62,1.03-1.72,1.6-2.84,1.6Z"/>
          <path d="M991.91,1825.08c-.58,0-1.16-.15-1.69-.46-1.57-.93-2.09-2.96-1.16-4.54l7.28-12.25c.94-1.57,2.97-2.09,4.54-1.16s2.09,2.96,1.16,4.54l-7.28,12.25c-.62,1.04-1.72,1.62-2.85,1.62Z"/>
          <path d="M1017.4,1782.2c-.58,0-1.16-.15-1.69-.47-1.57-.93-2.09-2.96-1.16-4.54l7.28-12.25c.94-1.57,2.97-2.09,4.54-1.16,1.57,.93,2.09,2.96,1.16,4.54l-7.28,12.25c-.62,1.04-1.72,1.62-2.85,1.62Z"/>
        </g>
        <path class="cls-1" d="M878.26,1842.65c-14.26,0-25.86-11.61-25.86-25.88s11.6-25.88,25.86-25.88,25.86,11.61,25.86,25.88-11.6,25.88-25.86,25.88Zm0-45.14c-10.61,0-19.24,8.64-19.24,19.26s8.63,19.26,19.24,19.26,19.24-8.64,19.24-19.26-8.63-19.26-19.24-19.26Z"/>
        <path class="cls-1" d="M791.53,1827.37c-.08,0-.16,0-.24,0-18.26-1.31-58.44-5.81-77.31-8.44-73.4-10.21-230.83-52.91-297.91-90.98-1.59-.9-2.15-2.92-1.25-4.51,.91-1.59,2.93-2.15,4.51-1.25,66.45,37.7,222.67,80.04,295.56,90.18,18.77,2.61,58.72,7.09,76.87,8.39,1.82,.13,3.2,1.72,3.06,3.54-.12,1.74-1.58,3.07-3.3,3.07Z"/>
      </g>
      <g>
        <path d="M262.21,553.77s-.1,0-.15,0l-17.38-.76c-1.83-.08-3.24-1.62-3.16-3.45,.08-1.83,1.64-3.24,3.45-3.16l17.38,.76c1.83,.08,3.24,1.62,3.16,3.45-.08,1.78-1.54,3.17-3.31,3.17Z"/>
        <path d="M221.72,552s-.1,0-.15,0l-17.39-.76c-1.83-.08-3.24-1.62-3.16-3.45,.08-1.83,1.63-3.25,3.45-3.16l17.39,.76c1.83,.08,3.24,1.62,3.16,3.45-.08,1.78-1.54,3.17-3.31,3.17Z"/>
        <path d="M233.78,540.94s-.1,0-.15,0c-1.83-.08-3.24-1.62-3.16-3.45l.76-17.4c.08-1.83,1.61-3.24,3.45-3.16,1.83,.08,3.24,1.62,3.16,3.45l-.76,17.4c-.08,1.78-1.54,3.17-3.31,3.17Z"/>
        <path d="M232.01,581.47s-.1,0-.15,0c-1.83-.08-3.24-1.62-3.16-3.45l.76-17.4c.08-1.83,1.64-3.25,3.45-3.16,1.83,.08,3.24,1.62,3.16,3.45l-.76,17.4c-.08,1.78-1.54,3.17-3.31,3.17Z"/>
      </g>
    </g>
  </g>
</svg>