<?xml version="1.0" encoding="UTF-8"?>
<svg id="Layer_1" data-name="Layer 1" xmlns="http://www.w3.org/2000/svg" xmlns:xlink="http://www.w3.org/1999/xlink" viewBox="0 0 3184 1632">
  <defs>
    <style>
      .cls-1 {
        fill: none;
      }

      .cls-2 {
        clip-path: url(#clippath);
      }

      .cls-3 {
        fill: #f7f1f0;
      }

      .cls-4 {
        fill: #f0e0d5;
      }

      .cls-5 {
        fill: #e7d0ca;
      }

      .cls-6 {
        fill: #eb764b;
      }

      .cls-7 {
        fill: #eb7a42;
      }

      .cls-8 {
        fill: #e3c3ba;
      }

      .cls-9 {
        fill: #f5edeb;
      }

      .cls-10 {
        fill: #fff;
      }

      .cls-11 {
        fill: #f96;
      }

      .cls-12 {
        fill: #873d36;
      }

      .cls-13 {
        fill: #331332;
      }

      .cls-14 {
        fill: #315448;
      }

      .cls-15 {
        fill: #a6534c;
      }

      .cls-16 {
        fill: #c13818;
      }

      .cls-17 {
        fill: #ab774d;
      }

      .cls-18 {
        fill: #a86327;
      }

      .cls-19 {
        fill: #be997e;
      }

      .cls-20 {
        fill: #cc9b8f;
      }

      .cls-21 {
        fill: #d19b6f;
      }

      .cls-22 {
        fill: #c48f82;
      }

      .cls-23 {
        fill: #11262e;
      }

      .cls-24 {
        fill: #592b13;
      }

      .cls-25 {
        fill: #3a3a3a;
      }

      .cls-26 {
        fill: #3b2013;
      }

      .cls-27 {
        fill: #4a2248;
      }

      .cls-28 {
        fill: #4e8572;
      }

      .cls-29 {
        clip-path: url(#clippath-1);
      }
    </style>
    <clipPath id="clippath">
      <path class="cls-1" d="M2040.86,1234.01c-2.26-12.56-5.3-25.01-8.34-37.42-.54-2.21-1.14-4.52-2.72-6.15-1.96-2.03-4.99-2.55-7.8-2.78-9.95-.83-32.05,.03-39.15,8.67-3.32,4.04-1.39,12.23-1.3,17.2,.12,7.23,.06,14.56-2.13,21.53-3.4,10.8-11.47,19.5-20.16,26.75-8.7,7.25-18.27,13.49-26.26,21.52-5.06,5.09-9.66,11.6-9.13,18.75,.52,6.92,5.97,12.78,12.42,15.34,6.45,2.56,13.69,2.31,20.51,1.03,19.97-3.74,37.38-15.59,56.45-22.6,10.92-4.01,23.74-7.52,28.76-18.01,2.49-5.21,2.49-11.23,2.16-16.99-.52-9.02-1.72-17.95-3.31-26.84Z"/>
    </clipPath>
    <clipPath id="clippath-1">
      <path class="cls-1" d="M2176.94,1168.49c-1.06-2.01-2.21-4.11-4.13-5.31-2.4-1.49-5.46-1.26-8.24-.8-9.85,1.62-35.21,15.72-39.99,25.83-2.24,4.73,1.63,12.2,2.92,17,1.88,6.99,3.6,14.11,3.17,21.4-.67,11.3-6.38,21.71-13.05,30.86-6.67,9.15-14.44,17.53-20.23,27.26-3.67,6.17-6.55,13.6-4.29,20.41,2.18,6.59,8.91,10.94,15.78,11.86,6.88,.92,13.84-1.09,20.14-3.99,18.46-8.49,32.46-24.22,49.26-35.65,9.62-6.55,21.2-13.07,23.51-24.47,1.15-5.66-.32-11.5-2.04-17.01-2.7-8.62-16.85-56.09-22.81-67.38Z"/>
    </clipPath>
  </defs>
  <path class="cls-3" d="M3072.86,788.13c-24.46-41.01-54.99-81.19-77.81-122.06-40.43-72.41-58.14-154.18-102.21-224.83-57.75-92.58-161.01-160.92-276.06-182.72-82.49-15.62-168.32-8.23-251.65-19.66-92.46-12.69-178.42-48.15-260.17-87.83-71.49-34.69-149.61-54.83-232.58-57.3-53.49-1.59-106.93,3.84-159.69,11.37-110.7,15.8-219.93,42.65-332.38,46.68-124.95,4.47-250.46-20.83-374.57-7-112.48,12.54-220.18,58.02-303.01,127.96-100.24,84.64-161.28,200.26-251.39,293.74-65.33,67.77-146.5,124.58-195.14,202.99-76.45,123.23-86.46,361.7-59.45,500.87,8.86,45.65,46.9,5.96,75.32,44.53,47.28,64.16,135.36,92.68,219.37,105.83,240.63,37.66,486.92-17.55,730.97-9.49,190.27,6.29,376.42,50.94,565.84,68.36,292.48,26.9,588.21-11.64,873.6-75.45,102.61-22.94,213.3-54.89,270.75-135.12,33.01-46.1,43.65-102.36,71.11-151.34,34.19-61,94.68-111.6,107.89-178.94,10.4-53-9.98-102.37-38.74-150.59Z"/>
  <g>
    <path class="cls-21" d="M3081.47,1130.09c-3.4,91.86,12.91,180.28,12.91,180.28-149.07,150.59-269.97,242.99-1411.34,231.1-575.14-5.99-943.42,5.99-1051.58-2.19-256.02-19.37-298.5-80.46-412.71-220.45-9.49-11.65-16.75-28.22-22.01-48.5,35.06-12.07,80.94-23.96,136.71-30.07,140.08-15.36,2119.7,29.28,2258.29,12.92,113.54-13.38,382.64-91.35,489.73-123.1Z"/>
    <g>
      <path class="cls-17" d="M1589.89,1430.71H601.38c-1.68,0-3.04-1.36-3.04-3.04s1.36-3.04,3.04-3.04h988.51c1.68,0,3.04,1.36,3.04,3.04s-1.36,3.04-3.04,3.04Z"/>
      <path class="cls-17" d="M972.71,1418.54c-.6,0-1.2-.18-1.73-.54-1.38-.96-1.72-2.85-.77-4.23l60.41-87.17c.96-1.38,2.85-1.72,4.23-.77,1.38,.96,1.72,2.85,.77,4.23l-60.41,87.17c-.59,.85-1.54,1.31-2.5,1.31Z"/>
      <path class="cls-17" d="M1139.57,1522.2c-.5,0-1.01-.12-1.48-.38-1.47-.82-1.99-2.67-1.18-4.14l43.06-77.31c.82-1.47,2.67-1.99,4.14-1.18,1.47,.82,1.99,2.67,1.18,4.14l-43.06,77.31c-.56,1-1.59,1.56-2.66,1.56Z"/>
      <path class="cls-17" d="M1531.8,1403.46c-.5,0-1-.12-1.47-.38-1.47-.81-2-2.66-1.18-4.13l39.99-72.08c.82-1.47,2.67-2,4.13-1.18,1.47,.81,2,2.66,1.18,4.13l-39.99,72.08c-.56,1-1.59,1.57-2.66,1.57Z"/>
      <path class="cls-17" d="M2598.58,1430.71h-956.61c-1.68,0-3.04-1.36-3.04-3.04s1.36-3.04,3.04-3.04h956.61c1.68,0,3.04,1.36,3.04,3.04s-1.36,3.04-3.04,3.04Z"/>
      <path class="cls-17" d="M1871.59,1522.2c-.36,0-.73-.06-1.08-.2-1.57-.6-2.36-2.35-1.76-3.92l29.42-77.31c.6-1.57,2.36-2.36,3.92-1.76,1.57,.6,2.36,2.35,1.76,3.92l-29.42,77.31c-.46,1.21-1.62,1.96-2.84,1.96Z"/>
      <path class="cls-17" d="M2210.89,1410.56c-1.68,0-3.04-1.36-3.04-3.04v-72.08c0-1.68,1.36-3.04,3.04-3.04s3.04,1.36,3.04,3.04v72.08c0,1.68-1.36,3.04-3.04,3.04Z"/>
      <path class="cls-17" d="M539.55,1461.11c-.64,0-1.28-.2-1.83-.62-1.34-1.01-1.6-2.92-.59-4.26l70.95-93.69c1.01-1.34,2.92-1.61,4.26-.59,1.34,1.01,1.6,2.92,.59,4.26l-70.95,93.69c-.6,.79-1.51,1.21-2.43,1.21Z"/>
      <path class="cls-17" d="M2652.9,1473.27c-1.17,0-2.28-.68-2.79-1.81l-48.3-109.46c-.68-1.54,.02-3.33,1.56-4.01,1.54-.67,3.33,.02,4.01,1.56l48.3,109.46c.68,1.54-.02,3.33-1.56,4.01-.4,.18-.81,.26-1.22,.26Z"/>
      <path class="cls-17" d="M2823.68,1432.08c-45.88,0-106.95-.64-162.15-1.38-1.68-.02-3.02-1.4-3-3.08,.02-1.66,1.38-3,3.04-3h.04c88.25,1.18,222.04,2.22,230.69,.26,1.32-.58,2.92-.15,3.75,1.1,.93,1.4,.56,3.28-.84,4.22-2.08,1.38-30.83,1.89-71.53,1.89Zm68.16-6.95s0,0,0,0c0,0,0,0,0,0Z"/>
    </g>
  </g>
  <path class="cls-8" d="M2483.83,700.45h2.09c52.32,0,94.79,42.48,94.79,94.79v417.3c0,56.05-45.51,101.55-101.55,101.55h-90.12V795.24c0-52.32,42.48-94.79,94.79-94.79Z"/>
  <path class="cls-8" d="M561.28,700.45h90.12c56.05,0,101.56,45.51,101.56,101.56v417.3c0,52.32-42.48,94.79-94.79,94.79h-2.09c-52.32,0-94.79-42.48-94.79-94.79V700.45h0Z" transform="translate(1314.24 2014.54) rotate(180)"/>
  <g>
    <rect class="cls-24" x="2828.98" y="656.11" width="15.2" height="100.45" transform="translate(21.74 1494.86) rotate(-29.63)"/>
    <path class="cls-24" d="M2628.15,745.06c-6.08-6.84,28.13-144.18,38.01-147.42,9.88-3.25,164.18-3.75,173.69,2.58,9.51,6.33-19.08,140.53-28.73,144.84s-176.89,6.84-182.97,0Z"/>
    <path class="cls-10" d="M2813.07,654.75c-2.71,12.38-5.9,26.21-8.94,38.22-.91,3.62-1.79,7.08-2.65,10.28v.03c-3.19,11.8-5.87,20.07-7.15,20.28-1.52,.24-17.21,.76-37.7,1.19-2.13,.03-4.32,.09-6.57,.12-7.51,.15-15.51,.27-23.57,.36h-.03c-.76,.03-1.52,.03-2.28,.03-11.16,.12-22.38,.18-32.6,.18-1.22,0-2.43,0-3.62-.03-20.34-.09-35.97-.61-37.7-1.85-2.49-1.79,2.16-24.93,8.36-49.14v-.03c2.8-10.67,5.84-21.56,8.73-30.89v-.03c2.49-8.06,4.86-14.9,6.78-19.46,1.49-3.53,2.71-5.69,3.5-5.9,5.72-1.52,140.63,1.52,142.15,1.55,.61,0-2.46,15.81-6.72,35.09Z"/>
    <path class="cls-8" d="M2699.17,698.32c-.43,1.58-.88,3.04-1.31,4.35-.3,1.03-.64,2.04-.73,3.1-.09,.88,.03,1.76,.06,2.65,.27,6.05-2.68,11.68-5.59,17.03-1.22,0-2.43,0-3.62-.03-20.34-.09-35.97-.61-37.7-1.85-2.49-1.79,2.16-24.93,8.36-49.14v-.03c1.73-1.76,3.56-3.44,5.44-4.99,4.2-3.44,9.24-6.45,14.66-6.05,1.95,.15,3.86,.73,5.81,1.03,1.49,.24,3.04,.3,4.53,.58,.43,.09,.85,.21,1.28,.3,13.9,3.77,11.98,21.25,8.82,33.05Z"/>
    <path class="cls-15" d="M2801.82,696.22c-.03,2.34-.12,4.68-.33,7.02v.03c-3.19,11.8-5.87,20.07-7.15,20.28-1.52,.24-17.21,.76-37.7,1.19-2.13,.03-4.32,.09-6.57,.12,1.37-6.69,2.89-13.32,4.56-19.92,.46-1.82,.94-3.65,1.43-5.47,1.98-7.21,4.2-14.35,7.08-21.25,1.31-3.07,2.77-6.17,5.2-8.45,2.31-2.19,5.05-2.37,8.03-2.77,3.28-.43,6.78-2.07,10.06-.88,1.76,.61,3.22,1.92,4.59,3.19,1.19,1.09,2.37,2.19,3.44,3.38,.76,.76,1.43,1.58,2.07,2.46,1.13,1.55,2.04,3.22,2.77,4.99,1.61,3.92,2.28,8.24,2.46,12.56,.06,1.19,.06,2.37,.06,3.53Z"/>
    <path class="cls-28" d="M2756.64,724.74c-2.13,.03-4.32,.09-6.57,.12-7.51,.15-15.51,.27-23.57,.36h-.03c-.76,.03-1.52,.03-2.28,.03-.58-5.14,.61-11.74,3.28-17.54,3.74-8.21,10.43-14.87,19.22-13.74,.97,.12,1.98,.36,3.01,.7,2.58,.82,4.74,2.61,6.36,4.8,1.79,2.46,2.92,5.5,3.28,8.51,.67,5.66-.85,11.34-2.71,16.75Z"/>
    <g>
      <path class="cls-11" d="M2757.88,673.41c-2.34-3.95-7.51-5.06-11.37-2.71-2.53,1.54-4.29,4.23-5.31,7.28-.78,1.84-1.13,3.79-1,5.69-.07,2.74,.41,5.42,1.52,7.55,2.9,5.52,10.08,4.13,12.75-.19,2.18-2,3.73-5.06,4.3-7.97,.63-3.25,.87-6.68-.89-9.65Z"/>
      <path class="cls-18" d="M2766.92,672.47c-1.21-4.27-7.44-7.08-10.91-9.31-2.34-1.51-5.25-2.59-7.88-1.69-1.52,.52-2.75,1.63-3.88,2.76-3.02,3.03-5.66,6.44-7.83,10.13-1.23,2.09-2.34,4.39-2.23,6.81,.11,2.42,1.84,4.92,4.26,5.1,2.31,.17,4.28-1.75,5.3-3.83,1.02-2.08,1.43-4.42,2.53-6.46,.28-.51,.62-1.02,1.13-1.3,.76-.41,1.7-.2,2.5,.11,3.3,1.32,5.73,4.57,6.07,8.1,.17,1.8-.16,3.62-.03,5.43,.14,1.81,.9,3.75,2.54,4.51,1.77,.82,3.96-.06,5.21-1.56,1.25-1.5,1.76-3.47,2.16-5.37,.52-2.44,.92-4.9,1.21-7.38,.23-2,.39-4.05-.16-6.05Z"/>
    </g>
    <g>
      <path class="cls-11" d="M2799.27,645.16c-3.22-5.94-11.12-6.32-15.83-2.16-.22,.2-.42,.46-.64,.68-.06,.07-.13,.13-.19,.2-2.68,2.84-4.64,7.26-4.86,11.49-.44,3.45,.37,7.04,2.98,9.52,4.23,4.02,10.38,3.49,14.56-.25,2.45-2.19,3.96-5.45,4.78-8.59,.96-3.68,1.04-7.48-.81-10.89Z"/>
      <path class="cls-24" d="M2813.07,654.75c-2.71,12.38-5.9,26.21-8.94,38.22-.82-.03-1.61-.12-2.37-.27-1.52-.3-2.92-.88-4.17-1.82-3.83-2.89-4.83-8.3-4.23-13.04,.21-1.73,.64-3.44,1.09-5.14,.79-2.92,1.79-5.81,2.37-8.79,.3-1.58,.49-3.25-.18-4.71-.55-1.09-1.49-1.92-2.43-2.71-1.7-1.43-3.41-2.86-5.08-4.29-1.25-1.03-2.49-2.07-4.01-2.61-1.67-.61-3.53-.55-5.2-1.16-4.01-1.49-5.63-6.78-4.04-10.73,1.55-3.95,5.5-6.54,9.64-7.66,6.57-1.79,13.99-.18,19.25,4.14,5.56,4.59,6.63,12.38,8.03,19.03,.09,.52,.21,1.03,.27,1.55Z"/>
    </g>
    <g>
      <path class="cls-11" d="M2697.95,636.44c-1.51-4.29-4.71-7.72-9.91-7.7-11.86,.03-19.62,18.06-13.2,27.38,.91,2.66,2.88,4.81,6.19,6.09,.13,.06,.26,.1,.39,.16,.25,.09,.46,.21,.73,.29,.23,.07,.44,.06,.67,.12,.38,.09,.75,.17,1.14,.2,6.82,.97,12.3-4.08,15.05-10.14,2.23-4.92,2.49-12.45-1.05-16.4Z"/>
      <path class="cls-18" d="M2707.08,634.13c-1.37,3.74-4.71,5.84-8.7,4.96-3.77-.88-7.72-2.52-11.46-1.25-.82,.3-1.64,.61-2.43,.91-.18,.43-.36,.85-.55,1.19-1.55,3.34-3.65,5.87-6.78,7.91-4.14,2.71-8.54-.3-9.79-4.35v-.03c2.49-8.06,4.86-14.9,6.78-19.46,4.96-3.86,12.35-5.29,18.18-4.59,8.33,.12,18.55,4.53,14.75,14.72Z"/>
    </g>
    <path class="cls-27" d="M2728.39,717.44c-.12,2.71-.55,5.5-1.88,7.78h-.03c-.76,.03-1.52,.03-2.28,.03-11.16,.12-22.38,.18-32.6,.18-1.22,0-2.43,0-3.62-.03-.03-.82,.18-1.67,.43-2.43,1.58-5.72,3.19-11.43,5.66-16.81,1.28-2.86,2.89-5.69,5.11-7.84,.61-.64,1.28-1.22,1.98-1.7,3.07-2.16,6.96-3.01,10.7-2.71,5.05,.4,10.03,2.13,12.77,6.66,.61,1.03,1.13,2.07,1.58,3.13,.55,1.31,.97,2.65,1.28,4.01,.79,3.16,1.03,6.51,.91,9.73Z"/>
    <g>
      <path class="cls-11" d="M2726.44,675.56c-1.8-5.57-7.87-8.78-13.39-6.45-3.09,1.3-5.46,3.69-7.1,6.61-3.37,6.01-2.91,16.42,5.3,18.25,5.34,1.19,9.61-1.48,11.79-5.51,3.01-3.65,4.85-8.42,3.4-12.9Z"/>
      <path class="cls-24" d="M2727.9,666.94c-2.28-2.62-5.27-4.67-8.45-6.13-.71-.33-1.44-.63-2.21-.74-1.09-.15-2.18,.1-3.26,.28-2.34,.41-4.76,.56-6.92,1.53-5.66,2.53-5.38,11.96,1.49,12.5,2.31,.18,4.53-.95,6.85-1.03,2.36-.08,4.74,1.02,6.21,2.88,1.26,1.6,1.99,3.78,3.82,4.67,2.16,1.04,4.91-.48,5.85-2.69,.93-2.21,.42-4.79-.58-6.97-.72-1.57-1.67-3-2.8-4.29Z"/>
    </g>
  </g>
  <path class="cls-8" d="M2404.14,840.38v64.07H737.86v-64.07c0-28.07,2.52-55.52,7.33-82.19,.09-.55,.18-1.09,.3-1.64,39.41-213.97-7.63-396.19,452.27-376.07h746.45c407.75,5.02,452.24,40.59,452.54,313.03v2.71c0,17.88-3.25,43.66,0,61.54,4.86,26.82,7.39,54.43,7.39,82.61Z"/>
  <rect class="cls-8" x="752.96" y="853.15" width="1636.08" height="460.95"/>
  <path class="cls-24" d="M2231.99,362.14c2.34-7.01,5.35-13.56,6.27-20.99,1.52-12.36-2.89-24.61-9.94-34.62-10.9-15.48-17.25-28.84-18.99-47.72-1.18-12.33-2.55-25.1-9.07-35.95-9.69-16.14-32.61-28.28-51.84-23.75-25.2-9.24-49.01-15.1-76.07-9.48-14.15,2.94-25.78,12.72-33.7,24.49-4.02,5.97-7.07,11.87-12.06,17.21-11.17,11.95-22.03,24.24-27.4,40.04-8.75,25.55,4.03,47.56,2.33,73.02-1.75,26.12-21.18,50.64-14.43,77.25,3.64,14.33,15.74,20.45,11.51,37.4-2.6,10.46-8.02,18.14-7.36,29.45,.82,14.86,9.61,25.99,25.16,21.99,25.49-6.51,41.67-29.62,69-30.67,22.92-.89,41.56-10.89,60.22-23.73,15.04-10.39,25.51-16.09,43.49-18.7,.19-.05,.31-.04,.46-.05,1.01,1.12,2.85,1.7,4.3,1.15,20.96-8.16,40.83-21.69,37.41-46.47-1.58-11.27-3-18.77,.71-29.84Z"/>
  <path class="cls-28" d="M1688.19,1083.07c3.89-3.06,10.65-2.79,15.25-3.4,8.61-1.14,17.29-1.48,25.9-2.66,.5-.07,1.07-.04,1.62,.09,.44-.06,.92,.02,1.39,.34,7.12,4.9,7,13.71,8.26,21.52,2.18,13.48,7.26,26.62,7.77,40.34,.65,17.4-8.79,31.23-27.8,27.06-9.05-1.99-14.11-7.29-16.92-16.01-4.76-14.74-11.13-28.93-15.82-43.72-2-6.3-6.18-18.43,.34-23.56Z"/>
  <path class="cls-18" d="M1830.74,356.68c-1.71-3.1-3.45-6.17-5.13-9.28-7-12.98-11.35-27.75-21.84-38.56-8.24-8.49-19.48-13.27-30.4-17.83-9.34-3.9-18.91-7.86-29.02-8.43-13.61-.76-27.13,4.88-37.44,13.81-2.86,2.48-5.56,5.24-8.92,6.99-3.86,2.02-8.35,2.57-12.24,4.52-10.22,5.1-13.5,17.7-18.53,27.96-6.31,12.87-16.88,23.97-19.53,38.06-1.81,9.63,.5,19.96,6.25,27.9,2.2,3.04,4.88,5.74,6.87,8.93,1.73,2.77,2.9,5.84,4.32,8.78,7.23,14.97,26.85,33.61,43.33,31.42,8.99-1.2,13.22-2.34,21.6-.09,9.8,2.64,19.94,3.85,30.06,4.25,9.68,.38,14.69,4.66,23.98,1.92,9.29-2.73,22.9-12.66,28.48-20.58,1.48-2.09,2.73-4.36,4.5-6.21,2.23-2.32,5.16-3.84,7.8-5.69,10.69-7.49,16.51-20.77,16.68-33.83,.16-12.95-4.97-23.43-10.82-34.04Z"/>
  <path class="cls-10" d="M1136.23,1274.63s-6.8,23.2-4.54,26.81c2.26,3.61,21.24,10.84,27.56,19.43,6.33,8.59-20.33,28.47-20.33,30.27s-20.33,18.07-20.33,18.07c0,0-52.41-.45-65.52-6.78-13.1-6.33-5.42-46.99,2.26-64.16,7.68-17.17,11.75-39.31,11.75-39.31l69.15,15.66Z"/>
  <path class="cls-27" d="M1206.13,1372.04c4.07-9.15-9.83-44.05-35.58-57.95-25.75-13.89-27.05-9.61-35.09-9.67-7.09-.05-21.17,6.28-32.35,21.87-9.94,13.85-13.45,30.79-17.28,32.53-7.46,3.39-38.88-8.13-45.65-4.07-6.78,4.07-6.44,15.25,2.71,18.3,9.15,3.05,62.6,11.86,105.64,13.56,43.04,1.69,53.54-5.42,57.61-14.57Z"/>
  <path class="cls-10" d="M958.81,1285.48s-4.72,17.08-2.22,20.53c2.5,3.45,21.93,9.37,28.83,17.5,6.9,8.13-18.34,29.79-18.21,31.59,.12,1.8-19.05,19.42-19.05,19.42,0,0-52.32,3.13-65.83-2.28-13.5-5.41-8.62-46.51-2.13-64.16,6.49-17.65,9.03-40.02,9.03-40.02l69.58,17.42Z"/>
  <g>
    <path class="cls-22" d="M2357.8,839.86c26.96,16.95,19.1,112.33,1.67,118.41-17.43,6.08-385.2,13.08-385.2,13.08,0,0-207.38,10.26-308.75,9.88-135.57-.51-387.68,0-516.81,0-82.12,0-178.78-9.18-266.16-9.18-70.7,0-84.66-6.6-103.88-8.22-18.69-1.57-24.67-36.42-10.3-100.77,6.51-29.17,61.72-53.11,226.22-53.5,266.19-.63,338.07,17.48,699.6,3.29,85.88-3.37,209.91,3.92,302.34,5.82,86.9,1.78,316.92-6.68,361.27,21.2Z"/>
    <path class="cls-20" d="M724.45,893.55c-1.68,0-3.04-1.36-3.04-3.04v-44.85c0-48.29-6.73-104.88-59.22-113.95-32.04-5.53-63.34,22.86-63.66,23.15-1.24,1.14-3.16,1.06-4.3-.18-1.14-1.24-1.06-3.16,.17-4.3,1.36-1.26,33.79-30.75,68.82-24.67,56.96,9.84,64.26,69.27,64.26,119.94v44.85c0,1.68-1.36,3.04-3.04,3.04Z"/>
    <path class="cls-20" d="M2411.1,972.89c-1.6,0-2.94-1.25-3.03-2.86-.02-.36-2.14-36.59-2.9-81.55-.04-2.43-.1-5.04-.16-7.82-.86-37.23-2.29-99.53,29.68-131.78,13.4-13.52,31.32-20.18,53.62-19.9,51.94,.74,66,50.72,69.07,66.02,5.33,26.54,2.54,138.97,2.42,143.75-.04,1.65-1.4,2.96-3.04,2.96h-.08c-1.68-.04-3.01-1.44-2.96-3.12,.03-1.16,2.89-116.52-2.3-142.4-3.65-18.16-17.1-60.48-63.2-61.13-.46,0-.93,0-1.39,0-19.82,0-35.91,6.09-47.82,18.11-30.15,30.41-28.75,91.1-27.92,127.36,.07,2.79,.12,5.43,.17,7.86,.75,44.83,2.87,80.93,2.89,81.29,.1,1.68-1.18,3.12-2.85,3.22-.06,0-.12,0-.18,0Z"/>
    <path class="cls-20" d="M2345.45,1082.95h-.05c-3.74-.06-374.1-5.42-399.76-5.07l-9.48,.13c-249.45,3.57-430.51,5.3-509.85,4.88-130.27-.7-639.53-9.93-644.66-10.02-1.68-.03-3.02-1.42-2.99-3.1,.03-1.68,1.42-3.01,3.1-2.98,5.13,.1,514.34,9.32,644.58,10.02,79.29,.42,260.32-1.3,509.73-4.87l9.49-.14c25.78-.35,396.19,5.02,399.93,5.07,1.68,.02,3.02,1.4,3,3.09-.02,1.66-1.38,3-3.04,3Z"/>
    <path class="cls-20" d="M753.36,879.87c-.08,0-.15,0-.23,0-1.67-.12-2.93-1.58-2.81-3.26,.01-.2,1.47-20.35,0-50.56-1.46-29.96-7-47.87-7.05-48.04-.5-1.6,.39-3.31,1.99-3.81,1.6-.52,3.31,.38,3.81,1.98,.24,.75,5.82,18.75,7.33,49.57,1.49,30.61,.01,51.1,0,51.3-.12,1.6-1.45,2.82-3.03,2.82Z"/>
    <path class="cls-20" d="M2380.84,861.19c-1.59,0-2.93-1.24-3.03-2.84-.03-.48-.76-12.14,0-35.19,.76-23.03,3.91-50.78,3.94-51.06,.19-1.67,1.72-2.9,3.36-2.68,1.67,.19,2.87,1.7,2.68,3.36-.03,.28-3.16,27.79-3.9,50.57-.74,22.71-.01,34.48,0,34.6,.11,1.67-1.16,3.12-2.84,3.23-.07,0-.13,0-.2,0Z"/>
  </g>
  <path class="cls-25" d="M808.55,779.11s-23.34,80.01,31.4,118.53c54.73,38.52,163.18,24.33,194.6,27.37,31.42,3.04,36.01,2.08,59.19-10.08,23.18-12.16,41.56-33.45,41.56-64.87v-77.13s-127.76-13.13-142.63-11.1c-14.88,2.03-155.18,6.89-166.62,10.03s-17.5,7.25-17.5,7.25Z"/>
  <path class="cls-25" d="M976.36,1275.25c.31-1.44,.54-2.89,.7-4.34,1.02-8.94-.21-17.96-.75-26.94-2.21-36.6,7.02-72.79,11.53-109.17,4.22-34.03,4.33-68.46,8.23-102.52,4.01-35.01,12.04-69.77,11.19-104.99-.86-35.23-5.78-82.05-33.33-104.02-23.98-19.12-64.74-18-94.91-12.44-27.79,5.12-39.16,31.27-43.89,56.62-6.73,36.09-3.86,73.16-2.35,109.84,2.66,64.42,1.15,129.6,15.3,192.51,5.13,22.82,12.34,45.51,12.3,68.9-.02,11.81-1.8,24.18,2.96,34.99,6.61,15,23.77,22.27,39.88,25.3,13.93,2.62,28.26,3.15,42.35,1.55,6.88-.78,13.97-2.17,19.56-6.26,6.09-4.44,9.63-11.57,11.21-19.02Z"/>
  <path class="cls-25" d="M1043.48,1265.15c-.14-1.47-.21-2.94-.21-4.39-.01-9,2.22-17.82,3.76-26.69,6.29-36.12,1.17-73.12,.76-109.78-.39-34.29,3.36-68.51,3.29-102.8-.07-35.24-4.16-70.68,.63-105.59,4.79-34.91,14.92-80.89,44.76-99.64,25.96-16.32,50.51-9.63,79.87-.73,27.04,8.2,36.91,35.24,38.77,60.96,2.65,36.61-1.24,84.44-6.85,120.72-9.85,63.72-11.59,115.43-32.68,176.36-7.65,22.1-10.17,44.97-12.75,68.21-1.3,11.74-.92,24.23-6.86,34.44-8.25,14.17-26.11,19.47-42.46,20.68-14.14,1.05-28.43-.03-42.25-3.2-6.75-1.55-13.64-3.72-18.74-8.41-5.56-5.1-8.27-12.57-9.02-20.15Z"/>
  <path class="cls-27" d="M1012.89,1375.43c3.43-9.41-1.14-47.35-27.78-59.45-26.64-12.1-27.65-7.74-35.67-7.24-7.08,.44-20.69,7.71-30.78,24.03-8.97,14.5-11.31,31.64-15.01,33.64-7.21,3.89-34.32-5.12-40.8-.6-6.48,4.52-5.38,15.65,3.96,18.07,9.34,2.42,58.24,7.22,101.29,5.96,43.05-1.25,41.37-5,44.8-14.41Z"/>
  <path class="cls-11" d="M1691.22,355.72s-1.65,32.04,4.53,58.71c6.18,26.67,27.65,42.94,48.58,46.76,13.96,2.55,37.55-10.26,47.29-30.91,5.72-12.14,7.73-19.47,6.32-49.08-1.37-28.7-4.29-50.06-4.29-50.06,0,0-74.92-5.89-76.03-5.95-1.11-.06-8.85-1.58-14.95,6.24-6.11,7.83-11.44,24.29-11.44,24.29Z"/>
  <path class="cls-11" d="M2042.1,267.95s4.17,47.36,14.27,80.67c10.1,33.31,34.92,47.81,52.94,48.83,18.01,1.03,48.08-12.64,58.68-39.66,6.23-15.88,13.75-44.88,7.5-72.58-6.24-27.7-15.9-51.54-15.9-51.54,0,0-85.18-6.71-86.6-6.69-1.42,.02-11.36-1.26-18.44,9.19s-12.46,31.78-12.46,31.78Z"/>
  <path class="cls-11" d="M2158.92,284.14s10.75-15.08,26.87-4.62c16.11,10.45,6.88,34.79-3.72,45.22-5.8,5.7-12.61,6.12-12.61,6.12l-10.54-46.71Z"/>
  <path class="cls-24" d="M2051.48,294.42c-1.98,1.58-4.13,3.79-1.94,4.57,.6,.21,1.27,.1,1.89-.04,5-1.09,9.62-3.47,14.55-4.84,3.34-.93,6.82-1.4,10.07-2.61,1.04-.39,2.14-.93,2.62-1.94,.46-.98,.19-2.2-.49-3.04-.67-.85-1.68-1.37-2.71-1.69-3.76-1.15-7.81,.19-11.36,1.9-3.61,1.73-7.02,3.84-10.35,6.04-.34,.23-1.28,.86-2.27,1.65Z"/>
  <path class="cls-24" d="M2140.68,274.07c2.48,.5,5.41,1.48,3.82,3.18-.44,.47-1.08,.67-1.7,.83-4.94,1.32-10.14,1.32-15.15,2.36-3.4,.7-6.7,1.88-10.15,2.29-1.11,.13-2.33,.15-3.22-.53-.86-.66-1.17-1.87-.96-2.93,.21-1.06,.86-1.99,1.64-2.74,2.82-2.74,7.04-3.41,10.97-3.52,4-.11,8,.2,11.97,.63,.41,.04,1.53,.18,2.77,.43Z"/>
  <path class="cls-6" d="M2102.72,323.03c-1.41-3.83-2.47-9.1-5.45-12.06-.32-.32-.66-.45-1-.51-4.28-2.61-5.91,20.18-5.96,21.59-.09,3.11,.25,4.39,2.94,5.68,1.64,.79,3.63,2.08,5.51,1.76,1.49-.26,3.33-1.78,4.61-2.64,1.55-1.04,2.24-2.18,2.21-4.1-.05-3.34-1.75-6.64-2.87-9.71Z"/>
  <path class="cls-11" d="M1787.56,378.77s6.67-12.96,17.77-2.71c11.1,10.25,4.39,30.59-5.22,37.26-5.25,3.65-10.59,3.07-10.59,3.07l-1.97-37.62Z"/>
  <path class="cls-11" d="M1698.63,378.07s-8.66-11.72-17.98,.18c-9.31,11.9,.58,30.9,11.14,35.94,5.77,2.76,10.94,1.33,10.94,1.33l-4.11-37.45Z"/>
  <path class="cls-18" d="M1776.45,367.25c1.48,.35,2.95,.79,4.39,1.24,2.23,.69,4.47,1.4,6.58,2.39,.75,.35,1.51,.76,2.04,1.4,.2,.24,.36,.51,.42,.81,.16,.79-.45,1.54-1.13,1.96-1.5,.93-3.4,.85-5.15,.59-4.67-.71-9.23-2.58-13.93-2.2-1.05,.08-2.12,.28-3.16,.11-2.67-.42-3.41-3.52-1.5-5.32,.94-.89,2.23-1.3,3.5-1.51,2.65-.43,5.32-.1,7.95,.52Z"/>
  <path class="cls-11" d="M2199.5,416.45l-63.85,107.18-26.24-96.78s.97-1.58,1.92-4.38c1.12-3.34,2.22-8.39,1.52-14.53-.3-2.8-1.55-6.66-3.1-10.55-3.1-7.81-7.33-15.75-7.33-15.75l73.52-52.66s3.01,36.55,9.91,55.31c5.41,14.75,13.65,32.17,13.65,32.17Z"/>
  <path class="cls-18" d="M1723.95,374.79c-1.33,.51-2.81,.12-4.23-.09-4.74-.71-9.5,.69-14.26,1.24-1.34,.15-2.71,.24-4.01-.11-2.07-.55-3.8-2.29-2.34-4.4,.59-.85,1.68-1.15,2.69-1.39,1.94-.47,3.89-.93,5.83-1.4,2.76-.66,5.55-1.33,8.41-1.4,1.88-.05,3.77,.17,5.6,.64,1.88,.48,3.94,1.52,4.31,3.43,.27,1.4-.6,2.91-1.99,3.48Z"/>
  <path class="cls-6" d="M1751.44,402.42c-.94-3.42-1.48-8.07-3.84-10.85-.25-.3-.54-.44-.83-.52-3.52-2.57-6.6,17.05-6.74,18.27-.31,2.69-.1,3.82,2.14,5.13,1.36,.8,2.99,2.07,4.65,1.93,1.31-.12,3.02-1.3,4.18-1.95,1.42-.79,2.1-1.73,2.22-3.39,.2-2.9-1.03-5.88-1.78-8.62Z"/>
  <path class="cls-11" d="M1577.35,278.33c-3.26-.21-6.02-2.45-6.88-5.6-2.79-10.19-8.68-32.79-8.31-40.17,.48-9.65,9.09-23.28,13.57-27.55,4.48-4.27,7.62,3.56,7.62,3.56,0,0,3.76,2.03,5.36,5.25,1.6,3.21,1.52,7.35,1.52,7.35,0,0,2.36,1.13,4,3.87,1.64,2.74,.36,13.13,.37,16.75,.01,3.63,3.98,8.12,5.75,17.45,1.76,9.33-6.31,15.62-10.6,18.01-2.5,1.39-8.12,1.35-12.39,1.08Z"/>
  <path class="cls-18" d="M1792.39,328.21c-3.95-2.13-8.61-2.56-13.11-2.94-18.37-1.54-36.74-3.08-55.1-4.62-2.98-.25-6.43-.33-8.44,1.89-2.36-2.61-6.66-.44-9.23,1.98-5.44,5.12-33.33,44.58-16.97,47.98,3.33,.69,6.67-.98,9.5-2.87,11.01-7.37,19.05-19.27,21.06-32.37,4.2,5.63,11.53,7.95,18.49,8.9,6.97,.95,14.16,.88,20.79,3.2,5.69,1.99,10.71,5.64,16.46,7.45,5.92,1.86,13.39,2.38,16.19,7.92,.71,1.41,1.01,3,1.73,4.4,.73,1.4,2.36,3.16,3.94,3.01,.9-.09,1.44-1.12,2.14-1.7,4.38-3.64,6.52-9.51,6.52-15.21,0-5.7-1.94-11.24-4.58-16.3-2.13-4.09-4.87-8.06-8.83-10.41-.19-.11-.37-.22-.56-.32Z"/>
  <path class="cls-26" d="M2070.74,311.65c-.05-1.57-.57-3.14-1.47-4.12-1.05-1.14-2.7-1.77-4.21-1.4-3.55,.89-3.29,5.79-1.88,8.28,.82,1.46,2.44,2.57,4.09,2.35,2.51-.34,3.54-2.72,3.47-5.11Z"/>
  <path class="cls-26" d="M2136.42,301.97c.09-1.57-.3-3.18-1.12-4.23-.95-1.23-2.54-2-4.08-1.75-3.62,.58-3.77,5.48-2.58,8.09,.69,1.52,2.21,2.77,3.88,2.69,2.53-.12,3.76-2.41,3.9-4.79Z"/>
  <g>
    <g class="cls-2">
      <path class="cls-9" d="M2040.86,1234.01c-2.26-12.56-5.3-25.01-8.34-37.42-.54-2.21-1.14-4.52-2.72-6.15-1.96-2.03-4.99-2.55-7.8-2.78-9.95-.83-32.05,.03-39.15,8.67-3.32,4.04-1.39,12.23-1.3,17.2,.12,7.23,.06,14.56-2.13,21.53-3.4,10.8-11.47,19.5-20.16,26.75-8.7,7.25-18.27,13.49-26.26,21.52-5.06,5.09-9.66,11.6-9.13,18.75,.52,6.92,5.97,12.78,12.42,15.34,6.45,2.56,13.69,2.31,20.51,1.03,19.97-3.74,37.38-15.59,56.45-22.6,10.92-4.01,23.74-7.52,28.76-18.01,2.49-5.21,2.49-11.23,2.16-16.99-.52-9.02-1.72-17.95-3.31-26.84Z"/>
      <path class="cls-19" d="M2062.66,1234.76c-.32,0-.64-.07-.95-.21-.09-.04-10.31-4.45-46.74-7.4-37.52-3.03-48.81-7.19-49.28-7.36-1.18-.45-1.77-1.76-1.32-2.94,.45-1.18,1.76-1.76,2.93-1.33,.13,.05,11.45,4.13,48.03,7.08,37.6,3.04,47.86,7.61,48.28,7.81,1.14,.53,1.64,1.88,1.11,3.03-.39,.83-1.21,1.32-2.07,1.32Z"/>
      <path class="cls-19" d="M2060.39,1262.13c-.05,0-.11,0-.16,0-.3-.02-29.82-2.16-57.1-9.97-26.9-7.7-41.43-10.26-41.57-10.29-1.24-.22-2.07-1.4-1.85-2.64,.22-1.24,1.4-2.05,2.64-1.86,.15,.03,14.88,2.63,42.05,10.4,26.83,7.68,55.87,9.78,56.16,9.8,1.26,.09,2.2,1.18,2.12,2.44-.08,1.2-1.09,2.12-2.27,2.12Z"/>
      <path class="cls-19" d="M2036.82,1302.42c-.39,0-.79-.1-1.15-.31l-80.2-46.74c-1.09-.64-1.46-2.03-.82-3.12,.63-1.09,2.03-1.45,3.12-.82l80.2,46.74c1.09,.64,1.46,2.03,.82,3.12-.42,.73-1.19,1.13-1.97,1.13Z"/>
      <path class="cls-19" d="M2004.51,1311.92c-.26,0-.52-.04-.78-.14-.91-.33-22.45-8.17-38.43-18.07-15.93-9.86-33.55-24.79-33.72-24.94-.96-.81-1.08-2.25-.26-3.21,.82-.96,2.26-1.07,3.22-.26,.17,.15,17.54,14.86,33.17,24.54,15.58,9.64,37.37,17.58,37.59,17.66,1.18,.43,1.8,1.74,1.37,2.92-.34,.93-1.21,1.51-2.14,1.51Z"/>
      <path class="cls-19" d="M1971.82,1327.12c-.45,0-.9-.13-1.29-.4l-56.63-39.15c-1.04-.72-1.3-2.14-.58-3.17,.72-1.03,2.14-1.29,3.17-.58l56.63,39.15c1.04,.72,1.3,2.14,.58,3.17-.44,.64-1.15,.98-1.88,.98Z"/>
    </g>
    <g class="cls-29">
      <path class="cls-9" d="M2176.94,1168.49c-1.06-2.01-2.21-4.11-4.13-5.31-2.4-1.49-5.46-1.26-8.24-.8-9.85,1.62-35.21,15.72-39.99,25.83-2.24,4.73,1.63,12.2,2.92,17,1.88,6.99,3.6,14.11,3.17,21.4-.67,11.3-6.38,21.71-13.05,30.86-6.67,9.15-14.44,17.53-20.23,27.26-3.67,6.17-6.55,13.6-4.29,20.41,2.18,6.59,8.91,10.94,15.78,11.86,6.88,.92,13.84-1.09,20.14-3.99,18.46-8.49,32.46-24.22,49.26-35.65,9.62-6.55,21.2-13.07,23.51-24.47,1.15-5.66-.32-11.5-2.04-17.01-2.7-8.62-16.85-56.09-22.81-67.38Z"/>
      <path class="cls-19" d="M2118.91,1219.94c-1.21,0-2.22-.95-2.28-2.17-.06-1.26,.91-2.33,2.16-2.39,.23-.01,23.03-1.18,45.42-4.54,22.21-3.34,40.69-10.81,40.87-10.88,1.17-.48,2.5,.08,2.97,1.25,.47,1.17-.08,2.5-1.25,2.97-.77,.31-19.14,7.74-41.92,11.16-22.62,3.4-45.64,4.57-45.87,4.58-.04,0-.08,0-.11,0Z"/>
      <path class="cls-19" d="M2221.52,1246.93c-.34,0-.69-.08-1.01-.24-1.54-.73-15.46-4.82-40.02-8.91-24.84-4.14-59.06-3.36-61.21-3.04-1.28,.19-2.41-.66-2.61-1.9-.19-1.24,.63-2.4,1.86-2.6,2.98-.49,37.56-1.15,62.7,3.04,24.11,4.02,39.1,8.25,41.29,9.33,1.13,.56,1.59,1.93,1.03,3.06-.4,.8-1.21,1.27-2.04,1.27Z"/>
      <path class="cls-19" d="M2202.19,1283.03c-.24,0-.49-.04-.74-.13-.44-.15-1.27-.59-5.33-2.74-7.22-3.82-20.64-10.94-32.51-16.34-16.18-7.37-52.59-11.78-52.95-11.82-1.25-.15-2.14-1.29-1.99-2.54,.15-1.25,1.3-2.11,2.53-2,1.52,.18,37.48,4.54,54.3,12.2,11.99,5.46,25.49,12.62,32.75,16.47,2.36,1.25,4.39,2.33,4.77,2.49,1.13,.48,1.71,1.79,1.26,2.94-.35,.9-1.19,1.47-2.1,1.47Z"/>
      <path class="cls-19" d="M2170.22,1299.38c-.3,0-.6-.06-.9-.18-1.14-.49-2.57-1.44-4.95-3.02-4.01-2.67-10.73-7.13-22.23-13.42-17.31-9.48-46.27-11.49-46.56-11.51-1.26-.08-2.21-1.17-2.13-2.43,.08-1.26,1.2-2.19,2.43-2.12,1.23,.08,30.27,2.1,48.46,12.06,11.67,6.39,18.49,10.92,22.56,13.63,2.01,1.33,3.46,2.3,4.22,2.62,1.16,.49,1.7,1.83,1.2,2.99-.37,.86-1.21,1.38-2.1,1.38Z"/>
      <path class="cls-19" d="M2141.72,1313.82c-.31,0-.63-.07-.94-.2-17.99-8.14-59.97-27.15-61.14-27.93-1.05-.7-1.33-2.11-.63-3.16,.68-1.02,2.04-1.31,3.08-.69,1.95,1.05,37.24,17.07,60.57,27.62,1.15,.52,1.66,1.87,1.14,3.02-.38,.84-1.21,1.34-2.08,1.34Z"/>
    </g>
  </g>
  <path class="cls-24" d="M2178.34,267.15s.05-.09,.06-.13c1.8-5.04-.74-11.42-2.43-16.15-4.26-11.92-9.85-23.09-23.16-26.18-5.03-1.17-16.23-1.56-22.2,2.06-6.68-4.41-20.57-3.74-26.07-3.82-16.57-.26-34.97-2.91-49.56,6.78-10.23,6.79-16.13,17.25-18.2,29.18-1.36,7.86-1.72,16.49-.73,24.44,1.43,11.54,6.94,21.86,7.08,33.65,.03,3.02,3.66,5.7,6.26,3.22,6.9-6.58,12.4-13.17,16.19-21.99,6.7-15.57,14-25.07,29.79-32.55,10.74-5.09,25.38-11.19,33.08-21.56,3.98,6.72,13.39,12.69,17.26,16.08,4.92,4.3,7.82,11.07,13.96,13.94,5.9,2.75,11.69,3.09,17.64,1.11,3.6-1.2,3.82-6.74,1.03-8.07Z"/>
  <path class="cls-15" d="M2111.32,422.47l11.22,66.96-36.65,283.83-49.82,15.42s-24.97-162.53-24.97-203.91-8.78-91.62,9.63-120.18c31.39-48.7,90.6-42.12,90.6-42.12Z"/>
  <path class="cls-10" d="M2111.32,422.47s-8.11,41.41-12.64,77.11c-4.11,32.37-7.62,108.18-8.56,156.83-.94,48.65-19.73,96.79-10.11,105.41,9.62,8.62,42.97-5.57,96.24,4.56,53.26,10.14,52.96,6.08,52.96,6.08,0,0-16.82-303.32-16.4-325.35,.42-22.03-17.27-39.33-17.27-39.33,0,0-44.58,86.59-57.23,85.83-13.99-.84-26.99-71.14-26.99-71.14Z"/>
  <path class="cls-24" d="M2217.36,778.29c-2.28,0-147.47-21.27-182.44,15.97-34.97,37.24-10.64,144.43,9.12,200.68,19.76,56.25,55.49,127.71,60.05,140.63,4.56,12.92,18.44,67.65,32.78,69.93,14.35,2.28,71.36-6.08,80.48-23.57,9.12-17.48-12.16-63.09-19.76-79.82-7.6-16.72-8.29-30.39-11.75-66.89-3.46-36.49-22.03-74.55-17.31-97.19,2.38-11.4,83.79-24.48,83.79-24.48l-34.97-135.28Z"/>
  <path class="cls-15" d="M2195.54,407.78s-15.29,80.89-9.61,174.13c2.5,40.99,11.03,108.2,13.57,140.12,2.53,31.93-1.4,48.9-4.44,63.6-3.04,14.7,7.09,49.66,8.61,73.99,1.52,24.33-2.12,96.79,6.04,127.2,8.15,30.41,19.3,42.57,36.53,29.9,17.23-12.67,51.69-87.17,85.14-122.64,33.45-35.47,41.69-92.71,37.64-130.97-4.05-38.26-4.31-143.96-15.96-199.19-11.66-55.24-18.56-111.13-47.89-131.87-29.33-20.75-109.62-24.27-109.62-24.27Z"/>
  <path class="cls-24" d="M2093.58,772.24s-131.66,7.39-171.17,50.14c-46.37,50.17-24.33,132.27-14.44,174.08,9.88,41.81,39.53,149.75,41.81,161.91,2.28,12.16,9.12,40.99,19.76,45.55,10.64,4.56,73.53,1.58,76.02-13.63,2.48-15.2-6.81-85.9-8.34-101.1-1.52-15.2,0-100.14,0-100.14l56.36-216.82Z"/>
  <path class="cls-20" d="M752.96,1277.71c-1.68,0-3.04-1.36-3.04-3.04v-294.74c0-1.68,1.36-3.04,3.04-3.04s3.04,1.36,3.04,3.04v294.74c0,1.68-1.36,3.04-3.04,3.04Z"/>
  <path class="cls-20" d="M2389.04,1277.71c-1.68,0-3.04-1.36-3.04-3.04v-350.05c0-1.68,1.36-3.04,3.04-3.04s3.04,1.36,3.04,3.04v350.05c0,1.68-1.36,3.04-3.04,3.04Z"/>
  <g>
    <rect class="cls-18" x="2606.56" y="745.36" width="494.11" height="568.75" rx="16.85" ry="16.85"/>
    <g>
      <path class="cls-24" d="M2878.53,853.15h-49.83c-5.89,0-10.66-4.77-10.66-10.66h0c0-5.89,4.77-10.66,10.66-10.66h49.83c5.89,0,10.66,4.77,10.66,10.66h0c0,5.89-4.77,10.66-10.66,10.66Z"/>
      <path class="cls-24" d="M2878.53,1037.34h-49.83c-5.89,0-10.66-4.77-10.66-10.66h0c0-5.89,4.77-10.66,10.66-10.66h49.83c5.89,0,10.66,4.77,10.66,10.66h0c0,5.89-4.77,10.66-10.66,10.66Z"/>
      <path class="cls-24" d="M2878.53,1218.06h-49.83c-5.89,0-10.66-4.77-10.66-10.66h0c0-5.89,4.77-10.66,10.66-10.66h49.83c5.89,0,10.66,4.77,10.66,10.66h0c0,5.89-4.77,10.66-10.66,10.66Z"/>
    </g>
    <path class="cls-24" d="M3072.79,938.18h-449c-1.68,0-3.04-1.36-3.04-3.04s1.36-3.04,3.04-3.04h449c1.68,0,3.04,1.36,3.04,3.04s-1.36,3.04-3.04,3.04Z"/>
    <path class="cls-24" d="M3072.79,1117.58h-449c-1.68,0-3.04-1.36-3.04-3.04s1.36-3.04,3.04-3.04h449c1.68,0,3.04,1.36,3.04,3.04s-1.36,3.04-3.04,3.04Z"/>
  </g>
  <polygon class="cls-25" points="1188.94 821.45 1124.38 782.09 1119.82 812.19 1175.06 829.83 1188.94 821.45"/>
  <g>
    <path class="cls-24" d="M1398.52,396.6c2.49-5.77,4.78-11.72,7.83-17.09,4.14-7.3,9.8-13.67,13.73-21.09,3.79-7.15,5.87-15.1,7-23.11,.65-4.56,.98-9.33-.5-13.69-1.49-4.36-5.2-8.25-9.79-8.67,2.36-8.18-2.46-16.63-7.74-23.31-5.11-6.46-11.46-12.75-19.59-14.08-4.89-.8-9.99,.29-14.82-.83-6.91-1.6-11.95-7.35-17.92-11.16-12.46-7.96-30.07-6.76-41.34,2.81-4.07,3.46-7.38,7.88-11.94,10.66-4.95,3.02-10.84,3.84-15.96,6.49-5.56,2.88-10.19,7.63-12.19,13.62-1.42,4.24-1.93,8.73-3.08,13.06-1.14,4.29-2.92,8.46-3.2,12.89-.74,11.57,9.14,21.52,20.04,25.47s22.81,3.5,34.37,4.36c11.91,.88,23.74,3.2,35.67,2.89,11.93-.31,24.42-3.65,32.67-12.27-3.2,19.66-6.4,39.31-9.61,58.97-.68,4.19-1.37,8.39-1.83,12.61-.15,1.34-.03,3.09,1.26,3.5,.85,.27,1.74-.25,2.46-.79,7.03-5.24,10.95-13.06,14.48-21.24Z"/>
    <path class="cls-11" d="M1287.52,332.43s-8.23,44.27-7.1,73.77c1.12,29.5,17.33,45.5,31.89,50.22,14.56,4.72,44.55,3.17,59.06-16.72,8.52-11.69,21.04-40.35,21.88-64.42,.83-24.06-1.96-45.7-1.96-45.7,0,0-68.44-23.82-69.6-24.11s-9.05-3.48-17.1,3.57c-8.06,7.05-17.05,23.39-17.05,23.39Z"/>
    <path class="cls-11" d="M1380.41,371.02s12.06-10.06,23.03,1.98-1.83,30.03-12.77,36.3c-5.98,3.43-11.66,2.31-11.66,2.31l1.4-40.59Z"/>
    <path class="cls-24" d="M1285.86,357.37c.18,1.88,2.64,2.86,4.06,2.8,1.95-.08,5.76-.51,7.7-.67,3.36-.27,6.77,.62,10.11,.12,1.47-.22,3.12-.92,3.48-2.37,.3-1.17-.41-2.41-1.41-3.08-1-.67-3.62-3.28-13.63-1.97-5.07,.67-8.95,3-9.62,3.67-.54,.54-.73,1.03-.69,1.49Z"/>
    <path class="cls-24" d="M1370.95,362.37c-.3,1.87-2.82,2.68-4.23,2.53-1.94-.21-5.71-.88-7.64-1.17-3.34-.49-6.79,.18-10.09-.53-1.46-.32-3.05-1.12-3.32-2.59-.22-1.18,.57-2.38,1.61-2.98,1.05-.6,3.82-3.04,13.72-1.08,5.02,1,8.74,3.57,9.36,4.29,.5,.57,.66,1.08,.59,1.53Z"/>
    <path class="cls-6" d="M1326.67,390.36c-.36-3.81-.08-8.84-2.07-12.23-.21-.36-.49-.57-.78-.7-3.26-3.38-10.16,16.89-10.53,18.16-.82,2.8-.81,4.04,1.32,5.85,1.3,1.1,2.8,2.75,4.58,2.9,1.42,.12,3.45-.83,4.81-1.3,1.65-.57,2.55-1.45,2.98-3.19,.75-3.04,0-6.44-.3-9.49Z"/>
    <path class="cls-24" d="M1406.76,334.39c-.62-2.86-1.71-5.58-3.4-7.97-4.8-6.77-13.35-9.54-21.31-11.9-11.46-3.4-22.92-6.79-34.39-10.19-11.42-3.38-22.97-6.79-34.86-7.53-16.43-1.02-39.94,3.9-42.93,23.37-.91,5.89,.81,12.25,4.98,16.5,4.17,4.25,10.82,6.08,16.42,4.04,3.28-1.2,6.18-3.62,9.66-3.93,2.32-.21,4.6,.55,6.9,.95,4.15,.72,8.51,.24,12.41-1.37,5.16-2.13,9.8-6.25,15.38-6.15,3.11,.05,6.02,1.44,8.91,2.59,7.28,2.88,15.45,4.32,22.98,2.14,5.58,9.07,11.23,18.09,16.95,27.07,1.39,2.18,2.96,4.5,5.41,5.31,3.3,1.1,6.83-1.01,9.24-3.51,5.37-5.56,7.98-13.39,8.31-21.12,.12-2.77-.06-5.6-.65-8.31Z"/>
    <g>
      <path class="cls-10" d="M1335.64,421.37c-.93,1.61-2.57,2.75-4.24,3.61-4.05,2.1-8.77,2.9-13.29,2.25-2.62-.4-5.85-1.41-7.49-3.69-1.08-1.51-1.3-2.77-.92-3.87,1.05-3.25,7.28-4.8,10.42-5.68,1.52-.44,3.26-.84,5.01-1.05,3.47-.43,7.11-.09,9.6,2.25,.29,.26,.54,.53,.79,.85,1.21,1.49,1.08,3.7,.12,5.34Z"/>
      <path class="cls-16" d="M1335.64,421.37c-.93,1.61-2.57,2.75-4.24,3.61-4.05,2.1-8.77,2.9-13.29,2.25-2.62-.4-5.85-1.41-7.49-3.69-1.08-1.51-1.3-2.77-.92-3.87,2.65,0,7.33-.16,13.34-1.12,4.53-.69,8.65-2.11,11.69-3.37,.29,.26,.54,.53,.79,.85,1.21,1.49,1.08,3.7,.12,5.34Z"/>
    </g>
    <path class="cls-26" d="M1299.12,375.06c.84-1.03,1.38-2.32,1.36-3.45-.03-1.31-.74-2.63-1.91-3.23-2.76-1.41-5.32,1.86-5.81,4.23-.29,1.39,.12,3,1.3,3.78,1.79,1.18,3.77,.24,5.06-1.32Z"/>
    <path class="cls-26" d="M1358.13,382.1c.7-1.13,1.05-2.49,.88-3.6-.21-1.3-1.09-2.51-2.33-2.95-2.92-1.03-5.02,2.56-5.18,4.98-.1,1.41,.53,2.95,1.8,3.57,1.93,.93,3.77-.28,4.83-2Z"/>
    <path class="cls-11" d="M1396.25,488l-22.56,21.83-42.3-11.89-3.83-21.22-3.25-18.06-1.37-7.6s17.82-15.72,18.58-15.72,43.78-23.53,43.78-23.53l10.95,76.2Z"/>
    <path class="cls-7" d="M1354.33,465.37c-6.52,3.93-19.25,9.1-26.76,11.35l-3.25-18.06s14.72-2.1,22.2-7.6c7.51-5.5,17.39-10.28,19.67-6.84,2.28,3.44-.7,14.43-11.85,21.16Z"/>
  </g>
  <g>
    <path class="cls-18" d="M1114.49,155.44c-.03-.54-.08-1.08-.16-1.62-.99-6.85-6.1-12.33-11.4-16.77-5.3-4.45-11.18-8.51-14.76-14.42-3.44-5.67-4.41-12.47-6.74-18.68-5.67-15.16-20.19-26.63-36.25-28.63-8.99-1.12-18.22,.5-27.12-1.2-8.92-1.71-17.24-6.71-26.33-6.61-12.5,.13-22.86,9.76-35.02,12.68-5.96,1.43-12.54,1.33-17.62,4.76-4.42,2.99-6.83,8.12-8.9,13.04-3.83,9.09-7.21,18.37-10.15,27.79-2.91,9.35-2.46,19.66-.66,29.18,1.97,10.4,3.91,20.69,5.08,31.25,2.02,18.12,3.52,38.22,16.73,50.79,1.28,1.22,2.92,2.42,4.66,2.08,2.89-.56,3.33-4.52,2.8-7.42-3.23-17.67-16.71-33.42-14.86-51.29,3.36,1.24,7.74,2.25,10.04-.49,2.67-3.17-.1-7.83-2.48-11.22-5.54-7.89-9.17-18-6.24-27.19,1.56,4.18,7.77,4.6,11.39,1.99,3.62-2.61,5.41-6.99,7.48-10.93,3.07-5.85,7.24-11.27,12.8-14.84,5.68-3.64,12.45-5.13,19.12-6.07,10.47-1.47,21.1-1.73,31.63-.78,8.78,.79,18.84,3.43,22.39,11.5,1.42,3.23,2.76,7.88,6.28,7.52,.9-.09,1.71-.56,2.45-1.08,3.59-2.52,6-6.65,6.43-11.01,4.39,5.72,10.18,10.18,15.59,14.96,5.41,4.77,10.62,10.11,13.31,16.81,2.68,6.7,2.31,15.05-2.59,20.34-2.3,2.49-5.46,4.2-7.24,7.08-2.73,4.42-1.54,10.42-4.19,14.89-1.63,2.76-4.73,5.04-4.53,8.24,.17,2.79,2.86,4.73,5.45,5.77,9.01,3.61,20.17,.96,26.59-6.33,5.68-6.45,7.41-15.34,10.63-23.31,2.74-6.78,6.74-13.61,6.38-20.79Z"/>
    <path class="cls-11" d="M1078.73,179.4c1.04-12.74,.65-26.26-6.04-37.13-6-9.75-16.4-16.08-27.23-19.81-10.83-3.72-22.28-5.17-33.52-7.38-12.15-2.38-25.12-5.61-36.55-.85-9.45,3.94-16.06,12.78-20.2,22.15-13.68,30.98-18.04,67.8-15.13,101.28,1.64,18.82,28.55,46.61,37.33,52.71,12.58,8.74,28.65,14.22,43.71,11.4,15.06-2.82,25.45-10.41,32.52-24,7.72-14.86,11.77-26.67,14.98-40.95,4.22-18.76,8.42-37.6,10.05-56.76,.02-.22,.04-.45,.06-.67Z"/>
    <path class="cls-11" d="M947.86,178.35s-13.51-6.38-19.13,4.85c-9.01,17.99,11.7,41.47,11.7,41.47l7.44-46.32Z"/>
    <path class="cls-26" d="M985.45,198.11c.63-1.44,.82-3.08,.43-4.36-.46-1.48-1.69-2.76-3.21-3.06-3.59-.72-5.44,3.83-5.23,6.68,.12,1.67,1.11,3.37,2.7,3.87,2.41,.77,4.37-.95,5.32-3.14Z"/>
    <path class="cls-26" d="M1059.77,212.39c.63-1.44,.83-3.08,.44-4.36-.46-1.48-1.68-2.76-3.2-3.07-3.59-.72-5.45,3.82-5.25,6.67,.12,1.67,1.1,3.37,2.69,3.88,2.41,.77,4.37-.94,5.33-3.13Z"/>
    <path class="cls-18" d="M963.2,176.5c1.74,4.24,9.12,3.08,12.67,3.3,6.22,.38,12.38,1.44,18.63,1.68,5.63,.22,9.02-5.09,4.05-9.33-2.53-2.16-6.55-2.5-9.69-3.01-5.1-.83-10.24-1.15-15.37-1.71-5.7-.62-13.24,1.86-10.29,9.06Z"/>
    <path class="cls-18" d="M1080.82,196.74c-3,3.47-9.62,.03-13.07-.89-6.02-1.61-12.2-2.57-18.2-4.32-5.41-1.58-6.94-7.69-.88-10.13,3.09-1.24,7.01-.29,10.14,.22,5.1,.83,10.08,2.16,15.12,3.26,5.6,1.22,11.97,5.97,6.88,11.86Z"/>
    <path class="cls-6" d="M1034.39,224.08c-.69-5.01-.59-11.66-3.4-16.04-.3-.47-.68-.72-1.07-.88-2.49-2.38-7.46,7.59-7.93,8.87-1.85,5.08-3.68,10.46-4.99,15.68-.93,3.74-.86,5.37,2.06,7.65,3.35,2.61,5.38,3.95,9.44,2.72,3.13-.95,6.08-1.91,6.8-5.48,.82-4.05-.36-8.5-.91-12.51Z"/>
    <path class="cls-18" d="M1089.1,167.92c.3-19.8-13.23-45.16-33.39-50.89-3.58-1.02-7.71-1.2-10.49,.64-9.94-12.24-36.72-14.35-49.3-12.96-17.58,1.94-46.02,12.22-55.05,30.83-.7,.61-1.36,1.26-2,1.94-14.05,9.06-24.35,28.36-7.26,39.99,14.25,9.69,30.75,6.46,45.13-.73,4.51-1.21,8.89-2.66,12.45-4.84,3.43-2.1,5.24-4.82,7.89-7.7,6.45-6.99,9.89-7.88,19.88-8.3,9.47-.4,25.29-7.28,29.46-17.66,2.16,2.39,4.8,4.39,7.18,5.77,4.03,2.35,7.72,2.08,8.69,8.16,.26,1.66-.66,3.57-.51,5.29,.34,4.01,1.75,5.8,4.83,8.3,2.97,2.42,4.32,2.27,5.47,6.33,.5,1.77-.61,3.97-.03,5.98,.89,3.08,3.21,5.65,6.4,6.46,9.56,2.42,10.55-10.09,10.65-16.6Z"/>
    <path class="cls-10" d="M1015.52,252.7c-3.77-1.31-7.48-2.7-10.82-5.02-2.38-1.65-4.75-3.6-7.62-3.94-3.7-.43-6.12,2.61-6.06,6.04,.07,4.14,3.1,8.07,5.98,10.76,4.92,4.59,11.29,7.6,17.96,8.5,2.76,.37,5.67,.36,8.19-.82,2.52-1.18,4.53-3.76,4.34-6.54-.3-4.37-5-6.56-8.6-7.82-1.13-.4-2.26-.78-3.38-1.17Z"/>
    <path class="cls-11" d="M1015.22,332.73c1.06,4.53,2.07,7.85,2.07,7.85l-23.35,18.55-50.99-2.86-35.58-34.48s17.73-23.81,19.1-31.65c1.37-7.88,12.83-66.83,12.83-66.83l79.21,67.08s-2.07,5.63-3.77,12.1c-.85,3.16-1.61,6.51-2.04,9.52-.76,5.35,.97,14.29,2.52,20.74Z"/>
    <path class="cls-7" d="M1015.22,332.73c-6.2-1.16-16.33-3.92-20.19-9.67-5.72-8.54-20.71-14.44-24.14-21.86-3.41-7.42-1.89-13.5,2.1-13.29,3.98,.18,7.42,4.56,18.82,9.3,11.4,4.74,22.93,5.26,22.93,5.26-.85,3.16-1.61,6.51-2.04,9.52-.76,5.35,.97,14.29,2.52,20.74Z"/>
  </g>
  <path class="cls-10" d="M1016.23,336.79s-6.88,9.98-38.81,8.97c-31.93-1.01-66.73-28.55-66.73-28.55,0,0-51.35,17.17-87.33,35.79-35.98,18.61-40.42,33.31-48.21,54.09-7.79,20.78,21.35,182.87,24.14,213.35,2.79,30.47-.48,151.59,4.32,157.01,4.8,5.41,64.23,21.91,103.76,30.05,39.53,8.15,90.54,19.9,120.14,11.85,29.6-8.06,114.61-9.88,116.89-37.25s-4.78-145.19-9.1-171.8c-4.33-26.61,7.22-199.8-6.46-214.88s-112.6-58.62-112.6-58.62Z"/>
  <g>
    <path class="cls-11" d="M916.59,803.62c9.73-8.13,25.45-8.63,25.45-8.63,0,0,47.66,20.72,62.17,35.22,7.14,7.13,12.14,13,12.62,19.39s-4.72,6.99-11.13,7.03c2.03,3.37,4.4,5.91,4.02,12-.44,7.04-10.79,10.38-16.85,6.21-2.82,4.58-10.19,7.67-15.2,5.7-5.01-1.97-12.03-4.22-15.63-8.22-.95,2.87-4.33,4.37-7.35,4.09-3.01-.27-5.72-1.91-8.22-3.6-12.28-8.3-22.78-19.12-31.33-31.23-4.66-6.6-8.92-14.28-7.91-22.3,.58-4.65,2.94-8.95,6.06-12.44,1.03-1.16,2.14-2.23,3.32-3.21Z"/>
    <polygon class="cls-11" points="942.05 794.99 901.8 772.82 907.09 821.45 939.72 802.47 942.05 794.99"/>
  </g>
  <path class="cls-10" d="M789.88,377.7s-16.89,13.4-52.01,124.52c-35.13,111.11-51.7,160.91-37.33,208.23,14.37,47.32,124.32,91.82,160.13,108.14,46.69,21.27,49.41,20.6,65.79,3.45,16.38-17.14,65.65-83.13,65.65-83.13l-202.23-361.21Z"/>
  <path class="cls-10" d="M1128.83,395.41s22.83,12.23,49.77,149.77c8.12,41.47,16.51,58.76,23.36,72.95,6.85,14.19,120.98,52.46,120.98,52.46l-38.15,106.26s-125.68-.05-170.28-39.58c-44.6-39.53-31.83-316.21-31.83-316.21l46.15-25.66Z"/>
  <path class="cls-11" d="M1085.54,520.38s-31.73-29.44-42.05-34.04c-10.32-4.59-29.07-2.82-35.89-.4-6.81,2.42-.31,9.83-.31,9.83,0,0,.14,4.99,2.64,8.36,2.5,3.37,6.86,5.46,6.86,5.46,0,0-.06,3.06,1.92,6.22,1.98,3.16,13.5,7.3,17.28,9.23,3.77,1.93,6.37,8.44,15.16,15.21,8.8,6.77,19.62,1.67,24.38-1.55,4.76-3.22,10.02-18.33,10.02-18.33Z"/>
  <path class="cls-27" d="M1233.63,602.47l-81.92,61.54s-40.57-29.22-65.46-67.9c-16.75-26.03-35.65-38.53-28.14-48.6,7.51-10.08,21.43-35.73,33.34-35.73s61.59,47.71,70.56,52.7c15.08,8.39,71.62,38,71.62,38Z"/>
  <path class="cls-27" d="M1286.43,491.92s-20.31,7.52-36.18,23.73c-18.51,18.92-34.14,46.25-46.18,56.63-12.04,10.39-31.17,5.91-31.17,5.91l-21.2,85.81s8.02,6.98,35.64,9.76c29.99,3.03,81.62-9.73,81.62-9.73,0,0,33.16-116.84,33.16-117.98s-15.7-54.14-15.7-54.14Z"/>
  <path class="cls-19" d="M1365.94,1084.66c-2.68-6.63-6.48-17.54-14.6-19.19-4.83-.97-10.64,1.49-14.93,3.38-8.36,3.71-16.15,8.15-24.72,11.37-2.43,.88-2.16,4.1-.46,4.96,.46,5.14,1.61,9.82,2.86,15.08,2.43,10.28-8.44,36.54-15.02,47.21-4.74,7.69-10.95,18.52-6.81,27.7,3.89,8.7,14.2,10.86,22.62,8.48,10.02-2.82,16-10.87,22.15-18.66,6.73-8.53,24.66-24.38,28.94-30.95,3.73-5.72,8.16-11.42,9.36-18.31,1.92-11.01-5.41-21.28-9.4-31.08Z"/>
  <path class="cls-19" d="M1466.79,1084.66c-2.68-6.63-6.48-17.54-14.6-19.19-4.83-.97-10.64,1.49-14.93,3.38-8.36,3.71-16.15,8.15-24.72,11.37-2.43,.88-2.16,4.1-.46,4.96,.46,5.14,1.61,9.82,2.86,15.08,2.43,10.28-8.44,36.54-15.02,47.21-4.74,7.69-10.95,18.52-6.81,27.7,3.89,8.7,14.2,10.86,22.62,8.48,10.02-2.82,16-10.87,22.15-18.66,6.73-8.53,24.66-24.38,28.94-30.95,3.73-5.72,8.16-11.42,9.36-18.31,1.92-11.01-5.41-21.28-9.4-31.08Z"/>
  <path class="cls-15" d="M1507.36,756.65s21.28,25.44,15.2,58.89c-6.08,33.45-32.69,52.45-52.45,57.01s-139.66,9.12-178.2-10.64c-18.57-9.53-24.77-50.17-13.37-72.22,11.4-22.04,37.25-41.81,37.25-41.81l191.56,8.77Z"/>
  <path class="cls-15" d="M1296.8,765.25s-67.65,11.43-85.14,38.46c-17.48,27.03,37.25,163.86,47.13,188.94,9.88,25.09,22.04,96.54,38.01,99.58,15.96,3.04,61.85-14.44,68.72-19.76,6.87-5.32-12.15-65.37-14.26-83.62-2.11-18.24-4.84-42.07-8.37-66.13-3.54-24.06-8.45-72.62-6.83-75.26,5.61-9.12-39.27-82.21-39.27-82.21Z"/>
  <path class="cls-15" d="M1465.09,766.93s-69.55-3.4-91.61,20.04c-22.06,23.44,7.14,167.89,12.35,194.34,5.21,26.45,4.3,98.93,19.46,104.8,15.16,5.86,63.44-3.07,71.16-7.07,7.72-4-.19-66.49,1.03-84.82,1.21-18.33,2.82-42.26,3.67-66.56,.85-24.3,4.77-72.96,6.83-75.26,7.16-7.96-22.88-85.47-22.88-85.47Z"/>
  <path class="cls-12" d="M1367.01,869.89c-1.08,0-2.04-.77-2.24-1.87-.17-.93-4.11-22.98-1.69-40.25,2.49-17.72,23.28-36.6,24.16-37.39,.94-.85,2.38-.76,3.22,.17,.84,.94,.77,2.38-.17,3.22-.2,.18-20.44,18.56-22.7,34.64-2.32,16.55,1.62,38.58,1.66,38.8,.23,1.24-.6,2.43-1.83,2.65-.14,.02-.28,.04-.41,.04Z"/>
  <path class="cls-12" d="M1336.55,867.97c-1.06,0-2.02-.75-2.23-1.83l-7.52-37.61c-.25-1.24,.55-2.44,1.79-2.68,1.22-.24,2.44,.55,2.68,1.79l7.52,37.61c.25,1.24-.55,2.44-1.79,2.68-.15,.03-.3,.04-.45,.04Z"/>
  <path class="cls-12" d="M1486.48,861.53c-.09,0-.17,0-.26-.01-1.25-.14-2.15-1.27-2.01-2.52l2.59-22.94c.14-1.25,1.29-2.15,2.52-2.01,1.25,.14,2.15,1.27,2.01,2.52l-2.59,22.94c-.13,1.16-1.12,2.03-2.26,2.03Z"/>
  <path class="cls-27" d="M1404.78,461.51c28.97,0,65.74,18.39,81.71,44.25,30.8,49.89,26.59,154.04,26.59,163.72s26.09,99.99,4.04,103.77c-22.04,3.78-81.89,3.48-118.42,3.49-36.53,.01-61.57,.52-86.39-3.28-24.82-3.8-39.49-2.73-39.49-2.73l-14.03-146.01,27.37-83.52,.27-49.3s30.88-8.38,49.94-10.64c19.06-2.26,39.43-19.76,68.41-19.76Z"/>
  <path class="cls-11" d="M1262.76,615.46c.7-2.1,.08-4.4-1.57-5.88-5.04-4.51-15.67-13.98-19.08-16.86-4.53-3.83-24.71-8.39-31-4.7-6.29,3.69-.44,9.92-1.16,12.57-.72,2.65-6.06,15.07-5.72,22.05,.34,6.98,5.24,16.45,16.02,21.78,10.78,5.34,29.38,2.42,29.75,2.13,2.96-2.3,10.01-22.8,12.77-31.1Z"/>
  <path class="cls-26" d="M1706.49,385.05c-.05,.08-.09,.16-.13,.24-1.59,3.44,4.01,2.11,5.45,1.98,1.6-.14,3.24,.12,4.72,.75,.59,.25,1.19,.56,1.83,.48,1.13-.15,1.72-1.57,1.36-2.65-.36-1.08-1.36-1.81-2.39-2.3-2.8-1.33-6.21-1.33-9.01,0-.72,.35-1.43,.81-1.84,1.49Z"/>
  <path class="cls-26" d="M1784.98,383.91c.06,.07,.11,.14,.16,.22,2.03,3.21-3.7,2.62-5.14,2.68-1.61,.07-3.19,.54-4.58,1.36-.55,.33-1.11,.72-1.75,.72-1.14,0-1.91-1.33-1.7-2.45,.21-1.11,1.11-1.97,2.06-2.59,2.6-1.69,5.98-2.14,8.93-1.18,.76,.25,1.53,.61,2.02,1.23Z"/>
  <path class="cls-10" d="M1749.51,424.61c-2.8,.43-5.59,.78-8.46,.44-2.04-.24-4.17-.69-6.09,.05-2.47,.95-2.98,3.66-1.8,5.8,1.42,2.58,4.62,4.04,7.32,4.77,4.61,1.25,9.61,1.03,14.09-.62,1.85-.68,3.68-1.65,4.87-3.23,1.19-1.57,1.6-3.86,.56-5.54-1.64-2.65-5.31-2.46-7.99-2.06-.84,.12-1.67,.26-2.51,.39Z"/>
  <path class="cls-11" d="M1787.55,499.13s-41.08,13.29-42.23,13.29-40.74-16.33-40.74-16.33c0,0,8.73-9.88,10.22-14.84,.21-.73,.36-2.07,.49-3.83,.49-8.3-.21-25.78-.43-30.74-.03-.85-.06-1.34-.06-1.34l63.82-2.28s.21,31.17,.85,36.85c.64,5.72,8.09,19.22,8.09,19.22Z"/>
  <path class="cls-7" d="M1770.13,466.23c-3.04,5.47-14.96,11.28-29.25,12.44-9.3,.73-19.55-.4-25.6-1.25,.49-8.3-.21-25.78-.43-30.74,0,0,18.09,13.35,29.86,13.99,11.74,.64,18.82-5.56,23.26-5.08,4.44,.52,5.2,5.2,2.16,10.64Z"/>
  <path class="cls-24" d="M1714.46,482.16s-77.73-71.27-85.84-92.74c-8.11-21.47-15.71-117.68-25.85-120.2-10.14-2.52-39.02,5.84-42.06,9.26-3.04,3.42-12.67,83.5-9.63,107.05,3.04,23.55,7.09,51.95,8.61,67.15,1.52,15.2,16.22,51.69,30.91,67.91,14.7,16.22,24.83,31.93,27.37,39.02,2.53,7.09,14.78,40.92,14.78,40.92,0,0,58.77-37.88,58.23-44.46-.54-6.59,23.47-73.9,23.47-73.9Z"/>
  <path class="cls-11" d="M1955.98,306.73c3.23,.48,6.4-1.14,7.9-4.04,4.85-9.39,15.33-30.26,16.5-37.56,1.54-9.54-4.03-24.66-7.53-29.77-3.5-5.11-8.2,1.89-8.2,1.89,0,0-4.1,1.21-6.34,4.01-2.24,2.81-3.01,6.87-3.01,6.87,0,0-2.54,.62-4.72,2.95-2.18,2.33-3.09,12.77-3.85,16.31-.77,3.54-5.59,7.11-9.26,15.87-3.67,8.76,2.91,16.59,6.61,19.83,2.15,1.88,7.66,3.02,11.89,3.64Z"/>
  <path class="cls-24" d="M1779.38,477.5s90.88-53.49,103.29-72.8c12.41-19.31,39.9-111.82,50.34-112.17,10.44-.35,36.95,13.85,39.21,17.83,2.26,3.98-5.02,84.3-12.91,106.71s-17.77,49.33-22.43,63.88c-4.66,14.55-26.64,47.17-44.39,59.97-17.75,12.8-30.94,26.05-34.9,32.46-3.96,6.41-22.99,36.93-22.99,36.93,0,0-49.58-49.3-47.67-55.63,1.9-6.33-7.54-77.17-7.54-77.17Z"/>
  <path class="cls-9" d="M1632.48,758.18s-6.8,72.13,14.62,100.07c21.42,27.95,194.81,22.38,202.23,0,11.9-35.88,5.29-84.44,5.29-84.44l-222.14-15.64Z"/>
  <path class="cls-24" d="M1861.23,531.24l-47.29-62.6s-18.85,9.66-67.36,11.92c-36.12,1.68-69.64-9.12-69.64-9.12l-45.7,63.35c1.45,54.67-9.2,82.41-10.99,137.08-.64,19.58-5.13,51.13-7.02,70.63-1.12,11.51,7.22,36.38,18.22,42.51,38.22,21.31,88.66,6.35,115.13,8.94,26.47,2.59,102.48,6.54,107.81,0,7.07-8.7,11.98-109.54,11.4-119.71-.81-14.24-4.56-142.99-4.56-142.99Z"/>
  <path class="cls-9" d="M1748.41,1013.53c1.79-41.58,9.53-86.62,9.22-128.21-.16-21.47,2.93-42.88,.82-64.35-2.61-26.53-22.96-53.44-51.86-60.61-24.8-6.15-43.39,10.6-52.13,32.48-8.08,20.24-6.86,40.19-5.27,61.35,3.41,45.64,6.53,91.3,9.65,136.96,1.62,23.73,3.41,47.46,4.76,71.2,.02,.39,.04,.79,.05,1.18,.19,6.5-.95,13.61,2.67,19.01,3.95,5.88,25.1,5.85,32.18,6.08,12.02,.39,24.1-.94,35.74-3.93,5.63-1.45,7.54-3.08,11.04-7.72,5.43-7.21,2.8-15.21,1.52-24.14-1.56-10.88,1.14-28.33,1.61-39.31Z"/>
  <path class="cls-28" d="M1849.87,1067.21c.12-.29,.25-.58,.39-.87,3.51-7.65,10.15-13.81,18.04-16.73,5.15-1.91,11.08-2.41,16.05-.08,4.97,2.33,8.56,8,7.35,13.36,7.73,5.03,11.97,13.79,17.07,21.48,6.13,9.25,13.95,17.43,18.79,27.42,2.85,5.87,4.61,12.51,3.43,18.92-1.22,6.62-5.69,12.55-11.72,15.55-6.03,2.99-13.46,2.97-19.47-.06-4.45-2.24-7.97-5.92-11.41-9.53-6.74-7.09-13.48-14.17-20.22-21.26-12.31-12.94-26.39-29.26-18.31-48.19Z"/>
  <path class="cls-9" d="M1825.7,1063.74c-11.69-51.8-23.38-103.61-35.07-155.41-9.34-41.4-45.74-135.38,15.37-153.22,16.78-4.9,42.03-1.07,54.01,11.65,13.22,14.04,17.39,42.24,20.22,61.32,12,80.65,16.92,154.94,28.02,235.72,.26,1.9,.51,3.88-.1,5.7-1.16,3.42-4.91,5.13-8.31,6.35-18.47,6.64-38,10.32-57.61,10.87-3.35,.09-7,0-9.61-2.11-2.58-2.08-3.46-5.56-4.19-8.79-.91-4.02-1.82-8.05-2.72-12.07Z"/>
  <path class="cls-11" d="M1845.13,749.53c-4.09-6.78,.01-16.41-32-16.4-8.84,0-25.21,7.27-29.68,12.07s-10.8,15.47-9.55,18.78c1.26,3.31,5.53,3.59,6.49,5.12,.96,1.53,.39,7.21,2.62,10.3,2.23,3.09,5.52,2.15,10.48,1.86,4.97-.29,7.41,2.26,12.31,2.68,4.9,.42,31.85-6.33,38.85-14.06,6.99-7.73,4.56-13.55,.47-20.34Z"/>
  <path class="cls-7" d="M1781.77,768.39c-.13,0-.27-.02-.4-.05-.81-.22-1.29-1.05-1.07-1.86,.13-.47,3.17-11.61,7.84-16.63,4.48-4.81,8.58-9.03,8.58-9.03,.58-.6,1.55-.62,2.15-.03,.6,.59,.61,1.55,.03,2.15,0,0-4.08,4.2-8.53,8.98-4.16,4.47-7.1,15.24-7.13,15.35-.18,.68-.8,1.13-1.47,1.13Z"/>
  <path class="cls-7" d="M1792.61,777.94c-.18,0-.36-.03-.53-.1-.79-.29-1.19-1.17-.89-1.96,.22-.58,5.36-14.32,8.75-18.44,3.31-4.02,7.4-7.58,7.57-7.73,.63-.55,1.59-.48,2.14,.15,.55,.64,.48,1.59-.15,2.15-.04,.03-4.07,3.55-7.22,7.37-2.55,3.09-6.82,13.73-8.25,17.57-.23,.61-.81,.99-1.42,.99Z"/>
  <path class="cls-7" d="M1804.16,781.74c-.17,0-.34-.03-.5-.09-.79-.28-1.21-1.15-.93-1.94,.11-.3,2.62-7.39,5.71-11.92,3.06-4.49,6.32-7.7,6.45-7.83,.6-.59,1.56-.58,2.15,.02,.59,.6,.58,1.56-.02,2.15-.03,.03-3.19,3.15-6.07,7.38-2.87,4.2-5.33,11.14-5.35,11.21-.22,.62-.81,1.02-1.43,1.02Z"/>
  <path class="cls-15" d="M2060.91,431.86s-52.97,14.99-64.37,103.17c-11.4,88.18-18.58,95.26-23.9,107.43-5.32,12.16-32.84,50.96-59.62,56.98-26.78,6.01-77.64,18.89-80.68,28.3-3.04,9.41-.55,66.46,9.23,69.15,9.78,2.69,53.29-4.91,73.72-3.39,20.44,1.52,101.47-17.44,120.78-32.66,19.31-15.22,28.07-90.49,26.58-92.77-1.49-2.28-1.74-236.2-1.74-236.2Z"/>
  <path class="cls-11" d="M2079.63,764.12c-2.14-3.51-6.25-5.27-10.26-4.39-12.98,2.86-41.58,9.51-49.58,14.24-10.46,6.18-20.61,23.73-22.73,31.22-2.13,7.49,8.42,6.4,8.42,6.4,0,0,4.46,3,8.98,2.9,4.51-.09,9.07-2.61,9.07-2.61,0,0,2.64,1.96,6.65,2.2,4.01,.23,14.82-7.28,18.87-9.39,4.04-2.11,11.37-.32,22.79-3.81,11.42-3.49,13.7-16.15,13.85-22.34,.09-3.59-3.24-9.83-6.04-14.43Z"/>
  <path class="cls-15" d="M2212.42,652.71s-106.07,51.65-118.66,54.16c-12.58,2.5-31.66,15.59-34.85,24.99-3.19,9.4,3.57,30.64,8.24,41.52s18.73,31.2,30.49,33.82c11.76,2.62,70.26-23.69,88-27.18,17.74-3.49,62.04-15.44,79.98-40.41,17.94-24.97-8.38-86.89-8.38-86.89h-44.82Z"/>
  <g>
    <path class="cls-10" d="M2124.39,350.6c0,.15-.03,.33-.03,.49-.18,1.46-1.15,2.77-2.16,3.89-5.2,5.75-13.07,8.94-20.8,8.39-1.88-.12-3.8-.46-5.41-1.4-1.31-.73-2.92-2.28-3.1-3.92-.06-.12-.06-.24-.06-.36,.03-1.89,2.13-3.01,3.59-3.68,5.96-2.68,12.44-4.23,18.06-7.51,1.55-.91,3.22-1.98,5.02-1.73,1.31,.18,2.4,1.06,3.25,2.07l.03,.03c.88,1.06,1.61,2.34,1.61,3.74Z"/>
    <path class="cls-16" d="M2124.39,350.6c0,.15-.03,.33-.03,.49-.18,1.46-1.15,2.77-2.16,3.89-5.2,5.75-13.07,8.94-20.8,8.39-1.88-.12-3.8-.46-5.41-1.4-1.31-.73-2.92-2.28-3.1-3.92,2.58,.15,8.09-.06,15.72-3.13,5.78-2.31,10.76-5.57,14.17-8.06,.88,1.06,1.61,2.34,1.61,3.74Z"/>
  </g>
  <path class="cls-7" d="M2162.83,385.56c0,7.15-8.75,20-17.88,27.46-6.09,4.98-22.8,8.94-29.46,9.33-1.43,.09-2.83,.12-4.17,.12,1.12-3.34,2.22-8.39,1.52-14.53-.3-2.8-1.55-6.66-3.1-10.55,2.8-.27,18.76-2.19,26.7-7.72,8.73-6.08,16.25-13.99,19.73-14.01,4.56-.03,6.66,2.76,6.66,9.9Z"/>
  <path class="cls-4" d="M951.31,784.37c-1.12,0-2.1-.83-2.26-1.97-.04-.26-3.87-26.59-18.89-38.03-3.36-2.56-9.4-7.02-16.91-12.57-28.85-21.31-77.15-56.97-84.22-66.44-4.44-5.95,.49-37.79,12.8-109.01,8.91-51.55,19.01-109.99,16.75-128.63-4.34-35.85-37.06-50.11-37.39-50.25-1.16-.49-1.7-1.83-1.21-2.99,.49-1.16,1.83-1.7,2.99-1.21,.35,.15,35.48,15.38,40.15,53.91,2.34,19.31-7.38,75.56-16.78,129.95-7.73,44.7-17.34,100.33-13.64,105.51,6.67,8.93,56.5,45.73,83.27,65.5,7.53,5.56,13.59,10.03,16.96,12.61,16.52,12.59,20.48,39.87,20.64,41.03,.17,1.25-.7,2.4-1.94,2.57-.11,.01-.21,.02-.32,.02Z"/>
  <path class="cls-4" d="M1119.81,524.39c-1.19,0-2.19-.92-2.27-2.13-.01-.19-1.31-19.22-5.28-45.2-3.99-26.07-14.03-85.26-14.13-85.86-.21-1.24,.63-2.42,1.87-2.63,1.24-.21,2.42,.62,2.63,1.86,.1,.6,10.15,59.82,14.15,85.93,4,26.18,5.31,45.4,5.32,45.59,.08,1.26-.87,2.34-2.12,2.43-.05,0-.1,0-.15,0Z"/>
  <path class="cls-4" d="M1145.01,747.12c-1.14,0-2.13-.86-2.26-2.02l-10.06-87.47c-.14-1.25,.75-2.38,2.01-2.53,1.23-.13,2.38,.75,2.53,2l10.06,87.47c.14,1.25-.75,2.38-2.01,2.53-.09,0-.18,.01-.26,.01Z"/>
  <path class="cls-4" d="M975.54,362.47c-.85,0-1.71,0-2.58-.01-39.57-.41-73.82-31.56-75.26-32.89-.93-.86-.98-2.3-.13-3.22,.85-.93,2.29-.99,3.22-.13,.34,.31,34.42,31.29,72.21,31.68,37.15,.4,46.61-7.64,46.7-7.72,.93-.83,2.36-.77,3.21,.14,.85,.91,.82,2.32-.08,3.18-.39,.37-9.82,8.97-47.29,8.97Z"/>
  <path class="cls-23" d="M1053.21,916.12l-3.01-.45c.01-.08,1.26-8.51,3.13-19.34,1.9-11.03,9.57-26.59,9.89-27.25l2.73,1.35c-.08,.16-7.8,15.83-9.62,26.42-1.86,10.79-3.1,19.18-3.11,19.27Z"/>
  <path class="cls-13" d="M1382.14,626.66c-8.86,0-55.34-3.47-71.4-7.31-17.13-4.1-43.57-7.14-43.84-7.17-1.25-.14-2.15-1.27-2.01-2.52,.14-1.25,1.26-2.15,2.52-2.01,.27,.03,26.98,3.1,44.38,7.27,16.43,3.93,62.88,7.18,70.22,7.2,2.44-4.51,9.44-29.17,15.65-51.04,6.42-22.62,13.06-46,17.85-59.42,10.89-30.52,28.79-36.84,29.55-37.09,1.19-.39,2.49,.24,2.89,1.44,.4,1.19-.24,2.49-1.44,2.89-.16,.05-16.62,6.04-26.7,34.3-4.74,13.28-11.36,36.59-17.76,59.14-14.8,52.11-15.91,53.99-18.72,54.3-.24,.03-.65,.04-1.2,.04Z"/>
  <path class="cls-13" d="M1398.83,706.22c-9.2,0-19.81-.91-32.17-2.86-57.24-9-115.8-49.74-116.38-50.15-1.03-.72-1.28-2.15-.56-3.18,.72-1.03,2.15-1.28,3.18-.56,.58,.41,58.3,40.55,114.48,49.38,59.14,9.3,74.43-5.99,86.02-23.87,12.9-19.9,40.06-88.47,40.33-89.16,.46-1.17,1.78-1.75,2.96-1.28,1.17,.46,1.74,1.79,1.28,2.96-1.12,2.84-27.6,69.69-40.75,89.97-11.35,17.5-26.12,28.75-58.39,28.75Z"/>
  <path class="cls-13" d="M1263.04,602.81s-.06,0-.1,0c-1.26-.05-2.24-1.11-2.18-2.37,.01-.29,1.24-29.12,4.13-52.75,2.9-23.7,8.24-44.19,8.29-44.39,.32-1.22,1.57-1.95,2.79-1.63,1.22,.32,1.95,1.57,1.63,2.79-.05,.2-5.32,20.41-8.18,43.79-2.87,23.46-4.09,52.11-4.11,52.39-.05,1.23-1.06,2.19-2.28,2.19Z"/>
  <path class="cls-13" d="M1403.23,626.66h0l-20.15-.03c-1.26,0-2.28-1.02-2.28-2.28,0-1.26,1.02-2.28,2.28-2.28h0l20.14,.03c1.26,0,2.28,1.02,2.28,2.28,0,1.26-1.02,2.28-2.28,2.28Z"/>
  <path class="cls-12" d="M2034.55,755.33h-.02c-1.26-.01-2.27-1.05-2.26-2.3,.07-6.8,1.8-166.84,6.7-201.59,13.07-92.71,37.22-120,38.24-121.12,.85-.93,2.29-.99,3.22-.15,.93,.85,.99,2.29,.15,3.22-.28,.31-24.28,27.77-37.09,118.68-4.86,34.45-6.64,199.34-6.66,201-.01,1.25-1.03,2.26-2.28,2.26Z"/>
  <path class="cls-12" d="M2199.37,661.27c-.88,0-1.76-.42-2.14-1.21-.69-1.44-.1-2.26,1.11-3l-.03-.05c.11-.05,.22-.09,.34-.13,.44-.25,.95-.49,1.49-.75l11.1-5.37c4.07-5.12,8.19-59.84,10.93-96.12,1.75-23.25,3.27-43.32,4.62-51.88,9.57-60.38,29.92-73.9,30.79-74.45,1.06-.67,2.47-.36,3.15,.71,.67,1.06,.36,2.46-.69,3.14-.31,.21-19.58,13.58-28.73,71.32-1.33,8.37-2.84,28.36-4.58,51.51-5.39,71.5-8.21,97.32-13.29,99.79l-12.87,6.23s-.04,.02-.06,.03c-.02,0-.04,.02-.05,.02l-.14,.07h0c-.29,.1-.61,.15-.92,.15Zm11.79-10.43h0Z"/>
  <path class="cls-12" d="M2203.7,777.84c-1.17,0-2.17-.9-2.27-2.09-.1-1.25,.83-2.35,2.09-2.46,.31-.03,31.85-2.75,76.67-15.97,43.63-12.87,59.79-169.24,59.95-170.82,.12-1.25,1.22-2.19,2.5-2.04,1.25,.12,2.17,1.24,2.04,2.5-.66,6.57-16.65,161.01-63.2,174.74-45.31,13.37-77.27,16.11-77.59,16.14-.06,0-.13,0-.19,0Z"/>
  <path class="cls-4" d="M1780.92,873.37c-1.03,0-1.97-.7-2.22-1.75l-3.85-16.07c-.29-1.23,.46-2.46,1.69-2.75,1.24-.28,2.46,.47,2.75,1.69l3.85,16.07c.29,1.23-.46,2.46-1.69,2.75-.18,.04-.36,.06-.53,.06Z"/>
  <path class="cls-4" d="M1758.41,875.08c-.06,0-.11,0-.17,0-1.26-.09-2.2-1.18-2.11-2.44,.02-.31,2.19-30.88,.79-44.71-1.39-13.71-7.45-29.43-7.51-29.59-.46-1.18,.13-2.5,1.3-2.95,1.17-.45,2.5,.12,2.95,1.3,.26,.66,6.34,16.45,7.79,30.78,1.45,14.23-.68,44.23-.78,45.5-.09,1.2-1.09,2.12-2.27,2.12Z"/>
  <path class="cls-5" d="M1094.61,541.88c-.63,0-1.22-.4-1.44-1.03l-4.18-12.16c-.27-.79,.15-1.66,.94-1.93,.79-.28,1.66,.15,1.93,.94l4.18,12.16c.27,.79-.15,1.66-.94,1.93-.16,.06-.33,.08-.49,.08Z"/>
  <path class="cls-5" d="M1100.38,594.26c-.63,0-1.22-.39-1.44-1.03l-4.18-12.16c-.27-.79,.15-1.66,.94-1.93,.79-.27,1.66,.15,1.93,.94l4.18,12.16c.27,.79-.15,1.66-.94,1.93-.16,.06-.33,.08-.49,.08Z"/>
  <path class="cls-5" d="M1139.14,578.33c-.63,0-1.22-.39-1.44-1.03l-4.18-12.16c-.27-.79,.15-1.66,.94-1.93,.79-.27,1.66,.15,1.93,.94l4.18,12.16c.27,.79-.15,1.66-.94,1.93-.16,.06-.33,.08-.49,.08Z"/>
  <path class="cls-5" d="M1151.7,642.79c-.63,0-1.22-.39-1.44-1.03l-4.18-12.16c-.27-.79,.15-1.66,.94-1.93,.79-.27,1.66,.15,1.93,.94l4.18,12.16c.27,.79-.15,1.66-.94,1.93-.16,.06-.33,.08-.49,.08Z"/>
  <path class="cls-5" d="M1185.2,605.08c-.63,0-1.22-.4-1.44-1.03l-4.18-12.16c-.27-.79,.15-1.66,.94-1.93,.79-.27,1.66,.15,1.93,.94l4.18,12.16c.27,.79-.15,1.66-.94,1.93-.16,.06-.33,.08-.49,.08Z"/>
  <path class="cls-5" d="M1215.61,662.85c-.63,0-1.22-.39-1.44-1.03l-4.18-12.16c-.27-.79,.15-1.66,.94-1.93,.79-.28,1.66,.15,1.93,.94l4.18,12.16c.27,.79-.15,1.66-.94,1.93-.16,.06-.33,.08-.49,.08Z"/>
  <path class="cls-5" d="M1242.9,572.25c-.63,0-1.22-.39-1.44-1.03l-4.18-12.16c-.27-.79,.15-1.66,.94-1.93,.8-.27,1.66,.15,1.93,.94l4.18,12.16c.27,.79-.15,1.66-.94,1.93-.16,.06-.33,.08-.49,.08Z"/>
  <path class="cls-5" d="M1297.54,526.99c-.63,0-1.22-.39-1.44-1.03l-4.18-12.16c-.27-.79,.15-1.66,.94-1.93,.79-.27,1.66,.15,1.93,.94l4.18,12.16c.27,.79-.15,1.66-.94,1.93-.16,.06-.33,.08-.49,.08Z"/>
  <path class="cls-5" d="M1331.12,565.88c-.63,0-1.22-.39-1.44-1.03l-4.18-12.16c-.27-.79,.15-1.66,.94-1.93,.79-.28,1.66,.15,1.93,.94l4.18,12.16c.27,.79-.15,1.66-.94,1.93-.16,.06-.33,.08-.49,.08Z"/>
  <path class="cls-5" d="M1355.67,517.43c-.63,0-1.22-.39-1.44-1.03l-4.18-12.16c-.27-.79,.15-1.66,.94-1.93,.79-.27,1.66,.15,1.93,.94l4.18,12.16c.27,.79-.15,1.66-.94,1.93-.16,.06-.33,.08-.49,.08Z"/>
  <path class="cls-5" d="M1407.41,491.42c-.63,0-1.22-.4-1.44-1.03l-4.18-12.16c-.27-.79,.15-1.66,.94-1.93,.79-.27,1.66,.15,1.93,.94l4.18,12.16c.27,.79-.15,1.66-.94,1.93-.16,.06-.33,.08-.49,.08Z"/>
  <path class="cls-5" d="M1378.76,589.41c-.63,0-1.22-.4-1.44-1.03l-4.18-12.16c-.27-.79,.15-1.66,.94-1.93,.79-.27,1.66,.15,1.93,.94l4.18,12.16c.27,.79-.15,1.66-.94,1.93-.16,.06-.33,.08-.49,.08Z"/>
  <path class="cls-5" d="M1290.51,599c-.63,0-1.22-.4-1.44-1.03l-4.18-12.16c-.27-.79,.15-1.66,.94-1.93,.79-.27,1.66,.15,1.93,.94l4.18,12.16c.27,.79-.15,1.66-.94,1.93-.16,.06-.33,.08-.49,.08Z"/>
  <path class="cls-5" d="M1331.12,642.79c-.63,0-1.22-.39-1.44-1.03l-4.18-12.16c-.27-.79,.15-1.66,.94-1.93,.79-.27,1.66,.15,1.93,.94l4.18,12.16c.27,.79-.15,1.66-.94,1.93-.16,.06-.33,.08-.49,.08Z"/>
  <path class="cls-5" d="M1279.58,691.12c-.63,0-1.22-.39-1.44-1.03l-4.18-12.16c-.27-.79,.15-1.66,.94-1.93,.8-.27,1.66,.15,1.93,.94l4.18,12.16c.27,.79-.15,1.66-.94,1.93-.16,.06-.33,.08-.49,.08Z"/>
  <path class="cls-5" d="M1303.34,752.93c-.63,0-1.22-.39-1.44-1.03l-4.18-12.16c-.27-.79,.15-1.66,.94-1.93,.79-.27,1.66,.15,1.93,.94l4.18,12.16c.27,.79-.15,1.66-.94,1.93-.16,.06-.33,.08-.49,.08Z"/>
  <path class="cls-5" d="M1342.04,715.84c-.63,0-1.22-.39-1.44-1.03l-4.18-12.16c-.27-.79,.15-1.66,.94-1.93,.79-.27,1.66,.15,1.93,.94l4.18,12.16c.27,.79-.15,1.66-.94,1.93-.16,.06-.33,.08-.49,.08Z"/>
  <path class="cls-5" d="M1397.34,671.6c-.63,0-1.22-.39-1.44-1.03l-4.18-12.16c-.27-.79,.15-1.66,.94-1.93,.79-.27,1.66,.15,1.93,.94l4.18,12.16c.27,.79-.15,1.66-.94,1.93-.16,.06-.33,.08-.49,.08Z"/>
  <path class="cls-5" d="M1440.18,634.6c-.63,0-1.22-.39-1.44-1.03l-4.18-12.16c-.27-.79,.15-1.66,.94-1.93,.8-.27,1.66,.15,1.93,.94l4.18,12.16c.27,.79-.15,1.66-.94,1.93-.16,.06-.33,.08-.49,.08Z"/>
  <path class="cls-5" d="M1421.01,559.8c-.63,0-1.22-.39-1.44-1.03l-4.18-12.16c-.27-.79,.15-1.66,.94-1.93,.8-.27,1.66,.15,1.93,.94l4.18,12.16c.27,.79-.15,1.66-.94,1.93-.16,.06-.33,.08-.49,.08Z"/>
  <path class="cls-5" d="M1467.2,514.83c-.63,0-1.22-.39-1.44-1.03l-4.18-12.16c-.27-.79,.15-1.66,.94-1.93,.79-.28,1.66,.15,1.93,.94l4.18,12.16c.27,.79-.15,1.66-.94,1.93-.16,.06-.33,.08-.49,.08Z"/>
  <path class="cls-5" d="M1478.74,586.83c-.63,0-1.22-.39-1.44-1.03l-4.18-12.16c-.27-.79,.15-1.66,.94-1.93,.8-.28,1.66,.15,1.93,.94l4.18,12.16c.27,.79-.15,1.66-.94,1.93-.16,.06-.33,.08-.49,.08Z"/>
  <path class="cls-5" d="M1394.47,755.48c-.63,0-1.22-.39-1.44-1.03l-4.18-12.16c-.27-.79,.15-1.66,.94-1.93,.8-.27,1.66,.15,1.93,.94l4.18,12.16c.27,.79-.15,1.66-.94,1.93-.16,.06-.33,.08-.49,.08Z"/>
  <path class="cls-5" d="M1454.35,721.92c-.63,0-1.22-.39-1.44-1.03l-4.18-12.16c-.27-.79,.15-1.66,.94-1.93,.8-.28,1.66,.15,1.93,.94l4.18,12.16c.27,.79-.15,1.66-.94,1.93-.16,.06-.33,.08-.49,.08Z"/>
  <path class="cls-5" d="M1505.89,754.08c-.63,0-1.22-.39-1.44-1.03l-4.18-12.16c-.27-.79,.15-1.66,.94-1.93,.79-.28,1.66,.15,1.93,.94l4.18,12.16c.27,.79-.15,1.66-.94,1.93-.16,.06-.33,.08-.49,.08Z"/>
  <path class="cls-5" d="M1495.84,674.8c-.63,0-1.22-.39-1.44-1.03l-4.18-12.16c-.27-.79,.15-1.66,.94-1.93,.79-.27,1.66,.15,1.93,.94l4.18,12.16c.27,.79-.15,1.66-.94,1.93-.16,.06-.33,.08-.49,.08Z"/>
  <g>
    <g>
      <path class="cls-14" d="M3036.06,456.36c-11.56-11.18-34-11.95-49.2-1.01-18.1,13.02-15.15,39.62-14.05,58.86,1.63,28.5,6.02,57.32-.25,85.57-2.44,11-5.53,21.73-8.22,32.52-5.6-13.36-11.72-26.85-12.88-41.98-1.28-16.68-1.39-34.65-14.81-46.89-9.54-8.7-22.54-8.39-30.01,2.78-9.44,14.11-2.66,34.91-2.58,50.59,.09,18.43,2.06,36.01,12.62,51.67,8.74,12.96,29.55,39,46.52,34,.17,.24,.34,.48,.53,.7,.09,1.8,.12,3.6,0,5.42-.27,4.2,5.61,4.43,6.91,.93,.37-1,.69-1.99,1-2.97,.65-.04,1.28-.14,1.89-.35,38.25-13.56,52.06-52.62,58.39-89.5,4.24-24.67,12.24-48.75,15.52-73.54,2.64-19.99,3.81-52.08-11.4-66.8Z"/>
      <path class="cls-28" d="M3029.27,489.63c-.08,0-.16,0-.24-.02-.83-.13-1.4-.91-1.27-1.74l2.23-14.26c.13-.83,.92-1.4,1.74-1.27,.83,.13,1.4,.91,1.27,1.74l-2.23,14.26c-.12,.75-.76,1.29-1.5,1.29Z"/>
      <path class="cls-28" d="M2991.28,476.71c-.08,0-.16,0-.24-.02-.83-.13-1.4-.91-1.27-1.74l2.23-14.26c.13-.83,.91-1.4,1.74-1.27,.83,.13,1.4,.91,1.27,1.74l-2.23,14.27c-.12,.75-.76,1.29-1.5,1.29Z"/>
      <path class="cls-28" d="M3004.45,523.33c-.08,0-.16,0-.24-.02-.83-.13-1.4-.91-1.27-1.74l2.23-14.26c.13-.83,.92-1.4,1.74-1.27,.83,.13,1.4,.91,1.27,1.74l-2.23,14.26c-.12,.75-.77,1.29-1.5,1.29Z"/>
      <path class="cls-28" d="M2990.16,582.96c-.08,0-.16,0-.24-.02-.83-.13-1.4-.91-1.27-1.74l2.23-14.26c.13-.83,.91-1.4,1.74-1.27,.83,.13,1.4,.91,1.27,1.74l-2.23,14.26c-.12,.75-.76,1.29-1.5,1.29Z"/>
      <path class="cls-28" d="M3012.81,614.82c-.08,0-.16,0-.24-.02-.83-.13-1.4-.91-1.27-1.74l2.23-14.26c.13-.83,.93-1.4,1.74-1.27,.83,.13,1.4,.91,1.27,1.74l-2.23,14.27c-.12,.75-.76,1.29-1.5,1.29Z"/>
      <path class="cls-28" d="M2980.12,639.9c-.08,0-.16,0-.24-.02-.83-.13-1.4-.91-1.27-1.74l2.23-14.26c.13-.83,.92-1.39,1.74-1.27,.83,.13,1.4,.91,1.27,1.74l-2.23,14.27c-.12,.75-.76,1.29-1.5,1.29Z"/>
      <path class="cls-28" d="M2937.85,654.17c-.08,0-.16,0-.24-.02-.83-.13-1.4-.91-1.27-1.74l2.23-14.26c.13-.83,.91-1.4,1.74-1.27,.83,.13,1.4,.91,1.27,1.74l-2.23,14.26c-.12,.75-.76,1.29-1.5,1.29Z"/>
      <path class="cls-28" d="M2940.08,609c-.08,0-.16,0-.24-.02-.83-.13-1.4-.91-1.27-1.74l2.23-14.26c.13-.83,.92-1.4,1.74-1.27,.83,.13,1.4,.91,1.27,1.74l-2.23,14.26c-.12,.75-.77,1.29-1.5,1.29Z"/>
      <path class="cls-28" d="M2918.91,575.82c-.08,0-.16,0-.24-.02-.83-.13-1.4-.91-1.27-1.74l2.23-14.26c.13-.83,.92-1.39,1.74-1.27,.83,.13,1.4,.91,1.27,1.74l-2.23,14.26c-.12,.75-.76,1.29-1.5,1.29Z"/>
      <path class="cls-28" d="M3025.48,559.82c-.08,0-.16,0-.24-.02-.83-.13-1.4-.91-1.27-1.74l2.23-14.26c.13-.83,.91-1.4,1.74-1.27,.83,.13,1.4,.91,1.27,1.74l-2.23,14.26c-.12,.75-.76,1.29-1.5,1.29Z"/>
    </g>
    <path class="cls-15" d="M3043.28,681.38v23.81c0,22.17-17.97,40.17-40.17,40.17h-68.66c-22.2,0-40.17-18-40.17-40.17v-23.81c0-7.78,6.29-14.08,14.08-14.08h120.84c7.78,0,14.08,6.29,14.08,14.08Z"/>
    <path class="cls-24" d="M3043.28,696.22v8.97c0,22.17-17.97,40.17-40.17,40.17h-68.66c-22.2,0-40.17-18-40.17-40.17v-5.59c5.69-1.37,11.83-1.31,18-.03,12.89,2.68,22.74,3.5,35.79,0,9.64-2.58,17.91-4.14,27.82-2.61,13.35,2.04,26.79,6.51,40.32,6.66,10.16,.12,18-4.77,27.06-7.39Z"/>
  </g>
  <g>
    <path class="cls-20" d="M2563.19,1170.53c-1.68,0-3.04-1.36-3.04-3.04v-172.83c0-1.68,1.36-3.04,3.04-3.04s3.04,1.36,3.04,3.04v172.83c0,1.68-1.36,3.04-3.04,3.04Z"/>
    <path class="cls-20" d="M584.85,1208.79c-1.68,0-3.04-1.36-3.04-3.04v-325.24c0-1.68,1.36-3.04,3.04-3.04s3.04,1.36,3.04,3.04v325.24c0,1.68-1.36,3.04-3.04,3.04Z"/>
  </g>
  <g>
    <path class="cls-28" d="M424.5,877.94c-3.4-31.09-4.65-62.41-3.74-93.67,.85-28.97-9.86-55.59-15.34-83.59-4.14-21.18-5.6-42.83-5.45-64.39,.22-32.67,3.61-67.45-12.23-96.03-16.42-29.62-55.07-46.07-86.76-34.11-31.85,12.02-49.32,46.78-55.75,80.21-12.09,62.85,5.66,130.79,46.95,179.69,9.62,11.39,20.75,22.35,24.99,36.63,3.6,12.1,1.76,25.04,1.97,37.66,.82,49.59,33.2,94.04,36.77,143.51,2.85,39.54-12.38,82.52,6.9,117.15,6.2,11.13,16.4,20.74,28.93,23.04,12.53,2.3,27.01-4.58,30.51-16.83,3.16-11.08-2.78-22.44-5.38-33.67-6.41-27.75,7.81-55.57,13.14-83.55,6.51-34.14-.35-69.19-4.56-103.69-.34-2.79-.66-5.58-.97-8.37Z"/>
    <path class="cls-28" d="M611.54,714.57c-4.04-17.11-12.93-32.97-26.9-43.39-20.74-15.46-47.41-13.95-67.56,1.11-22.25,16.63-24.08,42.3-30.58,67.52-9.4,36.5-32.94,68.14-38.71,105.74-4.01,26.11,1.14,53.01-3.06,79.09-5.09,31.63-23.36,59.31-36.15,88.69-8.6,19.73-14.79,40.51-18.42,61.73-1.99,11.66-2.53,25.4,6.2,33.37,10.79,9.85,29.19,3.83,38.33-7.57s12.24-26.32,17.76-39.85c18.96-46.48,66.16-75.86,89.36-120.38,11.26-21.6,16.35-45.79,24.84-68.62,8.49-22.81,20.36-44.19,30.16-66.46,9.8-22.27,17.63-46.01,17.28-70.35-.1-6.9-.94-13.87-2.54-20.64Z"/>
    <path class="cls-28" d="M418.66,1080.07v-.06c0-.52-.06-1.03-.12-1.55-.09-.76-.18-1.55-.3-2.31-.58-4.01-1.55-7.97-2.77-11.86v-.03c-.7-2.22-1.46-4.41-2.31-6.57-3.31-8.54-7.51-16.63-12.34-24.29-11.92-18.94-27.88-35.45-44.97-50.6-6.17-5.47-12.53-10.76-18.88-15.96-42.75-34.91-89.91-67.75-144.34-80.91-25.97-6.29-50.84-10.73-72.09,8.18-17.27,15.39-28.22,40.32-20.19,63.15,7.88,22.47,30.8,36.58,53.88,42.39,23.11,5.81,47.31,5.17,70.91,8.3,43.27,5.75,86.38,25.94,110.83,62.09,1.34,2.01,2.65,4.04,3.89,6.11,6.08,9.94,11.4,20.37,19.16,29.01,4.8,5.35,10.92,9.94,17.54,12.65,.67,.24,1.34,.49,1.98,.73,5.75,1.98,11.83,2.46,17.73,.76,4.04-1.16,7.63-3.25,10.7-6.08,1.98-1.76,3.74-3.8,5.26-6.05,2.92-4.26,4.93-9.18,5.87-14.23,.79-4.26,.94-8.57,.58-12.86Z"/>
    <path class="cls-15" d="M534.87,1101.48v199.68c0,52.6-42.66,95.26-95.26,95.26h-101.34c-52.63,0-95.29-42.66-95.29-95.26v-199.68c0-13.99,11.34-25.33,25.36-25.33h241.21c13.99,0,25.33,11.34,25.33,25.33Z"/>
    <path class="cls-14" d="M418.86,1058.26c-.12,0-.23,0-.35-.03-1.24-.19-2.1-1.36-1.9-2.6,.16-1.01,3.97-24.99,17.66-52.36,4.86-9.71,11.69-19.11,18.93-29.07,12.99-17.85,27.7-38.1,32.56-63.83,.88-4.68,1.7-9.23,2.51-13.7,6.11-33.91,11.39-63.19,35.82-101.69,26.73-42.14,28.52-77.39,28.53-77.74,.05-1.26,1.13-2.25,2.38-2.18,1.26,.05,2.24,1.12,2.18,2.38-.06,1.48-1.86,36.83-29.24,79.99-23.95,37.75-29.15,66.62-35.18,100.06-.81,4.48-1.63,9.04-2.52,13.73-5.05,26.75-20.08,47.43-33.35,65.67-7.12,9.8-13.85,19.05-18.54,28.42-13.37,26.74-17.19,50.78-17.23,51.02-.17,1.13-1.14,1.93-2.25,1.93Z"/>
    <path class="cls-14" d="M400.57,1000.51c-1.15,0-2.14-.87-2.27-2.05,0,0-2.28-22.06-4.56-43.15-1.1-10.18-5.08-25.89-9.29-42.52-4.38-17.29-8.91-35.17-10.47-48.1-1.09-9.02-1.49-17.62-1.96-27.58-.84-17.94-1.79-38.28-7.15-69.2-5.07-29.24-11.54-40.53-20.51-56.14-5.83-10.15-12.43-21.66-20.4-40.68-20.56-49.11-5.34-121.1-4.69-124.14,.27-1.23,1.48-1.99,2.71-1.75,1.23,.27,2.01,1.48,1.75,2.71-.16,.73-15.57,73.64,4.44,121.42,7.86,18.77,14.39,30.14,20.15,40.18,9.2,16.02,15.84,27.59,21.05,57.63,5.41,31.2,6.41,52.58,7.21,69.77,.46,9.87,.86,18.39,1.93,27.24,1.53,12.64,6.02,30.38,10.37,47.53,4.25,16.79,8.27,32.65,9.4,43.15,2.28,21.1,4.56,43.17,4.56,43.17,.13,1.25-.78,2.37-2.03,2.5-.08,0-.16,.01-.24,.01Z"/>
    <path class="cls-14" d="M355.72,1033.94c-.71,0-1.4-.33-1.85-.94-.32-.44-32.39-43.97-96.56-73-64.3-29.09-117.62-27.45-118.15-27.45-1.29,.12-2.32-.93-2.36-2.19-.05-1.26,.94-2.32,2.19-2.36,.53-.04,54.93-1.68,120.2,27.84,65.34,29.55,98.05,74.03,98.37,74.48,.74,1.02,.51,2.44-.51,3.18-.4,.29-.87,.43-1.34,.43Z"/>
  </g>
  <path class="cls-10" d="M534.87,1122.52v17.82c-3.74,1.12-7.05,1.89-9.49,2.22-17.64,2.46-36.09-1-52.94-6.29-21.59-6.81-44.24-17.18-67.35-12.98-.03,0-.09,0-.15,.03-1.16,.21-2.34,.46-3.53,.76-.03,.03-.09,.03-.12,.03s-.03,.03-.06,.03c-16.85,4.29-29.13,18.06-44.94,24.72-14.81,6.2-30.01,4.44-44.48-1.89-17.15-7.48-31.87-20.4-51.69-19.37-6.45,.33-12.04,1.55-17.15,4.77v-16.69c13.41-5.17,29.71-4.53,43.51,.79,14.6,5.63,27.24,16.54,42.75,19.67,18.85,3.8,32.41-9.18,47.25-18.3,.03,0,.03-.03,.06-.03,.18-.12,.33-.21,.52-.3,6.69-4.04,13.41-6.72,20.13-8.33h.03c4.99-1.25,9.97-1.85,14.99-2.01,3.34-.15,6.66-.03,10,.24,1.55,.12,3.13,.27,4.68,.46,17.24,2.13,34.6,8.24,52.18,13.41,19.31,5.66,38.89,7.24,55.8,1.25Z"/>
  <path class="cls-7" d="M1003.89,856.33c-.37,0-.74-.13-1.03-.41-9.15-8.5-23.01-21.37-23.73-21.97-.7-.46-.84-1.37-.37-2.07,.46-.7,1.46-.85,2.16-.39,.13,.09,.48,.32,24.01,22.2,.61,.57,.65,1.54,.08,2.15-.3,.32-.71,.48-1.11,.48Z"/>
  <path class="cls-7" d="M990.97,875.21c-.49,0-.95-.24-1.24-.63-1.2-1.38-19.97-20.43-32.41-33.01-.59-.6-.58-1.56,.01-2.15,.6-.59,1.56-.58,2.15,.01,32.68,33.06,32.77,33.33,32.92,33.78,.26,.8-.17,1.66-.96,1.92-.16,.05-.32,.08-.48,.08Z"/>
  <path class="cls-7" d="M960.56,871.28c-.43,0-.86-.18-1.16-.53l-15.84-18.62c-.54-.64-.47-1.6,.17-2.14,.64-.54,1.6-.47,2.14,.17l15.84,18.62c.54,.64,.47,1.6-.17,2.14-.29,.24-.64,.36-.98,.36Z"/>
  <path class="cls-7" d="M1041.65,515.06c-.43,0-.84-.18-1.13-.5-.63-.32-3.19-1.07-7.67-2.38l-.87-.26c-6.94-2.03-13.15-1.35-13.2-1.34-.83,.1-1.59-.5-1.69-1.34-.1-.83,.5-1.59,1.33-1.68,.28-.04,6.85-.78,14.41,1.44l.87,.25c8.41,2.46,8.74,2.56,9.29,3.56,.4,.74,.13,1.66-.61,2.06-.23,.12-.48,.18-.73,.18Zm-1.34-.79h0s0,0,0,0Z"/>
  <path class="cls-7" d="M1050.14,504.38c-.49,0-.97-.24-1.27-.68-.48-.36-7.43-4.73-18.3-6.95-11.28-2.31-19.21-.05-19.29-.03-.81,.23-1.65-.23-1.89-1.03-.24-.81,.23-1.65,1.03-1.89,.35-.1,8.74-2.49,20.75-.03,11.75,2.4,19.57,7.27,20.22,8.25,.47,.7,.28,1.64-.42,2.11-.26,.17-.55,.26-.84,.26Z"/>
  <path class="cls-7" d="M1585.01,241.11h-1.52c-.01-1.26-.03-3.36,.59-7.51,.69-4.62,3.6-11.15,3.73-11.42,.34-.77,1.24-1.11,2.01-.76,.76,.34,1.11,1.24,.76,2.01-.03,.06-2.87,6.42-3.49,10.62-.58,3.92-.57,5.86-.56,6.79l-1.52,.28Z"/>
  <path class="cls-7" d="M1572.27,238.56h-.03c-.83-.01-1.49-.68-1.49-1.51,0-.38,.65-8.11,2.33-14.63,1.68-6.53,7.29-13.24,7.53-13.52,.54-.64,1.5-.72,2.14-.18,.64,.54,.72,1.5,.18,2.14-.05,.06-5.4,6.47-6.91,12.32-1.54,5.97-2.21,13.31-2.23,13.9-.03,.82-.71,1.48-1.52,1.48Z"/>
  <path class="cls-7" d="M1957.15,269.83c-.18,0-.36-.03-.53-.1-.79-.29-1.18-1.17-.89-1.96,.13-.44,.8-4.09,.71-7.41-.09-3.42-1.56-10.09-1.58-10.16-.18-.82,.34-1.63,1.16-1.81,.82-.17,1.63,.34,1.81,1.16,.06,.28,1.55,7.03,1.65,10.74,.1,3.64-.65,7.87-.9,8.55-.23,.61-.81,.99-1.42,.99Z"/>
  <path class="cls-7" d="M1968.7,269.83c-.18,0-.36-.03-.53-.1-.79-.29-1.18-1.17-.89-1.96,.02-.05,1.78-4.87,1.43-12.03-.36-7.22-3.92-15.44-3.96-15.53-.34-.77,.01-1.67,.78-2,.77-.33,1.67,.01,2,.78,.16,.35,3.82,8.8,4.21,16.59,.39,7.83-1.54,13.03-1.62,13.25-.23,.61-.81,.98-1.42,.98Z"/>
  <path class="cls-7" d="M2024.66,810.85c-.14,0-.28-.02-.43-.06-.81-.24-1.27-1.08-1.03-1.89,.08-.28,2.06-6.91,7.32-12.48,5.05-5.35,7.89-7.45,11.24-8.33,.8-.23,1.64,.27,1.85,1.09,.21,.81-.27,1.64-1.09,1.85-2.36,.61-4.62,1.99-9.79,7.47-4.74,5.02-6.6,11.19-6.62,11.25-.19,.66-.8,1.09-1.46,1.09Z"/>
  <path class="cls-7" d="M2006.42,809.83c-.84,0-1.52-.68-1.52-1.52,0-1.22,5.61-12.5,8.96-16.55,3.91-4.71,9.17-7.39,10.27-7.8,.78-.3,1.66,.1,1.96,.89,.29,.79-.1,1.66-.89,1.96-.78,.29-5.49,2.67-8.99,6.89-3.35,4.04-7.87,13.72-8.3,14.94-.15,.68-.76,1.19-1.48,1.19Z"/>
</svg>