<?xml version="1.0" encoding="utf-8"?>
<!-- Generator: Adobe Illustrator 27.0.0, SVG Export Plug-In . SVG Version: 6.00 Build 0)  -->
<svg version="1.1" id="Layer_1" xmlns="http://www.w3.org/2000/svg" xmlns:xlink="http://www.w3.org/1999/xlink" x="0px" y="0px"
	 viewBox="0 0 500 500" style="enable-background:new 0 0 500 500;" xml:space="preserve">
<style type="text/css">
	.st0{fill:#263238;stroke:#263238;stroke-miterlimit:10;}
	.st1{fill:#92E3A9;stroke:#263238;stroke-miterlimit:10;}
	.st2{fill:none;stroke:#263238;stroke-miterlimit:10;}
</style>
<g id="Flag">
	<g>
		<path class="st0" d="M234.7,92.7L234.7,92.7c-2.5,0-4.5,2-4.5,4.5v260h9v-260C239.2,94.7,237.2,92.7,234.7,92.7z"/>
		<path class="st1" d="M239.2,97.2c0,0,9.7,16.5,40.7,12.9c31-3.6,48.9-20.3,83.5-7.2c34.6,13.1,31,27.4,51.3,32.2
			c20.3,4.8,34.6,6,34.6,6s-28.6,10.7-48.9,22.7c-20.3,11.9-48.9-6-64.4,1.2c-15.5,7.2-31,26.2-52.5,31c-21.5,4.8-43.8-7.2-43.8-7.2
			L239.2,97.2z"/>
	</g>
</g>
<g id="Hills">
	<g>
		<path class="st2" d="M119.2,431.5c17.9-20.2,57.3-51.7,58-51.7c39.5-21.5,77-29.8,115.4-15.5c0,0,56.3,25.4,71,67.1"/>
	</g>
</g>
</svg>
