<?xml version="1.0" encoding="utf-8"?>
<!-- Generator: Adobe Illustrator 27.0.0, SVG Export Plug-In . SVG Version: 6.00 Build 0)  -->
<svg version="1.1" id="Layer_1" xmlns="http://www.w3.org/2000/svg" xmlns:xlink="http://www.w3.org/1999/xlink" x="0px" y="0px"
	 viewBox="0 0 254 309" style="enable-background:new 0 0 254 309;" xml:space="preserve">
<style type="text/css">
	.st0{fill:#EBEBEB;}
	.st1{fill:#E0E0E0;}
	.st2{fill:#455A64;}
	.st3{fill:#37474F;}
	.st4{fill:#263238;}
	.st5{fill:#FFFFFF;}
	.st6{fill:#FFFFFF;stroke:#27DEBF;stroke-miterlimit:10;}
	.st7{fill:#27DEBF;stroke:#27DEBF;stroke-miterlimit:10;}
	.st8{fill:#27DEBF;}
	.st9{opacity:0.7;fill:#FFFFFF;enable-background:new    ;}
	.st10{opacity:0.1;enable-background:new    ;}
	.st11{opacity:0.2;fill:#FFFFFF;enable-background:new    ;}
	.st12{fill:#FFA8A7;}
	.st13{fill:#F28F8F;}
	.st14{opacity:0.2;enable-background:new    ;}
	.st15{opacity:0.3;enable-background:new    ;}
</style>
<g id="Shadow">
	<path id="XMLID_418_" class="st0" d="M182.3,283.8c9,4.3,23.5,4.3,32.5,0c9-4.3,9-11.2,0-15.5c-9-4.3-23.5-4.3-32.5,0
		C173.3,272.6,173.3,279.5,182.3,283.8z"/>
</g>
<g id="Device">
	<g>
		<path id="XMLID_362_" class="st1" d="M41.9,280.1l94-54.3c1-0.6,1-1.4,0-2l-8.7-5c-1-0.6-2.5-0.6-3.5,0L29.7,273c-1,0.6-1,1.4,0,2
			l8.7,5C39.4,280.6,40.9,280.6,41.9,280.1z"/>
		<path id="XMLID_55_" class="st2" d="M133.3,16.2L48.5,65.1c-2.4,1.4-4.3,4.7-4.3,7.5v201.1c0,2.8,1.9,3.9,4.3,2.5l84.8-48.9
			c2.4-1.4,4.3-4.7,4.3-7.5l0-201.1C137.6,15.9,135.7,14.8,133.3,16.2z"/>
		<path id="XMLID_54_" class="st3" d="M48.5,65.1l84.8-48.9c2.1-1.2,3.9-0.5,4.3,1.7c-0.3-2.6-2.1-5.4-4.3-6.7l-3.5-2
			c-2.4-1.4-6.3-1.4-8.7,0L36.4,58.1c-1.2,0.7-2.3,1.9-3.1,3.2l12.2,7C46.3,67,47.3,65.8,48.5,65.1z"/>
		<path id="XMLID_53_" class="st4" d="M32,266.7c0,2.8,1.9,6.1,4.3,7.5l3.5,2c2.2,1.2,5.5,1.4,7.9,0.3c-2,0.8-3.6-0.4-3.6-2.8V72.6
			c0-1.4,0.5-2.9,1.3-4.3l-12.2-7c-0.8,1.4-1.3,2.9-1.3,4.3L32,266.7z"/>
		<path id="XMLID_52_" class="st5" d="M50.9,91.9L131,45.7c1.4-0.8,2.6-0.2,2.6,1.5l0,148.8c0,1.7-1.2,3.7-2.6,4.5l-80.1,46.2
			c-1.4,0.8-2.6,0.2-2.6-1.5l0-148.8C48.3,94.8,49.4,92.8,50.9,91.9z"/>
		<path id="XMLID_51_" class="st3" d="M90.9,48.3c-0.8,0.5-1.5,1.7-1.5,2.6c0,1,0.7,1.4,1.5,0.9c0.8-0.5,1.5-1.7,1.5-2.6
			C92.4,48.2,91.8,47.8,90.9,48.3z"/>
		<path id="XMLID_50_" class="st3" d="M90.9,230.7c-3.3,1.9-6,6.6-6,10.4c0,3.8,2.7,5.4,6,3.5c3.3-1.9,6-6.6,6-10.4
			C96.9,230.4,94.2,228.8,90.9,230.7z"/>
		<g id="XMLID_47_">
			<path id="XMLID_49_" class="st3" d="M76.5,63.8c-1.7,1-3,3.3-3,5.3s1.4,2.7,3,1.8s3-3.3,3-5.3C79.6,63.6,78.2,62.8,76.5,63.8z"/>
			<path id="XMLID_48_" class="st3" d="M84,63.1c0,1.3,1,1.8,2.2,1.1l20-11.6c1.2-0.7,2.2-2.3,2.2-3.6c0-1.3-1-1.8-2.2-1.1l-20,11.6
				C85,60.2,84,61.8,84,63.1z"/>
		</g>
		<path id="XMLID_46_" class="st3" d="M38.8,98.4c1.3,0.8,2.4,2.7,2.4,4.2c0,1.6-1.1,2.2-2.4,1.4c-1.3-0.8-2.4-2.7-2.4-4.2
			S37.4,97.6,38.8,98.4z"/>
		<path id="XMLID_45_" class="st3" d="M38.8,117.1c1.3,0.8,2.4,2.7,2.4,4.2s-1.1,2.2-2.4,1.4c-1.3-0.8-2.4-2.7-2.4-4.2
			C36.3,117,37.4,116.4,38.8,117.1z"/>
		<path id="XMLID_267_" class="st2" d="M38,98.7c1.3,0.8,2.4,2.7,2.4,4.2s-1.1,2.2-2.4,1.4c-1.3-0.8-2.4-2.7-2.4-4.2
			C35.6,98.6,36.7,98,38,98.7z"/>
		<path id="XMLID_44_" class="st2" d="M38,117.5c1.3,0.8,2.4,2.7,2.4,4.2c0,1.6-1.1,2.2-2.4,1.4c-1.3-0.8-2.4-2.7-2.4-4.2
			S36.7,116.7,38,117.5z"/>
		<g id="XMLID_294_">
			<path id="XMLID_43_" class="st6" d="M149.8,51.9c0-1.7-1.2-2.3-2.6-1.5l-9.6,5.5L67.1,96.6c-1.4,0.8-2.6,2.8-2.6,4.5l0,148.8
				c0,1.7,1.2,2.3,2.6,1.5l70.5-40.7l9.6-5.5c1.4-0.8,2.6-2.8,2.6-4.5L149.8,51.9z"/>
			<path class="st7" d="M66,252.3c-0.3,0-0.6-0.1-0.9-0.2c-0.7-0.4-1-1.1-1-2.1l0-148.8c0-1.8,1.3-4,2.8-4.9l70.5-40.7l0.5,0.9
				L67.4,97.1c-1.3,0.7-2.3,2.6-2.3,4.1l0,148.8c0,0.6,0.2,1.1,0.5,1.2s0.8,0.1,1.3-0.2l70.5-40.7l0.5,0.9l-70.5,40.7
				C66.9,252.1,66.4,252.3,66,252.3z"/>
			<path class="st7" d="M137.9,211.1l-0.5-0.9l9.6-5.5c1.3-0.7,2.3-2.6,2.3-4.1l0-148.8c0-0.6-0.2-1.1-0.5-1.2
				c-0.3-0.2-0.8-0.1-1.3,0.2l-9.6,5.5l-0.5-0.9L147,50c0.9-0.5,1.7-0.6,2.3-0.2c0.7,0.4,1,1.1,1,2.1l0,148.8c0,1.8-1.3,4-2.8,4.9
				L137.9,211.1z"/>
		</g>
		<g>
			<path id="XMLID_42_" class="st8" d="M107.2,86.5c9-5.2,16.2-1,16.2,9.4s-7.3,23-16.2,28.1c-9,5.2-16.2,1-16.2-9.4
				C90.9,104.2,98.2,91.6,107.2,86.5z"/>
			<path id="XMLID_41_" class="st8" d="M107.2,94.6c2.9-1.7,5.3-0.3,5.3,3c0,3.4-2.4,7.4-5.3,9.1c-2.9,1.7-5.3,0.3-5.3-3
				C101.9,100.4,104.3,96.3,107.2,94.6z"/>
		</g>
		<path id="XMLID_274_" class="st8" d="M117.4,112.5c0-5.5-3.9-7.8-8.7-5l-3,1.7c-4.8,2.8-8.7,9.5-8.7,15v1.5
			c2.8,0.9,6.2,0.4,10-1.8c3.9-2.3,7.5-5.9,10.3-10.2V112.5z"/>
		<g>
			<path id="XMLID_5_" class="st9" d="M107.2,94.6c2.9-1.7,5.3-0.3,5.3,3c0,3.4-2.4,7.4-5.3,9.1c-2.9,1.7-5.3,0.3-5.3-3
				C101.9,100.4,104.3,96.3,107.2,94.6z"/>
			<path id="XMLID_4_" class="st9" d="M117.4,112.5c0-5.5-3.9-7.8-8.7-5l-3,1.7c-4.8,2.8-8.7,9.5-8.7,15v1.5c2.8,0.9,6.2,0.4,10-1.8
				c3.9-2.3,7.5-5.9,10.3-10.2V112.5z"/>
		</g>
		<g>
			<path id="XMLID_482_" class="st8" d="M75.7,146.8l20.9-12.1c1-0.6,1.7-0.1,1.7,1v0.7c0,1.1-0.8,2.4-1.7,3l-20.9,12.1
				c-1,0.6-1.7,0.1-1.7-1v-0.7C74,148.7,74.8,147.4,75.7,146.8z"/>
			<path id="XMLID_7_" class="st10" d="M75.7,146.8l20.9-12.1c1-0.6,1.7-0.1,1.7,1v0.7c0,1.1-0.8,2.4-1.7,3l-20.9,12.1
				c-1,0.6-1.7,0.1-1.7-1v-0.7C74,148.7,74.8,147.4,75.7,146.8z"/>
		</g>
		<g>
			<path id="XMLID_483_" class="st8" d="M74.9,161.4l63.3-36.5c0.5-0.3,0.9-0.1,0.9,0.5v7.4c0,0.6-0.4,1.2-0.9,1.5l-63.3,36.5
				c-0.5,0.3-0.9,0.1-0.9-0.5v-7.4C74,162.4,74.4,161.7,74.9,161.4z"/>
			<path id="XMLID_10_" class="st11" d="M74.9,161.4l63.3-36.5c0.5-0.3,0.9-0.1,0.9,0.5v7.4c0,0.6-0.4,1.2-0.9,1.5l-63.3,36.5
				c-0.5,0.3-0.9,0.1-0.9-0.5v-7.4C74,162.4,74.4,161.7,74.9,161.4z"/>
		</g>
		<g>
			<path id="XMLID_512_" class="st8" d="M75.7,179.7l20.9-12.1c1-0.6,1.7-0.1,1.7,1v0.7c0,1.1-0.8,2.4-1.7,3l-20.9,12.1
				c-1,0.6-1.7,0.1-1.7-1v-0.7C74,181.6,74.8,180.2,75.7,179.7z"/>
			<path id="XMLID_8_" class="st10" d="M75.7,179.7l20.9-12.1c1-0.6,1.7-0.1,1.7,1v0.7c0,1.1-0.8,2.4-1.7,3l-20.9,12.1
				c-1,0.6-1.7,0.1-1.7-1v-0.7C74,181.6,74.8,180.2,75.7,179.7z"/>
		</g>
		<g>
			<path id="XMLID_511_" class="st8" d="M74.9,194.2l63.3-36.5c0.5-0.3,0.9-0.1,0.9,0.5v7.4c0,0.6-0.4,1.2-0.9,1.5l-63.3,36.5
				c-0.5,0.3-0.9,0.1-0.9-0.5v-7.4C74,195.2,74.4,194.5,74.9,194.2z"/>
			<path id="XMLID_11_" class="st11" d="M74.9,194.2l63.3-36.5c0.5-0.3,0.9-0.1,0.9,0.5v7.4c0,0.6-0.4,1.2-0.9,1.5l-63.3,36.5
				c-0.5,0.3-0.9,0.1-0.9-0.5v-7.4C74,195.2,74.4,194.5,74.9,194.2z"/>
		</g>
		<g>
			<path id="XMLID_510_" class="st8" d="M100.1,198.4l25-14.4c1-0.6,1.7-0.1,1.7,1v7.7c0,1.1-0.8,2.4-1.7,3l-25,14.4
				c-1,0.6-1.7,0.1-1.7-1v-7.7C98.4,200.3,99.1,199,100.1,198.4z"/>
			<path id="XMLID_9_" class="st10" d="M100.1,198.4l25-14.4c1-0.6,1.7-0.1,1.7,1v7.7c0,1.1-0.8,2.4-1.7,3l-25,14.4
				c-1,0.6-1.7,0.1-1.7-1v-7.7C98.4,200.3,99.1,199,100.1,198.4z"/>
		</g>
	</g>
</g>
<g id="Character">
	<g>
		<path id="XMLID_276_" class="st12" d="M159.3,165.9c0,0-12.3-16.9-13-19c-0.6-1.5,0-3.8,0.2-4.8c0.1-1.1,0.3-3.4,0.5-4
			c0.3-1.1-1.2-0.9-2,0.1c-0.8,1.1-1.1,3.1-1.5,3.5c-0.4,0.3-3.7-4.4-5.4-6.6c-1.7-2.2-2.8-3.5-3.8-2.7c-0.8,0.6-0.2,1.9,1,3.8
			s1.8,2.8,2,3.2c0.2,0.4-0.8,0.4-1.4,1.3c-0.4,0.7,0,1.7-0.6,2.2s-1.1,1.4-0.5,2.5c0.8,1.3,2.4,3.2,4.2,4.5
			c1.8,1.3,2.6,1.7,3.7,3.5c1.1,1.7,10.9,19.4,11.5,20.5c0.7,1.1,1.9,3.2,3.9,3.3c1.9,0.1,17.7-13.5,18.5-14.2
			c2.6-2.2,3.4-2.5,3.9-0.5c0.1,0.6,0.2,1.3,0.3,2.1c0.3,2.5,2,11.3,2,11.3s8,3.9,14.6,2c6.6-1.9,8.8-4.7,8.8-4.7l-3.3-5.4
			c0.9-2.2,5-11.2,6.3-17.4l-20.6-3.3c-0.4-0.1-1.1-0.3-2-0.5c-1.1-0.3-4-1.3-6.2,0.6C173.4,153,159.3,165.9,159.3,165.9"/>
		<path id="XMLID_287_" class="st3" d="M200.1,269.8l-3.7,5.1c0,0,1.7,1,5.4,1.1c3.3,0.1,4.2-1,4.3-1.2c0.6-1.2-0.3-3.4-0.6-5.2
			L200.1,269.8z"/>
		<path id="XMLID_284_" class="st3" d="M196.7,272.5c0,0-4.5-0.3-7.6-0.7c-3.1-0.4-5.5,1.1-4.8,2.4c0.7,1.3,2.4,2.3,5.1,3.2
			c2.3,0.8,5,1.3,7.4,2c2.4,0.7,4,1.6,5.4,1.1c1.5-0.5,2.2-1.1,2.1-2.3c-0.1-1.1-1.2-4.7-1.2-4.7L196.7,272.5z"/>
		<path id="XMLID_288_" class="st13" d="M206.1,264.6c0,0-0.6,4.7-0.6,5.7c0,1-4.5,1.3-5.4-0.5l-0.1-5.7L206.1,264.6z"/>
		<path id="XMLID_285_" class="st12" d="M201.6,267.5l1.6,7.1c0,0,0.2,0.9-3.5,1.4c-3.7,0.5-9.5-1.9-10.4-2.4
			c-1-0.5-1.1-1.5,2.5-1.3c3.6,0.2,4.9,0.2,4.9,0.2l-1.2-3.1L201.6,267.5z"/>
		<path id="XMLID_282_" class="st13" d="M209.2,150l2.5-0.7c0,0,5.3,16.9,5.9,18.5c0.6,1.6,1.3,3.4,0.1,5.4c-1.4,2.4-8.6,12-8.6,12
			l-4.6-4.5l5.2-9.5l-4.6-9.3L209.2,150z"/>
		<path id="XMLID_280_" class="st3" d="M183,128.1c0,0-2-3.3,0.1-7.3c2.5-4.7,8.2-7,14.9-6.1c3.1,0.4,6.8,3,8.8,6.9
			c2.2,4.3,2.4,12.9,3,16.2L183,128.1z"/>
		<path id="XMLID_14181_" class="st12" d="M182.8,129.9c0,0-1.6,3.1-1.3,3.3c0.3,0.3,1.3,0.5,1.3,0.5L182.8,129.9z"/>
		<path id="XMLID_270_" class="st12" d="M187.7,120.3c-1.7,1.1-4.7,3.2-4.9,10.1c-0.1,7,0.9,9.3,1.9,10.1c0.7,0.6,4.8,0.3,6.6-0.1
			c1.8-0.4,6.8-2.9,8.7-6.7c2.1-4.5,1.7-11-1.5-12.9C194,118,189.2,119.3,187.7,120.3z"/>
		<g>
			<path id="XMLID_283_" class="st8" d="M206.1,172.8c3.1,4.8,6,9,6.6,14.4c1.3,11.4-3,24.4-3.9,32.8c0,0,2.9,3.8,2.9,8.2
				c0,3.5-5.6,36.3-5.6,36.3s-4.1,1.2-6.1-0.5l-3.9-60.4l2-7.4L206.1,172.8z"/>
			<path id="XMLID_12_" class="st14" d="M206.1,172.8c3.1,4.8,6,9,6.6,14.4c1.3,11.4-3,24.4-3.9,32.8c0,0,2.9,3.8,2.9,8.2
				c0,3.5-5.6,36.3-5.6,36.3s-4.1,1.2-6.1-0.5l-3.9-60.4l2-7.4L206.1,172.8z"/>
		</g>
		<g>
			<path id="XMLID_40_" class="st8" d="M196.1,203.7l2-7.4c0,0,5.6-1.4,11-4.4c0,0-2.1,3.8-8.1,5.9l-3.1,9.5l-0.3,21.6L196.1,203.7z
				"/>
			<path id="XMLID_14_" class="st15" d="M196.1,203.7l2-7.4c0,0,5.6-1.4,11-4.4c0,0-2.1,3.8-8.1,5.9l-3.1,9.5l-0.3,21.6L196.1,203.7
				z"/>
		</g>
		<g>
			<path id="XMLID_281_" class="st8" d="M206.1,172.8c1.6,2.7,5.6,7.3,4.8,11.7c-1,5.4-3.9,9.1-12.7,11.8l-8.3,30c0,0,4.3,4,5.6,7.9
				c1.3,3.8,6.1,33.4,6.1,33.4s-1.5,2.4-6.1,1.8c0,0-16.2-37-17.4-39.4c-1.1-2.4-1.9-4.2-1.4-8c0.5-3.9,6-46.4,6-46.4L206.1,172.8z"
				/>
			<path id="XMLID_13_" class="st14" d="M206.1,172.8c1.6,2.7,5.6,7.3,4.8,11.7c-1,5.4-3.9,9.1-12.7,11.8l-8.3,30c0,0,4.3,4,5.6,7.9
				c1.3,3.8,6.1,33.4,6.1,33.4s-1.5,2.4-6.1,1.8c0,0-16.2-37-17.4-39.4c-1.1-2.4-1.9-4.2-1.4-8c0.5-3.9,6-46.4,6-46.4L206.1,172.8z"
				/>
		</g>
		<g>
			<path id="XMLID_286_" class="st8" d="M209.2,150l-20.6-3.3c-0.4-0.1-1.1-0.3-2-0.5l0,0c0,0-0.9,12.9-6.2,15.9h0
				c0.1,0.6,0.2,1.3,0.3,2.1c0.3,2.5,2,11.3,2,11.3s8,3.9,14.6,2c6.6-1.9,8.8-4.7,8.8-4.7l-3.3-5.4
				C203.8,165.2,207.9,156.3,209.2,150z"/>
			<path id="XMLID_15_" class="st9" d="M209.2,150l-20.6-3.3c-0.4-0.1-1.1-0.3-2-0.5l0,0c0,0-0.9,12.9-6.2,15.9h0
				c0.1,0.6,0.2,1.3,0.3,2.1c0.3,2.5,2,11.3,2,11.3s8,3.9,14.6,2c6.6-1.9,8.8-4.7,8.8-4.7l-3.3-5.4
				C203.8,165.2,207.9,156.3,209.2,150z"/>
		</g>
		<path id="XMLID_543_" class="st8" d="M203.8,165.4c-0.1,0.2-6.6,3.7-8.6,4.2c3.1-0.2,5.6-0.9,7.7-2.1L203.8,165.4z"/>
		<path id="XMLID_277_" class="st3" d="M187.2,120.6c0,0-1,6.5,1.4,10.3c0,0,0.9-2.6,3.1-2.1c2.2,0.5,2.3,3.4,0.8,5
			c-1.5,1.6-3.2,1-3.2,1s-0.3,4.7-0.5,8.6c-0.2,3.8-1.2,12.5,3.2,16c4.4,3.5,15.5,4.7,20.8-2.6c2.9-4.1-1-11.2-2.7-19.2
			c-1.6-7.4-2.6-18.3-10.4-20.1C191.6,115.9,187.2,120.6,187.2,120.6z"/>
	</g>
</g>
</svg>
